<svg width="144" height="60" viewBox="0 0 144 60" fill="none" xmlns="http://www.w3.org/2000/svg">
<g clip-path="url(#clip0)">
<path fill-rule="evenodd" clip-rule="evenodd" d="M141.246 19.9336H141.879C142.158 19.9336 142.467 20.0412 142.467 20.3982C142.467 20.7998 142.081 20.8352 141.73 20.8352H141.246V21.0079H141.842L142.541 22.0756H142.757L142.065 21.0096C142.398 20.9617 142.663 20.7793 142.663 20.3999C142.663 19.9814 142.436 19.7599 141.909 19.7599H141.04V22.0755H141.246V19.9336H141.246Z" fill="#492376"/>
<path fill-rule="evenodd" clip-rule="evenodd" d="M141.755 18.9628C142.839 18.9628 143.713 19.8314 143.713 20.9209C143.713 22.0049 142.839 22.877 141.755 22.877C140.669 22.877 139.795 22.0049 139.795 20.9209C139.795 19.8314 140.669 18.9628 141.755 18.9628L141.76 19.1338C140.749 19.1338 139.996 19.9074 139.996 20.9211C139.996 21.9102 140.758 22.7082 141.76 22.7082C142.757 22.7082 143.512 21.9043 143.512 20.9191C143.512 19.9225 142.766 19.1338 141.76 19.1338L141.755 18.9628Z" fill="#492376"/>
<path fill-rule="evenodd" clip-rule="evenodd" d="M39.9602 19.3795C39.1104 18.9554 36.0717 17.7184 33.2429 17.7184C31.2978 17.7184 29.9183 18.7096 29.9183 20.2292C29.9183 25.0046 41.8305 25.2873 41.8305 32.8516C41.8305 38.1537 37.868 40.0944 32.641 40.0944C29.7067 40.0944 26.9167 39.2508 26.0316 39.0027V34.6856C27.904 35.857 30.6285 37.3019 33.3883 37.3019C34.9373 37.3019 37.1985 36.6374 37.1985 34.3373C37.1985 28.8216 25.6396 28.9261 25.6396 21.2181C25.6396 17.298 28.6129 14.9273 33.879 14.9273C36.4582 14.9273 39.0394 15.4218 39.9601 15.5968V19.3795H39.9602Z" fill="#492376"/>
<path fill-rule="evenodd" clip-rule="evenodd" d="M43.9492 31.2973C43.9492 24.8964 46.9541 22.4924 51.726 22.4924C56.4993 22.4924 59.4691 24.8964 59.4691 31.2973C59.4691 37.6902 56.4993 40.0945 51.726 40.0945C46.9541 40.0944 43.9492 37.6902 43.9492 31.2973ZM51.726 38.4381C54.6585 38.4381 54.8369 35.0091 54.8369 31.2973C54.8369 27.5818 54.6583 24.1527 51.726 24.1527C48.8288 24.1527 48.5811 27.5818 48.5811 31.2973C48.5811 35.0091 48.8288 38.4381 51.726 38.4381Z" fill="#492376"/>
<path d="M67.1284 15.3158H62.8516V39.7058H67.1284V15.3158Z" fill="#492376"/>
<path fill-rule="evenodd" clip-rule="evenodd" d="M70.5479 31.2974C70.5479 24.8965 73.5471 22.4925 78.3224 22.4925C83.0922 22.4925 86.0638 24.8965 86.0638 31.2974C86.0638 37.6903 83.0922 40.0946 78.3224 40.0946C73.5471 40.0944 70.5479 37.6903 70.5479 31.2974ZM78.3224 38.4381C81.2568 38.4381 81.4316 35.0091 81.4316 31.2974C81.4316 27.5819 81.2568 24.1527 78.3224 24.1527C75.4233 24.1527 75.1743 27.5819 75.1743 31.2974C75.1743 35.0091 75.4233 38.4381 78.3224 38.4381ZM78.287 14.0424H82.5269L79.5908 19.9483H76.6582L78.287 14.0424Z" fill="#492376"/>
<path fill-rule="evenodd" clip-rule="evenodd" d="M98.6773 39.8886C97.6548 39.9903 96.6615 40.0945 95.6722 40.0945C92.351 40.0945 90.3019 39.2509 90.3019 35.427V24.9321H87.1553V22.8772H90.3019V18.922L94.5714 16.3427V22.8772H99.3132V24.9321H94.5714V34.9012C94.5714 37.1288 95.2168 37.6591 96.7677 37.6591C97.3684 37.6591 98.0789 37.6237 98.6773 37.4081V39.8886Z" fill="#492376"/>
<path fill-rule="evenodd" clip-rule="evenodd" d="M102.35 15.3158H106.629V19.2025H102.35V15.3158ZM102.35 22.877H106.629V39.7061H102.35V22.877Z" fill="#492376"/>
<path fill-rule="evenodd" clip-rule="evenodd" d="M123.723 39.0726C121.992 39.7063 120.649 40.0945 118.492 40.0945C113.579 40.0945 109.721 37.3759 109.721 30.6207C109.721 25.7801 112.058 22.4907 117.324 22.4907C122.31 22.4907 123.831 24.7536 123.831 28.5729H119.264C119.264 25.5995 118.985 24.1527 117.148 24.1527C115.203 24.1527 114.357 26.7674 114.357 29.1719C114.357 33.5587 116.549 37.9078 120.398 37.9078C121.708 37.9078 122.697 37.6236 123.723 37.2684V39.0726H123.723Z" fill="#492376"/>
<path fill-rule="evenodd" clip-rule="evenodd" d="M135.463 37.4842H135.396C134.933 38.2951 133.274 40.0945 130.623 40.0945C127.969 40.0945 125.92 38.328 125.92 35.8865C125.92 30.6947 133.059 30.3728 135.463 30.2705V27.4367C135.463 24.9656 134.723 24.1529 133.347 24.1529C131.117 24.1529 131.155 26.8047 131.084 27.9058H126.519C126.519 24.3611 128.891 22.4908 133.381 22.4908C138.682 22.4908 139.74 24.9658 139.74 28.3241V39.7065H135.463V37.4842ZM135.463 31.9319C134.016 32.0711 130.34 32.5317 130.34 35.2915C130.34 36.701 131.048 37.6592 132.285 37.6592C134.299 37.6592 135.463 35.5372 135.463 33.1696V31.9319H135.463Z" fill="#492376"/>
<path d="M33.0801 43.8397H32.2188V54.7108H33.0801V43.8397Z" fill="#492376"/>
<path fill-rule="evenodd" clip-rule="evenodd" d="M40.3619 54.7111C39.8749 54.8399 39.3245 54.8857 38.785 54.8857C36.3435 54.8857 35.1162 53.4509 35.1162 50.773C35.1162 48.6002 35.9047 47.0382 38.0115 47.0382C39.276 47.0382 40.5051 47.764 40.5051 50.0364H36.0775C36.0775 53.6584 38.0117 54.2368 39.0105 54.2368C39.468 54.2368 39.9678 54.1921 40.3619 54.0475V54.7111ZM39.546 49.4185C39.546 48.8366 39.3581 47.6519 37.887 47.6519C36.4364 47.6519 36.1874 48.8684 36.1447 49.4185H39.546Z" fill="#492376"/>
<path fill-rule="evenodd" clip-rule="evenodd" d="M43.1 49.2566H43.137C43.3195 48.7065 44.0655 47.038 45.6234 47.038C47.3415 47.038 47.5145 48.5035 47.5145 49.4779V54.7108H46.6498V49.7016C46.6498 48.7866 46.555 47.8234 45.4673 47.8234C43.9053 47.8234 43.1 50.4429 43.1 51.3268V54.7108H42.2354V47.2108H43.1V49.2566Z" fill="#492376"/>
<path fill-rule="evenodd" clip-rule="evenodd" d="M53.2836 54.8396C53.0291 54.8563 52.7762 54.8854 52.5101 54.8854C51.5189 54.8854 50.3826 54.7107 50.3826 53.1342V47.8587H49.1514V47.2109H50.3826V45.4632L51.2528 44.9263V47.2109H53.2166V47.8587H51.2528V52.541C51.2528 53.2619 51.2528 54.2737 52.6048 54.2737C52.8389 54.2737 53.0643 54.2367 53.2835 54.1583V54.8396H53.2836Z" fill="#492376"/>
<path fill-rule="evenodd" clip-rule="evenodd" d="M59.6191 54.7111C59.1226 54.8399 58.5794 54.8857 58.0437 54.8857C55.5944 54.8857 54.3711 53.4509 54.3711 50.773C54.3711 48.6002 55.1576 47.0382 57.2646 47.0382C58.5307 47.0382 59.7585 47.764 59.7585 50.0364H55.3306C55.3306 53.6584 57.2646 54.2368 58.2594 54.2368C58.715 54.2368 59.223 54.1921 59.6189 54.0475V54.7111H59.6191ZM58.7931 49.4185C58.7931 48.8366 58.6074 47.6519 57.1417 47.6519C55.6918 47.6519 55.4441 48.8684 55.3956 49.4185H58.7931Z" fill="#492376"/>
<path fill-rule="evenodd" clip-rule="evenodd" d="M65.2298 48.2346C64.9264 48.1075 64.1715 47.6873 63.2845 47.6873C62.5016 47.6873 61.8226 47.983 61.8226 48.7418C61.8226 49.6014 62.5314 49.7939 63.4591 50.2648C64.4989 50.773 65.7129 51.1574 65.7129 52.6524C65.7129 53.6849 65.1626 54.8857 62.9423 54.8857C61.8653 54.8857 61.2244 54.7111 60.8633 54.551V53.5921C61.0506 53.7054 62.0421 54.1587 63.0222 54.1587C64.0875 54.1587 64.7516 53.7363 64.7516 52.788C64.7516 51.6839 63.6486 51.4831 62.1073 50.7115C61.5249 50.3934 60.9395 49.8295 60.9395 48.978C60.9395 47.5558 62.085 47.0382 63.4591 47.0382C64.2308 47.0382 64.891 47.2416 65.2296 47.3064V48.2346H65.2298Z" fill="#492376"/>
<path fill-rule="evenodd" clip-rule="evenodd" d="M75.2018 53.1822H75.1646C75.0439 53.705 74.38 54.8852 72.9965 54.8852C70.977 54.8852 70.501 52.8695 70.501 51.0124C70.501 48.7864 71.3027 47.0378 73.1341 47.0378C74.5531 47.0378 75.0252 48.2342 75.1648 48.7063H75.202V43.8395H76.0666V54.7106H75.202V53.1822H75.2018ZM73.0393 54.2735C74.3149 54.2735 75.2018 52.7247 75.2018 50.8816C75.2018 49.9686 74.5661 47.6516 73.1823 47.6516C71.9236 47.6516 71.4622 49.2887 71.4622 51.0756C71.4622 52.554 71.7915 54.2735 73.0393 54.2735Z" fill="#492376"/>
<path fill-rule="evenodd" clip-rule="evenodd" d="M83.096 54.7111C82.5995 54.8399 82.0512 54.8857 81.5173 54.8857C79.0737 54.8857 77.8408 53.4509 77.8408 50.773C77.8408 48.6002 78.633 47.0382 80.7416 47.0382C82.0007 47.0382 83.2336 47.764 83.2336 50.0364H78.806C78.806 53.6584 80.7416 54.2368 81.7386 54.2368C82.1962 54.2368 82.6943 54.1921 83.096 54.0475V54.7111ZM82.2743 49.4185C82.2743 48.8366 82.0827 47.6519 80.6173 47.6519C79.1649 47.6519 78.9176 48.8684 78.8728 49.4185H82.2743Z" fill="#492376"/>
<path fill-rule="evenodd" clip-rule="evenodd" d="M93.3793 54.7111C92.9421 54.8399 92.468 54.8857 92.0088 54.8857C88.9796 54.8857 88.416 52.6939 88.416 50.7872C88.416 48.1752 89.5672 47.0385 91.2705 47.0385C93.3533 47.0385 93.6657 48.694 93.6657 49.4338H92.578C92.578 48.8162 92.578 47.6521 91.1737 47.6521C89.727 47.6521 89.3775 49.2112 89.3775 50.6131C89.3775 52.7252 90.4151 54.237 92.2487 54.237C92.6243 54.237 93.0055 54.1923 93.3793 54.0664V54.7111Z" fill="#492376"/>
<path fill-rule="evenodd" clip-rule="evenodd" d="M94.8652 50.916C94.8652 48.6938 95.8696 47.0382 97.887 47.0382C99.9045 47.0382 101.024 48.5542 101.024 51.0554C101.024 53.2777 100.049 54.8855 97.9502 54.8855C95.7931 54.8855 94.8652 53.2294 94.8652 50.916ZM97.9317 54.2738C99.5901 54.2738 100.066 52.7567 100.066 51.1033C100.066 49.289 99.5736 47.6519 97.887 47.6519C96.2636 47.6519 95.8229 49.3226 95.8229 50.773C95.8229 52.6603 96.3437 54.2738 97.9317 54.2738Z" fill="#492376"/>
<path fill-rule="evenodd" clip-rule="evenodd" d="M103.909 49.2566H103.937C104.128 48.7065 104.864 47.038 106.426 47.038C108.143 47.038 108.316 48.5035 108.316 49.4779V54.7108H107.451V49.7016C107.451 48.7866 107.358 47.8234 106.27 47.8234C104.712 47.8234 103.909 50.4429 103.909 51.3268V54.7108H103.042V47.208H103.909V49.2566H103.909Z" fill="#492376"/>
<path fill-rule="evenodd" clip-rule="evenodd" d="M114.083 54.8396C113.83 54.8563 113.578 54.8854 113.313 54.8854C112.32 54.8854 111.187 54.7107 111.187 53.1342V47.8587H109.958V47.2081H111.187V45.4632L112.052 44.9263V47.2081H114.023V47.8587H112.052V52.541C112.052 53.2619 112.052 54.2737 113.411 54.2737C113.645 54.2737 113.867 54.2367 114.082 54.1583V54.8396H114.083Z" fill="#492376"/>
<path fill-rule="evenodd" clip-rule="evenodd" d="M119.283 53.5473H119.254C119.093 53.9043 118.353 54.8855 117.093 54.8855C115.88 54.8855 115.092 53.9745 115.092 52.9782C115.092 51.5445 116.366 50.5366 119.283 50.5366V50.0364C119.283 48.8684 119.283 47.6519 117.753 47.6519C116.544 47.6519 116.382 48.4256 116.353 49.0353H115.268C115.378 48.223 115.789 47.0382 117.851 47.0382C119.884 47.0382 120.152 48.3642 120.152 49.6254V54.7111H119.283V53.5473ZM119.283 51.1572C118.563 51.1572 116.051 51.1644 116.051 52.8697C116.051 53.6251 116.637 54.0972 117.358 54.0972C118.794 54.0972 119.283 52.6317 119.283 51.5734V51.1572Z" fill="#492376"/>
<path fill-rule="evenodd" clip-rule="evenodd" d="M125.912 54.8396C125.667 54.8563 125.411 54.8854 125.145 54.8854C124.153 54.8854 123.019 54.7107 123.019 53.1342V47.8587H121.788V47.2081H123.019V45.4632L123.884 44.9263V47.2081H125.855V47.8587H123.884V52.541C123.884 53.2619 123.884 54.2737 125.241 54.2737C125.476 54.2737 125.695 54.2367 125.912 54.1583V54.8396Z" fill="#492376"/>
<path fill-rule="evenodd" clip-rule="evenodd" d="M127 50.916C127 48.6938 128.014 47.0382 130.029 47.0382C132.043 47.0382 133.163 48.5542 133.163 51.0554C133.163 53.2777 132.186 54.8855 130.089 54.8855C127.932 54.8855 127 53.2294 127 50.916ZM130.076 54.2738C131.731 54.2738 132.203 52.7567 132.203 51.1033C132.203 49.289 131.714 47.6519 130.029 47.6519C128.406 47.6519 127.962 49.3226 127.962 50.773C127.962 52.6603 128.482 54.2738 130.076 54.2738Z" fill="#492376"/>
<path fill-rule="evenodd" clip-rule="evenodd" d="M7.91405 11.1844C7.87902 11.6955 7.85657 12.2107 7.85262 12.7335C7.83986 17.5029 9.40579 22.7118 11.1203 28.1863C12.6636 33.1644 14.3132 38.3619 14.6157 43.8377C17.3624 38.3466 18.2793 31.9011 16.7247 25.4657C15.332 19.6565 12.1507 14.7578 7.91405 11.1844Z" fill="#0099D9"/>
<path fill-rule="evenodd" clip-rule="evenodd" d="M1.65478 9.16442C-2.74463 25.8074 14.8555 43.0475 4.33969 59.5324C4.33969 59.5324 10.5138 54.4881 11.5104 46.9987C12.4438 31.688 -1.46972 15.9762 8.14807 0.904358C8.14807 0.904358 4.04202 2.78825 1.65478 9.16442Z" fill="#492376"/>
</g>
<defs>
<clipPath id="clip0">
<rect width="143.713" height="60" fill="white"/>
</clipPath>
</defs>
</svg>
