<?xml version="1.0" encoding="utf-8"?>
<!-- Generator: Adobe Illustrator 23.0.6, SVG Export Plug-In . SVG Version: 6.00 Build 0)  -->
<svg version="1.1" id="Layer_1" xmlns="http://www.w3.org/2000/svg" xmlns:xlink="http://www.w3.org/1999/xlink" x="0px" y="0px"
	 viewBox="0 0 830.77 787.44" style="enable-background:new 0 0 830.77 787.44;" xml:space="preserve">
<style type="text/css">
	.st0{stroke:#000000;stroke-miterlimit:10;}
	.st1{fill:#194DA1;}
	.st2{fill:#2F3181;}
	.st3{fill:#171743;}
	.st4{fill:#2A2866;}
	.st5{fill:#3A63AE;}
	.st6{fill:#3856A6;}
	.st7{fill:#568ECB;}
	.st8{font-family:'FONTSPRINGDEMO-NeogroteskEssAltBlackRegular';}
	.st9{font-size:25.9899px;}
	.st10{fill:none;stroke:#000000;stroke-width:2;stroke-miterlimit:10;}
	.st11{stroke:#000000;stroke-width:3.8037;stroke-miterlimit:10;}
	.st12{opacity:0.77;}
	.st13{fill:none;stroke:#FFFFFF;stroke-width:1.228;stroke-miterlimit:10;}
	.st14{fill:#FFFFFF;}
	.st15{fill:#FFFFFF;stroke:#FFFFFF;stroke-width:3.8037;stroke-miterlimit:10;}
</style>
<g>
	<g>
		<g>
			<g>
				<path class="st1" d="M595.38,338.83c-0.05,0-0.1,0-0.15,0.01c0-0.05,0.03-0.1-0.03-0.13c0-0.02-0.01-0.03-0.03-0.04
					c-0.14-0.71-0.4-1.38-0.61-2.07c-0.18-0.57-0.3-1.16-0.56-1.7c0.01-0.04,0.03-0.07,0.04-0.11c0.14,0.04,0.23-0.07,0.32-0.13
					c0.72-0.5,1.42-1.01,2.14-1.52c0.39-0.27,0.74-0.6,1.18-0.8l0.02,0.01l0.02,0.01c0.35,1.39,0.71,2.78,1.05,4.17
					c0.06,0.23,0.11,0.32,0.33,0.14c1.1-0.87,2.18-1.78,3.25-2.68c0.02,0.01,0.04,0.02,0.06,0.02c-0.03,0.98-0.01,1.96,0.02,2.93
					c0,0.06,0.04,0.09,0.09,0.12c-0.06,0.09-0.15,0.17-0.17,0.29c-0.05,0.02-0.09,0.04-0.14,0.06c-0.08,0.03-0.2,0.01-0.2,0.15l0,0
					c-0.06-0.07-0.12-0.02-0.17,0c-0.72,0.34-1.44,0.67-2.16,1.02c-0.06,0.03-0.18,0.04-0.16,0.17l0,0
					c-0.05-0.05-0.08-0.03-0.09,0.04l0,0c-0.14-0.04-0.24-0.08-0.27-0.27c-0.06-0.47-0.17-0.93-0.23-1.39
					c-0.03-0.24-0.11-0.23-0.29-0.13c-0.49,0.27-0.99,0.52-1.47,0.8C596.59,338.15,595.95,338.43,595.38,338.83L595.38,338.83z"/>
				<path class="st2" d="M598.36,319.22c0.06-0.05,0.12-0.11,0.18-0.16c0.03,0.01,0.06,0.02,0.09,0.04
					c-0.27,0.65-0.53,1.29-0.74,1.81c0.41-0.64,0.73-1.5,1.21-2.27c0,0-0.01,0-0.01,0c0.18-0.07,0.36-0.12,0.43-0.33l0,0
					c0.14,0.03,0.22-0.07,0.32-0.13c0.85-0.51,1.71-1.03,2.56-1.55c0.44-0.27,0.89-0.5,1.29-0.83l0,0c0.05,0.02,0.07-0.01,0.09-0.05
					c0,0,0,0,0,0c0,0.3-0.31,0.45-0.36,0.73c-0.02,0.05-0.03,0.11-0.07,0.15c-0.52,0.61-1,1.24-1.44,1.9
					c-0.27,0.41-0.61,0.76-0.84,1.2c-0.35,0.13-0.58,0.42-0.85,0.66c-1.19,1.1-2.38,2.19-3.58,3.28c-0.15,0.13-0.2,0.33-0.39,0.43
					c-0.78,0.42-1.55,0.87-2.34,1.26c-0.31,0.15-0.58,0.42-0.96,0.39c0.22-0.53,0.42-1.07,0.68-1.57c0.21-0.41,0.34-0.87,0.71-1.21
					c0.89-0.79,1.76-1.59,2.61-2.41c0.25-0.24,0.58-0.4,0.71-0.75c0,0-0.01-0.01-0.01-0.01c0.2,0.05,0.22-0.1,0.27-0.23l0,0
					c0.05,0.02,0.08,0,0.08-0.05c0,0-0.01,0.01-0.01,0.01C598.18,319.5,598.28,319.38,598.36,319.22z"/>
				<path class="st2" d="M604.65,318.17c0.15,0.33,0.16,0.69,0.28,1.03c-0.01,0.05-0.03,0.1,0.03,0.13l0,0
					c-0.04,0.14-0.08,0.28,0.09,0.37c0,0,0,0.01,0,0.01c-0.08,0.1-0.09,0.18,0.05,0.22c0,0,0,0.01,0,0.01
					c-0.04,0.03-0.04,0.06,0,0.09l0,0c0,0.02,0,0.03-0.01,0.05c0.18,0.38,0.23,0.8,0.29,1.21c-0.02,0.08-0.1,0.18,0.04,0.23l0-0.01
					c-0.04,0.11-0.09,0.22,0.05,0.29c0,0,0,0,0,0c-0.09,0.1-0.04,0.2-0.03,0.31c0.16,1.29,0.32,2.58,0.49,3.87
					c0.09,0.65,0.12,1.3,0.28,1.93l0,0c-0.03,0.07-0.05,0.14-0.08,0.21c-0.27,0.88-0.5,1.78-0.82,2.65
					c-0.28-0.67-0.43-1.39-0.66-2.08c-0.15-0.45-0.21-0.94-0.43-1.37c-0.09-1.41-0.17-2.83-0.27-4.24
					c-0.05-0.72-0.05-1.44-0.17-2.16c0.01-0.05,0.04-0.1,0.04-0.16c0.06-1.39,0.11-2.79,0.17-4.18c0.01-0.26-0.06-0.52,0.03-0.78
					c0.01-0.02,0.02-0.03,0.03-0.05c0.21,0.48,0.24,1,0.39,1.49c-0.02,0.04-0.03,0.08,0.03,0.1l0-0.01
					c-0.03,0.12-0.06,0.25,0.09,0.32l0,0c-0.04,0.14-0.05,0.28,0.08,0.38c0,0,0.02,0,0.02,0
					C604.57,318.08,604.65,318.13,604.65,318.17z"/>
				<path class="st3" d="M594,334.89c0.26,0.55,0.38,1.13,0.56,1.7c0.21,0.69,0.47,1.36,0.61,2.07c-0.28,0.09-0.5-0.09-0.75-0.16
					c-0.29-0.28-0.67-0.43-0.99-0.67c-1.45-1.13-2.39-2.58-2.8-4.36l0.03-0.01c0.1,0.07,0.17,0.17,0.22,0.28
					c0.36,0.78,0.73,1.57,1.09,2.35c0.15,0.32,0.16,0.31,0.45,0.08C592.95,335.74,593.44,335.26,594,334.89z"/>
				<path class="st3" d="M597.66,319.82c-0.13,0.35-0.47,0.51-0.71,0.75c-0.86,0.82-1.73,1.63-2.61,2.41
					c-0.37,0.33-0.5,0.8-0.71,1.21c-0.26,0.51-0.46,1.05-0.68,1.57c-0.58,0.79-1.17,1.58-1.74,2.38c-0.15,0.21-0.32,0.42-0.33,0.7
					c-0.03,0.65-0.08,1.29-0.12,1.94c-0.06,0.78-0.12,1.57-0.18,2.35l-0.01,0c-0.3-1.25-0.25-2.5-0.03-3.75
					c0.44-2.44,1.63-4.47,3.41-6.17c1.1-1.05,2.19-2.12,3.33-3.12C597.4,320,597.49,319.86,597.66,319.82z"/>
				<path class="st3" d="M595.37,338.83c0.57-0.41,1.22-0.68,1.82-1.03c0.48-0.28,0.99-0.52,1.47-0.8c0.18-0.1,0.26-0.11,0.29,0.13
					c0.07,0.47,0.18,0.93,0.23,1.39c0.02,0.19,0.13,0.23,0.27,0.27C598.1,339.23,596.74,339.29,595.37,338.83z"/>
				<path class="st3" d="M605.33,330.78c0.32-0.87,0.54-1.76,0.82-2.65c0.02-0.07,0.05-0.14,0.08-0.21c0.25,3.55-0.57,6.7-3.4,9.1
					c-0.14,0.12-0.3,0.22-0.44,0.33c0.01-0.12,0.11-0.19,0.17-0.29c0.03-0.01,0.07-0.02,0.09-0.04c0.73-0.82,1.47-1.65,2.2-2.48
					c0.08-0.09,0.08-0.2,0.09-0.31c0.12-1.07,0.24-2.13,0.36-3.2C605.34,330.96,605.34,330.87,605.33,330.78z"/>
				<path class="st3" d="M606.22,327.92c-0.16-0.63-0.2-1.29-0.28-1.93c-0.18-1.29-0.33-2.58-0.49-3.87
					c-0.01-0.1-0.07-0.21,0.03-0.31c0.27,1.19,0.43,2.39,0.57,3.6C606.14,326.24,606.23,327.08,606.22,327.92z"/>
				<path class="st3" d="M603.69,315.81c-0.4,0.33-0.85,0.56-1.29,0.83c-0.85,0.52-1.7,1.03-2.56,1.55
					c-0.1,0.06-0.19,0.16-0.32,0.13C600.81,317.31,602.15,316.39,603.69,315.81z"/>
				<path class="st3" d="M599.55,338.76c-0.03-0.13,0.09-0.14,0.16-0.17c0.72-0.35,1.44-0.68,2.16-1.02c0.05-0.02,0.12-0.07,0.17,0
					C601.29,338.13,600.47,338.54,599.55,338.76z"/>
				<path class="st4" d="M599.1,318.63c-0.48,0.77-0.8,1.62-1.21,2.27c0.21-0.52,0.48-1.16,0.74-1.81l0,0
					c0.05,0,0.06-0.02,0.03-0.06c-0.01-0.02-0.01-0.04-0.02-0.05C598.78,318.85,598.91,318.71,599.1,318.63z"/>
				<path class="st4" d="M604.07,315.77c-0.01,0.01-0.02,0.03-0.03,0.05c-0.3,0.15-0.36,0.51-0.64,0.68
					c0.05-0.28,0.36-0.43,0.36-0.73C604,315.63,604,315.63,604.07,315.77z"/>
				<path class="st3" d="M599.52,318.31c-0.07,0.2-0.25,0.26-0.43,0.33C599.21,318.5,599.35,318.38,599.52,318.31z"/>
				<path class="st3" d="M598.36,319.22c-0.07,0.16-0.18,0.28-0.36,0.32C598.07,319.38,598.21,319.3,598.36,319.22z"/>
				<path class="st3" d="M604.65,318.05c-0.13-0.11-0.11-0.24-0.08-0.38C604.63,317.79,604.68,317.91,604.65,318.05z"/>
				<path class="st4" d="M605.05,319.7c-0.16-0.09-0.13-0.23-0.09-0.37C605.03,319.44,605.05,319.57,605.05,319.7z"/>
				<path class="st3" d="M604.57,317.67c-0.14-0.08-0.11-0.2-0.09-0.32C604.56,317.45,604.57,317.56,604.57,317.67z"/>
				<path class="st3" d="M597.92,319.58c-0.04,0.13-0.07,0.28-0.27,0.23C597.72,319.7,597.81,319.63,597.92,319.58z"/>
				<path class="st3" d="M605.47,321.81c-0.14-0.08-0.09-0.19-0.05-0.29C605.47,321.61,605.49,321.71,605.47,321.81z"/>
				<path class="st4" d="M605.11,319.93c-0.14-0.04-0.14-0.12-0.05-0.22C605.07,319.78,605.09,319.85,605.11,319.93z"/>
				<path class="st3" d="M605.42,321.52c-0.14-0.05-0.06-0.15-0.04-0.23C605.39,321.37,605.41,321.45,605.42,321.52z"/>
				<path class="st3" d="M602.04,337.57c0-0.14,0.11-0.13,0.2-0.15C602.21,337.51,602.14,337.56,602.04,337.57z"/>
				<path class="st3" d="M604.65,318.17c0-0.04-0.08-0.09,0.01-0.12C604.71,318.09,604.7,318.13,604.65,318.17z"/>
				<path class="st3" d="M590.59,333.33c-0.01-0.06-0.02-0.13-0.03-0.19l0.01,0c0.03,0.06,0.05,0.11,0.08,0.17
					C590.63,333.31,590.61,333.32,590.59,333.33z"/>
				<path class="st4" d="M598.63,319.09c-0.03-0.01-0.06-0.02-0.09-0.04c0.03-0.02,0.06-0.05,0.09-0.07
					c0.01,0.02,0.02,0.03,0.02,0.05C598.64,319.05,598.64,319.07,598.63,319.09L598.63,319.09z"/>
				<path class="st3" d="M590.64,333.46c-0.02-0.04-0.03-0.09-0.05-0.13c0.02-0.01,0.04-0.02,0.06-0.03
					c0.04,0.04,0.03,0.09,0.02,0.14L590.64,333.46z"/>
				<path class="st4" d="M604.96,319.33c-0.07-0.03-0.04-0.08-0.03-0.13C604.97,319.24,604.98,319.28,604.96,319.33z"/>
				<path class="st3" d="M604.49,317.35c-0.06-0.02-0.04-0.06-0.03-0.1C604.51,317.28,604.51,317.31,604.49,317.35z"/>
				<path class="st3" d="M598,319.53c-0.01,0.05-0.03,0.08-0.08,0.05C597.94,319.55,597.95,319.5,598,319.53z"/>
				<path class="st4" d="M605.09,320.08c0-0.02,0.01-0.03,0.01-0.05C605.11,320.05,605.11,320.06,605.09,320.08z"/>
				<path class="st4" d="M605.1,320.03c-0.04-0.03-0.04-0.06,0-0.09C605.13,319.97,605.13,320,605.1,320.03z"/>
				<path class="st3" d="M599.46,338.8c0.01-0.07,0.03-0.09,0.09-0.04C599.54,338.81,599.5,338.81,599.46,338.8z"/>
				<path class="st3" d="M603.78,315.76c-0.02,0.04-0.05,0.06-0.09,0.05C603.7,315.76,603.73,315.75,603.78,315.76z"/>
				<path class="st3" d="M595.2,338.7c0.06,0.03,0.03,0.09,0.03,0.13C595.18,338.8,595.19,338.76,595.2,338.7z"/>
				<path class="st4" d="M590.67,333.45c0.02-0.05,0.02-0.1-0.02-0.14c-0.02-0.06-0.05-0.11-0.08-0.17
					c0.06-0.78,0.12-1.57,0.18-2.35c0.05-0.64,0.09-1.29,0.12-1.94c0.01-0.29,0.18-0.49,0.33-0.7c0.57-0.8,1.16-1.59,1.74-2.38
					c0.38,0.02,0.65-0.24,0.96-0.39c0.8-0.39,1.56-0.84,2.34-1.26c0.19-0.1,0.24-0.3,0.39-0.43c1.2-1.08,2.39-2.18,3.58-3.28
					c0.27-0.25,0.49-0.53,0.85-0.66c-0.09,0.7-0.19,1.4-0.28,2.11c-0.16,1.27-0.32,2.53-0.48,3.8c0,0.05,0,0.09-0.01,0.14
					c-0.11-0.04-0.19,0.03-0.28,0.07c-0.38,0.18-0.76,0.35-1.12,0.55c-0.73,0.41-1.49,0.76-2.25,1.13c-0.16,0.08-0.22,0.2-0.21,0.37
					c-0.13-0.05-0.22,0.05-0.3,0.11c-0.88,0.66-1.75,1.34-2.64,1.99c-0.3,0.22-0.31,0.48-0.25,0.81c0.18,0.86,0.33,1.73,0.5,2.6
					c0.09,0.46,0.19,0.92,0.29,1.38c-0.01,0.04-0.03,0.07-0.04,0.11c-0.57,0.37-1.05,0.84-1.58,1.27c-0.29,0.23-0.3,0.25-0.45-0.08
					c-0.36-0.79-0.72-1.57-1.09-2.35C590.84,333.62,590.77,333.52,590.67,333.45z"/>
				<path class="st3" d="M596.44,327.9c-0.01-0.17,0.06-0.29,0.21-0.37c0.75-0.37,1.51-0.73,2.25-1.13c0.36-0.2,0.74-0.37,1.12-0.55
					c0.08-0.04,0.17-0.11,0.28-0.07c0.43,1.32,0.87,2.64,1.3,3.97c-0.01,0.03-0.03,0.07-0.04,0.1c-0.05,0.02-0.11,0.03-0.15,0.06
					c-1.22,0.81-2.45,1.63-3.67,2.44l-0.02-0.01c0,0-0.02-0.01-0.02-0.01C597.27,330.86,596.86,329.38,596.44,327.9z"/>
				<path class="st5" d="M597.74,332.36c1.22-0.81,2.44-1.63,3.67-2.44c0.04-0.03,0.1-0.04,0.15-0.06c-0.01,0.31,0.09,0.6,0.14,0.89
					c0.11,0.57,0.21,1.13,0.33,1.69c0.11,0.52,0.23,1.03,0.34,1.54c-1.07,0.91-2.15,1.81-3.25,2.68c-0.23,0.18-0.28,0.09-0.33-0.14
					C598.44,335.14,598.09,333.75,597.74,332.36z"/>
				<path class="st2" d="M596.44,327.9c0.42,1.48,0.83,2.96,1.25,4.44c-0.44,0.2-0.8,0.52-1.18,0.8c-0.71,0.5-1.42,1.02-2.14,1.52
					c-0.09,0.06-0.18,0.17-0.32,0.13c-0.1-0.46-0.2-0.92-0.29-1.38c-0.17-0.87-0.32-1.74-0.5-2.6c-0.07-0.33-0.06-0.59,0.25-0.81
					c0.89-0.65,1.76-1.33,2.64-1.99C596.22,327.95,596.31,327.85,596.44,327.9z"/>
				<path class="st6" d="M602.37,333.98c-0.12-0.51-0.24-1.03-0.34-1.54c-0.12-0.56-0.22-1.13-0.33-1.69
					c-0.06-0.3-0.15-0.59-0.14-0.89c0.01-0.04,0.03-0.07,0.04-0.1c0.04-0.02,0.08-0.03,0.11-0.06c0.79-0.7,1.58-1.41,2.38-2.11
					c0.08-0.07,0.12-0.15,0.16-0.25c0.22,0.43,0.28,0.91,0.43,1.37c0.23,0.69,0.38,1.41,0.66,2.08c0.01,0.09,0.01,0.18-0.05,0.26
					c-0.95,0.99-1.9,1.98-2.86,2.97C602.41,334,602.39,333.99,602.37,333.98z"/>
				<path class="st2" d="M602.43,334.01c0.95-0.99,1.9-1.98,2.86-2.97c-0.12,1.07-0.24,2.13-0.36,3.2
					c-0.01,0.11-0.01,0.22-0.09,0.31c-0.74,0.82-1.47,1.65-2.2,2.48c-0.02,0.02-0.06,0.03-0.09,0.04c-0.05-0.03-0.09-0.06-0.09-0.12
					C602.41,335.96,602.39,334.99,602.43,334.01z"/>
				<path class="st1" d="M600.3,325.65c0.16-1.27,0.32-2.53,0.48-3.8c0.09-0.7,0.19-1.4,0.28-2.11c0.23-0.44,0.57-0.79,0.84-1.2
					c0.44-0.66,0.92-1.29,1.44-1.9c0.03-0.04,0.05-0.1,0.07-0.15c0.28-0.17,0.34-0.54,0.64-0.68c-0.09,0.26-0.02,0.52-0.03,0.78
					c-0.06,1.39-0.12,2.79-0.17,4.18c0,0.05-0.03,0.11-0.04,0.16c-0.74,1.01-1.47,2.02-2.22,3.02
					C601.16,324.52,600.79,325.13,600.3,325.65z"/>
				<path class="st7" d="M600.3,325.65c0.49-0.52,0.86-1.13,1.29-1.69c0.75-1,1.48-2.01,2.22-3.02c0.12,0.71,0.12,1.44,0.17,2.16
					c0.1,1.41,0.18,2.82,0.27,4.24c-0.04,0.09-0.08,0.18-0.16,0.25c-0.79,0.7-1.58,1.41-2.38,2.11c-0.03,0.03-0.08,0.04-0.11,0.06
					c-0.43-1.32-0.87-2.64-1.3-3.97C600.3,325.74,600.3,325.69,600.3,325.65z"/>
				<path class="st2" d="M598.63,319.09c0.01-0.02,0.02-0.04,0.03-0.06C598.69,319.07,598.68,319.09,598.63,319.09z"/>
			</g>
			<g>
				<path class="st1" d="M592.55,349.17c-0.03-0.04-0.05-0.08-0.08-0.12c0.04-0.03,0.1-0.03,0.1-0.09c0.01-0.01,0.02-0.03,0.02-0.05
					c0.55-0.47,1-1.03,1.49-1.55c0.41-0.44,0.86-0.84,1.21-1.33c0.04-0.01,0.08-0.01,0.12-0.02c0.04,0.14,0.17,0.17,0.27,0.22
					c0.79,0.38,1.59,0.73,2.38,1.11c0.43,0.2,0.89,0.35,1.28,0.64l0,0.02l0,0.02c-1.04,0.99-2.07,1.99-3.11,2.97
					c-0.17,0.16-0.23,0.25,0.04,0.36c1.3,0.53,2.62,1.01,3.94,1.5c0,0.02,0.01,0.04,0.01,0.06c-0.87,0.46-1.7,0.96-2.54,1.47
					c-0.06,0.03-0.06,0.09-0.06,0.14c-0.11,0-0.22-0.05-0.33,0c-0.04-0.03-0.08-0.06-0.12-0.09c-0.07-0.06-0.11-0.17-0.23-0.1l0,0
					c0.03-0.09-0.04-0.12-0.09-0.15c-0.65-0.46-1.3-0.92-1.95-1.37c-0.06-0.04-0.13-0.14-0.23-0.05l0,0
					c0.02-0.07-0.01-0.09-0.07-0.06l0,0c-0.03-0.14-0.05-0.25,0.1-0.37c0.38-0.28,0.72-0.6,1.09-0.89c0.19-0.15,0.15-0.21-0.03-0.32
					c-0.48-0.29-0.94-0.6-1.42-0.88C593.74,349.88,593.18,349.46,592.55,349.17L592.55,349.17z"/>
				<path class="st2" d="M611.07,342.06c0.08,0.02,0.15,0.05,0.23,0.07c0,0.03,0.01,0.07,0.01,0.1c-0.69,0.09-1.39,0.18-1.94,0.25
					c0.76,0.04,1.67-0.1,2.57-0.07l-0.01-0.01c0.15,0.12,0.29,0.25,0.5,0.21l0,0c0.04,0.13,0.17,0.16,0.27,0.22
					c0.87,0.49,1.74,0.98,2.61,1.46c0.45,0.25,0.88,0.53,1.36,0.71l0,0c0.01,0.05,0.04,0.06,0.09,0.06c0,0,0,0,0,0
					c-0.26,0.15-0.55-0.05-0.81,0.04c-0.05,0.01-0.11,0.02-0.16,0.01c-0.78-0.15-1.57-0.26-2.36-0.31
					c-0.49-0.03-0.97-0.16-1.46-0.14c-0.29-0.24-0.65-0.3-1-0.41c-1.54-0.49-3.08-0.98-4.62-1.49c-0.19-0.06-0.39-0.01-0.57-0.13
					c-0.75-0.47-1.52-0.92-2.25-1.42c-0.28-0.19-0.65-0.29-0.81-0.64c0.57-0.07,1.14-0.17,1.71-0.19c0.46-0.02,0.93-0.14,1.4,0.02
					c1.12,0.38,2.25,0.74,3.39,1.08c0.33,0.1,0.63,0.31,1,0.25c0,0,0.01-0.01,0.01-0.01c0.06,0.19,0.2,0.14,0.33,0.12l0,0
					c0.01,0.06,0.04,0.06,0.09,0.05c0,0-0.01,0-0.01,0C610.74,342.04,610.9,342.07,611.07,342.06z"/>
				<path class="st2" d="M615.09,347.01c-0.21,0.29-0.53,0.48-0.76,0.75c-0.05,0.02-0.1,0.02-0.1,0.09l0,0
					c-0.14,0.03-0.28,0.07-0.28,0.26c0,0-0.01,0.01-0.01,0.01c-0.13-0.02-0.2,0.01-0.16,0.16c0,0-0.01,0-0.01,0
					c-0.05-0.02-0.07,0-0.08,0.05l0,0c-0.01,0.01-0.03,0.01-0.05,0.02c-0.24,0.35-0.58,0.59-0.91,0.85c-0.08,0.02-0.2,0-0.18,0.15
					l0,0c-0.11,0.02-0.23,0.03-0.23,0.19c0,0,0,0,0,0c-0.13-0.03-0.2,0.07-0.28,0.13c-1.04,0.78-2.09,1.55-3.12,2.34
					c-0.52,0.4-1.07,0.75-1.54,1.2c0,0,0,0,0,0c-0.07,0.01-0.15,0.02-0.22,0.04c-0.9,0.2-1.79,0.45-2.7,0.6
					c0.45-0.58,1-1.06,1.49-1.6c0.32-0.35,0.71-0.64,0.98-1.05c1.18-0.78,2.37-1.55,3.55-2.33c0.6-0.4,1.23-0.75,1.79-1.22
					c0.05-0.01,0.11-0.02,0.16-0.04c1.24-0.64,2.48-1.28,3.72-1.92c0.23-0.12,0.43-0.31,0.69-0.36c0.02,0,0.03,0,0.05,0
					c-0.31,0.42-0.75,0.7-1.1,1.08c-0.04,0-0.08,0.01-0.07,0.07l0,0c-0.12,0.04-0.24,0.07-0.24,0.23l0,0
					c-0.14,0.04-0.27,0.09-0.29,0.26c0,0,0.01,0.02,0.01,0.02C615.13,346.9,615.13,346.99,615.09,347.01z"/>
				<path class="st3" d="M595.29,346.02c-0.35,0.49-0.8,0.89-1.21,1.33c-0.49,0.52-0.95,1.08-1.49,1.55
					c-0.21-0.2-0.17-0.48-0.23-0.73c0.1-0.39,0.04-0.79,0.1-1.19c0.26-1.82,1.06-3.35,2.41-4.6l0.03,0.02
					c-0.01,0.12-0.06,0.23-0.13,0.33c-0.5,0.7-1,1.41-1.51,2.11c-0.21,0.29-0.19,0.29,0.16,0.43
					C594.04,345.52,594.69,345.71,595.29,346.02z"/>
				<path class="st3" d="M610.2,341.75c-0.37,0.06-0.67-0.15-1-0.25c-1.14-0.34-2.27-0.7-3.39-1.08c-0.47-0.16-0.94-0.04-1.4-0.02
					c-0.57,0.02-1.14,0.12-1.71,0.19c-0.98-0.11-1.95-0.24-2.93-0.34c-0.26-0.03-0.52-0.07-0.78,0.06
					c-0.58,0.29-1.16,0.57-1.74,0.85c-0.71,0.34-1.42,0.67-2.13,1.01l-0.01-0.01c0.94-0.88,2.05-1.45,3.24-1.87
					c2.34-0.83,4.69-0.79,7.05-0.08c1.46,0.44,2.92,0.86,4.36,1.36C609.91,341.61,610.08,341.63,610.2,341.75z"/>
				<path class="st3" d="M592.54,349.16c0.64,0.3,1.2,0.72,1.8,1.08c0.48,0.28,0.94,0.6,1.42,0.88c0.18,0.11,0.22,0.17,0.03,0.32
					c-0.37,0.29-0.72,0.61-1.09,0.89c-0.16,0.12-0.14,0.23-0.1,0.37C593.55,351.73,592.82,350.58,592.54,349.16z"/>
				<path class="st3" d="M604.47,353.84c0.91-0.15,1.8-0.4,2.7-0.6c0.07-0.02,0.15-0.03,0.22-0.04c-2.96,1.97-6.11,2.82-9.59,1.54
					c-0.17-0.06-0.34-0.15-0.51-0.22c0.11-0.05,0.22,0,0.33,0c0.03,0.02,0.05,0.05,0.08,0.05c1.08,0.23,2.16,0.46,3.24,0.69
					c0.12,0.03,0.21-0.03,0.31-0.08c0.99-0.42,1.97-0.84,2.96-1.26C604.31,353.93,604.39,353.89,604.47,353.84z"/>
				<path class="st3" d="M607.39,353.2c0.47-0.45,1.02-0.81,1.54-1.2c1.03-0.79,2.08-1.56,3.12-2.34c0.08-0.06,0.15-0.16,0.28-0.13
					c-0.9,0.83-1.87,1.55-2.85,2.28C608.81,352.3,608.13,352.78,607.39,353.2z"/>
				<path class="st3" d="M616.67,345.01c-0.48-0.18-0.91-0.46-1.36-0.71c-0.87-0.48-1.74-0.97-2.61-1.46
					c-0.1-0.06-0.23-0.09-0.27-0.22C613.94,343.25,615.4,343.95,616.67,345.01z"/>
				<path class="st3" d="M594.67,352.76c0.1-0.09,0.17,0.01,0.23,0.05c0.65,0.45,1.3,0.91,1.95,1.37c0.05,0.03,0.12,0.06,0.09,0.15
					C596.08,353.96,595.31,353.44,594.67,352.76z"/>
				<path class="st4" d="M611.95,342.41c-0.91-0.04-1.81,0.11-2.57,0.07c0.55-0.07,1.25-0.16,1.94-0.25l0,0
					c0.03,0.04,0.05,0.04,0.07-0.01c0.01-0.01,0.02-0.03,0.03-0.05C611.6,342.24,611.79,342.29,611.95,342.41z"/>
				<path class="st4" d="M616.9,345.32c-0.02,0-0.03,0-0.05,0c-0.27-0.19-0.62-0.06-0.91-0.22c0.27-0.09,0.55,0.1,0.81-0.04
					C616.98,345.19,616.98,345.19,616.9,345.32z"/>
				<path class="st3" d="M612.43,342.62c-0.21,0.04-0.35-0.09-0.5-0.21C612.12,342.45,612.29,342.51,612.43,342.62z"/>
				<path class="st3" d="M611.07,342.06c-0.17,0.02-0.33-0.02-0.46-0.15C610.79,341.89,610.93,341.97,611.07,342.06z"/>
				<path class="st3" d="M615.19,346.95c0.03-0.16,0.15-0.22,0.29-0.26C615.41,346.8,615.33,346.91,615.19,346.95z"/>
				<path class="st4" d="M613.96,348.11c0-0.19,0.14-0.23,0.28-0.26C614.17,347.97,614.07,348.05,613.96,348.11z"/>
				<path class="st3" d="M615.49,346.7c0-0.16,0.12-0.2,0.24-0.23C615.68,346.57,615.58,346.64,615.49,346.7z"/>
				<path class="st3" d="M610.54,341.86c-0.13,0.03-0.28,0.08-0.33-0.12C610.33,341.74,610.44,341.79,610.54,341.86z"/>
				<path class="st3" d="M612.33,349.52c0-0.16,0.12-0.17,0.23-0.19C612.51,349.42,612.43,349.49,612.33,349.52z"/>
				<path class="st4" d="M613.79,348.28c-0.03-0.14,0.04-0.18,0.16-0.16C613.9,348.17,613.84,348.22,613.79,348.28z"/>
				<path class="st3" d="M612.56,349.34c-0.02-0.15,0.1-0.13,0.18-0.15C612.68,349.24,612.62,349.29,612.56,349.34z"/>
				<path class="st3" d="M596.94,354.33c0.12-0.07,0.17,0.04,0.23,0.1C597.07,354.45,597,354.41,596.94,354.33z"/>
				<path class="st3" d="M615.09,347.01c0.03-0.02,0.04-0.12,0.11-0.05C615.19,347.03,615.15,347.04,615.09,347.01z"/>
				<path class="st3" d="M594.96,342.28c0.05-0.04,0.1-0.08,0.15-0.12l0.01,0.01c-0.04,0.05-0.07,0.1-0.11,0.15
					C595,342.31,594.98,342.3,594.96,342.28z"/>
				<path class="st4" d="M611.32,342.23c0-0.03-0.01-0.07-0.01-0.1c0.04,0.02,0.07,0.03,0.11,0.05c-0.01,0.02-0.02,0.03-0.03,0.05
					C611.36,342.23,611.34,342.23,611.32,342.23L611.32,342.23z"/>
				<path class="st3" d="M594.87,342.39c0.03-0.03,0.06-0.07,0.09-0.1c0.02,0.01,0.04,0.02,0.05,0.04
					c-0.02,0.05-0.07,0.07-0.12,0.09L594.87,342.39z"/>
				<path class="st4" d="M614.24,347.86c-0.01-0.07,0.05-0.08,0.1-0.09C614.32,347.82,614.29,347.85,614.24,347.86z"/>
				<path class="st3" d="M615.72,346.47c-0.01-0.06,0.03-0.07,0.07-0.07C615.79,346.45,615.76,346.47,615.72,346.47z"/>
				<path class="st3" d="M610.62,341.9c-0.05,0.02-0.08,0.01-0.09-0.05C610.57,341.86,610.62,341.84,610.62,341.9z"/>
				<path class="st4" d="M613.65,348.34c0.02-0.01,0.03-0.01,0.05-0.02C613.69,348.34,613.67,348.35,613.65,348.34z"/>
				<path class="st4" d="M613.69,348.32c0.01-0.05,0.04-0.06,0.08-0.05C613.76,348.32,613.74,348.34,613.69,348.32z"/>
				<path class="st3" d="M594.6,352.7c0.06-0.03,0.09-0.01,0.07,0.06C594.62,352.77,594.6,352.74,594.6,352.7z"/>
				<path class="st3" d="M616.75,345.06c-0.04,0-0.08-0.01-0.09-0.06C616.72,344.99,616.74,345.02,616.75,345.06z"/>
				<path class="st3" d="M592.57,348.95c0,0.07-0.06,0.07-0.1,0.09C592.48,348.98,592.52,348.96,592.57,348.95z"/>
				<path class="st4" d="M594.89,342.41c0.05-0.01,0.1-0.03,0.12-0.09c0.04-0.05,0.07-0.1,0.11-0.15c0.71-0.34,1.42-0.67,2.13-1.01
					c0.58-0.28,1.16-0.56,1.74-0.85c0.26-0.13,0.52-0.09,0.78-0.06c0.98,0.1,1.96,0.22,2.93,0.34c0.17,0.34,0.53,0.44,0.81,0.64
					c0.73,0.5,1.5,0.94,2.25,1.42c0.18,0.11,0.38,0.06,0.57,0.13c1.54,0.51,3.08,1,4.62,1.49c0.34,0.11,0.71,0.17,1,0.41
					c-0.66,0.27-1.31,0.53-1.97,0.8c-1.18,0.48-2.36,0.97-3.54,1.46c-0.04,0.02-0.08,0.04-0.12,0.06c-0.02-0.11-0.12-0.15-0.2-0.2
					c-0.34-0.24-0.67-0.49-1.03-0.7c-0.72-0.44-1.4-0.92-2.1-1.39c-0.14-0.1-0.28-0.09-0.42,0c-0.02-0.13-0.15-0.17-0.24-0.21
					c-1.01-0.44-2.03-0.86-3.04-1.31c-0.34-0.15-0.57-0.04-0.82,0.19c-0.66,0.58-1.34,1.15-2.01,1.72
					c-0.36,0.31-0.71,0.62-1.06,0.93c-0.04,0.01-0.08,0.01-0.12,0.02c-0.6-0.31-1.25-0.5-1.88-0.75c-0.34-0.14-0.36-0.14-0.16-0.43
					c0.51-0.7,1.01-1.4,1.51-2.11C594.83,342.64,594.89,342.53,594.89,342.41z"/>
				<path class="st3" d="M602.58,344.68c0.14-0.09,0.28-0.09,0.42,0c0.7,0.47,1.38,0.95,2.1,1.39c0.35,0.22,0.69,0.46,1.03,0.7
					c0.08,0.05,0.18,0.09,0.2,0.2c-0.93,1.03-1.87,2.06-2.8,3.09c-0.04,0-0.08,0.01-0.11,0.01c-0.04-0.03-0.08-0.08-0.13-0.1
					c-1.31-0.66-2.62-1.32-3.94-1.98l0-0.02c0,0,0-0.02,0-0.02C600.41,346.87,601.5,345.78,602.58,344.68z"/>
				<path class="st5" d="M599.34,348.01c1.31,0.66,2.62,1.32,3.94,1.98c0.05,0.02,0.09,0.07,0.13,0.1
					c-0.27,0.15-0.48,0.37-0.71,0.57c-0.44,0.37-0.88,0.74-1.31,1.12c-0.4,0.35-0.78,0.71-1.17,1.06c-1.32-0.48-2.64-0.97-3.94-1.5
					c-0.27-0.11-0.22-0.19-0.04-0.36C597.27,350,598.31,349.01,599.34,348.01z"/>
				<path class="st2" d="M602.58,344.68c-1.08,1.09-2.16,2.19-3.24,3.28c-0.39-0.28-0.85-0.43-1.28-0.64
					c-0.79-0.37-1.59-0.73-2.38-1.11c-0.1-0.05-0.24-0.08-0.27-0.22c0.35-0.31,0.7-0.62,1.06-0.93c0.67-0.58,1.35-1.14,2.01-1.72
					c0.25-0.22,0.48-0.34,0.82-0.19c1.01,0.45,2.03,0.87,3.04,1.31C602.43,344.52,602.55,344.55,602.58,344.68z"/>
				<path class="st6" d="M600.22,352.84c0.39-0.35,0.78-0.72,1.17-1.06c0.43-0.38,0.87-0.75,1.31-1.12
					c0.23-0.19,0.44-0.42,0.71-0.57c0.04,0,0.08-0.01,0.11-0.01c0.04,0.02,0.07,0.06,0.11,0.07c1,0.34,2.01,0.68,3.01,1.02
					c0.1,0.03,0.19,0.03,0.29,0.01c-0.27,0.4-0.66,0.69-0.98,1.05c-0.49,0.54-1.04,1.02-1.49,1.6c-0.07,0.06-0.15,0.1-0.25,0.09
					c-1.33-0.34-2.66-0.68-3.99-1.01C600.22,352.88,600.22,352.86,600.22,352.84z"/>
				<path class="st2" d="M600.22,352.91c1.33,0.34,2.66,0.68,3.99,1.01c-0.99,0.42-1.97,0.84-2.96,1.26
					c-0.1,0.04-0.19,0.1-0.31,0.08c-1.08-0.23-2.16-0.46-3.24-0.69c-0.03-0.01-0.05-0.03-0.08-0.05c0-0.06,0-0.11,0.06-0.14
					C598.52,353.86,599.36,353.36,600.22,352.91z"/>
				<path class="st1" d="M606.44,346.92c1.18-0.49,2.36-0.97,3.54-1.46c0.66-0.27,1.31-0.53,1.97-0.8c0.49-0.02,0.97,0.11,1.46,0.14
					c0.79,0.05,1.58,0.16,2.36,0.31c0.05,0.01,0.11-0.01,0.16-0.01c0.28,0.16,0.63,0.03,0.91,0.22c-0.27,0.05-0.46,0.24-0.69,0.36
					c-1.24,0.63-2.48,1.28-3.72,1.92c-0.05,0.02-0.1,0.03-0.16,0.04c-1.24-0.14-2.48-0.28-3.72-0.43
					C607.85,347.12,607.13,347.09,606.44,346.92z"/>
				<path class="st7" d="M606.44,346.92c0.69,0.17,1.41,0.19,2.11,0.28c1.24,0.15,2.48,0.29,3.72,0.43
					c-0.56,0.46-1.19,0.82-1.79,1.22c-1.18,0.78-2.37,1.55-3.55,2.33c-0.1,0.01-0.19,0.02-0.29-0.01c-1-0.34-2.01-0.68-3.01-1.02
					c-0.04-0.01-0.07-0.05-0.11-0.07c0.93-1.03,1.87-2.06,2.8-3.09C606.36,346.97,606.4,346.94,606.44,346.92z"/>
				<path class="st2" d="M611.31,342.23c0.02,0,0.04,0,0.07-0.01C611.36,342.27,611.34,342.27,611.31,342.23z"/>
			</g>
			<g>
				<path class="st1" d="M590.22,347.64c-0.02,0.04-0.05,0.08-0.07,0.13c-0.04-0.02-0.07-0.08-0.13-0.04c-0.02-0.01-0.03,0-0.05,0
					c-0.67-0.27-1.38-0.41-2.07-0.6c-0.58-0.16-1.14-0.37-1.74-0.45c-0.02-0.03-0.05-0.06-0.07-0.1c0.11-0.1,0.07-0.23,0.07-0.34
					c-0.03-0.87-0.09-1.74-0.13-2.62c-0.02-0.48-0.1-0.95-0.03-1.43l0.02-0.02l0.02-0.01c1.36,0.45,2.72,0.9,4.08,1.37
					c0.23,0.08,0.33,0.08,0.3-0.21c-0.14-1.4-0.33-2.79-0.51-4.18c0.02-0.01,0.03-0.03,0.05-0.04c0.81,0.55,1.64,1.06,2.48,1.56
					c0.06,0.03,0.1,0.01,0.15-0.01c0.05,0.1,0.06,0.22,0.15,0.3c-0.01,0.05-0.01,0.1-0.02,0.15c-0.02,0.09-0.1,0.18,0.02,0.25l0,0
					c-0.09,0.01-0.08,0.09-0.09,0.15c-0.1,0.79-0.21,1.58-0.3,2.37c-0.01,0.07-0.06,0.18,0.06,0.22l0,0
					c-0.07,0.02-0.07,0.05-0.02,0.09c0,0,0,0,0,0c-0.11,0.1-0.2,0.16-0.37,0.08c-0.42-0.2-0.87-0.36-1.3-0.55
					c-0.22-0.1-0.26-0.03-0.27,0.18c-0.03,0.56-0.09,1.11-0.12,1.67C590.3,346.25,590.19,346.95,590.22,347.64L590.22,347.64z"/>
				<path class="st2" d="M575.3,334.57c-0.01-0.08-0.03-0.16-0.04-0.24c0.03-0.02,0.06-0.04,0.08-0.06c0.4,0.57,0.8,1.15,1.13,1.6
					c-0.32-0.69-0.87-1.43-1.26-2.24c0,0,0,0.01,0,0.01c0.04-0.18,0.09-0.37-0.05-0.54l0,0c0.1-0.1,0.07-0.23,0.07-0.34
					c0.03-1,0.06-1.99,0.08-2.99c0.01-0.51,0.06-1.02-0.01-1.54l0,0c0.04-0.03,0.03-0.07,0.01-0.1c0,0,0,0,0,0
					c0.25,0.17,0.21,0.51,0.42,0.7c0.03,0.05,0.07,0.09,0.09,0.14c0.23,0.76,0.5,1.51,0.83,2.23c0.2,0.45,0.31,0.93,0.56,1.36
					c-0.08,0.37,0.04,0.72,0.1,1.07c0.28,1.59,0.57,3.19,0.83,4.78c0.03,0.2,0.17,0.35,0.15,0.56c-0.07,0.88-0.1,1.77-0.2,2.65
					c-0.04,0.34,0.04,0.71-0.18,1.02c-0.32-0.47-0.68-0.93-0.96-1.42c-0.23-0.4-0.55-0.75-0.63-1.25c-0.19-1.17-0.4-2.34-0.63-3.5
					c-0.07-0.34-0.02-0.71-0.25-1c0,0-0.01,0-0.01,0c0.15-0.14,0.04-0.24-0.05-0.35l0,0c0.05-0.03,0.04-0.07,0-0.1
					c0,0,0.01,0.01,0.01,0.01C575.44,334.87,575.39,334.72,575.3,334.57z"/>
				<path class="st2" d="M577.81,328.7c0.36,0.05,0.67,0.24,1.02,0.32c0.04,0.03,0.07,0.08,0.13,0.04l0,0
					c0.1,0.11,0.19,0.21,0.36,0.13c0,0,0.01,0,0.01,0c0.04,0.12,0.1,0.17,0.21,0.07c0,0,0.01,0.01,0.01,0.01
					c0,0.05,0.03,0.06,0.08,0.05l0,0c0.01,0.01,0.02,0.02,0.04,0.03c0.42,0.05,0.8,0.24,1.18,0.41c0.06,0.06,0.1,0.18,0.22,0.09
					l-0.01,0c0.07,0.09,0.13,0.19,0.27,0.12c0,0,0,0,0,0c0.03,0.13,0.15,0.14,0.25,0.19c1.17,0.56,2.35,1.12,3.53,1.67
					c0.59,0.27,1.16,0.6,1.78,0.8c0,0,0,0,0,0c0.05,0.06,0.09,0.12,0.14,0.18c0.6,0.7,1.23,1.38,1.79,2.11
					c-0.72-0.13-1.4-0.39-2.11-0.57c-0.46-0.12-0.9-0.33-1.38-0.38c-1.24-0.69-2.47-1.38-3.72-2.06c-0.63-0.35-1.24-0.74-1.91-1.02
					c-0.04-0.04-0.07-0.09-0.11-0.12c-1.14-0.8-2.29-1.6-3.43-2.4c-0.21-0.15-0.47-0.23-0.64-0.44c-0.01-0.01-0.02-0.03-0.02-0.05
					c0.51,0.08,0.97,0.34,1.47,0.47c0.02,0.04,0.05,0.07,0.09,0.03l-0.01,0c0.09,0.09,0.18,0.18,0.32,0.1l0,0
					c0.1,0.1,0.2,0.19,0.36,0.14c0,0,0.01-0.02,0.01-0.02C577.69,328.72,577.77,328.68,577.81,328.7z"/>
				<path class="st3" d="M586.16,346.68c0.6,0.08,1.16,0.29,1.74,0.45c0.69,0.19,1.4,0.33,2.07,0.6c-0.08,0.28-0.35,0.37-0.54,0.54
					c-0.39,0.09-0.72,0.33-1.1,0.47c-1.73,0.62-3.46,0.63-5.19,0.01l0.01-0.03c0.11-0.05,0.23-0.06,0.35-0.04
					c0.86,0.12,1.71,0.23,2.57,0.35c0.35,0.05,0.35,0.03,0.31-0.34C586.31,348.02,586.17,347.36,586.16,346.68z"/>
				<path class="st3" d="M575.44,335.48c0.23,0.3,0.18,0.67,0.25,1c0.23,1.16,0.44,2.33,0.63,3.5c0.08,0.5,0.4,0.85,0.63,1.25
					c0.29,0.49,0.64,0.95,0.96,1.42c0.35,0.92,0.7,1.84,1.07,2.75c0.1,0.24,0.18,0.49,0.41,0.66c0.53,0.37,1.05,0.76,1.57,1.14
					c0.63,0.47,1.26,0.94,1.89,1.41l0,0.01c-1.21-0.42-2.24-1.13-3.17-2c-1.82-1.68-2.89-3.78-3.36-6.2
					c-0.29-1.49-0.6-2.98-0.83-4.49C575.45,335.8,575.38,335.64,575.44,335.48z"/>
				<path class="st3" d="M590.22,347.65c-0.03-0.7,0.08-1.39,0.11-2.09c0.03-0.56,0.09-1.11,0.12-1.67
					c0.01-0.21,0.05-0.28,0.27-0.18c0.43,0.2,0.88,0.35,1.3,0.55c0.18,0.08,0.26,0.02,0.37-0.08
					C592.03,345.56,591.34,346.74,590.22,347.65z"/>
				<path class="st3" d="M588.8,334.92c-0.56-0.74-1.19-1.41-1.79-2.11c-0.05-0.06-0.09-0.12-0.14-0.18
					c3.12,1.7,5.34,4.09,5.83,7.77c0.02,0.18,0.03,0.37,0.04,0.55c-0.1-0.08-0.11-0.2-0.15-0.3c0-0.03,0.02-0.07,0.01-0.1
					c-0.3-1.06-0.6-2.13-0.9-3.19c-0.03-0.12-0.13-0.17-0.21-0.24c-0.83-0.68-1.66-1.35-2.5-2.03
					C588.96,335.01,588.88,334.96,588.8,334.92z"/>
				<path class="st3" d="M586.87,332.63c-0.62-0.21-1.19-0.53-1.78-0.8c-1.18-0.55-2.35-1.11-3.53-1.67
					c-0.1-0.05-0.22-0.06-0.25-0.19c1.15,0.41,2.24,0.93,3.34,1.46C585.41,331.79,586.16,332.17,586.87,332.63z"/>
				<path class="st3" d="M575.3,328.24c0.07,0.51,0.02,1.02,0.01,1.54c-0.02,1-0.05,1.99-0.08,2.99c0,0.12,0.03,0.24-0.07,0.34
					C575.01,331.48,574.96,329.85,575.3,328.24z"/>
				<path class="st3" d="M592.41,344.09c-0.12-0.04-0.07-0.15-0.06-0.22c0.09-0.79,0.2-1.58,0.3-2.37c0.01-0.06,0-0.14,0.09-0.15
					C592.82,342.28,592.72,343.2,592.41,344.09z"/>
				<path class="st4" d="M575.21,333.63c0.39,0.82,0.94,1.55,1.26,2.24c-0.32-0.46-0.72-1.03-1.13-1.6l0,0
					c0.03-0.04,0.01-0.06-0.04-0.06c-0.02,0-0.04-0.01-0.06-0.01C575.22,334.02,575.17,333.83,575.21,333.63z"/>
				<path class="st4" d="M575.47,327.89c0.01,0.02,0.01,0.03,0.02,0.05c-0.04,0.33,0.24,0.58,0.23,0.9
					c-0.21-0.19-0.17-0.53-0.42-0.7C575.32,327.88,575.32,327.88,575.47,327.89z"/>
				<path class="st3" d="M575.16,333.1c0.13,0.17,0.08,0.35,0.05,0.54C575.16,333.46,575.13,333.28,575.16,333.1z"/>
				<path class="st3" d="M575.3,334.57c0.09,0.15,0.14,0.3,0.08,0.48C575.28,334.9,575.29,334.73,575.3,334.57z"/>
				<path class="st3" d="M577.71,328.64c-0.16,0.05-0.27-0.04-0.36-0.14C577.48,328.52,577.61,328.53,577.71,328.64z"/>
				<path class="st4" d="M579.31,329.19c-0.17,0.09-0.26-0.01-0.36-0.13C579.09,329.07,579.2,329.12,579.31,329.19z"/>
				<path class="st3" d="M577.35,328.5c-0.14,0.08-0.23-0.01-0.32-0.1C577.15,328.39,577.25,328.44,577.35,328.5z"/>
				<path class="st3" d="M575.37,335.13c0.09,0.11,0.2,0.21,0.05,0.35C575.36,335.37,575.35,335.25,575.37,335.13z"/>
				<path class="st3" d="M581.32,329.97c-0.14,0.08-0.21-0.02-0.27-0.12C581.15,329.86,581.24,329.9,581.32,329.97z"/>
				<path class="st4" d="M579.53,329.26c-0.11,0.1-0.18,0.05-0.21-0.07C579.39,329.22,579.46,329.24,579.53,329.26z"/>
				<path class="st3" d="M581.05,329.86c-0.12,0.09-0.16-0.03-0.22-0.09C580.9,329.8,580.98,329.83,581.05,329.86z"/>
				<path class="st3" d="M592.75,341.35c-0.12-0.07-0.04-0.16-0.02-0.25C592.79,341.18,592.79,341.26,592.75,341.35z"/>
				<path class="st3" d="M577.81,328.7c-0.04-0.02-0.12,0.02-0.09-0.08C577.78,328.61,577.81,328.64,577.81,328.7z"/>
				<path class="st3" d="M583.01,348.71c-0.06-0.03-0.12-0.05-0.18-0.08l0-0.01c0.06,0.01,0.12,0.02,0.18,0.03
					C583.02,348.67,583.01,348.69,583.01,348.71z"/>
				<path class="st4" d="M575.34,334.27c-0.03,0.02-0.06,0.04-0.08,0.06c0-0.04-0.01-0.08-0.01-0.12c0.02,0,0.04,0,0.06,0.01
					C575.32,334.24,575.33,334.25,575.34,334.27L575.34,334.27z"/>
				<path class="st3" d="M583.15,348.75c-0.04-0.01-0.09-0.02-0.13-0.03c0-0.02,0.01-0.04,0.01-0.06c0.06-0.01,0.1,0.02,0.13,0.06
					L583.15,348.75z"/>
				<path class="st4" d="M578.96,329.06c-0.06,0.04-0.09-0.01-0.13-0.04C578.88,329,578.92,329.02,578.96,329.06z"/>
				<path class="st3" d="M577.04,328.4c-0.05,0.04-0.07,0.01-0.09-0.03C576.98,328.34,577.01,328.36,577.04,328.4z"/>
				<path class="st3" d="M575.37,335.03c0.04,0.03,0.05,0.07,0,0.1C575.35,335.1,575.32,335.07,575.37,335.03z"/>
				<path class="st4" d="M579.66,329.36c-0.01-0.01-0.02-0.02-0.04-0.03C579.64,329.32,579.65,329.33,579.66,329.36z"/>
				<path class="st4" d="M579.62,329.33c-0.05,0.01-0.07,0-0.08-0.05C579.59,329.27,579.61,329.28,579.62,329.33z"/>
				<path class="st3" d="M592.39,344.18c-0.05-0.04-0.05-0.08,0.02-0.09C592.45,344.13,592.43,344.16,592.39,344.18z"/>
				<path class="st3" d="M575.31,328.14c0.02,0.04,0.03,0.07-0.01,0.1C575.27,328.2,575.28,328.17,575.31,328.14z"/>
				<path class="st3" d="M590.02,347.72c0.06-0.03,0.09,0.02,0.13,0.04C590.09,347.79,590.06,347.76,590.02,347.72z"/>
				<path class="st4" d="M583.15,348.71c-0.03-0.04-0.07-0.07-0.13-0.06c-0.06-0.01-0.12-0.02-0.18-0.03
					c-0.63-0.47-1.25-0.95-1.89-1.41c-0.52-0.39-1.04-0.77-1.57-1.14c-0.23-0.17-0.32-0.42-0.41-0.66
					c-0.37-0.91-0.71-1.83-1.07-2.75c0.22-0.31,0.14-0.68,0.18-1.02c0.1-0.88,0.13-1.77,0.2-2.65c0.02-0.21-0.12-0.37-0.15-0.56
					c-0.27-1.6-0.55-3.19-0.83-4.78c-0.06-0.36-0.18-0.7-0.1-1.07c0.54,0.46,1.08,0.92,1.62,1.37c0.98,0.82,1.96,1.64,2.94,2.45
					c0.04,0.03,0.07,0.05,0.11,0.08c-0.09,0.07-0.08,0.18-0.09,0.27c-0.05,0.41-0.12,0.82-0.14,1.24c-0.05,0.84-0.16,1.67-0.25,2.5
					c-0.02,0.17,0.05,0.29,0.19,0.38c-0.11,0.08-0.08,0.21-0.07,0.31c0.08,1.1,0.18,2.2,0.25,3.3c0.02,0.38,0.23,0.52,0.55,0.64
					c0.83,0.31,1.64,0.65,2.46,0.98c0.44,0.17,0.88,0.33,1.32,0.5c0.02,0.03,0.05,0.06,0.07,0.1c0,0.68,0.14,1.34,0.22,2.01
					c0.04,0.37,0.05,0.39-0.31,0.34c-0.86-0.12-1.71-0.24-2.57-0.35C583.38,348.66,583.27,348.67,583.15,348.71z"/>
				<path class="st3" d="M581.59,340.86c-0.14-0.08-0.21-0.2-0.19-0.38c0.09-0.83,0.2-1.67,0.25-2.5c0.03-0.41,0.09-0.83,0.14-1.24
					c0.01-0.09,0-0.2,0.09-0.27c1.35,0.35,2.7,0.69,4.04,1.04c0.02,0.03,0.04,0.06,0.06,0.09c-0.01,0.05-0.03,0.11-0.03,0.16
					c0.03,1.47,0.05,2.94,0.08,4.41l-0.02,0.01L586,342.2C584.53,341.75,583.06,341.3,581.59,340.86z"/>
				<path class="st5" d="M586.04,342.17c-0.03-1.47-0.06-2.94-0.08-4.41c0-0.05,0.02-0.11,0.03-0.16c0.25,0.17,0.55,0.25,0.83,0.36
					c0.53,0.22,1.07,0.43,1.6,0.64c0.49,0.19,0.99,0.36,1.49,0.54c0.19,1.39,0.37,2.79,0.51,4.18c0.03,0.29-0.07,0.28-0.3,0.21
					C588.76,343.07,587.4,342.62,586.04,342.17z"/>
				<path class="st2" d="M581.59,340.86c1.47,0.45,2.94,0.89,4.41,1.34c-0.07,0.48,0.01,0.95,0.03,1.43
					c0.04,0.87,0.09,1.74,0.13,2.62c0,0.11,0.04,0.24-0.07,0.34c-0.44-0.17-0.88-0.33-1.32-0.5c-0.82-0.32-1.64-0.66-2.46-0.98
					c-0.31-0.12-0.53-0.27-0.55-0.64c-0.07-1.1-0.17-2.2-0.25-3.3C581.51,341.07,581.48,340.94,581.59,340.86z"/>
				<path class="st6" d="M589.9,339.14c-0.5-0.18-0.99-0.35-1.49-0.54c-0.54-0.21-1.07-0.42-1.6-0.64
					c-0.28-0.11-0.57-0.19-0.83-0.36c-0.02-0.03-0.04-0.06-0.06-0.09c0-0.04,0.02-0.09,0.01-0.13c-0.17-1.05-0.34-2.09-0.5-3.14
					c-0.02-0.1-0.07-0.18-0.12-0.26c0.48,0.05,0.92,0.26,1.38,0.38c0.71,0.18,1.39,0.44,2.11,0.57c0.08,0.04,0.16,0.09,0.19,0.18
					c0.32,1.33,0.64,2.67,0.96,4C589.94,339.12,589.92,339.13,589.9,339.14z"/>
				<path class="st2" d="M589.95,339.11c-0.32-1.33-0.64-2.67-0.96-4c0.83,0.68,1.66,1.35,2.5,2.03c0.08,0.07,0.18,0.12,0.21,0.24
					c0.3,1.06,0.6,2.13,0.9,3.19c0.01,0.03-0.01,0.06-0.01,0.1c-0.05,0.03-0.1,0.05-0.15,0.01
					C591.6,340.17,590.76,339.66,589.95,339.11z"/>
				<path class="st1" d="M581.76,336.39c-0.98-0.82-1.96-1.63-2.94-2.45c-0.54-0.45-1.08-0.91-1.62-1.37
					c-0.25-0.43-0.36-0.91-0.56-1.36c-0.32-0.73-0.6-1.47-0.83-2.23c-0.02-0.05-0.06-0.09-0.09-0.14c0.01-0.32-0.27-0.57-0.23-0.9
					c0.17,0.21,0.43,0.29,0.64,0.44c1.14,0.81,2.29,1.6,3.43,2.4c0.04,0.03,0.07,0.08,0.11,0.12c0.45,1.16,0.91,2.33,1.35,3.49
					C581.28,335.06,581.59,335.7,581.76,336.39z"/>
				<path class="st7" d="M581.76,336.39c-0.17-0.69-0.48-1.33-0.73-2c-0.44-1.17-0.9-2.33-1.35-3.49c0.67,0.28,1.28,0.67,1.91,1.02
					c1.24,0.68,2.48,1.37,3.72,2.06c0.06,0.08,0.11,0.16,0.12,0.26c0.16,1.05,0.33,2.09,0.5,3.14c0.01,0.04-0.01,0.09-0.01,0.13
					c-1.35-0.35-2.7-0.69-4.04-1.04C581.84,336.45,581.8,336.42,581.76,336.39z"/>
				<path class="st2" d="M575.34,334.27c-0.01-0.02-0.02-0.04-0.04-0.06C575.35,334.21,575.37,334.23,575.34,334.27z"/>
			</g>
		</g>
	</g>
	<text transform="matrix(1 0 0 1 689.9941 251.4445)" class="st8 st9">R</text>
	<circle class="st10" cx="698.69" cy="242.38" r="15.93"/>
	<g>
		<g>
			<path d="M377.9,456.61l-2.67,2.55c-1.82-1.92-3.86-2.88-6.13-2.88c-1.92,0-3.53,0.66-4.84,1.97c-1.31,1.3-1.97,2.91-1.97,4.84
				c0,1.33,0.29,2.52,0.87,3.56c0.59,1.03,1.4,1.85,2.47,2.44c1.06,0.59,2.24,0.89,3.54,0.89c1.11,0,2.12-0.2,3.04-0.61
				c0.92-0.42,1.92-1.17,3.02-2.26l2.59,2.7c-1.48,1.45-2.89,2.45-4.19,3c-1.32,0.56-2.83,0.84-4.52,0.84
				c-3.11,0-5.66-0.99-7.65-2.96c-1.99-1.98-2.98-4.51-2.98-7.6c0-1.99,0.46-3.77,1.36-5.33c0.91-1.55,2.19-2.8,3.88-3.75
				c1.69-0.95,3.51-1.42,5.45-1.42c1.66,0,3.25,0.35,4.78,1.05C375.47,454.32,376.79,455.33,377.9,456.61"/>
			<path d="M391.82,452.58c2.83,0,5.27,1.03,7.31,3.08c2.04,2.05,3.06,4.56,3.06,7.51c0,2.92-1.01,5.4-3.02,7.43
				c-2.02,2.02-4.46,3.04-7.33,3.04c-3.01,0-5.51-1.04-7.5-3.12c-1.99-2.08-2.99-4.55-2.99-7.42c0-1.92,0.48-3.68,1.4-5.29
				c0.92-1.61,2.2-2.87,3.82-3.82C388.2,453.05,389.94,452.58,391.82,452.58 M391.77,456.32c-1.85,0-3.41,0.64-4.67,1.93
				c-1.26,1.29-1.89,2.92-1.89,4.92c0,2.21,0.79,3.97,2.38,5.26c1.24,1.01,2.66,1.51,4.26,1.51c1.81,0,3.35-0.65,4.62-1.97
				c1.27-1.31,1.92-2.92,1.92-4.83c0-1.91-0.64-3.52-1.92-4.85C395.17,456.98,393.61,456.32,391.77,456.32"/>
			<polygon points="406.23,453.11 410.04,453.11 410.04,469.52 415.6,469.52 415.6,473.15 406.23,473.15 			"/>
			<path d="M429.08,452.6c2.84,0,5.28,1.03,7.32,3.08c2.04,2.05,3.06,4.56,3.06,7.51c0,2.92-1.01,5.4-3.02,7.43
				c-2.02,2.02-4.45,3.04-7.33,3.04c-3,0-5.51-1.04-7.5-3.12c-1.98-2.08-2.99-4.55-2.99-7.42c0-1.92,0.47-3.68,1.39-5.29
				c0.93-1.61,2.2-2.87,3.83-3.82C425.47,453.08,427.21,452.6,429.08,452.6 M429.05,456.34c-1.85,0-3.42,0.64-4.68,1.93
				c-1.26,1.29-1.89,2.92-1.89,4.92c0,2.21,0.79,3.97,2.39,5.26c1.23,1.01,2.65,1.51,4.25,1.51c1.82,0,3.35-0.65,4.63-1.97
				c1.27-1.31,1.91-2.92,1.91-4.83c0-1.91-0.64-3.52-1.92-4.85C432.44,457,430.88,456.34,429.05,456.34"/>
			<path d="M443.5,453.13h4.04c2.21,0,3.79,0.2,4.73,0.59c0.94,0.4,1.7,1.05,2.27,1.97c0.57,0.91,0.85,2,0.85,3.25
				c0,1.32-0.32,2.42-0.95,3.31c-0.63,0.88-1.59,1.56-2.85,2.01l4.74,8.91h-4.17l-4.51-8.49h-0.35v8.49h-3.81V453.13z
				 M447.31,460.97h1.2c1.21,0,2.05-0.16,2.5-0.48c0.46-0.32,0.69-0.85,0.69-1.58c0-0.44-0.12-0.82-0.35-1.14
				c-0.22-0.33-0.53-0.56-0.91-0.7c-0.38-0.15-1.08-0.22-2.09-0.22h-1.05V460.97z"/>
			<path d="M488.41,456.61l-2.67,2.55c-1.81-1.92-3.86-2.88-6.13-2.88c-1.92,0-3.52,0.66-4.84,1.97c-1.31,1.3-1.97,2.91-1.97,4.84
				c0,1.33,0.29,2.52,0.87,3.56c0.59,1.03,1.4,1.85,2.47,2.44c1.06,0.59,2.24,0.89,3.54,0.89c1.1,0,2.12-0.2,3.03-0.61
				c0.91-0.42,1.92-1.17,3.02-2.26l2.59,2.7c-1.47,1.45-2.88,2.45-4.2,3c-1.32,0.56-2.82,0.84-4.51,0.84
				c-3.11,0-5.66-0.99-7.65-2.96c-1.98-1.98-2.98-4.51-2.98-7.6c0-1.99,0.45-3.77,1.36-5.33c0.91-1.55,2.2-2.8,3.89-3.75
				c1.68-0.95,3.5-1.42,5.44-1.42c1.65,0,3.24,0.35,4.77,1.05C485.98,454.32,487.31,455.33,488.41,456.61"/>
			<path d="M502.34,452.58c2.83,0,5.27,1.03,7.31,3.08c2.04,2.05,3.06,4.56,3.06,7.51c0,2.92-1.01,5.4-3.02,7.43
				c-2.01,2.02-4.45,3.04-7.32,3.04c-3.01,0-5.51-1.04-7.5-3.12c-1.99-2.08-2.99-4.55-2.99-7.42c0-1.92,0.47-3.68,1.39-5.29
				c0.92-1.61,2.2-2.87,3.83-3.82C498.72,453.05,500.46,452.58,502.34,452.58 M502.3,456.32c-1.86,0-3.41,0.64-4.68,1.93
				c-1.26,1.29-1.89,2.92-1.89,4.92c0,2.21,0.79,3.97,2.37,5.26c1.24,1.01,2.67,1.51,4.26,1.51c1.81,0,3.35-0.65,4.62-1.97
				c1.27-1.31,1.92-2.92,1.92-4.83c0-1.91-0.65-3.52-1.92-4.85C505.69,456.98,504.13,456.32,502.3,456.32"/>
			<polygon points="516.75,453.09 520.41,453.09 528.98,466.28 528.98,453.09 532.8,453.09 532.8,473.13 529.13,473.13 
				520.56,459.98 520.56,473.13 516.75,473.13 			"/>
			<polygon points="536.51,453.09 547.59,453.09 547.59,456.85 543.94,456.85 543.94,473.13 540.07,473.13 540.07,456.85 
				536.51,456.85 			"/>
			<path d="M557.44,453.09h3.87l7.71,20.04h-3.97l-1.57-4.13h-8.17l-1.63,4.13h-3.97L557.44,453.09z M559.4,458.4l-2.7,6.88h5.36
				L559.4,458.4z"/>
			<path d="M591.5,456.61l-2.67,2.55c-1.81-1.92-3.86-2.88-6.13-2.88c-1.91,0-3.52,0.66-4.84,1.97c-1.31,1.3-1.97,2.91-1.97,4.84
				c0,1.33,0.29,2.52,0.87,3.56c0.59,1.03,1.41,1.85,2.47,2.44c1.07,0.59,2.24,0.89,3.54,0.89c1.1,0,2.12-0.2,3.03-0.61
				c0.92-0.42,1.93-1.17,3.02-2.26l2.59,2.7c-1.47,1.45-2.88,2.45-4.2,3c-1.31,0.56-2.82,0.84-4.51,0.84
				c-3.11,0-5.66-0.99-7.65-2.96c-1.98-1.98-2.98-4.51-2.98-7.6c0-1.99,0.45-3.77,1.36-5.33c0.91-1.55,2.2-2.8,3.88-3.75
				c1.69-0.95,3.5-1.42,5.45-1.42c1.65,0,3.25,0.35,4.77,1.05C589.07,454.32,590.39,455.33,591.5,456.61"/>
			<polygon points="593.99,453.09 605.07,453.09 605.07,456.85 601.41,456.85 601.41,473.13 597.54,473.13 597.54,456.85 
				593.99,456.85 			"/>
			<polygon points="617.72,453.09 621.54,453.09 621.54,469.5 627.09,469.5 627.09,473.13 617.72,473.13 			"/>
			<polygon points="631.13,453.09 642.07,453.09 642.07,456.82 634.92,456.82 634.92,460.45 642.07,460.45 642.07,464.11 
				634.92,464.11 634.92,469.39 642.07,469.39 642.07,473.13 631.13,473.13 			"/>
			<polygon points="646.13,453.09 649.79,453.09 658.37,466.28 658.37,453.09 662.18,453.09 662.18,473.13 658.51,473.13 
				649.95,459.98 649.95,473.13 646.13,473.13 			"/>
			<path d="M678.5,455.82l-2.83,2.49c-0.99-1.38-1.99-2.07-3.03-2.07c-0.51,0-0.91,0.14-1.23,0.4c-0.31,0.27-0.47,0.57-0.47,0.91
				c0,0.33,0.12,0.65,0.34,0.95c0.31,0.41,1.25,1.26,2.8,2.57c1.46,1.22,2.34,1.99,2.64,2.31c0.78,0.78,1.33,1.53,1.65,2.24
				c0.32,0.71,0.48,1.5,0.48,2.33c0,1.65-0.57,3-1.71,4.08c-1.13,1.07-2.62,1.61-4.44,1.61c-1.43,0-2.67-0.35-3.73-1.05
				c-1.06-0.7-1.97-1.8-2.72-3.3l3.2-1.94c0.97,1.77,2.07,2.66,3.33,2.66c0.65,0,1.21-0.19,1.65-0.57c0.45-0.38,0.67-0.82,0.67-1.32
				c0-0.45-0.17-0.9-0.51-1.36c-0.34-0.45-1.08-1.15-2.23-2.09c-2.18-1.78-3.6-3.15-4.23-4.11c-0.63-0.97-0.96-1.94-0.96-2.9
				c0-1.39,0.53-2.59,1.59-3.58c1.06-0.99,2.37-1.5,3.93-1.5c1,0,1.95,0.24,2.86,0.69C676.46,453.75,677.44,454.59,678.5,455.82"/>
			<path d="M710.17,455.82l-2.83,2.49c-0.99-1.38-1.99-2.07-3.03-2.07c-0.51,0-0.91,0.14-1.23,0.4c-0.31,0.27-0.47,0.57-0.47,0.91
				c0,0.33,0.12,0.65,0.34,0.95c0.31,0.41,1.25,1.26,2.8,2.57c1.46,1.22,2.34,1.99,2.64,2.31c0.78,0.78,1.33,1.53,1.65,2.24
				c0.32,0.71,0.48,1.5,0.48,2.33c0,1.65-0.57,3-1.71,4.08c-1.13,1.07-2.62,1.61-4.44,1.61c-1.43,0-2.67-0.35-3.73-1.05
				c-1.06-0.7-1.96-1.8-2.72-3.3l3.2-1.94c0.97,1.77,2.07,2.66,3.33,2.66c0.65,0,1.21-0.19,1.65-0.57c0.45-0.38,0.67-0.82,0.67-1.32
				c0-0.45-0.17-0.9-0.51-1.36c-0.34-0.45-1.08-1.15-2.23-2.09c-2.18-1.78-3.6-3.15-4.23-4.11c-0.63-0.97-0.96-1.94-0.96-2.9
				c0-1.39,0.53-2.59,1.59-3.58c1.06-0.99,2.37-1.5,3.93-1.5c1,0,1.95,0.24,2.86,0.69C708.13,453.75,709.11,454.59,710.17,455.82"/>
			<polygon points="682.94,453.09 693.88,453.09 693.88,456.82 686.72,456.82 686.72,460.44 693.88,460.44 693.88,464.11 
				686.72,464.11 686.72,469.39 693.88,469.39 693.88,473.13 682.94,473.13 			"/>
		</g>
		<g>
			<g>
				<path class="st11" d="M422.15,350.46v0.25c0,0.83-0.42,1.72-1.25,2.62c-0.85,0.92-1.83,1.97-3.01,3.13l-0.75,0.76
					c-0.16,0-0.5-0.34-1-1c-1.18-1.17-2.96-2.59-5.39-4.26c-2.42-1.67-5.22-2.75-8.39-3.25l-0.5,1.5
					c-0.84,3.17-3.05,9.49-6.64,18.91c-3.59,9.44-8.77,20.71-15.52,33.81c-6.76,13.1-15.32,26.67-25.67,40.69
					c-10.35,14.02-22.7,27.13-37.06,39.32c-14.36,12.18-30.89,22.12-49.58,29.79c-18.7,7.68-39.9,11.53-63.6,11.53
					c-3.84,0-7.52-0.17-11.02-0.5h-0.75c-21.37-2.67-37.4-8.81-48.08-18.4c-10.68-9.6-16.02-21.16-16.02-34.69
					c0-16.36,6.6-32.38,19.78-48.08c13.19-15.69,30.84-29.8,52.96-42.32c22.12-12.51,47.11-22.54,75-30.05
					c27.87-7.51,56.42-11.26,85.64-11.26c9.02,0,16.7,0.33,23.04,1c3.34,0.17,5.77,0.24,7.27,0.24c1.16,0,2.91-4.26,5.25-12.76
					c2.34-8.52,4.71-18.95,7.14-31.31c2.43-12.36,4.52-24.75,6.26-37.18c1.75-12.44,2.63-22.58,2.63-30.43
					c0-5.67-0.6-8.51-1.75-8.51h-0.25c-40.57,25.38-84.81,38.31-132.73,38.81c-7.35,0-13.39-0.41-18.15-1.25
					c-4.76-0.83-8.48-1.88-11.14-3.13c-2.67-1.25-4.59-2.55-5.76-3.88c-1.17-1.33-1.86-2.5-2.12-3.5c-0.25-1.01-0.38-1.59-0.38-1.75
					c0-2.34,1.59-3.59,4.75-3.76c2.34,0,4.51,0.59,6.51,1.75c2.35,1.34,6.05,2.68,11.15,4.01c5.09,1.33,13.22,2,24.41,2
					c20.37,0,38.15-1.87,53.34-5.63c15.2-3.75,27.88-7.96,38.06-12.64c10.19-4.67,18.11-8.67,23.8-12.02
					c5.16-3.34,8.67-5.01,10.51-5.01c2.16,0,3.92,1.55,5.26,4.64c1.33,3.09,2,8.72,2,16.89c0,12.69-1.05,26.05-3.13,40.07
					c-2.08,14.02-4.38,26.66-6.89,37.94c-2.5,11.26-4.34,19.41-5.51,24.41c-0.67,2.51-1,3.85-1,4.01c0,0.17,1.09,0.5,3.25,0.99
					c2.83,0.67,5.88,1.59,9.14,2.76C419.52,346.87,421.48,348.46,422.15,350.46 M391.1,347.21c-0.34-0.5-4.09-1.04-11.28-1.63
					c-7.17-0.58-15.36-0.87-24.53-0.87c-30.05,0-58.52,3.88-85.39,11.64c-26.89,7.77-50.63,17.86-71.24,30.3
					c-20.62,12.42-36.86,25.91-48.71,40.44c-11.86,14.52-17.78,28.54-17.78,42.06c0,14.03,6.42,25.55,19.28,34.57
					c12.85,9.01,29.37,13.52,49.58,13.52c7.01-0.17,14.02-0.75,21.04-1.76c24.53-4.34,46.12-12.44,64.74-24.29
					c18.6-11.86,34.55-25.46,47.82-40.81c13.26-15.37,24.04-30.55,32.29-45.58c8.27-15.03,14.36-27.93,18.29-38.69
					C389.14,355.34,391.1,349.04,391.1,347.21"/>
				<path class="st11" d="M497.53,373.24c1.5,0,2.25,0.34,2.25,1c0,0.34-0.42,0.79-1.26,1.38c-0.82,0.57-2.24,1.13-4.25,1.63
					c-2.01,0.5-4.84,0.74-8.51,0.74c-8.53,0-15.4-1.29-20.66-3.88c-5.26-2.58-9.06-4.88-11.39-6.88c-1.34-1.17-2.26-1.76-2.75-1.76
					l-0.38,0.38c-0.09,0.09-0.12,0.21-0.12,0.38c0.82,2.35,1.32,4.85,1.49,7.51c0,9.35-2.75,17.49-8.25,24.42
					c-5.51,6.93-10.86,10.38-16.03,10.38c-5.35,0-8.11-4.09-8.26-12.27c0.16-6.68,1.83-13.4,5.01-20.16
					c3.16-6.76,7.02-11.81,11.51-15.15c0-0.17,0.08-0.25,0.26-0.25c1-0.83,1.7-1.42,2.12-1.75c0.41-0.34,0.63-0.75,0.63-1.26v-0.24
					c0-0.33,0.04-0.88,0.12-1.62c0.09-0.75,0.3-1.42,0.62-2.01c0.34-0.58,0.85-0.88,1.5-0.88c1.84,0,4.59,1.85,8.27,5.51
					c3.67,3.34,8.47,6.89,14.41,10.65c5.92,3.76,13.06,5.64,21.41,5.64c4.01,0,6.84-0.34,8.51-1.01
					C495.11,373.41,496.36,373.24,497.53,373.24 M430.16,404.05c1.83,0,4.14-1.42,6.89-4.26c2.76-2.84,5.22-6.68,7.38-11.51
					c2.17-4.85,3.26-10.2,3.26-16.04v-1.25c0-0.83-0.17-1.79-0.51-2.87c-0.33-1.08-0.79-2.04-1.38-2.89
					c-0.58-0.83-1.45-1.25-2.63-1.25c-1.49,0-3.54,2.13-6.13,6.38c-2.59,4.27-4.88,9.11-6.89,14.53c-2,5.43-3,9.97-3,13.65
					C427.16,402.05,428.16,403.87,430.16,404.05"/>
				<path class="st11" d="M577.16,373.75c0.16,0,0.29,0.04,0.38,0.13c0.08,0.08,0.12,0.21,0.12,0.37c0,1.67-2.62,5.51-7.88,11.52
					c-5.26,6.02-11.76,12.52-19.53,19.53c-7.77,7.02-15.79,13.11-24.04,18.28c-8.27,5.17-15.49,7.77-21.66,7.77
					c-1.17,0-2.89-0.42-5.13-1.26c-2.25-0.83-4.34-3-6.26-6.51c-1.92-3.51-2.88-9.01-2.88-16.52c0-17.7,5.04-39.19,15.15-64.49
					c10.09-25.29,21.41-47.66,33.93-67.11c12.53-19.44,22.54-29.17,30.05-29.17c2.84,0,4.35,2.67,4.51,8.01
					c0,7.18-4.13,19.28-12.4,36.3c-8.26,17.03-17.61,33.65-28.04,49.84c-10.45,16.2-19.42,27.72-26.93,34.56
					c-2.33,2.34-4.34,7.09-6,14.27c-1.67,7.19-2.5,13.86-2.5,20.04v1.26c0,1.16,0.12,3,0.38,5.51c0.25,2.5,0.96,4.8,2.13,6.88
					c1.17,2.09,3,3.13,5.5,3.13c7.35,0,15.61-3.29,24.79-9.89c9.18-6.6,17.68-13.69,25.55-21.28c7.85-7.6,13.68-13.57,17.52-17.91
					C575.91,374.83,576.99,373.75,577.16,373.75 M505.79,370.99c0.51,0,2.08-1.67,4.75-5.02c3.5-4,9.9-13.1,19.15-27.29
					c9.26-14.19,18.12-29.5,26.55-45.95c8.42-16.44,12.64-29.18,12.64-38.18v-1.13c0-0.25-0.17-0.37-0.51-0.37
					c-3.83,0-9.22,5.3-16.15,15.9c-6.93,10.6-13.94,23.01-21.04,37.18c-7.1,14.2-13.15,27.51-18.16,39.95
					c-5.01,12.43-7.51,20.49-7.51,24.16v0.26v0.37C505.54,370.95,505.62,370.99,505.79,370.99"/>
				<path class="st11" d="M644.27,373.75h0.62c0.08,0,0.12,0.08,0.12,0.25c0,0.33-2.09,2.34-6.26,6.01
					c-4.18,3.66-9.39,7.8-15.66,12.39c-6.26,4.59-12.73,8.67-19.4,12.27c-6.68,3.58-12.43,5.38-17.28,5.38h-1.5
					c-1.5,0-2.84-0.17-4-0.5c-6.52-2.51-9.77-7.85-9.77-16.03c0-4.17,0.8-8.93,2.38-14.27c1.6-5.34,3.59-10.06,6.01-14.15
					c2.42-4.08,4.8-6.13,7.13-6.13c1.01,0.16,1.84,0.58,2.51,1.25c0.67,0.66,1,1.5,1,2.5c0,1.84-1.08,4.93-3.25,9.27
					c-1.51,3.33-3.01,6.96-4.52,10.89c-1.49,3.92-2.24,7.8-2.24,11.65c0,3.66,1.04,6.2,3.13,7.63c2.09,1.42,4.8,2.12,8.14,2.12
					c5.34,0,11.81-2.47,19.41-7.38c7.6-4.93,14.49-9.82,20.66-14.65C638.5,376.58,642.76,373.75,644.27,373.75"/>
			</g>
		</g>
		<g class="st12">
			<g>
				<path d="M590.06,333.51c0.02-0.01,0.04-0.01,0.06-0.02C590.09,333.5,590.07,333.5,590.06,333.51c0.02,0.05,0.03,0.09,0.04,0.14
					c0.42,1.84,1.38,3.33,2.87,4.49c0.33,0.25,0.71,0.4,1.01,0.69c0.24,0.07,0.48,0.25,0.76,0.16c0.02,0.01,0.02,0.02,0.03,0.04
					c0.06,0.03,0.03,0.09,0.04,0.14c0.04,0,0.09,0,0.13,0c1.4,0.46,2.8,0.41,4.18-0.04c0.01-0.07,0.04-0.09,0.09-0.04l0.01,0
					c0.93-0.23,1.78-0.65,2.55-1.23c0-0.14,0.11-0.12,0.19-0.16c0.05-0.02,0.1-0.04,0.14-0.07c0.16-0.12,0.32-0.22,0.45-0.35
					c2.9-2.47,3.74-5.71,3.49-9.36l0,0c0-0.87-0.09-1.73-0.19-2.58c-0.15-1.24-0.3-2.49-0.58-3.71h-0.01c0.03-0.1,0-0.2-0.05-0.3
					c-0.01-0.07-0.03-0.15-0.05-0.23c-0.05-0.43-0.1-0.85-0.29-1.25c0.01-0.02,0.01-0.03,0.01-0.05v0.01c-0.03-0.03-0.03-0.07,0-0.1
					l0-0.01c-0.14-0.04-0.14-0.12-0.06-0.22v-0.01c0-0.14-0.02-0.27-0.09-0.39c-0.06-0.03-0.04-0.08-0.03-0.13
					c-0.12-0.34-0.13-0.72-0.28-1.06c0.05-0.04,0.06-0.07,0.01-0.12c0.01,0-0.02,0-0.02,0c-0.13-0.12-0.11-0.25-0.07-0.39l0,0
					c-0.01-0.12-0.01-0.24-0.09-0.34v0.01c-0.06-0.02-0.04-0.06-0.02-0.09c-0.16-0.5-0.19-1.05-0.4-1.54c-0.07-0.14-0.07-0.14-0.3,0
					c-0.03,0.03-0.06,0.05-0.1,0.04l0,0c-1.58,0.6-2.94,1.55-4.27,2.57h0.01c-0.07,0.2-0.25,0.27-0.43,0.34l0.01-0.01
					c-0.19,0.08-0.33,0.23-0.49,0.36c-0.02,0.03-0.06,0.05-0.1,0.07c-0.06,0.06-0.12,0.12-0.18,0.17c-0.07,0.16-0.18,0.29-0.36,0.33
					v-0.01c-0.01,0.06-0.03,0.08-0.08,0.06c-0.11,0.05-0.21,0.13-0.27,0.24l0.01,0.01c-0.17,0.04-0.27,0.18-0.39,0.29
					c-1.17,1.03-2.29,2.13-3.42,3.21c-1.81,1.75-3.03,3.84-3.48,6.35c-0.23,1.28-0.28,2.57,0.02,3.85
					C590.03,333.39,590.05,333.45,590.06,333.51"/>
				<path d="M616.81,345.58L616.81,345.58c-0.04,0-0.07-0.02-0.08-0.06h0c-1.3-1.09-2.8-1.81-4.34-2.46l0,0
					c-0.16-0.12-0.33-0.18-0.51-0.21l0.01,0c-0.16-0.13-0.36-0.18-0.55-0.24c-0.04-0.02-0.08-0.04-0.12-0.06l-0.23-0.07
					c-0.19,0.01-0.35-0.02-0.47-0.16h0.01c-0.04,0.02-0.08,0.01-0.09-0.05v0.01c-0.1-0.07-0.21-0.13-0.33-0.12l-0.01,0.01
					c-0.12-0.13-0.29-0.14-0.45-0.2c-1.47-0.52-2.97-0.94-4.46-1.4c-2.41-0.72-4.81-0.76-7.21,0.09c-1.23,0.44-2.35,1.03-3.32,1.92
					c-0.05,0.05-0.1,0.09-0.15,0.13c-0.04,0.04-0.07,0.07-0.09,0.11c-1.39,1.28-2.2,2.86-2.47,4.73c-0.06,0.41,0,0.82-0.1,1.22
					c0.07,0.25,0.01,0.55,0.24,0.75c0,0.01-0.01,0.04-0.03,0.04c0,0.07-0.06,0.07-0.1,0.1c0.03,0.03,0.05,0.08,0.08,0.12
					c0.28,1.45,1.03,2.65,2.1,3.64c0,0,0,0,0,0v0c0.07-0.03,0.1-0.02,0.07,0.05v0c0.66,0.71,1.45,1.23,2.32,1.62
					c0.06,0.08,0.14,0.12,0.24,0.1c0.04,0.03,0.08,0.06,0.13,0.09c0.17,0.07,0.34,0.16,0.52,0.22c3.56,1.32,6.77,0.44,9.81-1.58l0,0
					c0.74-0.43,1.45-0.93,2.14-1.44c1-0.74,1.99-1.49,2.91-2.34c0-0.17,0.11-0.18,0.23-0.2c0,0.01,0,0,0,0.01
					c0.06-0.05,0.12-0.1,0.18-0.16c0.33-0.26,0.68-0.51,0.94-0.87c0.01-0.01,0.03-0.01,0.04-0.02v0c0.01-0.04,0.04-0.06,0.08-0.04
					l0.01,0c-0.04-0.15,0.04-0.19,0.16-0.16l0.01,0c0-0.2,0.14-0.23,0.29-0.26h-0.01c0-0.08,0.05-0.08,0.1-0.1
					c0.24-0.28,0.57-0.47,0.78-0.77c0.04-0.03,0.04-0.12,0.12-0.04l-0.01-0.02c0.03-0.17,0.16-0.23,0.3-0.27v0.01
					c0-0.17,0.11-0.2,0.24-0.24v0.01c-0.01-0.06,0.03-0.07,0.07-0.07c0.36-0.39,0.81-0.69,1.13-1.11c-0.03,0-0.03,0-0.06,0
					c-0.28,0.05-0.47,0.25-0.7,0.37c0.23-0.12,0.42-0.32,0.7-0.37c0.02,0,0.03,0,0.06,0C617.05,345.72,617.05,345.72,616.81,345.58"
					/>
				<path d="M591.9,344.68L591.9,344.68c-0.06-0.05-0.06-0.08,0.02-0.09l0,0c0.31-0.91,0.41-1.85,0.34-2.82
					c0.04-0.09,0.04-0.17-0.02-0.25l0.01-0.16c-0.01-0.19-0.01-0.38-0.04-0.57c-0.51-3.78-2.77-6.24-5.97-8l0.01,0
					c-0.72-0.47-1.49-0.86-2.27-1.24c-1.12-0.55-2.25-1.08-3.41-1.5v0c-0.07-0.08-0.17-0.11-0.28-0.12
					c-0.07-0.02-0.15-0.06-0.22-0.09c-0.39-0.18-0.77-0.37-1.2-0.43c-0.01-0.02-0.02-0.02-0.04-0.03h0.01
					c-0.05,0.01-0.07,0-0.08-0.05l-0.01-0.02c-0.12,0.1-0.18,0.06-0.22-0.07h-0.01c-0.12-0.08-0.24-0.13-0.37-0.14
					c-0.06,0.05-0.1-0.01-0.13-0.04c-0.35-0.08-0.68-0.28-1.05-0.33c-0.03-0.02-0.12,0.02-0.09-0.08l-0.01,0.02
					c-0.16,0.06-0.28-0.03-0.38-0.14h0.01c-0.14,0.08-0.24-0.01-0.33-0.11h0.01c-0.05,0.04-0.07,0.01-0.1-0.03
					c-0.51-0.13-0.98-0.39-1.5-0.48c-0.15-0.02-0.15-0.02-0.16,0.25c0.02,0.04,0.02,0.07-0.01,0.09c-0.35,1.66-0.29,3.34-0.15,5l0,0
					c-0.02,0.19,0,0.38,0.05,0.56c0-0.01,0-0.01,0-0.01c-0.04,0.2,0.01,0.4,0.04,0.6c0.01,0.05,0.01,0.08,0.01,0.13
					c0.01,0.08,0.02,0.16,0.04,0.24c0.09,0.15,0.14,0.31,0.08,0.49l-0.01-0.01c0.04,0.03,0.06,0.06,0,0.1l0.01,0
					c-0.02,0.12-0.01,0.25,0.05,0.36h0.01c-0.06,0.17,0.01,0.33,0.03,0.49c0.23,1.55,0.55,3.08,0.85,4.62
					c0.48,2.49,1.57,4.65,3.44,6.38c0.96,0.88,2.01,1.62,3.25,2.06c0.06,0.03,0.12,0.05,0.18,0.07c0-0.02,0-0.04,0.01-0.07
					c-0.01,0.02-0.01,0.04-0.01,0.07c0.04,0.02,0.09,0.02,0.14,0.04c1.77,0.63,3.54,0.62,5.3-0.01c0.39-0.14,0.72-0.39,1.13-0.48
					c0.19-0.17,0.47-0.27,0.55-0.56c0.02-0.01,0.04-0.01,0.06,0c0.06-0.04,0.09,0.02,0.13,0.05c0.03-0.04,0.05-0.09,0.07-0.13v0.01
					C590.82,347.31,591.52,346.1,591.9,344.68 M592.1,341.05c-0.05,0.03-0.1,0.05-0.16,0.01C592,341.1,592.05,341.08,592.1,341.05
					c0.01,0.04,0.04,0.07,0.06,0.1C592.14,341.12,592.11,341.09,592.1,341.05"/>
			</g>
		</g>
	</g>
	<g>
		<path class="st1" d="M594.64,339.22c-0.05,0-0.1,0.01-0.14,0.01c0-0.04,0.02-0.09-0.03-0.13c-0.01-0.02-0.01-0.04-0.03-0.04
			c-0.14-0.7-0.39-1.36-0.61-2.04c-0.17-0.57-0.29-1.14-0.55-1.68c0.01-0.03,0.03-0.07,0.05-0.11c0.13,0.04,0.22-0.06,0.31-0.12
			c0.71-0.49,1.4-1,2.11-1.5c0.38-0.27,0.73-0.59,1.17-0.79l0.02,0.01l0.03,0.01c0.34,1.37,0.69,2.74,1.03,4.11
			c0.06,0.23,0.1,0.31,0.33,0.14c1.08-0.86,2.14-1.75,3.2-2.64c0.02,0.01,0.03,0.02,0.05,0.02c-0.03,0.96-0.01,1.93,0.02,2.89
			c0.01,0.06,0.04,0.09,0.1,0.12c-0.06,0.09-0.16,0.17-0.16,0.29c-0.04,0.02-0.09,0.05-0.13,0.07c-0.09,0.03-0.2,0.01-0.2,0.15
			c-0.06-0.07-0.12-0.02-0.17,0c-0.72,0.33-1.42,0.67-2.13,1.01c-0.06,0.03-0.17,0.04-0.14,0.17c-0.06-0.05-0.08-0.03-0.09,0.03
			c-0.14-0.03-0.24-0.07-0.27-0.27c-0.05-0.46-0.16-0.91-0.23-1.37c-0.03-0.24-0.11-0.23-0.29-0.13c-0.48,0.27-0.97,0.52-1.45,0.78
			C595.84,338.55,595.2,338.82,594.64,339.22L594.64,339.22z"/>
		<path class="st2" d="M597.57,319.9c0.06-0.05,0.12-0.11,0.18-0.16c0.02,0.02,0.06,0.02,0.1,0.03c-0.27,0.64-0.54,1.28-0.74,1.79
			c0.4-0.63,0.72-1.47,1.19-2.23l-0.01,0c0.17-0.07,0.36-0.13,0.42-0.33l0,0.01c0.14,0.03,0.23-0.07,0.32-0.13
			c0.84-0.51,1.68-1.01,2.52-1.52c0.43-0.26,0.88-0.5,1.27-0.82v0.01c0.04,0.01,0.07-0.01,0.09-0.05h-0.01c0,0.3-0.3,0.45-0.36,0.72
			c-0.02,0.05-0.04,0.11-0.07,0.14c-0.51,0.6-0.99,1.22-1.41,1.87c-0.27,0.41-0.61,0.75-0.83,1.18c-0.35,0.12-0.57,0.42-0.84,0.66
			c-1.17,1.08-2.34,2.16-3.52,3.22c-0.15,0.14-0.21,0.33-0.39,0.43c-0.77,0.41-1.53,0.86-2.31,1.24c-0.3,0.14-0.56,0.41-0.94,0.38
			c0.22-0.52,0.42-1.05,0.67-1.55c0.22-0.41,0.33-0.86,0.7-1.19c0.87-0.78,1.73-1.57,2.57-2.38c0.24-0.23,0.57-0.39,0.71-0.74
			l0-0.01c0.19,0.04,0.23-0.1,0.26-0.23v0c0.05,0.02,0.07,0,0.08-0.06l-0.01,0.01C597.4,320.17,597.51,320.06,597.57,319.9"/>
		<path class="st2" d="M603.78,318.86c0.15,0.32,0.16,0.68,0.27,1.02c-0.01,0.05-0.03,0.1,0.03,0.13c-0.04,0.14-0.08,0.27,0.09,0.36
			v0.01c-0.09,0.09-0.09,0.17,0.06,0.21l-0.01,0.02c-0.04,0.02-0.04,0.06,0,0.09l0-0.01c0,0.01,0,0.03,0,0.05
			c0.18,0.38,0.22,0.79,0.28,1.19c-0.02,0.09-0.1,0.18,0.04,0.23v0c-0.04,0.11-0.09,0.21,0.05,0.29h0.01
			c-0.1,0.09-0.04,0.2-0.03,0.3c0.16,1.27,0.32,2.54,0.49,3.81c0.09,0.64,0.11,1.28,0.28,1.91v-0.01c-0.03,0.07-0.05,0.14-0.07,0.22
			c-0.27,0.87-0.49,1.75-0.81,2.61c-0.27-0.67-0.42-1.37-0.65-2.05c-0.14-0.45-0.2-0.92-0.42-1.35c-0.08-1.39-0.17-2.79-0.26-4.18
			c-0.05-0.71-0.05-1.42-0.16-2.12c0.01-0.06,0.03-0.1,0.03-0.16c0.07-1.37,0.11-2.74,0.17-4.12c0.01-0.26-0.06-0.52,0.03-0.77
			c0.01-0.02,0.01-0.03,0.02-0.04c0.21,0.47,0.24,0.99,0.39,1.47c-0.01,0.04-0.03,0.08,0.02,0.1v-0.01
			c-0.02,0.12-0.05,0.24,0.08,0.32v-0.01c-0.03,0.14-0.05,0.28,0.08,0.38l0.02,0C603.7,318.77,603.77,318.83,603.78,318.86"/>
		<path class="st3" d="M593.28,335.34c0.25,0.54,0.38,1.12,0.56,1.68c0.2,0.67,0.46,1.34,0.6,2.04c-0.28,0.09-0.49-0.09-0.74-0.16
			c-0.29-0.28-0.66-0.43-0.97-0.66c-1.43-1.11-2.35-2.54-2.76-4.3l0.03-0.02c0.1,0.07,0.17,0.17,0.22,0.28
			c0.36,0.77,0.72,1.55,1.08,2.32c0.14,0.31,0.16,0.3,0.44,0.08C592.25,336.18,592.73,335.71,593.28,335.34"/>
		<path class="st3" d="M596.89,320.49c-0.13,0.34-0.46,0.51-0.71,0.74c-0.84,0.81-1.7,1.6-2.57,2.38c-0.37,0.33-0.49,0.78-0.7,1.19
			c-0.25,0.5-0.45,1.03-0.67,1.55c-0.57,0.78-1.15,1.56-1.72,2.35c-0.14,0.2-0.31,0.41-0.33,0.69c-0.03,0.63-0.07,1.27-0.12,1.91
			c-0.05,0.77-0.11,1.54-0.17,2.31l-0.01,0.01c-0.29-1.23-0.25-2.46-0.03-3.69c0.43-2.4,1.61-4.4,3.36-6.08
			c1.08-1.03,2.15-2.09,3.28-3.07C596.63,320.67,596.73,320.53,596.89,320.49"/>
		<path class="st3" d="M594.64,339.22c0.56-0.4,1.2-0.67,1.79-1.02c0.48-0.27,0.97-0.52,1.45-0.78c0.18-0.1,0.26-0.11,0.29,0.13
			c0.07,0.46,0.17,0.91,0.23,1.37c0.03,0.2,0.13,0.24,0.27,0.27C597.32,339.62,595.98,339.67,594.64,339.22"/>
		<path class="st3" d="M604.45,331.29c0.31-0.86,0.54-1.74,0.8-2.61c0.02-0.07,0.05-0.14,0.07-0.22c0.24,3.5-0.56,6.61-3.36,8.97
			c-0.13,0.12-0.29,0.22-0.43,0.33c0.01-0.12,0.1-0.19,0.16-0.29c0.03-0.01,0.06-0.01,0.08-0.04c0.73-0.81,1.45-1.63,2.17-2.44
			c0.08-0.09,0.07-0.19,0.09-0.3c0.12-1.05,0.23-2.1,0.36-3.15C604.45,331.47,604.45,331.39,604.45,331.29"/>
		<path class="st3" d="M605.32,328.47c-0.16-0.63-0.19-1.27-0.28-1.91c-0.17-1.27-0.33-2.54-0.49-3.81c-0.01-0.1-0.07-0.21,0.03-0.3
			c0.27,1.16,0.41,2.35,0.56,3.54C605.25,326.82,605.32,327.64,605.32,328.47"/>
		<path class="st3" d="M602.83,316.53c-0.39,0.33-0.84,0.56-1.27,0.82c-0.84,0.51-1.68,1.02-2.52,1.52
			c-0.1,0.06-0.19,0.16-0.32,0.12C599.99,318.02,601.31,317.11,602.83,316.53"/>
		<path class="st3" d="M598.75,339.15c-0.04-0.13,0.09-0.14,0.15-0.17c0.71-0.33,1.41-0.67,2.13-1c0.04-0.02,0.1-0.07,0.17,0
			C600.46,338.54,599.65,338.94,598.75,339.15"/>
		<path class="st4" d="M598.3,319.32c-0.47,0.76-0.79,1.6-1.19,2.23c0.2-0.51,0.47-1.14,0.74-1.78h-0.01c0.05,0,0.06-0.02,0.03-0.07
			c0-0.02-0.01-0.03-0.01-0.04C597.98,319.54,598.12,319.39,598.3,319.32"/>
		<path class="st4" d="M603.21,316.5c-0.01,0.01-0.02,0.02-0.03,0.04c-0.29,0.15-0.35,0.5-0.62,0.68c0.05-0.28,0.35-0.43,0.36-0.72
			C603.13,316.37,603.13,316.37,603.21,316.5"/>
		<path class="st3" d="M598.72,319c-0.07,0.2-0.25,0.26-0.43,0.32C598.41,319.19,598.55,319.08,598.72,319"/>
		<path class="st3" d="M597.57,319.9c-0.06,0.16-0.17,0.27-0.35,0.32C597.29,320.06,597.43,319.98,597.57,319.9"/>
		<path class="st3" d="M603.77,318.75c-0.13-0.11-0.11-0.24-0.08-0.38C603.75,318.49,603.8,318.61,603.77,318.75"/>
		<path class="st4" d="M604.17,320.38c-0.16-0.09-0.13-0.23-0.09-0.36C604.15,320.12,604.17,320.25,604.17,320.38"/>
		<path class="st3" d="M603.7,318.38c-0.13-0.08-0.11-0.2-0.08-0.32C603.68,318.15,603.7,318.26,603.7,318.38"/>
		<path class="st3" d="M597.14,320.26c-0.04,0.13-0.07,0.27-0.26,0.23C596.94,320.38,597.03,320.31,597.14,320.26"/>
		<path class="st3" d="M604.58,322.45c-0.14-0.08-0.09-0.19-0.05-0.29C604.58,322.25,604.6,322.35,604.58,322.45"/>
		<path class="st4" d="M604.22,320.6c-0.14-0.04-0.14-0.12-0.06-0.21C604.19,320.45,604.2,320.53,604.22,320.6"/>
		<path class="st3" d="M604.53,322.17c-0.14-0.05-0.06-0.14-0.04-0.23C604.51,322.02,604.52,322.1,604.53,322.17"/>
		<path class="st3" d="M601.2,337.98c0-0.14,0.11-0.12,0.2-0.15C601.37,337.92,601.3,337.96,601.2,337.98"/>
		<path class="st3" d="M603.78,318.86c0-0.04-0.08-0.09,0.02-0.12C603.83,318.79,603.82,318.83,603.78,318.86"/>
		<path class="st3" d="M589.92,333.8c-0.01-0.06-0.02-0.13-0.03-0.19l0.01,0c0.03,0.06,0.05,0.12,0.07,0.17
			C589.96,333.79,589.94,333.79,589.92,333.8"/>
		<path class="st4" d="M597.84,319.77c-0.03-0.01-0.07-0.02-0.09-0.03c0.02-0.03,0.06-0.04,0.09-0.07c0.01,0.02,0.01,0.04,0.02,0.05
			C597.86,319.73,597.85,319.75,597.84,319.77z"/>
		<path class="st3" d="M589.97,333.94l-0.04-0.13c0.02-0.01,0.04-0.02,0.06-0.03c0.03,0.04,0.03,0.1,0.01,0.14L589.97,333.94z"/>
		<path class="st4" d="M604.08,320.01c-0.07-0.02-0.04-0.08-0.03-0.12C604.09,319.92,604.1,319.96,604.08,320.01"/>
		<path class="st3" d="M603.62,318.06c-0.06-0.02-0.05-0.06-0.03-0.09C603.63,317.99,603.64,318.02,603.62,318.06"/>
		<path class="st3" d="M597.22,320.2c-0.01,0.06-0.03,0.08-0.08,0.06C597.16,320.22,597.17,320.18,597.22,320.2"/>
		<path class="st4" d="M604.21,320.75c0-0.01,0-0.03,0-0.05C604.23,320.72,604.23,320.73,604.21,320.75"/>
		<path class="st4" d="M604.22,320.7c-0.03-0.03-0.04-0.06,0-0.09C604.25,320.64,604.25,320.67,604.22,320.7"/>
		<path class="st3" d="M598.67,339.19c0-0.07,0.03-0.08,0.09-0.03C598.74,339.2,598.7,339.2,598.67,339.19"/>
		<path class="st3" d="M602.92,316.49c-0.02,0.04-0.05,0.06-0.09,0.04C602.83,316.49,602.86,316.48,602.92,316.49"/>
		<path class="st3" d="M594.47,339.1c0.05,0.03,0.03,0.09,0.03,0.13C594.45,339.2,594.45,339.15,594.47,339.1"/>
		<path class="st4" d="M590,333.93c0.01-0.05,0.01-0.1-0.01-0.15c-0.03-0.05-0.05-0.11-0.07-0.17c0.06-0.77,0.12-1.54,0.17-2.31
			c0.04-0.64,0.09-1.27,0.12-1.91c0.01-0.28,0.18-0.49,0.33-0.69c0.56-0.79,1.14-1.57,1.72-2.35c0.38,0.03,0.65-0.24,0.94-0.39
			c0.79-0.38,1.54-0.83,2.31-1.24c0.19-0.1,0.24-0.29,0.38-0.43c1.18-1.06,2.36-2.14,3.53-3.22c0.27-0.24,0.49-0.53,0.84-0.65
			c-0.1,0.69-0.19,1.38-0.28,2.07c-0.16,1.25-0.31,2.5-0.47,3.74c0,0.05,0,0.09,0,0.14c-0.11-0.04-0.19,0.03-0.27,0.07
			c-0.38,0.17-0.75,0.34-1.1,0.53c-0.73,0.4-1.48,0.75-2.22,1.12c-0.16,0.08-0.21,0.2-0.21,0.36c-0.13-0.05-0.22,0.05-0.3,0.11
			c-0.86,0.65-1.72,1.32-2.6,1.96c-0.3,0.22-0.31,0.47-0.24,0.8c0.18,0.84,0.32,1.71,0.5,2.56c0.08,0.45,0.19,0.91,0.28,1.36
			c-0.02,0.04-0.03,0.07-0.05,0.11c-0.56,0.37-1.04,0.83-1.56,1.25c-0.28,0.23-0.3,0.24-0.44-0.07c-0.36-0.77-0.71-1.55-1.08-2.33
			C590.17,334.09,590.09,333.99,590,333.93"/>
		<path class="st3" d="M595.69,328.45c0-0.17,0.05-0.29,0.21-0.37c0.74-0.36,1.49-0.71,2.21-1.11c0.36-0.21,0.73-0.37,1.1-0.54
			c0.08-0.04,0.16-0.11,0.27-0.08c0.43,1.31,0.85,2.61,1.28,3.92l-0.04,0.1c-0.04,0.02-0.1,0.03-0.14,0.06
			c-1.21,0.8-2.41,1.61-3.61,2.41l-0.03-0.01c0,0-0.03-0.01-0.03,0C596.5,331.37,596.1,329.91,595.69,328.45"/>
		<path class="st5" d="M596.96,332.85c1.2-0.81,2.4-1.61,3.61-2.41c0.04-0.03,0.1-0.04,0.14-0.06c0,0.3,0.09,0.58,0.15,0.87
			c0.1,0.56,0.21,1.11,0.32,1.67c0.1,0.51,0.23,1.02,0.34,1.52c-1.06,0.89-2.12,1.79-3.2,2.64c-0.23,0.18-0.27,0.09-0.33-0.13
			C597.66,335.58,597.31,334.21,596.96,332.85"/>
		<path class="st2" d="M595.69,328.45c0.41,1.46,0.82,2.92,1.23,4.38c-0.43,0.2-0.78,0.51-1.16,0.78c-0.7,0.5-1.4,1-2.11,1.5
			c-0.09,0.06-0.18,0.16-0.31,0.12c-0.1-0.45-0.2-0.9-0.28-1.36c-0.18-0.85-0.32-1.71-0.5-2.56c-0.07-0.33-0.06-0.59,0.24-0.8
			c0.88-0.65,1.74-1.31,2.61-1.96C595.47,328.5,595.56,328.4,595.69,328.45"/>
		<path class="st6" d="M601.53,334.45c-0.12-0.5-0.24-1.01-0.34-1.52c-0.11-0.55-0.22-1.11-0.32-1.67
			c-0.05-0.29-0.15-0.58-0.14-0.88l0.04-0.1c0.04-0.02,0.09-0.03,0.12-0.06c0.78-0.69,1.56-1.38,2.34-2.08
			c0.07-0.07,0.12-0.16,0.16-0.25c0.22,0.43,0.27,0.91,0.42,1.35c0.22,0.68,0.37,1.38,0.65,2.05c0.01,0.09,0.01,0.17-0.05,0.25
			c-0.94,0.98-1.87,1.95-2.82,2.93C601.56,334.46,601.54,334.46,601.53,334.45"/>
		<path class="st2" d="M601.59,334.47c0.93-0.98,1.87-1.95,2.81-2.93c-0.12,1.04-0.25,2.1-0.36,3.15c-0.02,0.1-0.01,0.21-0.09,0.3
			c-0.73,0.81-1.46,1.63-2.18,2.44c-0.02,0.02-0.05,0.03-0.08,0.04c-0.05-0.03-0.1-0.06-0.1-0.12
			C601.57,336.4,601.55,335.43,601.59,334.47"/>
		<path class="st1" d="M599.49,326.23c0.16-1.25,0.31-2.5,0.48-3.74c0.09-0.7,0.18-1.39,0.28-2.09c0.23-0.43,0.56-0.77,0.83-1.17
			c0.42-0.66,0.91-1.28,1.41-1.88c0.03-0.03,0.04-0.09,0.07-0.14c0.27-0.17,0.33-0.53,0.62-0.67c-0.09,0.25-0.01,0.51-0.03,0.77
			c-0.06,1.37-0.11,2.75-0.17,4.12c0,0.06-0.02,0.11-0.03,0.16c-0.73,0.99-1.46,1.98-2.19,2.97
			C600.34,325.12,599.97,325.72,599.49,326.23"/>
		<path class="st7" d="M599.49,326.23c0.49-0.51,0.85-1.11,1.27-1.67c0.74-0.99,1.46-1.98,2.19-2.97c0.12,0.7,0.12,1.41,0.16,2.12
			c0.1,1.4,0.18,2.79,0.26,4.17c-0.03,0.09-0.07,0.18-0.14,0.25c-0.78,0.69-1.56,1.38-2.34,2.08c-0.03,0.03-0.07,0.04-0.12,0.06
			c-0.42-1.3-0.85-2.61-1.28-3.91C599.49,326.32,599.49,326.28,599.49,326.23"/>
		<path class="st2" d="M597.84,319.78c0.01-0.02,0.02-0.04,0.03-0.07C597.9,319.75,597.89,319.78,597.84,319.78"/>
		<path class="st1" d="M591.85,349.41c-0.02-0.04-0.04-0.08-0.07-0.12c0.04-0.03,0.1-0.03,0.1-0.1c0.01-0.01,0.01-0.02,0.01-0.04
			c0.54-0.47,0.99-1.01,1.47-1.53c0.41-0.43,0.85-0.82,1.19-1.31c0.04-0.01,0.08-0.01,0.11-0.02c0.04,0.14,0.17,0.16,0.27,0.21
			c0.78,0.36,1.57,0.72,2.34,1.08c0.42,0.19,0.88,0.35,1.26,0.62l0.01,0.03l0,0.02c-1.02,0.98-2.04,1.95-3.06,2.93
			c-0.17,0.16-0.22,0.24,0.04,0.35c1.29,0.52,2.59,1,3.89,1.47c0,0.03,0.01,0.05,0.01,0.06c-0.85,0.46-1.68,0.95-2.5,1.45
			c-0.06,0.04-0.06,0.09-0.06,0.15c-0.11-0.01-0.22-0.05-0.33,0l-0.12-0.08c-0.06-0.06-0.11-0.17-0.23-0.09
			c0.03-0.09-0.04-0.12-0.08-0.16c-0.65-0.45-1.29-0.9-1.93-1.35c-0.06-0.03-0.13-0.14-0.22-0.05c0.01-0.07-0.02-0.09-0.08-0.06
			v0.01c-0.03-0.14-0.05-0.25,0.1-0.37c0.37-0.27,0.71-0.59,1.08-0.87c0.19-0.14,0.15-0.21-0.03-0.32c-0.47-0.28-0.93-0.59-1.4-0.87
			C593.02,350.11,592.47,349.69,591.85,349.41L591.85,349.41z"/>
		<path class="st2" d="M610.1,342.4c0.08,0.03,0.15,0.05,0.22,0.07c0.01,0.03,0.01,0.07,0.02,0.1c-0.68,0.09-1.36,0.18-1.91,0.24
			c0.75,0.04,1.64-0.1,2.53-0.07l-0.01-0.01c0.14,0.12,0.28,0.24,0.49,0.2h-0.01c0.04,0.13,0.17,0.16,0.27,0.22
			c0.85,0.49,1.72,0.97,2.57,1.45c0.44,0.24,0.86,0.52,1.34,0.7l-0.01,0c0.01,0.05,0.04,0.06,0.09,0.06l0,0
			c-0.26,0.14-0.54-0.05-0.81,0.05c-0.06,0-0.11,0.02-0.17,0.01c-0.77-0.15-1.54-0.25-2.33-0.3c-0.48-0.03-0.95-0.15-1.43-0.13
			c-0.28-0.24-0.65-0.3-0.98-0.41c-1.52-0.48-3.04-0.97-4.55-1.47c-0.19-0.06-0.38-0.01-0.56-0.12c-0.74-0.46-1.5-0.9-2.22-1.4
			c-0.27-0.18-0.64-0.28-0.8-0.62c0.56-0.06,1.12-0.16,1.68-0.19c0.46-0.01,0.92-0.13,1.39,0.03c1.1,0.37,2.21,0.73,3.34,1.06
			c0.32,0.09,0.62,0.31,0.99,0.25l0.01-0.01c0.04,0.19,0.19,0.14,0.33,0.12h-0.01c0.01,0.06,0.04,0.06,0.09,0.04h-0.01
			C609.77,342.38,609.93,342.42,610.1,342.4"/>
		<path class="st2" d="M614.07,347.29c-0.21,0.29-0.52,0.47-0.76,0.74c-0.04,0.02-0.1,0.02-0.09,0.09
			c-0.14,0.04-0.28,0.07-0.28,0.25l-0.01,0.01c-0.13-0.03-0.19,0.01-0.16,0.15h-0.01c-0.04-0.02-0.07,0-0.08,0.05l0,0
			c-0.01,0-0.03,0.01-0.04,0.01c-0.24,0.34-0.57,0.59-0.9,0.83c-0.08,0.03-0.2,0-0.18,0.15l0,0c-0.11,0.02-0.23,0.03-0.22,0.19l0,0
			c-0.13-0.04-0.19,0.06-0.27,0.12c-1.03,0.77-2.06,1.53-3.08,2.3c-0.51,0.4-1.05,0.75-1.52,1.19c-0.07,0.01-0.14,0.02-0.22,0.03
			c-0.89,0.2-1.77,0.45-2.67,0.59c0.45-0.56,0.98-1.04,1.47-1.57c0.32-0.35,0.7-0.64,0.96-1.03c1.17-0.77,2.34-1.52,3.5-2.3
			c0.59-0.39,1.21-0.74,1.76-1.2c0.05-0.01,0.11-0.02,0.16-0.04c1.22-0.63,2.44-1.26,3.67-1.89c0.23-0.11,0.42-0.3,0.69-0.35
			c0.01-0.01,0.03-0.01,0.04,0c-0.31,0.41-0.74,0.69-1.08,1.06c-0.04,0-0.08,0.01-0.07,0.07v0c-0.11,0.03-0.23,0.07-0.23,0.23
			l0.01,0c-0.14,0.05-0.26,0.1-0.3,0.26l0.02,0.01C614.1,347.17,614.1,347.26,614.07,347.29"/>
		<path class="st3" d="M594.55,346.31c-0.34,0.48-0.78,0.87-1.19,1.31c-0.49,0.51-0.93,1.06-1.47,1.53
			c-0.21-0.2-0.17-0.48-0.23-0.72c0.1-0.39,0.04-0.79,0.1-1.18c0.25-1.79,1.04-3.3,2.37-4.52l0.03,0.01
			c-0.01,0.13-0.06,0.23-0.13,0.33c-0.49,0.68-0.99,1.38-1.48,2.07c-0.21,0.28-0.19,0.29,0.15,0.42
			C593.32,345.82,593.96,346,594.55,346.31"/>
		<path class="st3" d="M609.24,342.1c-0.36,0.06-0.67-0.16-0.99-0.25c-1.12-0.33-2.24-0.69-3.34-1.06
			c-0.46-0.16-0.92-0.04-1.38-0.03c-0.57,0.03-1.12,0.13-1.68,0.19c-0.96-0.11-1.93-0.23-2.89-0.33c-0.25-0.02-0.51-0.07-0.76,0.06
			c-0.57,0.28-1.15,0.56-1.72,0.84c-0.7,0.33-1.4,0.67-2.1,0.99l-0.01-0.01c0.93-0.86,2.02-1.42,3.2-1.85
			c2.31-0.81,4.63-0.78,6.95-0.08c1.44,0.43,2.87,0.84,4.29,1.34C608.97,341.96,609.13,341.97,609.24,342.1"/>
		<path class="st3" d="M591.85,349.4c0.62,0.29,1.18,0.71,1.77,1.06c0.47,0.28,0.93,0.59,1.4,0.87c0.18,0.1,0.22,0.17,0.03,0.32
			c-0.37,0.28-0.71,0.6-1.08,0.87c-0.16,0.11-0.14,0.22-0.1,0.37C592.83,351.93,592.12,350.79,591.85,349.4"/>
		<path class="st3" d="M603.59,354c0.9-0.14,1.78-0.39,2.66-0.59c0.08-0.01,0.16-0.02,0.22-0.03c-2.91,1.94-6.01,2.77-9.44,1.52
			c-0.18-0.06-0.34-0.15-0.51-0.22c0.1-0.05,0.22-0.01,0.33,0c0.03,0.02,0.05,0.04,0.08,0.05c1.07,0.23,2.13,0.45,3.19,0.68
			c0.12,0.02,0.21-0.02,0.3-0.07l2.92-1.24C603.44,354.1,603.52,354.06,603.59,354"/>
		<path class="st3" d="M606.47,353.38c0.46-0.44,1.01-0.8,1.52-1.19c1.02-0.77,2.05-1.53,3.07-2.3c0.08-0.07,0.16-0.16,0.27-0.14
			c-0.88,0.82-1.83,1.53-2.8,2.25C607.88,352.49,607.2,352.97,606.47,353.38"/>
		<path class="st3" d="M615.62,345.31c-0.48-0.18-0.91-0.46-1.34-0.7c-0.86-0.48-1.72-0.96-2.57-1.45c-0.1-0.05-0.23-0.08-0.27-0.22
			C612.93,343.57,614.36,344.27,615.62,345.31"/>
		<path class="st3" d="M593.95,352.95c0.09-0.09,0.16,0.01,0.22,0.04c0.64,0.45,1.28,0.9,1.92,1.35c0.04,0.04,0.13,0.07,0.09,0.16
			C595.33,354.13,594.58,353.62,593.95,352.95"/>
		<path class="st4" d="M610.96,342.75c-0.89-0.04-1.78,0.1-2.53,0.06c0.55-0.06,1.23-0.16,1.91-0.24c0.03,0.05,0.05,0.05,0.07-0.01
			c0.01-0.01,0.02-0.03,0.03-0.04C610.62,342.58,610.8,342.64,610.96,342.75"/>
		<path class="st4" d="M615.84,345.62c-0.01,0-0.03,0-0.06,0c-0.27-0.19-0.61-0.07-0.89-0.22c0.26-0.09,0.54,0.1,0.8-0.04
			C615.92,345.49,615.92,345.49,615.84,345.62"/>
		<path class="st3" d="M611.44,342.95c-0.21,0.04-0.35-0.09-0.49-0.21C611.13,342.78,611.3,342.84,611.44,342.95"/>
		<path class="st3" d="M610.1,342.4c-0.17,0.02-0.33-0.01-0.45-0.15C609.82,342.23,609.96,342.32,610.1,342.4"/>
		<path class="st3" d="M614.16,347.23c0.03-0.16,0.15-0.22,0.29-0.26C614.37,347.07,614.3,347.18,614.16,347.23"/>
		<path class="st4" d="M612.94,348.36c0-0.18,0.13-0.21,0.28-0.25C613.16,348.23,613.06,348.3,612.94,348.36"/>
		<path class="st3" d="M614.45,346.97c0-0.15,0.12-0.19,0.23-0.23C614.64,346.85,614.54,346.91,614.45,346.97"/>
		<path class="st3" d="M609.58,342.21c-0.13,0.02-0.27,0.07-0.33-0.12C609.38,342.08,609.48,342.13,609.58,342.21"/>
		<path class="st3" d="M611.34,349.76c-0.01-0.17,0.12-0.17,0.22-0.19C611.52,349.66,611.44,349.72,611.34,349.76"/>
		<path class="st4" d="M612.78,348.52c-0.04-0.14,0.03-0.17,0.16-0.15L612.78,348.52z"/>
		<path class="st3" d="M611.56,349.57c-0.02-0.15,0.1-0.13,0.18-0.15C611.68,349.48,611.63,349.53,611.56,349.57"/>
		<path class="st3" d="M596.18,354.5c0.12-0.07,0.16,0.03,0.22,0.09C596.3,354.61,596.23,354.57,596.18,354.5"/>
		<path class="st3" d="M614.07,347.29c0.03-0.03,0.03-0.12,0.11-0.05C614.16,347.29,614.11,347.31,614.07,347.29"/>
		<path class="st3" d="M594.22,342.63c0.06-0.04,0.11-0.09,0.15-0.13l0.01,0.01l-0.11,0.14
			C594.26,342.65,594.25,342.64,594.22,342.63"/>
		<path class="st4" d="M610.34,342.57c-0.01-0.03-0.01-0.07-0.02-0.09l0.11,0.04c-0.01,0.02-0.02,0.03-0.03,0.04
			C610.38,342.57,610.36,342.57,610.34,342.57z"/>
		<path class="st3" d="M594.14,342.73l0.09-0.1c0.02,0.01,0.04,0.02,0.06,0.04c-0.02,0.05-0.06,0.07-0.12,0.08L594.14,342.73z"/>
		<path class="st4" d="M613.22,348.11c-0.01-0.07,0.05-0.07,0.09-0.09C613.3,348.07,613.27,348.11,613.22,348.11"/>
		<path class="st3" d="M614.68,346.75c-0.01-0.06,0.02-0.07,0.07-0.07C614.75,346.73,614.72,346.75,614.68,346.75"/>
		<path class="st3" d="M609.66,342.25c-0.04,0.02-0.08,0.01-0.09-0.04C609.61,342.21,609.65,342.19,609.66,342.25"/>
		<path class="st4" d="M612.64,348.59c0.01,0,0.03-0.01,0.04-0.02C612.68,348.6,612.66,348.6,612.64,348.59"/>
		<path class="st4" d="M612.68,348.58c0.01-0.05,0.04-0.07,0.08-0.05C612.75,348.57,612.73,348.59,612.68,348.58"/>
		<path class="st3" d="M593.87,352.89c0.06-0.03,0.1-0.01,0.08,0.06C593.89,352.95,593.87,352.93,593.87,352.89"/>
		<path class="st3" d="M615.7,345.36c-0.05,0-0.08-0.01-0.09-0.06C615.66,345.29,615.69,345.32,615.7,345.36"/>
		<path class="st3" d="M591.88,349.19c0,0.06-0.07,0.07-0.1,0.09C591.78,349.22,591.82,349.2,591.88,349.19"/>
		<path class="st4" d="M594.16,342.74c0.05-0.01,0.1-0.02,0.12-0.09l0.11-0.14c0.7-0.33,1.4-0.66,2.1-0.99
			c0.57-0.27,1.14-0.55,1.71-0.84c0.25-0.13,0.51-0.09,0.77-0.06c0.97,0.1,1.93,0.22,2.89,0.33c0.17,0.34,0.53,0.44,0.81,0.62
			c0.71,0.5,1.47,0.94,2.21,1.4c0.17,0.11,0.38,0.06,0.56,0.12c1.51,0.5,3.04,0.98,4.55,1.47c0.34,0.1,0.7,0.16,0.98,0.4
			c-0.65,0.26-1.29,0.52-1.94,0.78c-1.16,0.48-2.33,0.96-3.49,1.44c-0.04,0.02-0.08,0.04-0.12,0.07c-0.02-0.11-0.12-0.15-0.2-0.2
			c-0.33-0.23-0.66-0.48-1.01-0.69c-0.71-0.43-1.38-0.91-2.06-1.37c-0.14-0.09-0.28-0.09-0.42,0c-0.02-0.13-0.14-0.16-0.23-0.2
			c-1-0.44-2-0.86-2.99-1.3c-0.34-0.15-0.56-0.04-0.81,0.18c-0.65,0.58-1.32,1.13-1.98,1.7c-0.35,0.3-0.7,0.61-1.05,0.92
			c-0.03,0-0.07,0.01-0.11,0.02c-0.59-0.31-1.23-0.5-1.85-0.74c-0.34-0.14-0.36-0.15-0.16-0.43c0.51-0.69,0.99-1.39,1.49-2.07
			C594.1,342.97,594.15,342.87,594.16,342.74"/>
		<path class="st3" d="M601.73,344.99c0.13-0.09,0.27-0.09,0.41,0c0.69,0.46,1.37,0.94,2.07,1.37c0.35,0.22,0.68,0.46,1.01,0.69
			c0.07,0.05,0.18,0.09,0.2,0.2c-0.92,1.02-1.84,2.03-2.76,3.05c-0.04,0-0.07,0.01-0.1,0.01c-0.04-0.02-0.09-0.07-0.13-0.09
			c-1.3-0.65-2.59-1.3-3.89-1.95v-0.02v-0.03C599.6,347.15,600.66,346.07,601.73,344.99"/>
		<path class="st5" d="M598.54,348.27c1.29,0.65,2.58,1.3,3.88,1.95c0.04,0.02,0.08,0.07,0.13,0.1c-0.27,0.14-0.48,0.37-0.7,0.55
			c-0.43,0.37-0.87,0.74-1.3,1.1c-0.38,0.35-0.77,0.7-1.16,1.05c-1.3-0.47-2.59-0.95-3.88-1.47c-0.26-0.11-0.22-0.19-0.04-0.35
			C596.5,350.23,597.52,349.25,598.54,348.27"/>
		<path class="st2" d="M601.73,344.99c-1.07,1.07-2.13,2.15-3.19,3.22c-0.39-0.28-0.84-0.43-1.27-0.62
			c-0.77-0.37-1.56-0.72-2.33-1.08c-0.1-0.05-0.23-0.08-0.27-0.21c0.34-0.31,0.69-0.62,1.04-0.92c0.65-0.57,1.33-1.13,1.98-1.7
			c0.25-0.22,0.47-0.33,0.81-0.18c0.99,0.44,2,0.86,2.99,1.3C601.59,344.82,601.7,344.86,601.73,344.99"/>
		<path class="st6" d="M599.4,353.02c0.39-0.35,0.77-0.7,1.16-1.04c0.43-0.37,0.87-0.74,1.29-1.1c0.23-0.19,0.43-0.42,0.7-0.56
			c0.03,0,0.07-0.01,0.1-0.01c0.04,0.03,0.07,0.05,0.11,0.07c0.99,0.33,1.99,0.66,2.97,1.01c0.1,0.03,0.19,0.03,0.29,0.01
			c-0.26,0.4-0.65,0.68-0.96,1.03c-0.48,0.53-1.03,1.01-1.47,1.57c-0.07,0.06-0.15,0.1-0.24,0.09c-1.31-0.32-2.63-0.67-3.94-1
			C599.41,353.07,599.4,353.05,599.4,353.02"/>
		<path class="st2" d="M599.41,353.09c1.31,0.33,2.63,0.66,3.94,1l-2.91,1.24c-0.1,0.05-0.19,0.1-0.3,0.07
			c-1.07-0.22-2.13-0.45-3.19-0.68c-0.03,0-0.06-0.03-0.08-0.05c0-0.06,0.01-0.11,0.06-0.15
			C597.73,354.03,598.55,353.54,599.41,353.09"/>
		<path class="st1" d="M605.53,347.19c1.17-0.48,2.33-0.96,3.49-1.44c0.65-0.26,1.29-0.52,1.94-0.78c0.49-0.02,0.96,0.1,1.43,0.13
			c0.79,0.05,1.56,0.16,2.33,0.3c0.06,0.01,0.11-0.01,0.17-0.02c0.28,0.15,0.62,0.03,0.89,0.21c-0.26,0.05-0.45,0.24-0.68,0.35
			c-1.23,0.63-2.44,1.27-3.67,1.89c-0.05,0.03-0.1,0.03-0.16,0.04c-1.22-0.14-2.44-0.27-3.66-0.43
			C606.92,347.39,606.22,347.36,605.53,347.19"/>
		<path class="st7" d="M605.53,347.19c0.69,0.17,1.39,0.19,2.08,0.28c1.22,0.15,2.44,0.29,3.66,0.43c-0.55,0.46-1.17,0.8-1.76,1.2
			c-1.16,0.77-2.33,1.53-3.5,2.3c-0.1,0.01-0.19,0.02-0.29-0.01c-0.99-0.34-1.98-0.67-2.97-1.01c-0.03-0.02-0.07-0.05-0.1-0.07
			c0.91-1.02,1.83-2.04,2.75-3.05C605.46,347.24,605.5,347.22,605.53,347.19"/>
		<path class="st2" d="M610.34,342.57c0.02,0,0.04-0.01,0.07-0.01C610.39,342.62,610.36,342.62,610.34,342.57"/>
		<path class="st1" d="M589.56,347.9c-0.02,0.04-0.05,0.09-0.07,0.12c-0.04-0.02-0.07-0.07-0.13-0.04c-0.02-0.01-0.04-0.01-0.06,0
			c-0.65-0.26-1.35-0.41-2.03-0.6c-0.57-0.15-1.13-0.36-1.71-0.44c-0.02-0.02-0.04-0.06-0.07-0.09c0.1-0.09,0.07-0.22,0.07-0.33
			c-0.04-0.86-0.09-1.72-0.13-2.58c-0.02-0.47-0.1-0.94-0.03-1.41l0.02-0.02l0.02-0.01c1.34,0.44,2.68,0.89,4.02,1.34
			c0.22,0.07,0.32,0.08,0.29-0.2c-0.14-1.38-0.32-2.75-0.5-4.12c0.01-0.01,0.04-0.03,0.04-0.04c0.8,0.55,1.63,1.04,2.45,1.54
			c0.05,0.03,0.1,0.01,0.15-0.01c0.04,0.1,0.06,0.22,0.16,0.29l-0.03,0.15c-0.01,0.08-0.09,0.17,0.03,0.24
			c-0.09,0.01-0.08,0.09-0.09,0.14c-0.11,0.79-0.2,1.55-0.29,2.34c-0.01,0.07-0.07,0.18,0.05,0.22c-0.07,0.01-0.07,0.05-0.01,0.09
			c-0.1,0.1-0.19,0.16-0.37,0.08c-0.41-0.2-0.85-0.35-1.27-0.55c-0.23-0.1-0.26-0.03-0.27,0.17c-0.03,0.55-0.1,1.1-0.12,1.65
			C589.64,346.53,589.52,347.22,589.56,347.9L589.56,347.9z"/>
		<path class="st2" d="M574.86,335.02c-0.01-0.08-0.03-0.15-0.04-0.23c0.03-0.02,0.05-0.04,0.07-0.06c0.4,0.57,0.79,1.13,1.11,1.58
			c-0.31-0.68-0.85-1.4-1.24-2.21v0.01c0.04-0.18,0.09-0.36-0.04-0.54v0.01c0.1-0.1,0.06-0.22,0.06-0.33
			c0.03-0.99,0.06-1.96,0.08-2.95c0.01-0.51,0.06-1.01-0.01-1.51v0.01c0.03-0.03,0.03-0.07,0.01-0.1c0.25,0.17,0.21,0.5,0.41,0.69
			c0.03,0.04,0.07,0.09,0.09,0.14c0.23,0.74,0.49,1.49,0.81,2.2c0.2,0.44,0.31,0.91,0.55,1.33c-0.08,0.36,0.04,0.7,0.1,1.06
			c0.28,1.57,0.56,3.14,0.82,4.71c0.03,0.2,0.17,0.35,0.16,0.56c-0.07,0.87-0.1,1.75-0.2,2.61c-0.04,0.34,0.04,0.7-0.19,1
			c-0.32-0.47-0.66-0.91-0.94-1.4c-0.23-0.39-0.55-0.75-0.63-1.24c-0.19-1.15-0.39-2.3-0.62-3.45c-0.07-0.33-0.02-0.7-0.24-0.99
			h-0.01c0.14-0.13,0.03-0.24-0.05-0.34v0.01c0.05-0.03,0.04-0.07,0-0.1l0,0.01C575,335.32,574.94,335.17,574.86,335.02"/>
		<path class="st2" d="M577.33,329.24c0.35,0.05,0.66,0.24,1,0.32c0.03,0.04,0.07,0.08,0.13,0.04h-0.01c0.1,0.1,0.2,0.2,0.36,0.11
			l0.01,0c0.03,0.12,0.1,0.17,0.21,0.07l0.01,0.02c0.01,0.04,0.03,0.07,0.08,0.05l0-0.01c0.01,0.02,0.02,0.03,0.03,0.04
			c0.42,0.05,0.79,0.24,1.16,0.4c0.06,0.07,0.09,0.18,0.22,0.09h-0.01c0.06,0.09,0.13,0.19,0.27,0.11v0
			c0.03,0.13,0.14,0.14,0.24,0.19c1.16,0.55,2.31,1.11,3.47,1.64c0.59,0.27,1.14,0.59,1.75,0.79c0.04,0.05,0.09,0.12,0.14,0.17
			c0.59,0.7,1.21,1.36,1.76,2.09c-0.71-0.12-1.38-0.38-2.08-0.56c-0.46-0.12-0.89-0.32-1.36-0.37c-1.22-0.67-2.44-1.35-3.65-2.02
			c-0.63-0.34-1.23-0.73-1.89-1c-0.03-0.04-0.07-0.09-0.11-0.12c-1.13-0.78-2.26-1.57-3.38-2.36c-0.21-0.15-0.47-0.23-0.63-0.44
			c-0.01-0.02-0.01-0.03-0.02-0.05c0.5,0.08,0.96,0.34,1.45,0.46c0.02,0.04,0.04,0.07,0.09,0.03h-0.01c0.09,0.09,0.18,0.18,0.32,0.1
			h0c0.09,0.11,0.2,0.19,0.36,0.14l0.01-0.01C577.21,329.26,577.3,329.22,577.33,329.24"/>
		<path class="st3" d="M585.56,346.95c0.59,0.08,1.14,0.29,1.71,0.44c0.68,0.19,1.38,0.33,2.03,0.59c-0.07,0.28-0.34,0.37-0.53,0.53
			c-0.39,0.09-0.71,0.34-1.08,0.46c-1.71,0.61-3.41,0.62-5.11,0.01l0.01-0.02c0.11-0.05,0.23-0.06,0.35-0.04
			c0.84,0.12,1.69,0.23,2.52,0.35c0.35,0.05,0.35,0.03,0.3-0.34C585.7,348.28,585.57,347.62,585.56,346.95"/>
		<path class="st3" d="M574.99,335.92c0.22,0.3,0.18,0.66,0.24,1c0.23,1.14,0.44,2.29,0.62,3.44c0.08,0.49,0.39,0.84,0.63,1.24
			c0.28,0.48,0.62,0.93,0.94,1.39c0.35,0.91,0.69,1.82,1.05,2.72c0.1,0.23,0.18,0.48,0.41,0.64c0.52,0.38,1.04,0.75,1.55,1.13
			c0.62,0.46,1.23,0.93,1.86,1.39l-0.01,0.02c-1.19-0.42-2.2-1.12-3.12-1.97c-1.8-1.66-2.84-3.73-3.31-6.11
			c-0.29-1.47-0.6-2.94-0.82-4.42C575,336.23,574.93,336.08,574.99,335.92"/>
		<path class="st3" d="M589.56,347.91c-0.04-0.69,0.09-1.37,0.11-2.07c0.02-0.55,0.09-1.1,0.12-1.64c0.01-0.2,0.04-0.28,0.27-0.18
			c0.42,0.19,0.86,0.35,1.27,0.55c0.18,0.08,0.27,0.02,0.37-0.07C591.33,345.85,590.66,347.01,589.56,347.91"/>
		<path class="st3" d="M588.15,335.37c-0.55-0.73-1.17-1.39-1.76-2.09c-0.06-0.05-0.1-0.11-0.14-0.17c3.08,1.68,5.26,4.03,5.75,7.64
			c0.03,0.19,0.03,0.37,0.04,0.55c-0.1-0.08-0.11-0.19-0.16-0.29c0.01-0.03,0.02-0.06,0.01-0.09c-0.29-1.05-0.59-2.1-0.89-3.15
			c-0.03-0.12-0.12-0.17-0.2-0.24c-0.82-0.67-1.64-1.33-2.47-2C588.31,335.45,588.24,335.41,588.15,335.37"/>
		<path class="st3" d="M586.25,333.11c-0.61-0.21-1.17-0.53-1.75-0.79c-1.16-0.54-2.31-1.09-3.47-1.65
			c-0.1-0.04-0.21-0.06-0.25-0.18c1.13,0.4,2.22,0.92,3.3,1.43C584.82,332.29,585.56,332.66,586.25,333.11"/>
		<path class="st3" d="M574.86,328.78c0.07,0.51,0.01,1.01,0.01,1.51c-0.02,0.98-0.05,1.96-0.08,2.94c0,0.12,0.04,0.24-0.06,0.34
			C574.57,331.97,574.52,330.38,574.86,328.78"/>
		<path class="st3" d="M591.72,344.4c-0.13-0.04-0.07-0.15-0.07-0.22c0.1-0.78,0.19-1.55,0.3-2.33c0.01-0.05,0-0.14,0.09-0.15
			C592.11,342.63,592.02,343.53,591.72,344.4"/>
		<path class="st4" d="M574.77,334.09c0.39,0.8,0.92,1.53,1.23,2.21c-0.31-0.45-0.71-1.01-1.11-1.58l0,0
			c0.03-0.04,0.01-0.06-0.03-0.05c-0.02-0.01-0.04-0.01-0.06-0.01C574.77,334.48,574.73,334.29,574.77,334.09"/>
		<path class="st4" d="M575.03,328.45c0.01,0.01,0.01,0.02,0.02,0.04c-0.04,0.33,0.23,0.58,0.23,0.89c-0.2-0.19-0.16-0.53-0.42-0.69
			C574.88,328.43,574.88,328.43,575.03,328.45"/>
		<path class="st3" d="M574.72,333.57c0.13,0.17,0.08,0.35,0.04,0.53C574.72,333.94,574.69,333.76,574.72,333.57"/>
		<path class="st3" d="M574.86,335.02c0.09,0.14,0.14,0.3,0.08,0.47C574.84,335.34,574.85,335.18,574.86,335.02"/>
		<path class="st3" d="M577.23,329.18c-0.16,0.05-0.27-0.03-0.36-0.14C577,329.06,577.14,329.08,577.23,329.18"/>
		<path class="st4" d="M578.81,329.72c-0.16,0.09-0.26-0.02-0.36-0.13C578.58,329.6,578.71,329.65,578.81,329.72"/>
		<path class="st3" d="M576.88,329.04c-0.14,0.07-0.23-0.01-0.32-0.1C576.68,328.93,576.78,328.98,576.88,329.04"/>
		<path class="st3" d="M574.93,335.58c0.09,0.11,0.19,0.21,0.05,0.34C574.92,335.81,574.91,335.7,574.93,335.58"/>
		<path class="st3" d="M580.78,330.5c-0.14,0.08-0.2-0.02-0.27-0.11C580.61,330.39,580.71,330.42,580.78,330.5"/>
		<path class="st4" d="M579.03,329.8c-0.11,0.1-0.18,0.05-0.22-0.07C578.89,329.75,578.96,329.78,579.03,329.8"/>
		<path class="st3" d="M580.52,330.38c-0.12,0.09-0.16-0.02-0.22-0.09C580.38,330.32,580.45,330.35,580.52,330.38"/>
		<path class="st3" d="M592.05,341.7c-0.12-0.07-0.04-0.16-0.02-0.24C592.09,341.53,592.09,341.62,592.05,341.7"/>
		<path class="st3" d="M577.33,329.24c-0.04-0.02-0.12,0.02-0.09-0.07C577.3,329.15,577.32,329.18,577.33,329.24"/>
		<path class="st3" d="M582.46,348.96c-0.06-0.03-0.12-0.06-0.18-0.08v-0.01c0.07,0.01,0.13,0.02,0.19,0.03
			C582.46,348.91,582.46,348.93,582.46,348.96"/>
		<path class="st4" d="M574.89,334.73c-0.02,0.02-0.05,0.04-0.08,0.06c0-0.04-0.01-0.08-0.01-0.12c0.02,0,0.04,0,0.06,0.01
			C574.87,334.69,574.88,334.71,574.89,334.73L574.89,334.73z"/>
		<path class="st3" d="M582.59,348.99c-0.04-0.01-0.09-0.02-0.13-0.03c0-0.03,0-0.04,0.01-0.06c0.06-0.01,0.1,0.02,0.13,0.06
			L582.59,348.99z"/>
		<path class="st4" d="M578.46,329.6c-0.06,0.04-0.09-0.01-0.13-0.04C578.38,329.54,578.43,329.56,578.46,329.6"/>
		<path class="st3" d="M576.57,328.94c-0.05,0.04-0.07,0-0.09-0.03C576.51,328.89,576.54,328.9,576.57,328.94"/>
		<path class="st3" d="M574.93,335.48c0.04,0.03,0.04,0.06,0,0.09C574.91,335.54,574.88,335.51,574.93,335.48"/>
		<path class="st4" d="M579.15,329.89c-0.01-0.01-0.02-0.02-0.03-0.03C579.13,329.85,579.15,329.87,579.15,329.89"/>
		<path class="st4" d="M579.12,329.86c-0.05,0.01-0.07,0-0.08-0.06C579.08,329.8,579.1,329.81,579.12,329.86"/>
		<path class="st3" d="M591.7,344.5c-0.06-0.04-0.06-0.08,0.02-0.09C591.75,344.44,591.73,344.47,591.7,344.5"/>
		<path class="st3" d="M574.87,328.69c0.01,0.04,0.02,0.07-0.01,0.1C574.82,328.76,574.83,328.72,574.87,328.69"/>
		<path class="st3" d="M589.36,347.98c0.06-0.03,0.09,0.02,0.13,0.05C589.43,348.05,589.39,348.02,589.36,347.98"/>
		<path class="st4" d="M582.6,348.96c-0.04-0.04-0.08-0.07-0.13-0.07c-0.06-0.01-0.12-0.02-0.18-0.03
			c-0.62-0.46-1.24-0.93-1.86-1.39c-0.51-0.38-1.03-0.76-1.55-1.13c-0.23-0.16-0.32-0.42-0.4-0.65c-0.36-0.9-0.71-1.81-1.05-2.71
			c0.22-0.31,0.14-0.67,0.18-1c0.1-0.87,0.13-1.74,0.2-2.61c0.01-0.21-0.13-0.37-0.16-0.56c-0.26-1.57-0.54-3.14-0.82-4.71
			c-0.06-0.35-0.18-0.69-0.1-1.06c0.53,0.45,1.07,0.9,1.6,1.35c0.97,0.81,1.94,1.62,2.9,2.42c0.04,0.02,0.08,0.04,0.11,0.07
			c-0.09,0.07-0.07,0.17-0.08,0.27c-0.06,0.4-0.12,0.81-0.15,1.22c-0.05,0.82-0.16,1.64-0.24,2.47c-0.02,0.17,0.05,0.29,0.19,0.37
			c-0.1,0.08-0.07,0.2-0.07,0.3c0.07,1.09,0.18,2.16,0.25,3.25c0.03,0.36,0.23,0.52,0.55,0.63c0.82,0.31,1.62,0.64,2.43,0.96
			c0.43,0.17,0.86,0.33,1.3,0.5c0.02,0.03,0.04,0.06,0.07,0.09c0.01,0.67,0.14,1.33,0.21,1.98c0.03,0.37,0.04,0.39-0.3,0.34
			c-0.84-0.12-1.69-0.24-2.52-0.35C582.82,348.91,582.71,348.91,582.6,348.96"/>
		<path class="st3" d="M581.05,341.22c-0.14-0.09-0.21-0.2-0.19-0.37c0.09-0.82,0.2-1.64,0.25-2.47c0.02-0.41,0.08-0.81,0.13-1.22
			c0.01-0.09,0-0.2,0.09-0.27c1.33,0.34,2.66,0.68,3.98,1.02c0.02,0.03,0.04,0.06,0.07,0.09c-0.01,0.05-0.03,0.11-0.03,0.15
			c0.03,1.45,0.05,2.89,0.08,4.34l-0.02,0.01l-0.01,0.02C583.94,342.1,582.5,341.66,581.05,341.22"/>
		<path class="st5" d="M585.43,342.51c-0.03-1.45-0.06-2.9-0.08-4.35c0-0.05,0.02-0.1,0.03-0.15c0.25,0.17,0.54,0.24,0.81,0.35
			c0.53,0.21,1.05,0.43,1.58,0.63c0.49,0.19,0.98,0.36,1.47,0.53c0.18,1.37,0.36,2.74,0.5,4.12c0.03,0.29-0.07,0.28-0.29,0.2
			C588.12,343.4,586.78,342.96,585.43,342.51"/>
		<path class="st2" d="M581.05,341.22c1.45,0.43,2.89,0.88,4.35,1.32c-0.07,0.47,0.01,0.94,0.03,1.41c0.04,0.86,0.09,1.72,0.13,2.58
			c0.01,0.1,0.04,0.24-0.06,0.33c-0.43-0.16-0.86-0.32-1.3-0.49c-0.81-0.32-1.61-0.65-2.43-0.96c-0.31-0.12-0.52-0.26-0.54-0.63
			c-0.07-1.09-0.17-2.16-0.25-3.25C580.97,341.42,580.94,341.31,581.05,341.22"/>
		<path class="st6" d="M589.25,339.53c-0.49-0.18-0.98-0.35-1.46-0.53c-0.54-0.2-1.06-0.42-1.58-0.63
			c-0.28-0.11-0.57-0.18-0.82-0.35c-0.03-0.04-0.04-0.07-0.06-0.09c0-0.04,0.01-0.09,0.01-0.12c-0.16-1.03-0.33-2.07-0.49-3.11
			c-0.02-0.09-0.06-0.18-0.12-0.26c0.47,0.05,0.91,0.26,1.36,0.37c0.7,0.18,1.36,0.43,2.08,0.56c0.09,0.04,0.16,0.08,0.19,0.18
			l0.95,3.94C589.28,339.5,589.26,339.52,589.25,339.53"/>
		<path class="st2" d="M589.29,339.49l-0.95-3.94c0.82,0.67,1.65,1.33,2.47,2c0.09,0.07,0.18,0.13,0.2,0.24
			c0.3,1.04,0.59,2.1,0.89,3.14c0,0.03-0.01,0.07-0.01,0.09c-0.04,0.03-0.09,0.04-0.15,0.02
			C590.91,340.54,590.09,340.04,589.29,339.49"/>
		<path class="st1" d="M581.22,336.83c-0.96-0.81-1.93-1.62-2.9-2.42c-0.53-0.44-1.06-0.9-1.6-1.35c-0.24-0.42-0.35-0.9-0.55-1.33
			c-0.31-0.72-0.59-1.46-0.81-2.2c-0.02-0.05-0.06-0.09-0.09-0.14c0.01-0.31-0.27-0.56-0.23-0.89c0.16,0.21,0.42,0.29,0.63,0.44
			c1.12,0.79,2.26,1.57,3.38,2.37c0.04,0.03,0.07,0.08,0.11,0.12c0.45,1.15,0.9,2.29,1.33,3.44
			C580.75,335.51,581.05,336.14,581.22,336.83"/>
		<path class="st7" d="M581.22,336.83c-0.17-0.69-0.47-1.32-0.72-1.97c-0.43-1.15-0.88-2.29-1.33-3.44c0.66,0.28,1.26,0.66,1.88,1
			c1.23,0.66,2.44,1.35,3.66,2.02c0.06,0.08,0.1,0.16,0.12,0.26c0.16,1.04,0.33,2.07,0.49,3.1c0.01,0.04,0,0.09-0.01,0.13
			c-1.32-0.35-2.66-0.69-3.98-1.02C581.3,336.87,581.27,336.85,581.22,336.83"/>
		<path class="st2" d="M574.89,334.73c-0.01-0.02-0.02-0.04-0.03-0.06C574.91,334.67,574.92,334.69,574.89,334.73"/>
	</g>
</g>
</svg>
