<?xml version="1.0" encoding="utf-8"?>
<!-- Generator: Adobe Illustrator 23.0.6, SVG Export Plug-In . SVG Version: 6.00 Build 0)  -->
<svg version="1.1" id="Layer_1" xmlns="http://www.w3.org/2000/svg" xmlns:xlink="http://www.w3.org/1999/xlink" x="0px" y="0px"
	 viewBox="0 0 443.08 439.91" style="enable-background:new 0 0 443.08 439.91;" xml:space="preserve">
<style type="text/css">
	.st0{stroke:#000000;stroke-miterlimit:10;}
	.st1{fill:#194DA1;}
	.st2{fill:#2F3181;}
	.st3{fill:#171743;}
	.st4{fill:#2A2866;}
	.st5{fill:#3A63AE;}
	.st6{fill:#3856A6;}
	.st7{fill:#568ECB;}
	.st8{fill:none;stroke:#000000;stroke-width:2;stroke-miterlimit:10;}
	.st9{stroke:#000000;stroke-width:3.8037;stroke-miterlimit:10;}
	.st10{opacity:0.77;}
	.st11{stroke:#000000;stroke-width:4.7029;stroke-miterlimit:10;}
	.st12{fill:none;stroke:#FFFFFF;stroke-width:1.7529;stroke-miterlimit:10;}
	.st13{fill:#FFFFFF;}
	.st14{fill:#FFFFFF;stroke:#FFFFFF;stroke-width:5.4294;stroke-miterlimit:10;}
</style>
<g>
	<g>
		<g>
			<path class="st1" d="M223.88,231.65c-0.28,0.01-0.56,0.03-0.85,0.04c-0.02-0.27,0.15-0.58-0.19-0.77
				c-0.03-0.1-0.08-0.18-0.17-0.23c-0.79-4.11-2.31-8.02-3.54-12c-1.03-3.32-1.77-6.73-3.25-9.9c0.08-0.21,0.17-0.42,0.25-0.63
				c0.81,0.22,1.36-0.39,1.87-0.75c4.16-2.9,8.26-5.89,12.4-8.82c2.26-1.6,4.32-3.48,6.88-4.64l0.13,0.05l0.13,0.06
				c2.04,8.08,4.1,16.15,6.08,24.24c0.33,1.35,0.61,1.85,1.94,0.8c6.4-5.06,12.64-10.32,18.87-15.59c0.12,0.05,0.23,0.09,0.35,0.14
				c-0.18,5.68-0.06,11.36,0.12,17.03c0.01,0.38,0.26,0.55,0.54,0.71c-0.34,0.55-0.89,0.97-0.96,1.68
				c-0.26,0.13-0.52,0.25-0.79,0.38c-0.49,0.16-1.17,0.08-1.16,0.89l0,0c-0.34-0.42-0.71-0.13-1.01,0.01
				c-4.19,1.95-8.37,3.92-12.54,5.92c-0.36,0.18-1.07,0.24-0.9,0.99l0,0c-0.32-0.29-0.48-0.19-0.51,0.21l0.01,0
				c-0.81-0.23-1.42-0.45-1.55-1.58c-0.33-2.71-0.98-5.38-1.36-8.09c-0.2-1.39-0.64-1.35-1.7-0.76c-2.82,1.59-5.74,3.02-8.55,4.64
				c-3.52,2.02-7.27,3.63-10.59,5.99L223.88,231.65z"/>
			<path class="st2" d="M241.15,117.73c0.35-0.32,0.69-0.64,1.04-0.96c0.18,0.07,0.37,0.14,0.55,0.22
				c-1.54,3.76-3.09,7.52-4.32,10.52c2.39-3.74,4.26-8.7,7.04-13.17c0,0-0.05,0.03-0.05,0.03c1.02-0.39,2.08-0.73,2.5-1.91
				l-0.02,0.01c0.79,0.17,1.31-0.39,1.88-0.73c4.96-2.98,9.93-5.96,14.86-8.98c2.53-1.55,5.2-2.91,7.49-4.83l-0.02,0.01
				c0.27,0.09,0.42-0.05,0.54-0.27c0,0-0.02,0-0.02,0c-0.02,1.76-1.81,2.63-2.12,4.24c-0.13,0.29-0.19,0.63-0.39,0.86
				c-3,3.51-5.8,7.18-8.34,11.03c-1.56,2.37-3.57,4.43-4.89,6.97c-2.05,0.77-3.38,2.43-4.92,3.86c-6.9,6.38-13.82,12.74-20.8,19.03
				c-0.86,0.78-1.17,1.94-2.27,2.52c-4.55,2.42-8.99,5.05-13.61,7.3c-1.77,0.86-3.34,2.42-5.55,2.28c1.3-3.06,2.42-6.21,3.95-9.15
				c1.24-2.39,1.96-5.08,4.13-7.01c5.15-4.57,10.2-9.25,15.17-14.02c1.43-1.37,3.39-2.3,4.14-4.34c0,0-0.03-0.06-0.03-0.06
				c1.14,0.28,1.3-0.58,1.55-1.34l-0.02,0.01c0.31,0.14,0.44-0.03,0.49-0.31c0,0-0.03,0.06-0.03,0.06
				C240.11,119.37,240.72,118.66,241.15,117.73z"/>
			<path class="st2" d="M277.73,111.65c0.88,1.91,0.92,4.03,1.6,5.99c-0.05,0.28-0.2,0.59,0.19,0.76l0-0.01
				c-0.24,0.81-0.45,1.62,0.51,2.15c0,0,0.01,0.05,0.01,0.05c-0.49,0.57-0.51,1.03,0.32,1.27c0,0-0.02,0.08-0.03,0.08
				c-0.23,0.18-0.21,0.36-0.01,0.55l0-0.02c-0.01,0.09-0.03,0.19-0.04,0.28c1.07,2.23,1.31,4.65,1.66,7.05
				c-0.13,0.48-0.57,1.03,0.24,1.34l-0.01-0.03c-0.25,0.63-0.54,1.26,0.29,1.7c0,0,0.02-0.02,0.02-0.02
				c-0.54,0.56-0.23,1.19-0.16,1.8c0.95,7.49,1.86,14.99,2.87,22.47c0.51,3.75,0.71,7.55,1.66,11.24l0-0.02
				c-0.15,0.42-0.31,0.83-0.44,1.25c-1.58,5.12-2.88,10.33-4.74,15.37c-1.64-3.92-2.49-8.08-3.82-12.1
				c-0.87-2.64-1.21-5.44-2.48-7.95c-0.52-8.2-1.01-16.41-1.57-24.61c-0.28-4.18-0.28-8.38-1-12.52c0.08-0.31,0.22-0.61,0.23-0.92
				c0.34-8.1,0.64-16.2,1.01-24.3c0.07-1.51-0.35-3.04,0.16-4.53c0.04-0.09,0.09-0.18,0.15-0.26c1.19,2.78,1.39,5.82,2.29,8.67
				c-0.11,0.23-0.19,0.44,0.15,0.55l-0.01-0.03c-0.16,0.71-0.33,1.43,0.49,1.88l-0.01-0.03c-0.2,0.81-0.3,1.6,0.45,2.22
				c0,0,0.11-0.01,0.11-0.01C277.25,111.12,277.7,111.41,277.73,111.65z"/>
			<path class="st3" d="M215.88,208.78c1.48,3.17,2.22,6.58,3.25,9.9c1.23,3.98,2.75,7.89,3.54,12c-1.63,0.5-2.92-0.54-4.35-0.94
				c-1.68-1.64-3.88-2.49-5.72-3.91c-8.43-6.54-13.88-14.96-16.29-25.35l0.18-0.07c0.6,0.4,1,0.97,1.3,1.61
				c2.1,4.56,4.22,9.11,6.31,13.67c0.86,1.88,0.93,1.79,2.61,0.44C209.76,213.68,212.58,210.93,215.88,208.78z"/>
			<path class="st3" d="M237.12,121.25c-0.75,2.04-2.71,2.97-4.14,4.34c-4.97,4.77-10.03,9.45-15.17,14.02
				c-2.18,1.94-2.89,4.62-4.13,7.01c-1.52,2.94-2.65,6.09-3.95,9.15c-3.38,4.61-6.8,9.19-10.12,13.84
				c-0.87,1.22-1.85,2.43-1.93,4.08c-0.19,3.75-0.44,7.49-0.7,11.24c-0.32,4.55-0.68,9.1-1.02,13.65l-0.08,0.03
				c-1.74-7.24-1.45-14.5-0.15-21.76c2.54-14.19,9.48-25.95,19.81-35.83c6.39-6.11,12.7-12.29,19.36-18.11
				C235.59,122.29,236.14,121.48,237.12,121.25z"/>
			<path class="st3" d="M223.83,231.66c3.32-2.36,7.08-3.96,10.59-5.99c2.81-1.62,5.72-3.05,8.55-4.64c1.06-0.6,1.5-0.63,1.7,0.76
				c0.38,2.71,1.04,5.38,1.36,8.09c0.14,1.12,0.74,1.35,1.55,1.58C239.69,233.98,231.77,234.31,223.83,231.66z"/>
			<path class="st3" d="M281.66,184.88c1.86-5.04,3.16-10.25,4.74-15.37c0.13-0.42,0.29-0.83,0.44-1.25
				c1.43,20.61-3.32,38.92-19.76,52.84c-0.82,0.7-1.72,1.3-2.58,1.94c0.07-0.71,0.62-1.13,0.96-1.68c0.17-0.08,0.38-0.13,0.5-0.26
				c4.27-4.79,8.52-9.59,12.79-14.38c0.48-0.53,0.44-1.16,0.51-1.79c0.7-6.19,1.41-12.37,2.12-18.56
				C281.72,185.94,281.72,185.42,281.66,184.88z"/>
			<path class="st3" d="M286.84,168.28c-0.94-3.69-1.15-7.49-1.66-11.24c-1.02-7.48-1.92-14.98-2.87-22.47
				c-0.08-0.61-0.38-1.24,0.16-1.8c1.6,6.89,2.47,13.89,3.32,20.89C286.37,158.52,286.85,163.39,286.84,168.28z"/>
			<path class="st3" d="M272.12,97.92c-2.3,1.92-4.96,3.28-7.49,4.83c-4.94,3.02-9.9,6-14.86,8.98c-0.58,0.35-1.09,0.91-1.88,0.73
				C255.39,106.66,263.16,101.3,272.12,97.92z"/>
			<path class="st3" d="M248.1,231.25c-0.17-0.75,0.54-0.82,0.9-0.99c4.16-2.01,8.35-3.97,12.54-5.92c0.3-0.14,0.67-0.43,1.01-0.01
				C258.19,227.58,253.41,229.97,248.1,231.25z"/>
			<path class="st4" d="M245.45,114.34c-2.78,4.47-4.65,9.44-7.04,13.17c1.23-3,2.78-6.76,4.32-10.52l-0.02,0.01
				c0.3-0.01,0.35-0.12,0.16-0.35c-0.04-0.1-0.08-0.2-0.14-0.3C243.6,115.62,244.38,114.79,245.45,114.34z"/>
			<path class="st4" d="M274.34,97.69c-0.06,0.08-0.11,0.17-0.15,0.26c-1.74,0.84-2.1,2.98-3.69,3.96c0.31-1.61,2.1-2.49,2.12-4.24
				C273.95,96.92,273.95,96.92,274.34,97.69z"/>
			<path class="st3" d="M247.9,112.46c-0.41,1.18-1.47,1.52-2.5,1.91C246.12,113.57,246.91,112.89,247.9,112.46z"/>
			<path class="st3" d="M241.15,117.73c-0.42,0.92-1.04,1.64-2.08,1.87C239.49,118.68,240.33,118.22,241.15,117.73z"/>
			<path class="st3" d="M277.7,110.96c-0.75-0.62-0.66-1.41-0.45-2.22C277.57,109.45,277.89,110.15,277.7,110.96z"/>
			<path class="st4" d="M280.02,120.54c-0.95-0.53-0.75-1.33-0.51-2.15C279.91,119.06,280.03,119.79,280.02,120.54z"/>
			<path class="st3" d="M277.26,108.77c-0.82-0.46-0.66-1.17-0.49-1.88C277.18,107.45,277.23,108.1,277.26,108.77z"/>
			<path class="st3" d="M238.64,119.85c-0.25,0.76-0.4,1.62-1.55,1.34C237.44,120.55,237.97,120.13,238.64,119.85z"/>
			<path class="st3" d="M282.45,132.8c-0.83-0.44-0.54-1.08-0.29-1.7C282.46,131.63,282.59,132.19,282.45,132.8z"/>
			<path class="st4" d="M280.35,121.86c-0.83-0.24-0.81-0.69-0.32-1.27C280.14,121.02,280.25,121.44,280.35,121.86z"/>
			<path class="st3" d="M282.18,131.13c-0.82-0.31-0.37-0.85-0.24-1.34C282.01,130.23,282.09,130.68,282.18,131.13z"/>
			<path class="st3" d="M262.55,224.32c-0.01-0.81,0.66-0.73,1.16-0.89C263.52,223.99,263.1,224.24,262.55,224.32z"/>
			<path class="st3" d="M277.73,111.65c-0.03-0.24-0.48-0.53,0.08-0.7C278.06,111.22,277.99,111.45,277.73,111.65z"/>
			<path class="st3" d="M196.05,199.72c-0.06-0.37-0.11-0.74-0.17-1.12l0.08-0.03c0.15,0.33,0.29,0.66,0.44,0.99
				C196.27,199.61,196.16,199.66,196.05,199.72z"/>
			<path class="st4" d="M242.74,116.99c-0.18-0.07-0.37-0.15-0.55-0.22c0.18-0.14,0.37-0.28,0.55-0.42c0.06,0.09,0.11,0.19,0.14,0.3
				c-0.05,0.12-0.11,0.24-0.16,0.35L242.74,116.99z"/>
			<path class="st3" d="M196.31,200.48c-0.09-0.25-0.18-0.51-0.26-0.76c0.11-0.06,0.22-0.11,0.34-0.15c0.22,0.26,0.19,0.55,0.1,0.84
				L196.31,200.48z"/>
			<path class="st4" d="M279.52,118.41c-0.38-0.18-0.24-0.48-0.19-0.76C279.58,117.85,279.65,118.1,279.52,118.41z"/>
			<path class="st3" d="M276.78,106.91c-0.34-0.11-0.26-0.33-0.15-0.55C276.87,106.5,276.88,106.69,276.78,106.91z"/>
			<path class="st3" d="M239.1,119.55c-0.05,0.28-0.17,0.45-0.49,0.31C238.72,119.66,238.78,119.4,239.1,119.55z"/>
			<path class="st4" d="M280.27,122.74c0.02-0.09,0.03-0.19,0.04-0.28C280.4,122.56,280.38,122.66,280.27,122.74z"/>
			<path class="st4" d="M280.32,122.49c-0.2-0.19-0.22-0.37,0.01-0.55C280.5,122.12,280.51,122.31,280.32,122.49z"/>
			<path class="st3" d="M247.58,231.45c0.04-0.4,0.2-0.5,0.51-0.21C248.01,231.54,247.81,231.54,247.58,231.45z"/>
			<path class="st3" d="M272.64,97.67c-0.11,0.22-0.27,0.36-0.54,0.27C272.18,97.66,272.39,97.61,272.64,97.67z"/>
			<path class="st3" d="M222.84,230.92c0.34,0.19,0.17,0.5,0.19,0.77C222.73,231.49,222.75,231.21,222.84,230.92z"/>
			<path class="st4" d="M196.49,200.41c0.09-0.29,0.12-0.58-0.1-0.84c-0.15-0.33-0.29-0.66-0.44-0.99c0.34-4.55,0.7-9.1,1.02-13.65
				c0.26-3.74,0.51-7.49,0.7-11.24c0.08-1.66,1.06-2.87,1.93-4.08c3.32-4.65,6.74-9.23,10.12-13.84c2.21,0.14,3.78-1.42,5.55-2.28
				c4.63-2.25,9.07-4.88,13.61-7.3c1.09-0.58,1.41-1.74,2.27-2.52c6.98-6.29,13.9-12.66,20.8-19.03c1.54-1.42,2.87-3.09,4.92-3.86
				c-0.55,4.08-1.11,8.15-1.64,12.23c-0.95,7.35-1.87,14.71-2.81,22.07c-0.01,0.26-0.02,0.52-0.03,0.79
				c-0.63-0.24-1.11,0.18-1.6,0.41c-2.18,1.02-4.39,2.01-6.49,3.18c-4.26,2.37-8.68,4.42-13.04,6.59c-0.91,0.45-1.27,1.16-1.23,2.12
				c-0.74-0.27-1.26,0.27-1.72,0.61c-5.13,3.83-10.18,7.77-15.34,11.56c-1.77,1.3-1.83,2.78-1.42,4.7
				c1.05,5.02,1.94,10.07,2.93,15.11c0.52,2.68,1.11,5.34,1.67,8.01c-0.08,0.21-0.17,0.42-0.25,0.63c-3.3,2.14-6.12,4.9-9.17,7.35
				c-1.68,1.35-1.75,1.43-2.61-0.44c-2.09-4.56-4.2-9.11-6.31-13.67C197.49,201.38,197.09,200.81,196.49,200.41z"/>
			<path class="st3" d="M230.03,168.17c-0.03-0.97,0.32-1.67,1.23-2.12c4.36-2.17,8.78-4.22,13.04-6.59
				c2.1-1.17,4.31-2.15,6.49-3.18c0.49-0.23,0.97-0.65,1.6-0.41c2.53,7.68,5.05,15.35,7.58,23.03c-0.09,0.2-0.17,0.41-0.26,0.61
				c-0.29,0.12-0.62,0.19-0.87,0.36c-7.1,4.72-14.2,9.45-21.3,14.18l-0.13-0.06c0,0-0.13-0.05-0.13-0.05
				C234.87,185.35,232.45,176.76,230.03,168.17z"/>
			<path class="st5" d="M237.55,194.05c7.1-4.73,14.19-9.46,21.3-14.18c0.26-0.17,0.58-0.24,0.87-0.36
				c-0.04,1.78,0.51,3.46,0.83,5.19c0.61,3.28,1.21,6.57,1.89,9.84c0.62,3,1.33,5.98,2,8.97c-6.23,5.27-12.47,10.53-18.87,15.59
				c-1.33,1.05-1.6,0.55-1.94-0.8C241.64,210.2,239.58,202.13,237.55,194.05z"/>
			<path class="st2" d="M230.03,168.17c2.42,8.59,4.84,17.18,7.25,25.78c-2.56,1.15-4.62,3.04-6.88,4.64
				c-4.14,2.93-8.24,5.92-12.4,8.82c-0.52,0.36-1.07,0.97-1.87,0.75c-0.56-2.67-1.14-5.33-1.66-8.01
				c-0.98-5.03-1.87-10.09-2.93-15.11c-0.4-1.91-0.34-3.4,1.42-4.7c5.16-3.79,10.22-7.72,15.34-11.56
				C228.77,168.43,229.29,167.89,230.03,168.17z"/>
			<path class="st6" d="M264.44,203.5c-0.67-2.99-1.38-5.97-2-8.97c-0.68-3.27-1.28-6.56-1.89-9.84c-0.32-1.72-0.87-3.41-0.83-5.19
				c0.09-0.2,0.17-0.41,0.26-0.61c0.22-0.11,0.48-0.19,0.66-0.35c4.6-4.09,9.19-8.19,13.8-12.28c0.45-0.4,0.69-0.89,0.91-1.42
				c1.27,2.51,1.61,5.31,2.48,7.95c1.33,4.01,2.18,8.18,3.82,12.1c0.07,0.54,0.06,1.06-0.29,1.51c-5.53,5.75-11.05,11.5-16.58,17.24
				C264.67,203.59,264.55,203.55,264.44,203.5z"/>
			<path class="st2" d="M264.79,203.64c5.53-5.75,11.05-11.5,16.58-17.24c-0.71,6.19-1.42,12.37-2.12,18.56
				c-0.07,0.63-0.03,1.25-0.51,1.79c-4.27,4.79-8.53,9.59-12.79,14.38c-0.12,0.13-0.33,0.17-0.5,0.26
				c-0.28-0.16-0.53-0.33-0.54-0.71C264.72,214.99,264.61,209.32,264.79,203.64z"/>
			<path class="st1" d="M252.43,155.08c0.93-7.36,1.86-14.71,2.81-22.07c0.53-4.08,1.09-8.16,1.64-12.23
				c1.32-2.54,3.33-4.6,4.89-6.97c2.54-3.86,5.34-7.52,8.34-11.03c0.2-0.23,0.26-0.57,0.39-0.86c1.6-0.98,1.95-3.11,3.69-3.96
				c-0.52,1.49-0.09,3.02-0.16,4.53c-0.37,8.1-0.67,16.2-1.01,24.3c-0.01,0.31-0.15,0.61-0.23,0.92
				c-4.29,5.85-8.54,11.72-12.87,17.53C257.45,148.54,255.28,152.07,252.43,155.08z"/>
			<path class="st7" d="M252.43,155.08c2.85-3.01,5.02-6.54,7.49-9.84c4.34-5.81,8.58-11.68,12.87-17.53
				c0.72,4.14,0.71,8.35,1,12.52c0.56,8.2,1.05,16.41,1.57,24.61c-0.22,0.53-0.45,1.02-0.91,1.42c-4.61,4.08-9.2,8.19-13.8,12.28
				c-0.18,0.16-0.44,0.24-0.66,0.35c-2.53-7.68-5.05-15.35-7.58-23.03C252.41,155.6,252.42,155.34,252.43,155.08z"/>
			<path class="st2" d="M242.72,117c0.05-0.12,0.11-0.24,0.16-0.35C243.07,116.88,243.01,116.99,242.72,117z"/>
		</g>
		<g>
			<path class="st1" d="M207.43,291.68c-0.15-0.24-0.3-0.48-0.46-0.72c0.23-0.15,0.58-0.16,0.58-0.55c0.07-0.07,0.11-0.16,0.12-0.26
				c3.18-2.72,5.83-5.97,8.68-9.01c2.38-2.53,4.98-4.86,7-7.72c0.22-0.03,0.45-0.06,0.67-0.1c0.21,0.81,1.01,0.99,1.58,1.26
				c4.58,2.18,9.21,4.27,13.8,6.42c2.5,1.17,5.16,2.03,7.43,3.69l0.03,0.14l0.01,0.14c-6.02,5.76-12.01,11.54-18.06,17.27
				c-1.01,0.96-1.31,1.45,0.26,2.08c7.56,3.07,15.22,5.88,22.88,8.7c0.02,0.12,0.03,0.25,0.05,0.37c-5.03,2.65-9.9,5.56-14.74,8.53
				c-0.32,0.2-0.35,0.5-0.34,0.82c-0.65-0.03-1.29-0.3-1.94-0.01c-0.24-0.17-0.48-0.33-0.72-0.5c-0.38-0.35-0.65-0.98-1.35-0.56l0,0
				c0.2-0.5-0.24-0.68-0.51-0.88c-3.77-2.68-7.54-5.34-11.35-7.97c-0.33-0.23-0.74-0.81-1.31-0.29l0,0c0.1-0.42-0.07-0.51-0.43-0.35
				l0,0c-0.2-0.82-0.31-1.46,0.6-2.13c2.19-1.62,4.19-3.51,6.36-5.18c1.11-0.86,0.86-1.23-0.18-1.85c-2.78-1.67-5.46-3.49-8.26-5.14
				c-3.5-2.06-6.75-4.53-10.44-6.25L207.43,291.68z"/>
			<path class="st2" d="M314.99,250.38c0.45,0.14,0.9,0.29,1.34,0.43c0.03,0.2,0.06,0.39,0.08,0.59c-4.03,0.52-8.06,1.03-11.28,1.44
				c4.43,0.23,9.67-0.6,14.93-0.39l-0.05-0.03c0.84,0.7,1.66,1.45,2.89,1.23l-0.02-0.01c0.24,0.77,0.98,0.94,1.57,1.27
				c5.04,2.84,10.09,5.68,15.16,8.48c2.6,1.44,5.1,3.08,7.9,4.13l-0.02-0.01c0.05,0.28,0.25,0.35,0.5,0.34c0,0-0.01-0.02-0.01-0.02
				c-1.54,0.85-3.18-0.27-4.73,0.26c-0.32,0.03-0.65,0.14-0.94,0.09c-4.54-0.87-9.11-1.49-13.71-1.8c-2.83-0.19-5.62-0.91-8.48-0.81
				c-1.68-1.4-3.78-1.73-5.78-2.37c-8.96-2.85-17.91-5.72-26.83-8.67c-1.1-0.36-2.26-0.06-3.31-0.73
				c-4.35-2.76-8.83-5.32-13.07-8.23c-1.63-1.11-3.76-1.71-4.73-3.69c3.3-0.38,6.59-0.96,9.9-1.09c2.69-0.1,5.38-0.81,8.14,0.13
				c6.52,2.21,13.09,4.3,19.69,6.26c1.9,0.57,3.68,1.81,5.82,1.45c0,0,0.03-0.06,0.03-0.05c0.32,1.13,1.15,0.84,1.93,0.68
				l-0.02-0.01c0.04,0.34,0.24,0.37,0.51,0.27c0,0-0.06,0-0.06,0C313.06,250.29,313.98,250.47,314.99,250.38z"/>
			<path class="st2" d="M338.36,279.17c-1.22,1.7-3.05,2.79-4.42,4.36c-0.27,0.09-0.61,0.12-0.57,0.54l0.01-0.01
				c-0.83,0.19-1.63,0.41-1.61,1.5c0,0-0.04,0.04-0.04,0.04c-0.74-0.14-1.14,0.06-0.94,0.9c0,0-0.08,0.02-0.08,0.02
				c-0.27-0.11-0.42-0.01-0.48,0.26l0.02-0.01c-0.09,0.04-0.17,0.07-0.26,0.1c-1.4,2.03-3.39,3.44-5.31,4.93
				c-0.48,0.13-1.17,0.01-1.04,0.87l0.02-0.02c-0.67,0.09-1.36,0.15-1.34,1.09c0,0,0.02,0.01,0.02,0.01
				c-0.75-0.2-1.15,0.38-1.64,0.75c-6.04,4.53-12.11,9.02-18.11,13.6c-3.01,2.3-6.21,4.35-8.95,6.99c0,0,0.01-0.01,0.01-0.01
				c-0.43,0.08-0.87,0.14-1.3,0.23c-5.23,1.16-10.41,2.61-15.7,3.48c2.59-3.36,5.79-6.16,8.63-9.3c1.86-2.06,4.13-3.74,5.68-6.09
				c6.88-4.51,13.76-8.99,20.62-13.53c3.49-2.31,7.15-4.38,10.39-7.06c0.31-0.08,0.64-0.11,0.91-0.25
				c7.21-3.71,14.4-7.46,21.62-11.14c1.35-0.69,2.47-1.81,4.02-2.1c0.1-0.01,0.2-0.01,0.3,0c-1.82,2.41-4.37,4.08-6.4,6.28
				c-0.25,0.02-0.48,0.05-0.41,0.4l0.02-0.03c-0.7,0.21-1.4,0.42-1.39,1.36l0.02-0.02c-0.81,0.22-1.54,0.53-1.71,1.49
				c0,0,0.06,0.09,0.06,0.09C338.58,278.5,338.56,279.03,338.36,279.17z"/>
			<path class="st3" d="M223.35,273.42c-2.02,2.85-4.62,5.19-7,7.72c-2.85,3.04-5.5,6.29-8.68,9.01c-1.24-1.17-0.97-2.8-1.33-4.25
				c0.59-2.27,0.24-4.61,0.57-6.91c1.51-10.56,6.14-19.46,13.98-26.69l0.15,0.12c-0.05,0.72-0.35,1.35-0.76,1.93
				c-2.92,4.08-5.83,8.17-8.77,12.24c-1.21,1.67-1.09,1.7,0.91,2.49C216.07,270.52,219.86,271.61,223.35,273.42z"/>
			<path class="st3" d="M309.95,248.62c-2.14,0.36-3.92-0.89-5.82-1.45c-6.6-1.96-13.17-4.05-19.69-6.26
				c-2.76-0.94-5.44-0.23-8.14-0.13c-3.31,0.13-6.6,0.71-9.9,1.09c-5.68-0.66-11.35-1.37-17.03-1.95c-1.49-0.15-3.02-0.41-4.5,0.34
				c-3.35,1.69-6.73,3.33-10.12,4.95c-4.12,1.97-8.25,3.91-12.37,5.86l-0.06-0.05c5.44-5.09,11.89-8.43,18.84-10.89
				c13.59-4.81,27.25-4.59,40.94-0.49c8.47,2.53,16.96,4.97,25.31,7.88C308.28,247.8,309.26,247.88,309.95,248.62z"/>
			<path class="st3" d="M207.4,291.64c3.7,1.72,6.94,4.19,10.44,6.25c2.79,1.64,5.48,3.47,8.26,5.14c1.04,0.62,1.29,1,0.18,1.85
				c-2.16,1.67-4.16,3.56-6.36,5.18c-0.91,0.67-0.8,1.31-0.6,2.13C213.22,306.58,209.02,299.86,207.4,291.64z"/>
			<path class="st3" d="M276.64,318.79c5.3-0.87,10.47-2.32,15.7-3.48c0.43-0.1,0.87-0.16,1.3-0.23
				c-17.21,11.44-35.47,16.36-55.71,8.94c-1.01-0.37-1.98-0.85-2.97-1.28c0.65-0.29,1.29-0.02,1.94,0.01
				c0.16,0.1,0.3,0.27,0.47,0.31c6.27,1.34,12.55,2.67,18.82,4.01c0.7,0.15,1.22-0.19,1.8-0.44c5.72-2.45,11.45-4.89,17.18-7.33
				C275.75,319.36,276.21,319.11,276.64,318.79z"/>
			<path class="st3" d="M293.63,315.09c2.74-2.64,5.94-4.7,8.95-6.99c6-4.58,12.07-9.08,18.11-13.6c0.49-0.37,0.89-0.95,1.64-0.75
				c-5.2,4.79-10.85,9.02-16.52,13.21C301.89,309.86,297.9,312.68,293.63,315.09z"/>
			<path class="st3" d="M347.52,267.51c-2.8-1.05-5.3-2.69-7.9-4.13c-5.07-2.8-10.11-5.64-15.16-8.48c-0.59-0.33-1.33-0.5-1.57-1.27
				C331.65,257.29,340.16,261.4,347.52,267.51z"/>
			<path class="st3" d="M219.75,312.53c0.57-0.52,0.98,0.06,1.31,0.29c3.8,2.63,7.58,5.29,11.35,7.97c0.27,0.19,0.71,0.37,0.51,0.88
				C227.93,319.49,223.49,316.52,219.75,312.53z"/>
			<path class="st4" d="M320.07,252.45c-5.26-0.21-10.5,0.62-14.93,0.39c3.22-0.41,7.25-0.93,11.28-1.44l-0.02-0.01
				c0.15,0.25,0.28,0.24,0.38-0.04c0.07-0.08,0.14-0.17,0.19-0.27C318.04,251.47,319.15,251.74,320.07,252.45z"/>
			<path class="st4" d="M348.82,269.33c-0.1-0.01-0.2-0.01-0.3,0c-1.59-1.1-3.63-0.35-5.27-1.26c1.55-0.53,3.2,0.59,4.73-0.26
				C349.3,268.61,349.3,268.61,348.82,269.33z"/>
			<path class="st3" d="M322.92,253.64c-1.23,0.23-2.05-0.53-2.89-1.23C321.06,252.65,322.05,252.99,322.92,253.64z"/>
			<path class="st3" d="M314.99,250.38c-1.01,0.09-1.93-0.09-2.66-0.88C313.35,249.41,314.17,249.91,314.99,250.38z"/>
			<path class="st3" d="M338.94,278.81c0.17-0.96,0.9-1.27,1.71-1.49C340.19,277.95,339.74,278.58,338.94,278.81z"/>
			<path class="st4" d="M331.77,285.56c-0.01-1.09,0.79-1.31,1.61-1.5C333,284.73,332.43,285.19,331.77,285.56z"/>
			<path class="st3" d="M340.64,277.34c-0.01-0.94,0.69-1.15,1.39-1.36C341.75,276.62,341.2,276.99,340.64,277.34z"/>
			<path class="st3" d="M311.91,249.24c-0.78,0.16-1.6,0.45-1.93-0.68C310.71,248.54,311.34,248.81,311.91,249.24z"/>
			<path class="st3" d="M322.31,293.73c-0.02-0.94,0.67-1,1.34-1.09C323.33,293.16,322.91,293.55,322.31,293.73z"/>
			<path class="st4" d="M330.78,286.5c-0.2-0.84,0.2-1.04,0.94-0.9C331.41,285.9,331.1,286.2,330.78,286.5z"/>
			<path class="st3" d="M323.63,292.67c-0.13-0.86,0.56-0.74,1.04-0.87C324.32,292.09,323.98,292.38,323.63,292.67z"/>
			<path class="st3" d="M232.91,321.67c0.7-0.41,0.97,0.21,1.35,0.56C233.68,322.35,233.25,322.11,232.91,321.67z"/>
			<path class="st3" d="M338.36,279.17c0.19-0.14,0.22-0.68,0.65-0.27C338.9,279.25,338.67,279.3,338.36,279.17z"/>
			<path class="st3" d="M221.43,251.7c0.3-0.23,0.59-0.47,0.89-0.7l0.06,0.05c-0.22,0.29-0.43,0.58-0.65,0.87
				C221.64,251.85,221.54,251.77,221.43,251.7z"/>
			<path class="st4" d="M316.42,251.4c-0.03-0.2-0.06-0.39-0.08-0.59c0.21,0.09,0.43,0.18,0.64,0.27c-0.05,0.1-0.12,0.19-0.19,0.27
				c-0.13,0.01-0.26,0.02-0.39,0.04L316.42,251.4z"/>
			<path class="st3" d="M220.9,252.31c0.18-0.2,0.35-0.4,0.53-0.61c0.11,0.07,0.21,0.14,0.3,0.22c-0.12,0.32-0.38,0.43-0.68,0.5
				L220.9,252.31z"/>
			<path class="st4" d="M333.37,284.07c-0.04-0.42,0.3-0.45,0.57-0.54C333.89,283.85,333.7,284.03,333.37,284.07z"/>
			<path class="st3" d="M342.01,276.01c-0.07-0.35,0.16-0.38,0.41-0.4C342.42,275.88,342.25,275.99,342.01,276.01z"/>
			<path class="st3" d="M312.4,249.5c-0.27,0.1-0.47,0.07-0.51-0.27C312.11,249.22,312.37,249.15,312.4,249.5z"/>
			<path class="st4" d="M329.98,286.87c0.09-0.03,0.18-0.06,0.26-0.1C330.19,286.89,330.11,286.92,329.98,286.87z"/>
			<path class="st4" d="M330.22,286.78c0.06-0.27,0.21-0.38,0.48-0.26C330.62,286.76,330.47,286.86,330.22,286.78z"/>
			<path class="st3" d="M219.31,312.18c0.37-0.16,0.53-0.07,0.43,0.35C219.46,312.6,219.35,312.43,219.31,312.18z"/>
			<path class="st3" d="M348,267.84c-0.25,0.01-0.45-0.06-0.5-0.34C347.79,267.44,347.92,267.59,348,267.84z"/>
			<path class="st3" d="M207.55,290.41c0,0.39-0.35,0.4-0.58,0.55C207,290.6,207.25,290.48,207.55,290.41z"/>
			<path class="st4" d="M221.05,252.43c0.3-0.07,0.57-0.18,0.68-0.5c0.22-0.29,0.43-0.58,0.65-0.87c4.13-1.95,8.26-3.89,12.37-5.86
				c3.38-1.62,6.76-3.26,10.12-4.95c1.48-0.75,3.02-0.49,4.5-0.34c5.68,0.59,11.36,1.29,17.03,1.95c0.97,1.99,3.1,2.58,4.73,3.69
				c4.24,2.91,8.72,5.47,13.07,8.23c1.05,0.66,2.21,0.36,3.31,0.73c8.92,2.96,17.87,5.83,26.83,8.67c2,0.64,4.1,0.97,5.78,2.37
				c-3.81,1.54-7.64,3.07-11.44,4.63c-6.86,2.81-13.71,5.65-20.57,8.47c-0.23,0.12-0.47,0.24-0.7,0.36
				c-0.1-0.66-0.71-0.88-1.15-1.19c-1.97-1.39-3.91-2.82-5.97-4.07c-4.16-2.54-8.13-5.36-12.17-8.08c-0.84-0.57-1.63-0.53-2.46-0.02
				c-0.13-0.78-0.85-0.96-1.39-1.2c-5.87-2.56-11.79-5.01-17.63-7.63c-2-0.89-3.32-0.21-4.79,1.08c-3.84,3.4-7.8,6.67-11.69,10.01
				c-2.07,1.78-4.09,3.6-6.14,5.41c-0.22,0.03-0.45,0.06-0.67,0.1c-3.49-1.81-7.28-2.9-10.92-4.34c-2-0.79-2.11-0.82-0.91-2.49
				c2.94-4.07,5.85-8.16,8.77-12.24C220.7,253.77,220.99,253.15,221.05,252.43z"/>
			<path class="st3" d="M265.66,265.65c0.82-0.51,1.62-0.54,2.46,0.02c4.04,2.72,8.01,5.55,12.17,8.08c2.05,1.25,4,2.68,5.97,4.07
				c0.44,0.31,1.05,0.52,1.15,1.19c-5.42,5.99-10.85,11.98-16.27,17.97c-0.22,0.03-0.44,0.05-0.66,0.08
				c-0.25-0.2-0.47-0.44-0.74-0.58c-7.62-3.84-15.24-7.67-22.86-11.5l-0.01-0.14c0,0-0.03-0.14-0.03-0.14
				C253.11,278.34,259.38,272,265.66,265.65z"/>
			<path class="st5" d="M246.87,284.97c7.62,3.83,15.24,7.66,22.86,11.5c0.28,0.14,0.5,0.38,0.74,0.58
				c-1.57,0.85-2.76,2.16-4.1,3.29c-2.55,2.16-5.11,4.3-7.62,6.5c-2.3,2.02-4.54,4.11-6.81,6.17c-7.66-2.81-15.32-5.63-22.88-8.7
				c-1.57-0.63-1.27-1.12-0.26-2.08C234.86,296.52,240.86,290.74,246.87,284.97z"/>
			<path class="st2" d="M265.66,265.65c-6.27,6.35-12.55,12.7-18.82,19.05c-2.27-1.65-4.93-2.51-7.43-3.69
				c-4.59-2.15-9.22-4.24-13.8-6.42c-0.57-0.27-1.37-0.45-1.58-1.26c2.05-1.8,4.07-3.63,6.14-5.41c3.89-3.34,7.84-6.61,11.69-10.01
				c1.47-1.29,2.79-1.98,4.79-1.08c5.85,2.61,11.76,5.06,17.63,7.63C264.8,264.68,265.53,264.87,265.66,265.65z"/>
			<path class="st6" d="M251.95,313.02c2.27-2.06,4.51-4.15,6.81-6.17c2.51-2.2,5.07-4.35,7.62-6.5c1.34-1.13,2.53-2.44,4.1-3.29
				c0.22-0.03,0.44-0.05,0.66-0.08c0.21,0.14,0.4,0.32,0.63,0.4c5.83,1.98,11.67,3.94,17.5,5.93c0.57,0.2,1.12,0.16,1.69,0.09
				c-1.55,2.35-3.82,4.03-5.68,6.09c-2.83,3.14-6.03,5.94-8.63,9.3c-0.43,0.32-0.89,0.57-1.46,0.5c-7.73-1.96-15.46-3.93-23.19-5.89
				C251.98,313.27,251.96,313.15,251.95,313.02z"/>
			<path class="st2" d="M252,313.39c7.73,1.96,15.46,3.93,23.19,5.89c-5.73,2.44-11.45,4.88-17.18,7.33
				c-0.58,0.25-1.11,0.59-1.8,0.44c-6.27-1.35-12.55-2.67-18.82-4.01c-0.17-0.04-0.31-0.2-0.47-0.31c0-0.32,0.02-0.62,0.34-0.82
				C242.1,318.95,246.97,316.04,252,313.39z"/>
			<path class="st1" d="M288.11,278.65c6.86-2.82,13.71-5.66,20.57-8.47c3.81-1.56,7.63-3.08,11.44-4.63
				c2.86-0.1,5.64,0.62,8.48,0.81c4.61,0.31,9.18,0.93,13.71,1.8c0.3,0.06,0.63-0.05,0.94-0.09c1.64,0.91,3.67,0.16,5.27,1.26
				c-1.55,0.29-2.67,1.41-4.02,2.1c-7.22,3.68-14.42,7.43-21.62,11.14c-0.27,0.14-0.61,0.17-0.91,0.25
				c-7.2-0.84-14.41-1.63-21.6-2.52C296.27,279.78,292.13,279.64,288.11,278.65z"/>
			<path class="st7" d="M288.11,278.65c4.03,0.99,8.17,1.13,12.26,1.64c7.19,0.9,14.4,1.69,21.6,2.52
				c-3.25,2.68-6.9,4.75-10.39,7.06c-6.85,4.54-13.74,9.02-20.62,13.53c-0.57,0.07-1.11,0.11-1.69-0.09
				c-5.83-1.99-11.67-3.95-17.5-5.93c-0.23-0.08-0.42-0.26-0.63-0.4c5.42-5.99,10.85-11.98,16.27-17.97
				C287.64,278.89,287.87,278.77,288.11,278.65z"/>
			<path class="st2" d="M316.4,251.39c0.13-0.01,0.26-0.02,0.39-0.04C316.69,251.63,316.56,251.64,316.4,251.39z"/>
		</g>
		<g>
			<path class="st1" d="M193.92,282.81c-0.14,0.25-0.28,0.49-0.42,0.74c-0.24-0.13-0.41-0.44-0.75-0.26
				c-0.1-0.03-0.19-0.03-0.29,0.02c-3.89-1.55-8-2.37-12.02-3.48c-3.35-0.92-6.62-2.14-10.09-2.59c-0.13-0.18-0.27-0.37-0.4-0.55
				c0.62-0.56,0.4-1.35,0.38-1.98c-0.2-5.07-0.52-10.13-0.75-15.2c-0.13-2.76-0.61-5.52-0.2-8.29l0.11-0.09l0.12-0.08
				c7.9,2.64,15.81,5.25,23.7,7.93c1.32,0.45,1.89,0.48,1.72-1.2c-0.81-8.12-1.89-16.21-2.97-24.3c0.1-0.07,0.2-0.15,0.3-0.22
				c4.69,3.21,9.53,6.17,14.42,9.07c0.32,0.19,0.6,0.08,0.89-0.08c0.28,0.58,0.34,1.28,0.9,1.72c-0.04,0.29-0.07,0.58-0.11,0.87
				c-0.13,0.5-0.56,1.03,0.13,1.46l0-0.01c-0.54,0.06-0.49,0.53-0.54,0.86c-0.61,4.58-1.21,9.16-1.76,13.75
				c-0.05,0.4-0.37,1.03,0.35,1.29l0,0c-0.42,0.11-0.42,0.3-0.1,0.54c0,0,0-0.01,0-0.01c-0.63,0.56-1.15,0.95-2.16,0.46
				c-2.46-1.18-5.06-2.07-7.55-3.21c-1.27-0.58-1.49-0.19-1.55,1.02c-0.18,3.24-0.54,6.46-0.7,9.7c-0.19,4.05-0.86,8.08-0.66,12.15
				L193.92,282.81z"/>
			<path class="st2" d="M107.24,206.89c-0.08-0.46-0.16-0.93-0.25-1.39c0.16-0.12,0.32-0.23,0.48-0.35
				c2.33,3.33,4.67,6.65,6.53,9.31c-1.86-4.03-5.04-8.28-7.31-13.03c0,0,0,0.06,0,0.06c0.22-1.07,0.51-2.15-0.26-3.13l0,0.02
				c0.57-0.57,0.38-1.31,0.4-1.98c0.16-5.79,0.32-11.57,0.44-17.36c0.06-2.97,0.35-5.94-0.03-8.91l0,0.03
				c0.22-0.18,0.19-0.38,0.06-0.6c0,0-0.01,0.02-0.01,0.02c1.47,0.96,1.24,2.94,2.43,4.07c0.18,0.26,0.43,0.5,0.52,0.8
				c1.35,4.42,2.93,8.75,4.8,12.97c1.15,2.6,1.81,5.39,3.23,7.88c-0.46,2.14,0.23,4.16,0.6,6.22c1.65,9.25,3.29,18.51,4.83,27.78
				c0.19,1.14,1,2.03,0.9,3.27c-0.41,5.13-0.59,10.29-1.18,15.4c-0.23,1.96,0.24,4.12-1.06,5.91c-1.88-2.74-3.92-5.38-5.58-8.25
				c-1.35-2.33-3.22-4.38-3.68-7.26c-1.08-6.8-2.3-13.58-3.64-20.34c-0.39-1.95-0.11-4.1-1.43-5.83c0,0-0.06-0.01-0.06,0
				c0.85-0.81,0.21-1.41-0.3-2.02l0,0.02c0.28-0.19,0.21-0.38,0-0.58c0,0,0.03,0.06,0.03,0.06
				C108.06,208.65,107.79,207.75,107.24,206.89z"/>
			<path class="st2" d="M121.83,172.8c2.08,0.29,3.9,1.4,5.91,1.88c0.21,0.2,0.39,0.48,0.74,0.25l-0.01,0
				c0.55,0.64,1.12,1.25,2.08,0.73c0,0,0.05,0.02,0.05,0.02c0.22,0.72,0.59,0.98,1.24,0.41c0,0,0.05,0.06,0.05,0.06
				c0.03,0.29,0.19,0.37,0.46,0.3l-0.02-0.01c0.07,0.06,0.14,0.12,0.21,0.19c2.46,0.29,4.63,1.4,6.83,2.4
				c0.34,0.37,0.56,1.03,1.26,0.51l-0.03-0.01c0.39,0.55,0.77,1.13,1.59,0.68c0,0-0.01-0.02-0.01-0.02c0.18,0.76,0.88,0.84,1.43,1.1
				c6.82,3.24,13.63,6.51,20.48,9.68c3.43,1.59,6.74,3.46,10.36,4.66c0,0-0.02-0.01-0.02-0.01c0.27,0.35,0.53,0.71,0.81,1.04
				c3.47,4.09,7.16,7.99,10.4,12.27c-4.18-0.73-8.15-2.25-12.25-3.3c-2.69-0.69-5.23-1.91-8.03-2.19
				c-7.19-3.98-14.37-7.99-21.58-11.94c-3.67-2.01-7.21-4.28-11.09-5.91c-0.21-0.23-0.39-0.51-0.65-0.69
				c-6.64-4.65-13.31-9.26-19.93-13.94c-1.24-0.87-2.75-1.34-3.73-2.58c-0.06-0.08-0.11-0.17-0.14-0.27
				c2.98,0.49,5.65,1.97,8.54,2.74c0.13,0.21,0.27,0.4,0.54,0.17l-0.03,0c0.51,0.52,1.03,1.04,1.85,0.6l-0.03,0
				c0.57,0.61,1.19,1.11,2.11,0.82c0,0,0.05-0.1,0.05-0.1C121.12,172.92,121.61,172.69,121.83,172.8z"/>
			<path class="st3" d="M170.35,277.23c3.47,0.46,6.74,1.67,10.09,2.59c4.02,1.11,8.13,1.93,12.02,3.48
				c-0.46,1.64-2.03,2.17-3.14,3.16c-2.28,0.53-4.19,1.93-6.38,2.71c-10.05,3.58-20.08,3.63-30.13,0.07l0.03-0.19
				c0.66-0.29,1.35-0.32,2.06-0.22c4.97,0.68,9.95,1.35,14.92,2.05c2.04,0.29,2.01,0.18,1.78-1.96
				C171.18,285.02,170.37,281.16,170.35,277.23z"/>
			<path class="st3" d="M108.04,212.18c1.32,1.73,1.04,3.88,1.43,5.83c1.34,6.75,2.56,13.54,3.64,20.34
				c0.46,2.88,2.33,4.92,3.68,7.26c1.66,2.87,3.7,5.51,5.58,8.25c2.06,5.33,4.08,10.68,6.21,15.98c0.56,1.39,1.05,2.86,2.4,3.82
				c3.06,2.18,6.08,4.4,9.09,6.64c3.66,2.72,7.3,5.48,10.95,8.22l-0.02,0.08c-7.04-2.44-13-6.59-18.42-11.59
				c-10.59-9.78-16.76-21.97-19.52-35.99c-1.71-8.67-3.51-17.32-4.83-26.07C108.09,214.03,107.7,213.13,108.04,212.18z"/>
			<path class="st3" d="M193.9,282.85c-0.2-4.07,0.47-8.1,0.66-12.15c0.15-3.24,0.52-6.46,0.7-9.7c0.07-1.21,0.28-1.6,1.55-1.02
				c2.49,1.14,5.09,2.02,7.55,3.21c1.02,0.49,1.53,0.1,2.16-0.46C204.4,270.74,200.41,277.58,193.9,282.85z"/>
			<path class="st3" d="M185.64,208.93c-3.24-4.28-6.93-8.18-10.4-12.27c-0.28-0.34-0.54-0.69-0.81-1.04
				c18.14,9.9,31.01,23.76,33.88,45.12c0.14,1.07,0.17,2.15,0.25,3.22c-0.56-0.44-0.62-1.13-0.9-1.72c0.02-0.19,0.1-0.39,0.05-0.56
				c-1.74-6.18-3.49-12.35-5.23-18.52c-0.19-0.69-0.74-0.99-1.23-1.39c-4.84-3.92-9.66-7.85-14.5-11.78
				C186.56,209.45,186.13,209.17,185.64,208.93z"/>
			<path class="st3" d="M174.45,195.63c-3.61-1.19-6.92-3.07-10.36-4.66c-6.85-3.17-13.66-6.45-20.48-9.68
				c-0.55-0.26-1.25-0.35-1.43-1.1c6.66,2.37,13.03,5.4,19.39,8.46C165.98,190.76,170.33,192.98,174.45,195.63z"/>
			<path class="st3" d="M107.24,170.13c0.38,2.97,0.09,5.94,0.03,8.91c-0.11,5.79-0.28,11.58-0.44,17.36
				c-0.02,0.67,0.18,1.41-0.4,1.98C105.59,188.93,105.26,179.5,107.24,170.13z"/>
			<path class="st3" d="M206.63,262.18c-0.72-0.26-0.4-0.89-0.35-1.29c0.55-4.59,1.15-9.17,1.76-13.75c0.04-0.33,0-0.8,0.54-0.86
				C208.97,251.7,208.42,257.02,206.63,262.18z"/>
			<path class="st4" d="M106.71,201.44c2.27,4.75,5.44,9,7.31,13.03c-1.86-2.66-4.2-5.98-6.53-9.31l0,0.02
				c0.15-0.25,0.08-0.36-0.21-0.32c-0.11-0.03-0.22-0.04-0.33-0.04C106.79,203.69,106.51,202.58,106.71,201.44z"/>
			<path class="st4" d="M108.24,168.13c0.04,0.1,0.08,0.18,0.14,0.27c-0.23,1.92,1.38,3.37,1.34,5.24c-1.19-1.13-0.96-3.1-2.43-4.07
				C107.38,168.05,107.38,168.05,108.24,168.13z"/>
			<path class="st3" d="M106.44,198.36c0.78,0.99,0.49,2.06,0.26,3.13C106.42,200.47,106.27,199.43,106.44,198.36z"/>
			<path class="st3" d="M107.24,206.89c0.55,0.85,0.82,1.75,0.46,2.76C107.15,208.8,107.21,207.84,107.24,206.89z"/>
			<path class="st3" d="M121.23,172.45c-0.92,0.3-1.54-0.21-2.11-0.82C119.88,171.75,120.65,171.85,121.23,172.45z"/>
			<path class="st4" d="M130.55,175.65c-0.96,0.52-1.53-0.09-2.08-0.73C129.24,174.95,129.92,175.24,130.55,175.65z"/>
			<path class="st3" d="M119.15,171.64c-0.83,0.45-1.34-0.07-1.85-0.6C117.99,170.99,118.57,171.3,119.15,171.64z"/>
			<path class="st3" d="M107.68,210.15c0.51,0.61,1.14,1.21,0.3,2.02C107.62,211.54,107.55,210.86,107.68,210.15z"/>
			<path class="st3" d="M142.19,180.21c-0.82,0.46-1.2-0.13-1.59-0.68C141.21,179.57,141.75,179.76,142.19,180.21z"/>
			<path class="st4" d="M131.84,176.08c-0.65,0.57-1.02,0.31-1.24-0.41C131.02,175.81,131.43,175.95,131.84,176.08z"/>
			<path class="st3" d="M140.63,179.54c-0.7,0.52-0.92-0.15-1.26-0.51C139.79,179.2,140.21,179.37,140.63,179.54z"/>
			<path class="st3" d="M208.58,246.28c-0.69-0.43-0.26-0.95-0.13-1.46C208.82,245.28,208.81,245.77,208.58,246.28z"/>
			<path class="st3" d="M121.83,172.8c-0.22-0.1-0.7,0.12-0.54-0.44C121.64,172.28,121.8,172.46,121.83,172.8z"/>
			<path class="st3" d="M152.03,289.05c-0.34-0.15-0.69-0.3-1.03-0.46l0.02-0.08c0.36,0.06,0.71,0.11,1.07,0.17
				C152.06,288.8,152.04,288.93,152.03,289.05z"/>
			<path class="st4" d="M107.48,205.16c-0.16,0.12-0.32,0.23-0.48,0.35c-0.02-0.23-0.04-0.46-0.06-0.69c0.11,0,0.22,0.02,0.33,0.04
				c0.07,0.11,0.14,0.22,0.21,0.32L107.48,205.16z"/>
			<path class="st3" d="M152.81,289.24c-0.26-0.06-0.52-0.12-0.78-0.19c0.01-0.12,0.03-0.25,0.06-0.37
				c0.34-0.04,0.56,0.14,0.76,0.37L152.81,289.24z"/>
			<path class="st4" d="M128.48,174.93c-0.35,0.23-0.53-0.05-0.74-0.25C128.05,174.58,128.3,174.65,128.48,174.93z"/>
			<path class="st3" d="M117.32,171.04c-0.27,0.23-0.41,0.04-0.54-0.17C117.02,170.74,117.19,170.84,117.32,171.04z"/>
			<path class="st3" d="M107.68,209.6c0.21,0.19,0.28,0.39,0,0.58C107.56,209.98,107.38,209.79,107.68,209.6z"/>
			<path class="st4" d="M132.54,176.62c-0.07-0.06-0.14-0.13-0.21-0.19C132.46,176.42,132.53,176.49,132.54,176.62z"/>
			<path class="st4" d="M132.35,176.45c-0.27,0.07-0.43-0.01-0.46-0.3C132.14,176.11,132.3,176.19,132.35,176.45z"/>
			<path class="st3" d="M206.52,262.73c-0.31-0.25-0.31-0.44,0.1-0.54C206.82,262.41,206.72,262.58,206.52,262.73z"/>
			<path class="st3" d="M107.3,169.55c0.12,0.22,0.16,0.42-0.06,0.6C107.05,169.93,107.12,169.74,107.3,169.55z"/>
			<path class="st3" d="M192.74,283.29c0.34-0.18,0.52,0.13,0.75,0.26C193.17,283.69,192.94,283.52,192.74,283.29z"/>
			<path class="st4" d="M152.85,289.05c-0.2-0.23-0.43-0.41-0.76-0.37c-0.36-0.06-0.71-0.11-1.07-0.17
				c-3.65-2.74-7.29-5.49-10.95-8.22c-3.01-2.24-6.03-4.47-9.09-6.64c-1.35-0.96-1.84-2.44-2.4-3.82
				c-2.13-5.3-4.15-10.65-6.21-15.98c1.31-1.79,0.84-3.95,1.06-5.91c0.6-5.11,0.77-10.27,1.18-15.4c0.1-1.23-0.71-2.12-0.9-3.27
				c-1.54-9.27-3.18-18.53-4.83-27.78c-0.37-2.06-1.05-4.08-0.6-6.22c3.14,2.66,6.27,5.33,9.43,7.97
				c5.69,4.76,11.39,9.5,17.08,14.25c0.22,0.15,0.43,0.3,0.65,0.45c-0.54,0.4-0.44,1.04-0.51,1.57c-0.31,2.39-0.67,4.78-0.82,7.18
				c-0.3,4.87-0.95,9.7-1.48,14.54c-0.11,1.01,0.29,1.69,1.13,2.18c-0.63,0.48-0.45,1.21-0.41,1.78c0.47,6.39,1.06,12.76,1.47,19.15
				c0.14,2.19,1.36,3.04,3.19,3.73c4.8,1.82,9.53,3.79,14.3,5.67c2.54,1,5.1,1.94,7.65,2.91c0.13,0.18,0.27,0.37,0.4,0.55
				c0.03,3.94,0.83,7.79,1.25,11.69c0.23,2.14,0.26,2.25-1.78,1.96c-4.97-0.7-9.94-1.37-14.92-2.05
				C154.2,288.73,153.51,288.76,152.85,289.05z"/>
			<path class="st3" d="M143.75,243.43c-0.83-0.49-1.24-1.17-1.13-2.18c0.52-4.84,1.17-9.67,1.48-14.54
				c0.15-2.4,0.51-4.79,0.82-7.18c0.07-0.54-0.02-1.17,0.51-1.57c7.83,2.01,15.66,4.01,23.48,6.02c0.12,0.18,0.25,0.36,0.37,0.55
				c-0.06,0.31-0.17,0.62-0.17,0.93c0.15,8.53,0.32,17.06,0.48,25.58l-0.12,0.08l-0.11,0.09
				C160.83,248.61,152.29,246.02,143.75,243.43z"/>
			<path class="st5" d="M169.6,251.03c-0.16-8.53-0.33-17.06-0.48-25.58c-0.01-0.31,0.11-0.62,0.17-0.93
				c1.48,0.99,3.19,1.44,4.82,2.09c3.1,1.25,6.19,2.52,9.31,3.71c2.86,1.09,5.76,2.1,8.64,3.15c1.08,8.09,2.16,16.18,2.97,24.3
				c0.17,1.68-0.4,1.65-1.72,1.2C185.42,256.28,177.51,253.67,169.6,251.03z"/>
			<path class="st2" d="M143.75,243.43c8.54,2.59,17.08,5.18,25.62,7.77c-0.41,2.78,0.07,5.53,0.2,8.29
				c0.23,5.07,0.55,10.13,0.75,15.2c0.03,0.63,0.24,1.42-0.38,1.98c-2.55-0.97-5.11-1.91-7.64-2.91c-4.77-1.88-9.51-3.85-14.3-5.67
				c-1.83-0.69-3.05-1.54-3.19-3.73c-0.41-6.39-1-12.77-1.47-19.15C143.29,244.63,143.12,243.9,143.75,243.43z"/>
			<path class="st6" d="M192.05,233.47c-2.88-1.05-5.78-2.05-8.64-3.15c-3.12-1.19-6.21-2.46-9.31-3.71
				c-1.62-0.66-3.34-1.1-4.82-2.09c-0.12-0.18-0.25-0.36-0.37-0.55c0.02-0.25,0.1-0.51,0.06-0.75c-0.97-6.08-1.95-12.16-2.91-18.24
				c-0.09-0.6-0.38-1.06-0.71-1.53c2.8,0.28,5.34,1.5,8.03,2.19c4.1,1.04,8.07,2.57,12.25,3.3c0.49,0.23,0.92,0.52,1.12,1.06
				c1.87,7.75,3.73,15.51,5.6,23.26C192.26,233.32,192.15,233.4,192.05,233.47z"/>
			<path class="st2" d="M192.36,233.25c-1.87-7.75-3.73-15.51-5.6-23.26c4.83,3.93,9.66,7.86,14.5,11.78
				c0.49,0.4,1.04,0.7,1.23,1.39c1.73,6.18,3.49,12.35,5.23,18.52c0.05,0.17-0.03,0.37-0.05,0.56c-0.28,0.15-0.56,0.27-0.89,0.08
				C201.89,239.42,197.04,236.46,192.36,233.25z"/>
			<path class="st1" d="M144.79,217.5c-5.69-4.75-11.4-9.49-17.08-14.25c-3.15-2.64-6.28-5.31-9.43-7.97
				c-1.42-2.48-2.08-5.28-3.23-7.88c-1.88-4.22-3.46-8.55-4.8-12.97c-0.09-0.29-0.34-0.53-0.52-0.8c0.04-1.87-1.57-3.32-1.34-5.24
				c0.98,1.24,2.49,1.71,3.73,2.58c6.62,4.68,13.29,9.29,19.93,13.94c0.25,0.18,0.43,0.46,0.65,0.69c2.62,6.76,5.28,13.5,7.84,20.29
				C141.98,209.75,143.79,213.48,144.79,217.5z"/>
			<path class="st7" d="M144.79,217.5c-1-4.02-2.81-7.75-4.26-11.61c-2.56-6.78-5.22-13.53-7.84-20.29
				c3.88,1.62,7.42,3.89,11.09,5.91c7.21,3.95,14.39,7.95,21.58,11.94c0.33,0.47,0.62,0.93,0.71,1.53
				c0.96,6.08,1.94,12.16,2.91,18.24c0.04,0.24-0.04,0.5-0.06,0.75c-7.83-2.01-15.66-4.01-23.48-6.02
				C145.22,217.8,145,217.65,144.79,217.5z"/>
			<path class="st2" d="M107.48,205.18c-0.07-0.11-0.14-0.22-0.21-0.32C107.56,204.81,107.63,204.92,107.48,205.18z"/>
		</g>
	</g>
</g>
<g class="st10">
	<g>
		<path d="M192.94,200.76c0.11-0.04,0.22-0.09,0.34-0.14C193.16,200.67,193.05,200.72,192.94,200.76c0.11,0.27,0.17,0.55,0.26,0.81
			c2.46,10.68,8.03,19.34,16.65,26.08c1.9,1.43,4.14,2.34,5.87,4.03c1.42,0.38,2.8,1.42,4.44,0.95c0.09,0.08,0.13,0.12,0.17,0.24
			c0.34,0.19,0.17,0.51,0.21,0.8c0.26,0,0.54-0.02,0.78-0.02c8.11,2.69,16.27,2.41,24.29-0.23c0.09-0.41,0.22-0.51,0.52-0.2
			l0.04,0.02c5.41-1.31,10.33-3.8,14.8-7.15c0-0.82,0.65-0.72,1.12-0.92c0.3-0.14,0.56-0.26,0.82-0.38
			c0.91-0.67,1.86-1.31,2.63-2.01c16.83-14.32,21.7-33.14,20.26-54.35l0,0c0-5.06-0.49-10.04-1.1-14.99
			c-0.86-7.2-1.77-14.44-3.36-21.53h-0.04c0.15-0.6,0-1.18-0.28-1.75c-0.06-0.4-0.17-0.87-0.28-1.33c-0.3-2.48-0.56-4.96-1.68-7.25
			c0.04-0.1,0.06-0.18,0.06-0.3v0.03c-0.19-0.19-0.19-0.38,0.02-0.57l0.02-0.08c-0.84-0.24-0.84-0.71-0.34-1.27v-0.05
			c0-0.79-0.11-1.55-0.54-2.24c-0.34-0.16-0.24-0.47-0.17-0.78c-0.69-1.99-0.73-4.18-1.64-6.16c0.3-0.21,0.34-0.41,0.09-0.69
			c0.04,0-0.13,0-0.13,0c-0.73-0.67-0.65-1.46-0.43-2.26l0,0c-0.04-0.67-0.09-1.39-0.52-1.96v0.03c-0.32-0.1-0.24-0.34-0.13-0.53
			c-0.91-2.92-1.08-6.07-2.33-8.93c-0.39-0.82-0.39-0.82-1.73,0c-0.17,0.19-0.32,0.28-0.56,0.24l0,0
			c-9.15,3.47-17.09,8.98-24.81,14.95h0.04c-0.43,1.19-1.47,1.56-2.5,1.97l0.04-0.06c-1.12,0.46-1.94,1.32-2.85,2.08
			c-0.13,0.16-0.34,0.3-0.56,0.42c-0.32,0.34-0.69,0.7-1.04,0.99c-0.43,0.95-1.04,1.68-2.11,1.94v-0.08
			c-0.04,0.32-0.15,0.49-0.47,0.32c-0.65,0.28-1.23,0.73-1.58,1.38l0.04,0.04c-0.97,0.26-1.55,1.07-2.26,1.69
			c-6.82,5.99-13.29,12.35-19.85,18.64c-10.53,10.18-17.6,22.27-20.19,36.89c-1.36,7.43-1.64,14.92,0.13,22.38
			C192.81,200.02,192.9,200.4,192.94,200.76"/>
		<path d="M348.33,270.85L348.33,270.85c-0.26,0-0.41-0.1-0.47-0.34h0.02c-7.55-6.31-16.27-10.53-25.2-14.27l0,0
			c-0.91-0.68-1.9-1.03-2.93-1.24l0.04,0.02c-0.95-0.73-2.07-1.03-3.17-1.38c-0.24-0.13-0.46-0.23-0.67-0.32l-1.34-0.42
			c-1.08,0.06-2.01-0.1-2.72-0.91h0.04c-0.26,0.09-0.47,0.08-0.52-0.3v0.04c-0.56-0.43-1.21-0.73-1.94-0.71l-0.04,0.04
			c-0.71-0.77-1.71-0.81-2.59-1.14c-8.56-3.01-17.24-5.48-25.89-8.11c-14.02-4.17-27.96-4.43-41.9,0.53
			c-7.12,2.55-13.68,5.98-19.27,11.18c-0.3,0.27-0.58,0.51-0.88,0.74c-0.22,0.22-0.39,0.41-0.54,0.63
			c-8.05,7.43-12.79,16.59-14.35,27.46c-0.32,2.36,0,4.77-0.56,7.11c0.39,1.47,0.09,3.17,1.38,4.36c0,0.09-0.06,0.21-0.17,0.26
			c0,0.39-0.35,0.41-0.58,0.61c0.19,0.19,0.3,0.45,0.45,0.67c1.64,8.43,5.95,15.37,12.17,21.14c0,0.02,0,0,0,0v0.02
			c0.39-0.19,0.56-0.1,0.43,0.31v0.02c3.84,4.1,8.41,7.15,13.48,9.4c0.37,0.47,0.8,0.71,1.4,0.57c0.24,0.18,0.47,0.34,0.73,0.53
			c0.99,0.43,1.98,0.93,3.04,1.31c20.67,7.66,39.33,2.58,56.97-9.18l0,0c4.31-2.5,8.41-5.39,12.43-8.37
			c5.82-4.31,11.56-8.67,16.89-13.58c-0.02-0.96,0.63-1.04,1.34-1.13c0,0.03,0,0,0,0.03c0.32-0.31,0.69-0.59,1.06-0.93
			c1.94-1.51,3.97-2.96,5.46-5.04c0.06-0.04,0.15-0.07,0.24-0.14v0.02c0.04-0.26,0.22-0.36,0.47-0.26l0.09-0.02
			c-0.22-0.89,0.22-1.08,0.95-0.94l0.04-0.02c0-1.14,0.82-1.33,1.68-1.52h-0.04c0-0.45,0.3-0.47,0.58-0.57
			c1.4-1.62,3.3-2.72,4.51-4.49c0.22-0.16,0.26-0.68,0.69-0.26l-0.09-0.1c0.17-1,0.95-1.34,1.75-1.55v0.03c0-0.98,0.67-1.19,1.4-1.4
			v0.04c-0.09-0.37,0.17-0.41,0.43-0.41c2.11-2.29,4.68-3.98,6.56-6.46c-0.15,0-0.19,0-0.32,0c-1.62,0.31-2.74,1.44-4.08,2.15
			c1.34-0.7,2.46-1.84,4.08-2.15c0.13,0,0.17,0,0.32,0C349.69,271.67,349.69,271.67,348.33,270.85"/>
		<path d="M203.66,265.61L203.66,265.61c-0.32-0.28-0.32-0.45,0.11-0.55l0,0c1.81-5.31,2.37-10.76,1.96-16.4
			c0.26-0.51,0.26-0.98-0.11-1.48l0.09-0.91c-0.09-1.1-0.09-2.22-0.24-3.3c-2.93-21.97-16.07-36.23-34.67-46.44l0.04,0.02
			c-4.18-2.74-8.67-4.98-13.18-7.17c-6.49-3.17-13.05-6.29-19.82-8.71v0.02c-0.43-0.44-0.99-0.64-1.6-0.71
			c-0.39-0.14-0.86-0.32-1.29-0.51c-2.24-1.04-4.49-2.16-6.99-2.48c-0.04-0.1-0.13-0.14-0.21-0.18h0.04c-0.3,0.09-0.43,0-0.47-0.29
			l-0.04-0.1c-0.67,0.57-1.04,0.34-1.25-0.4h-0.04c-0.67-0.45-1.38-0.76-2.16-0.79c-0.34,0.27-0.56-0.04-0.73-0.26
			c-2.05-0.46-3.95-1.62-6.08-1.91c-0.19-0.1-0.69,0.12-0.52-0.47l-0.04,0.1c-0.95,0.33-1.62-0.19-2.2-0.82h0.04
			c-0.84,0.49-1.38-0.08-1.92-0.61h0.06c-0.3,0.24-0.43,0.04-0.58-0.19c-2.96-0.76-5.67-2.29-8.74-2.78
			c-0.86-0.1-0.86-0.1-0.95,1.48c0.09,0.22,0.13,0.41-0.04,0.55c-2.05,9.63-1.68,19.37-0.86,29.06l0,0c-0.13,1.12,0,2.19,0.3,3.24
			c0-0.08,0-0.08,0-0.08c-0.22,1.18,0.09,2.32,0.22,3.47c0.04,0.28,0.04,0.47,0.09,0.73c0.09,0.45,0.13,0.93,0.26,1.41
			c0.52,0.87,0.84,1.8,0.45,2.86l-0.06-0.06c0.26,0.17,0.32,0.36,0,0.57l0.04-0.02c-0.13,0.71-0.04,1.44,0.3,2.08h0.06
			c-0.34,0.97,0.09,1.91,0.19,2.83c1.34,8.98,3.19,17.88,4.94,26.82c2.78,14.45,9.13,27,19.96,37.05
			c5.56,5.13,11.65,9.41,18.85,11.95c0.34,0.15,0.69,0.29,1.06,0.43c0-0.14,0-0.24,0.07-0.38c-0.07,0.14-0.07,0.24-0.07,0.38
			c0.26,0.1,0.52,0.14,0.8,0.21c10.27,3.67,20.54,3.61,30.81-0.08c2.24-0.81,4.21-2.24,6.54-2.8c1.1-1.01,2.74-1.56,3.17-3.25
			c0.13-0.04,0.21-0.04,0.32-0.02c0.34-0.21,0.54,0.14,0.78,0.28c0.15-0.26,0.28-0.51,0.41-0.74v0.06
			C197.39,280.91,201.46,273.85,203.66,265.61 M204.81,244.53c-0.3,0.16-0.56,0.27-0.91,0.05
			C204.25,244.8,204.51,244.69,204.81,244.53c0.09,0.21,0.24,0.41,0.35,0.59C205.05,244.94,204.89,244.74,204.81,244.53"/>
	</g>
</g>
<g>
	<path class="st1" d="M219.59,233.9c-0.28,0-0.58,0.04-0.84,0.04c0-0.24,0.13-0.53-0.17-0.73c-0.04-0.11-0.09-0.21-0.15-0.25
		c-0.8-4.04-2.29-7.92-3.54-11.82c-0.99-3.3-1.71-6.6-3.19-9.75c0.06-0.19,0.15-0.4,0.28-0.64c0.78,0.24,1.29-0.34,1.81-0.72
		c4.12-2.87,8.11-5.79,12.23-8.7c2.22-1.55,4.25-3.4,6.8-4.57l0.11,0.04l0.15,0.08c1.99,7.96,4.01,15.92,5.96,23.87
		c0.34,1.33,0.6,1.82,1.94,0.81c6.28-4.98,12.43-10.16,18.59-15.36c0.09,0.06,0.17,0.1,0.3,0.14c-0.17,5.58-0.04,11.18,0.13,16.79
		c0.04,0.36,0.26,0.52,0.56,0.67c-0.37,0.52-0.91,0.97-0.95,1.66c-0.26,0.13-0.52,0.27-0.78,0.39c-0.52,0.16-1.14,0.06-1.14,0.85
		c-0.32-0.4-0.69-0.12-0.99,0c-4.16,1.93-8.26,3.89-12.38,5.86c-0.32,0.15-1.01,0.24-0.84,0.97c-0.34-0.29-0.47-0.19-0.52,0.18
		c-0.82-0.18-1.38-0.42-1.55-1.55c-0.3-2.66-0.95-5.3-1.34-7.94c-0.17-1.39-0.65-1.34-1.68-0.75c-2.76,1.54-5.61,3-8.41,4.54
		c-3.45,2.03-7.16,3.6-10.4,5.9H219.59z"/>
	<path class="st2" d="M236.58,121.68c0.37-0.28,0.71-0.66,1.06-0.94c0.13,0.1,0.34,0.14,0.56,0.19c-1.56,3.72-3.11,7.43-4.27,10.37
		c2.33-3.67,4.16-8.53,6.9-12.95l-0.04,0.02c1.01-0.42,2.07-0.73,2.46-1.92l-0.02,0.04c0.8,0.17,1.32-0.38,1.88-0.74
		c4.85-2.93,9.75-5.86,14.63-8.83c2.5-1.53,5.13-2.89,7.38-4.78v0.03c0.22,0.09,0.39-0.05,0.52-0.27h-0.04
		c-0.02,1.75-1.77,2.6-2.07,4.19c-0.13,0.28-0.22,0.64-0.39,0.83c-2.93,3.47-5.74,7.1-8.2,10.88c-1.55,2.36-3.54,4.37-4.83,6.87
		c-2.03,0.71-3.32,2.41-4.88,3.81c-6.78,6.26-13.61,12.57-20.45,18.73c-0.86,0.81-1.21,1.93-2.24,2.48
		c-4.49,2.41-8.87,4.98-13.42,7.22c-1.77,0.84-3.28,2.39-5.48,2.22c1.27-3.03,2.42-6.08,3.88-8.98c1.25-2.36,1.94-5.01,4.08-6.91
		c5.07-4.51,10.03-9.1,14.95-13.81c1.38-1.34,3.32-2.29,4.1-4.27l-0.02-0.04c1.1,0.24,1.32-0.59,1.49-1.33v0.02
		c0.3,0.12,0.43-0.02,0.47-0.34l-0.04,0.08C235.57,123.27,236.22,122.61,236.58,121.68"/>
	<path class="st2" d="M272.63,115.68c0.86,1.87,0.95,3.97,1.58,5.9c-0.04,0.29-0.19,0.59,0.19,0.77c-0.24,0.8-0.45,1.58,0.5,2.11
		v0.05c-0.5,0.54-0.5,0.99,0.34,1.23l-0.06,0.1c-0.22,0.14-0.22,0.36,0,0.54l-0.02-0.03c0,0.08-0.02,0.17-0.02,0.27
		c1.06,2.19,1.29,4.58,1.64,6.92c-0.13,0.51-0.56,1.06,0.22,1.32v-0.02c-0.22,0.64-0.52,1.23,0.3,1.69h0.04
		c-0.56,0.53-0.26,1.14-0.17,1.74c0.91,7.39,1.86,14.78,2.83,22.14c0.49,3.7,0.67,7.44,1.62,11.09v-0.05
		c-0.15,0.43-0.3,0.82-0.43,1.25c-1.55,5.08-2.85,10.18-4.7,15.17c-1.58-3.89-2.42-7.96-3.75-11.93c-0.84-2.62-1.17-5.36-2.46-7.82
		c-0.47-8.08-0.99-16.18-1.51-24.29c-0.28-4.1-0.28-8.23-0.95-12.3c0.04-0.32,0.17-0.6,0.17-0.94c0.39-7.96,0.65-15.94,1.01-23.9
		c0.06-1.51-0.37-3.03,0.15-4.49c0.04-0.1,0.09-0.17,0.13-0.26c1.21,2.74,1.38,5.74,2.29,8.52c-0.09,0.24-0.17,0.47,0.13,0.58V111
		c-0.13,0.69-0.3,1.38,0.47,1.86v-0.03c-0.19,0.82-0.28,1.61,0.45,2.2l0.11-0.02C272.16,115.17,272.61,115.48,272.63,115.68"/>
	<path class="st3" d="M211.69,211.39c1.47,3.15,2.2,6.48,3.23,9.75c1.19,3.9,2.7,7.8,3.47,11.82c-1.64,0.51-2.85-0.55-4.27-0.91
		c-1.66-1.65-3.86-2.48-5.65-3.85c-8.33-6.47-13.68-14.77-16.05-24.99l0.17-0.1c0.56,0.43,0.99,0.98,1.25,1.62
		c2.11,4.49,4.16,8.97,6.26,13.48c0.84,1.82,0.91,1.75,2.55,0.44C205.67,216.24,208.45,213.52,211.69,211.39"/>
	<path class="st3" d="M232.64,125.16c-0.78,1.98-2.68,2.93-4.1,4.27c-4.88,4.73-9.88,9.3-14.95,13.81
		c-2.14,1.91-2.83,4.55-4.08,6.91c-1.47,2.9-2.61,5.98-3.88,9.01c-3.32,4.53-6.69,9.08-9.97,13.65c-0.84,1.19-1.81,2.38-1.9,4.02
		c-0.17,3.68-0.43,7.36-0.69,11.07c-0.3,4.48-0.65,8.95-1.01,13.42l-0.06,0.04c-1.71-7.13-1.45-14.26-0.15-21.44
		c2.48-13.96,9.34-25.54,19.52-35.29c6.26-5.99,12.51-12.11,19.07-17.81C231.11,126.2,231.69,125.37,232.64,125.16"/>
	<path class="st3" d="M219.56,233.9c3.24-2.3,6.95-3.87,10.4-5.9c2.81-1.54,5.65-3,8.41-4.54c1.03-0.58,1.51-0.64,1.68,0.75
		c0.39,2.64,1.01,5.28,1.34,7.94c0.15,1.13,0.78,1.37,1.55,1.55C235.14,236.21,227.37,236.55,219.56,233.9"/>
	<path class="st3" d="M276.52,187.87c1.81-4.98,3.11-10.08,4.66-15.17c0.13-0.43,0.28-0.84,0.43-1.25
		c1.42,20.32-3.28,38.37-19.5,52.08c-0.78,0.69-1.68,1.28-2.5,1.93c0.04-0.69,0.58-1.12,0.95-1.69c0.17-0.04,0.34-0.09,0.47-0.24
		c4.23-4.69,8.41-9.44,12.6-14.16c0.47-0.5,0.43-1.11,0.54-1.75c0.67-6.09,1.36-12.2,2.07-18.28
		C276.56,188.88,276.56,188.41,276.52,187.87"/>
	<path class="st3" d="M281.61,171.5c-0.95-3.64-1.12-7.39-1.62-11.09c-1.01-7.37-1.92-14.75-2.83-22.14
		c-0.09-0.59-0.39-1.21,0.17-1.74c1.58,6.76,2.37,13.66,3.24,20.58C281.18,161.87,281.61,166.68,281.61,171.5"/>
	<path class="st3" d="M267.11,102.15c-2.29,1.91-4.88,3.25-7.38,4.78c-4.88,2.98-9.77,5.9-14.63,8.83c-0.58,0.37-1.1,0.92-1.88,0.72
		C250.63,110.8,258.29,105.48,267.11,102.15"/>
	<path class="st3" d="M243.47,233.53c-0.21-0.76,0.54-0.82,0.86-0.99c4.1-1.94,8.2-3.91,12.38-5.84c0.26-0.12,0.61-0.43,0.99,0
		C253.39,229.93,248.69,232.28,243.47,233.53"/>
	<path class="st4" d="M240.83,118.36c-2.74,4.39-4.57,9.28-6.9,12.95c1.16-2.93,2.72-6.64,4.27-10.32h-0.07
		c0.28,0,0.34-0.14,0.15-0.38c0-0.1-0.04-0.17-0.09-0.26C238.98,119.6,239.78,118.77,240.83,118.36"/>
	<path class="st4" d="M269.31,101.96c-0.04,0.04-0.13,0.14-0.17,0.24c-1.7,0.85-2.03,2.92-3.62,3.94c0.3-1.65,2.05-2.48,2.07-4.17
		C268.88,101.18,268.88,101.18,269.31,101.96"/>
	<path class="st3" d="M243.25,116.48c-0.39,1.16-1.45,1.52-2.5,1.88C241.48,117.57,242.26,116.91,243.25,116.48"/>
	<path class="st3" d="M236.58,121.68c-0.37,0.93-1.01,1.59-2.05,1.86C234.95,122.63,235.79,122.18,236.58,121.68"/>
	<path class="st3" d="M272.61,115.03c-0.73-0.62-0.65-1.38-0.45-2.2C272.46,113.53,272.76,114.24,272.61,115.03"/>
	<path class="st4" d="M274.9,124.46c-0.95-0.54-0.73-1.34-0.5-2.11C274.79,122.96,274.9,123.73,274.9,124.46"/>
	<path class="st3" d="M272.16,112.86c-0.78-0.47-0.65-1.16-0.47-1.86C272.07,111.55,272.16,112.19,272.16,112.86"/>
	<path class="st3" d="M234.1,123.78c-0.22,0.73-0.39,1.56-1.49,1.33C232.94,124.46,233.46,124.06,234.1,123.78"/>
	<path class="st3" d="M277.29,136.53c-0.82-0.46-0.52-1.1-0.3-1.69C277.29,135.38,277.42,135.93,277.29,136.53"/>
	<path class="st4" d="M275.22,125.75c-0.82-0.24-0.8-0.69-0.32-1.23C275.01,124.92,275.09,125.35,275.22,125.75"/>
	<path class="st3" d="M277.03,134.88c-0.84-0.3-0.37-0.83-0.26-1.34C276.86,134.01,276.93,134.46,277.03,134.88"/>
	<path class="st3" d="M257.68,226.7c0-0.79,0.63-0.71,1.14-0.85C258.65,226.36,258.22,226.6,257.68,226.7"/>
	<path class="st3" d="M272.63,115.68c-0.02-0.2-0.47-0.52,0.09-0.68C272.96,115.26,272.89,115.48,272.63,115.68"/>
	<path class="st3" d="M192.17,202.45c-0.04-0.36-0.11-0.74-0.17-1.1l0.06-0.02c0.17,0.33,0.28,0.67,0.41,0.97
		C192.38,202.35,192.29,202.4,192.17,202.45"/>
	<path class="st4" d="M238.16,120.94c-0.17-0.05-0.39-0.1-0.52-0.19c0.13-0.16,0.34-0.26,0.52-0.43c0.04,0.12,0.09,0.22,0.13,0.31
		C238.25,120.74,238.2,120.84,238.16,120.94z"/>
	<path class="st3" d="M192.42,203.22l-0.26-0.76c0.13-0.06,0.26-0.1,0.34-0.15c0.17,0.24,0.17,0.56,0.09,0.82L192.42,203.22z"/>
	<path class="st4" d="M274.4,122.32c-0.39-0.14-0.24-0.44-0.19-0.71C274.45,121.82,274.53,122.04,274.4,122.32"/>
	<path class="st3" d="M271.73,111.05c-0.34-0.13-0.28-0.34-0.17-0.55C271.77,110.62,271.81,110.8,271.73,111.05"/>
	<path class="st3" d="M234.58,123.46c-0.04,0.32-0.17,0.46-0.47,0.32C234.19,123.56,234.23,123.32,234.58,123.46"/>
	<path class="st4" d="M275.13,126.62c0-0.08,0.02-0.17,0.02-0.27C275.27,126.45,275.24,126.54,275.13,126.62"/>
	<path class="st4" d="M275.18,126.35c-0.17-0.15-0.22-0.37,0-0.51C275.37,125.99,275.37,126.2,275.18,126.35"/>
	<path class="st3" d="M242.95,233.71c0-0.4,0.15-0.45,0.52-0.18C243.38,233.81,243.17,233.81,242.95,233.71"/>
	<path class="st3" d="M267.63,101.91c-0.13,0.24-0.3,0.33-0.52,0.24C267.15,101.91,267.33,101.87,267.63,101.91"/>
	<path class="st3" d="M218.57,233.22c0.3,0.16,0.17,0.49,0.17,0.73C218.49,233.77,218.49,233.5,218.57,233.22"/>
	<path class="st4" d="M192.6,203.16c0.09-0.3,0.09-0.59-0.09-0.86c-0.17-0.3-0.28-0.64-0.43-0.99c0.34-4.46,0.69-8.94,0.99-13.42
		c0.26-3.71,0.52-7.39,0.69-11.07c0.09-1.64,1.06-2.84,1.9-4.02c3.28-4.56,6.64-9.11,9.97-13.65c2.2,0.15,3.76-1.4,5.48-2.24
		c4.57-2.23,8.93-4.81,13.42-7.2c1.08-0.57,1.38-1.69,2.2-2.5c6.88-6.16,13.72-12.45,20.5-18.73c1.55-1.39,2.85-3.07,4.88-3.79
		c-0.56,4-1.08,8.01-1.64,12.04c-0.91,7.25-1.81,14.5-2.74,21.72c0,0.28-0.02,0.52-0.02,0.8c-0.65-0.23-1.08,0.18-1.55,0.42
		c-2.2,1.01-4.34,1.97-6.41,3.1c-4.23,2.32-8.59,4.37-12.88,6.48c-0.91,0.49-1.23,1.16-1.21,2.11c-0.73-0.27-1.25,0.28-1.73,0.61
		c-5.01,3.8-10.01,7.65-15.1,11.4c-1.73,1.26-1.79,2.74-1.38,4.63c1.03,4.91,1.86,9.95,2.89,14.87c0.47,2.6,1.08,5.28,1.64,7.88
		c-0.13,0.2-0.19,0.42-0.28,0.64c-3.24,2.13-6.02,4.84-9.04,7.25c-1.64,1.33-1.73,1.4-2.55-0.42c-2.09-4.49-4.14-9-6.26-13.5
		C193.59,204.1,193.16,203.55,192.6,203.16"/>
	<path class="st3" d="M225.65,171.39c-0.02-0.97,0.3-1.66,1.21-2.13c4.29-2.11,8.65-4.14,12.83-6.44c2.09-1.22,4.25-2.13,6.41-3.14
		c0.47-0.24,0.95-0.67,1.58-0.46c2.48,7.61,4.94,15.17,7.44,22.75l-0.26,0.58c-0.26,0.1-0.58,0.19-0.82,0.33
		c-7.01,4.67-14.02,9.33-20.97,13.99l-0.15-0.05c0,0-0.15-0.04-0.15-0.02C230.39,188.33,228.02,179.85,225.65,171.39"/>
	<path class="st5" d="M233.07,196.9c6.97-4.68,13.96-9.34,20.97-13.99c0.24-0.16,0.56-0.24,0.82-0.33c0,1.71,0.52,3.39,0.86,5.08
		c0.61,3.23,1.21,6.45,1.86,9.7c0.6,2.99,1.34,5.92,1.98,8.85c-6.17,5.18-12.3,10.38-18.59,15.33c-1.34,1.04-1.6,0.55-1.94-0.76
		C237.08,212.79,235.05,204.83,233.07,196.9"/>
	<path class="st2" d="M225.65,171.39c2.37,8.47,4.75,16.95,7.12,25.41c-2.5,1.13-4.53,2.98-6.75,4.53
		c-4.08,2.91-8.13,5.84-12.23,8.73c-0.52,0.37-1.04,0.94-1.81,0.7c-0.56-2.62-1.17-5.25-1.64-7.9c-1.03-4.93-1.86-9.91-2.89-14.85
		c-0.41-1.89-0.35-3.4,1.38-4.65c5.09-3.75,10.1-7.6,15.14-11.4C224.37,171.62,224.91,171.09,225.65,171.39"/>
	<path class="st6" d="M259.56,206.19c-0.69-2.92-1.38-5.86-1.98-8.85c-0.65-3.21-1.25-6.46-1.88-9.7c-0.3-1.69-0.88-3.37-0.84-5.1
		l0.26-0.6c0.26-0.1,0.52-0.17,0.71-0.36c4.51-4.02,9.04-8.03,13.57-12.06c0.43-0.41,0.69-0.91,0.91-1.46
		c1.25,2.5,1.58,5.26,2.46,7.86c1.29,3.97,2.14,8.04,3.75,11.93c0.04,0.5,0.04,1.01-0.28,1.47c-5.46,5.69-10.87,11.34-16.37,17
		C259.78,206.29,259.65,206.25,259.56,206.19"/>
	<path class="st2" d="M259.91,206.33c5.39-5.66,10.87-11.31,16.33-17c-0.71,6.06-1.44,12.19-2.07,18.28
		c-0.11,0.6-0.06,1.23-0.5,1.75c-4.23,4.72-8.46,9.45-12.64,14.19c-0.09,0.12-0.3,0.16-0.47,0.26c-0.3-0.17-0.56-0.34-0.56-0.69
		C259.84,217.52,259.69,211.91,259.91,206.33"/>
	<path class="st1" d="M247.72,158.48c0.93-7.25,1.81-14.5,2.76-21.71c0.54-4.06,1.06-8.07,1.62-12.11c1.34-2.48,3.28-4.49,4.83-6.82
		c2.46-3.82,5.26-7.44,8.2-10.92c0.17-0.19,0.26-0.55,0.39-0.81c1.59-0.99,1.92-3.08,3.62-3.91c-0.52,1.46-0.09,2.98-0.15,4.49
		c-0.37,7.96-0.63,15.94-1.01,23.9c0,0.34-0.13,0.62-0.17,0.94c-4.23,5.74-8.46,11.51-12.73,17.25
		C252.66,152.04,250.54,155.51,247.72,158.48"/>
	<path class="st7" d="M247.72,158.48c2.83-2.98,4.94-6.45,7.36-9.71c4.27-5.74,8.5-11.51,12.73-17.25c0.67,4.07,0.67,8.2,0.95,12.3
		c0.56,8.11,1.03,16.21,1.51,24.25c-0.17,0.55-0.43,1.05-0.84,1.46c-4.55,4.02-9.08,8.04-13.61,12.06
		c-0.17,0.18-0.43,0.26-0.69,0.36c-2.46-7.56-4.96-15.15-7.44-22.69C247.72,159.01,247.72,158.74,247.72,158.48"/>
	<path class="st2" d="M238.14,120.98c0.07-0.12,0.11-0.24,0.15-0.38C238.48,120.84,238.42,120.98,238.14,120.98"/>
	<path class="st1" d="M203.34,293.07c-0.13-0.24-0.26-0.47-0.43-0.68c0.22-0.15,0.6-0.19,0.6-0.57c0.04-0.08,0.09-0.14,0.09-0.25
		c3.15-2.72,5.74-5.89,8.54-8.87c2.37-2.52,4.92-4.79,6.9-7.6c0.21-0.04,0.45-0.04,0.65-0.1c0.21,0.79,0.99,0.95,1.57,1.24
		c4.51,2.11,9.11,4.18,13.61,6.3c2.46,1.13,5.09,2.05,7.29,3.61l0.04,0.17l0.02,0.14c-5.93,5.68-11.85,11.35-17.8,17.02
		c-1.01,0.93-1.27,1.41,0.22,2.03c7.46,3.03,15.02,5.79,22.57,8.55c0,0.17,0.04,0.27,0.06,0.36c-4.94,2.65-9.75,5.52-14.52,8.4
		c-0.35,0.22-0.35,0.53-0.35,0.85c-0.65-0.04-1.29-0.3-1.9-0.02l-0.71-0.47c-0.37-0.36-0.63-0.97-1.32-0.54
		c0.17-0.52-0.26-0.7-0.47-0.92c-3.75-2.62-7.46-5.24-11.22-7.84c-0.34-0.19-0.73-0.79-1.25-0.29c0.04-0.4-0.11-0.49-0.47-0.36v0.06
		c-0.19-0.83-0.3-1.46,0.6-2.13c2.16-1.6,4.12-3.45,6.26-5.08c1.1-0.83,0.86-1.23-0.17-1.83c-2.72-1.64-5.39-3.43-8.13-5.08
		c-3.45-2.02-6.66-4.46-10.29-6.15V293.07z"/>
	<path class="st2" d="M309.35,252.37c0.45,0.17,0.86,0.27,1.29,0.41c0.04,0.18,0.07,0.4,0.09,0.59c-3.93,0.51-7.92,1.03-11.09,1.41
		c4.36,0.24,9.53-0.57,14.71-0.38l-0.06-0.03c0.84,0.69,1.64,1.42,2.87,1.19h-0.04c0.26,0.78,0.99,0.94,1.55,1.25
		c4.96,2.84,9.97,5.62,14.95,8.39c2.57,1.38,5,3,7.79,4.06l-0.04-0.02c0.04,0.28,0.24,0.32,0.52,0.32l0,0
		c-1.53,0.81-3.15-0.28-4.68,0.27c-0.32,0-0.65,0.12-0.97,0.06c-4.44-0.85-8.93-1.46-13.51-1.77c-2.76-0.18-5.5-0.87-8.33-0.78
		c-1.64-1.41-3.76-1.73-5.7-2.36c-8.8-2.81-17.67-5.63-26.45-8.55c-1.08-0.33-2.22-0.05-3.24-0.72c-4.27-2.7-8.71-5.22-12.9-8.11
		c-1.59-1.04-3.69-1.64-4.64-3.61c3.23-0.36,6.49-0.94,9.75-1.11c2.68-0.09,5.33-0.78,8.05,0.17c6.39,2.17,12.86,4.22,19.37,6.16
		c1.88,0.54,3.62,1.79,5.74,1.44l0.04-0.08c0.26,1.11,1.12,0.82,1.9,0.68h-0.04c0.04,0.33,0.21,0.33,0.52,0.24h-0.04
		C307.45,252.28,308.36,252.49,309.35,252.37"/>
	<path class="st2" d="M332.39,280.75c-1.21,1.69-3.02,2.74-4.4,4.28c-0.22,0.11-0.56,0.13-0.52,0.53c-0.82,0.22-1.6,0.41-1.6,1.46
		l-0.04,0.08c-0.73-0.16-1.1,0.04-0.91,0.85h-0.09c-0.26-0.1-0.39,0-0.47,0.29l0,0c-0.09,0.02-0.15,0.06-0.26,0.09
		c-1.38,1.98-3.32,3.4-5.22,4.84c-0.47,0.17-1.16,0-1.04,0.85l0,0c-0.63,0.1-1.34,0.15-1.29,1.11l0,0
		c-0.73-0.22-1.12,0.33-1.55,0.71c-5.95,4.49-11.97,8.88-17.9,13.36c-2.93,2.3-6.08,4.35-8.8,6.93c-0.39,0.09-0.82,0.14-1.25,0.18
		c-5.16,1.15-10.27,2.6-15.49,3.44c2.59-3.27,5.7-6.06,8.52-9.13c1.83-2.05,4.08-3.69,5.59-6c6.77-4.44,13.59-8.86,20.3-13.34
		c3.43-2.29,7.03-4.3,10.25-6.95c0.3-0.08,0.65-0.1,0.91-0.25c7.1-3.67,14.2-7.33,21.32-10.99c1.34-0.67,2.41-1.76,3.99-2.03
		c0.07-0.04,0.15-0.04,0.24,0c-1.79,2.36-4.27,4.04-6.3,6.16c-0.26,0-0.45,0.04-0.39,0.4v-0.02c-0.65,0.19-1.36,0.43-1.36,1.33
		l0.04-0.02c-0.82,0.27-1.53,0.56-1.73,1.51l0.11,0.04C332.56,280.08,332.56,280.6,332.39,280.75"/>
	<path class="st3" d="M219.05,275.1c-1.99,2.81-4.53,5.08-6.88,7.6c-2.83,2.98-5.41,6.15-8.52,8.87c-1.21-1.17-0.99-2.77-1.34-4.16
		c0.58-2.24,0.26-4.56,0.56-6.85c1.47-10.4,6.06-19.17,13.79-26.26l0.15,0.09c-0.04,0.74-0.37,1.34-0.78,1.94
		c-2.85,3.97-5.74,8.02-8.58,12.03c-1.23,1.63-1.12,1.67,0.86,2.45C211.9,272.22,215.59,273.31,219.05,275.1"/>
	<path class="st3" d="M304.39,250.66c-2.11,0.34-3.88-0.91-5.74-1.44c-6.51-1.94-12.99-3.99-19.42-6.16c-2.68-0.93-5.35-0.26-8-0.17
		c-3.3,0.17-6.52,0.75-9.75,1.11c-5.59-0.66-11.2-1.35-16.81-1.94c-1.44-0.14-2.98-0.4-4.4,0.36c-3.32,1.63-6.67,3.27-9.97,4.86
		c-4.06,1.94-8.15,3.87-12.21,5.77l-0.09-0.08c5.37-5.01,11.73-8.27,18.57-10.72c13.42-4.72,26.88-4.51,40.34-0.47
		c8.35,2.52,16.7,4.91,24.94,7.8C302.77,249.83,303.7,249.9,304.39,250.66"/>
	<path class="st3" d="M203.34,293.03c3.63,1.69,6.86,4.13,10.29,6.15c2.74,1.65,5.42,3.44,8.13,5.08c1.04,0.6,1.27,0.98,0.17,1.83
		c-2.14,1.63-4.1,3.48-6.26,5.08c-0.91,0.67-0.8,1.29-0.6,2.13C209.08,307.74,204.96,301.13,203.34,293.03"/>
	<path class="st3" d="M271.55,319.75c5.22-0.84,10.31-2.29,15.45-3.44c0.47-0.04,0.91-0.14,1.29-0.18
		c-16.91,11.26-34.9,16.08-54.84,8.8c-1.04-0.37-1.98-0.86-2.93-1.25c0.6-0.3,1.25-0.04,1.9,0c0.15,0.1,0.3,0.24,0.45,0.29
		c6.19,1.31,12.36,2.62,18.53,3.94c0.69,0.14,1.21-0.14,1.77-0.43l16.96-7.23C270.69,320.35,271.12,320.11,271.55,319.75"/>
	<path class="st3" d="M288.29,316.13c2.7-2.58,5.87-4.63,8.82-6.93c5.91-4.46,11.93-8.91,17.84-13.34c0.47-0.4,0.91-0.95,1.59-0.79
		c-5.09,4.75-10.66,8.87-16.24,13.04C296.45,310.98,292.52,313.75,288.29,316.13"/>
	<path class="st3" d="M341.41,269.29c-2.78-1.06-5.26-2.68-7.79-4.08c-4.98-2.79-9.99-5.56-14.93-8.39
		c-0.58-0.31-1.32-0.47-1.58-1.25C325.79,259.2,334.12,263.22,341.41,269.29"/>
	<path class="st3" d="M215.55,313.63c0.52-0.53,0.91,0.04,1.27,0.26c3.73,2.6,7.44,5.22,11.15,7.84c0.26,0.22,0.73,0.38,0.52,0.92
		C223.57,320.49,219.22,317.51,215.55,313.63"/>
	<path class="st4" d="M314.36,254.43c-5.18-0.22-10.35,0.59-14.71,0.36c3.17-0.36,7.16-0.91,11.09-1.41
		c0.15,0.27,0.3,0.27,0.39-0.06c0.04-0.06,0.13-0.16,0.17-0.26C312.37,253.42,313.45,253.74,314.36,254.43"/>
	<path class="st4" d="M342.68,271.06c-0.09,0-0.19,0-0.32,0c-1.55-1.09-3.54-0.38-5.16-1.26c1.51-0.52,3.13,0.57,4.64-0.26
		C343.15,270.33,343.15,270.33,342.68,271.06"/>
	<path class="st3" d="M317.16,255.6c-1.23,0.21-2.03-0.53-2.87-1.22C315.35,254.59,316.3,254.95,317.16,255.6"/>
	<path class="st3" d="M309.35,252.37c-0.99,0.12-1.9-0.09-2.59-0.87C307.73,251.4,308.53,251.93,309.35,252.37"/>
	<path class="st3" d="M332.95,280.42c0.15-0.95,0.86-1.26,1.66-1.51C334.16,279.51,333.73,280.16,332.95,280.42"/>
	<path class="st4" d="M325.88,287.02c0-1.05,0.76-1.24,1.6-1.46C327.13,286.22,326.52,286.66,325.88,287.02"/>
	<path class="st3" d="M334.61,278.93c0-0.89,0.71-1.11,1.36-1.35C335.71,278.22,335.15,278.57,334.61,278.93"/>
	<path class="st3" d="M306.33,251.26c-0.78,0.14-1.58,0.43-1.9-0.68C305.17,250.54,305.75,250.82,306.33,251.26"/>
	<path class="st3" d="M316.56,295.13c-0.04-0.96,0.67-1.01,1.29-1.11C317.59,294.52,317.16,294.91,316.56,295.13"/>
	<path class="st4" d="M324.93,287.95c-0.21-0.83,0.19-1.01,0.91-0.87L324.93,287.95z"/>
	<path class="st3" d="M317.85,294.02c-0.13-0.85,0.56-0.73,1.06-0.85C318.54,293.48,318.22,293.76,317.85,294.02"/>
	<path class="st3" d="M228.49,322.65c0.69-0.43,0.95,0.18,1.29,0.54C229.23,323.28,228.8,323.05,228.49,322.65"/>
	<path class="st3" d="M332.39,280.75c0.17-0.15,0.17-0.67,0.65-0.29C332.93,280.79,332.67,280.89,332.39,280.75"/>
	<path class="st3" d="M217.15,253.7c0.32-0.26,0.65-0.5,0.86-0.73l0.09,0.08l-0.63,0.84C217.36,253.84,217.28,253.74,217.15,253.7"
		/>
	<path class="st4" d="M310.75,253.38c-0.04-0.19-0.04-0.41-0.11-0.55l0.65,0.26c-0.04,0.1-0.11,0.15-0.17,0.24
		C310.97,253.35,310.86,253.35,310.75,253.38z"/>
	<path class="st3" d="M216.65,254.29l0.49-0.59c0.13,0.04,0.22,0.14,0.32,0.21c-0.11,0.31-0.37,0.43-0.67,0.47L216.65,254.29z"/>
	<path class="st4" d="M327.47,285.56c-0.04-0.38,0.3-0.42,0.52-0.53C327.95,285.32,327.77,285.52,327.47,285.56"/>
	<path class="st3" d="M335.97,277.62c-0.06-0.36,0.13-0.38,0.39-0.4C336.36,277.5,336.19,277.62,335.97,277.62"/>
	<path class="st3" d="M306.8,251.52c-0.26,0.1-0.47,0.05-0.52-0.26C306.48,251.26,306.76,251.14,306.8,251.52"/>
	<path class="st4" d="M324.13,288.3c0.04,0,0.15-0.04,0.24-0.1C324.32,288.36,324.24,288.38,324.13,288.3"/>
	<path class="st4" d="M324.36,288.26c0.04-0.29,0.22-0.41,0.47-0.29C324.75,288.2,324.63,288.3,324.36,288.26"/>
	<path class="st3" d="M215.08,313.27c0.37-0.17,0.56-0.08,0.47,0.36C215.23,313.67,215.12,313.53,215.08,313.27"/>
	<path class="st3" d="M341.88,269.57c-0.28,0-0.47-0.04-0.52-0.32C341.67,269.19,341.8,269.33,341.88,269.57"/>
	<path class="st3" d="M203.51,291.84c0,0.36-0.39,0.4-0.56,0.52C202.97,291.98,203.19,291.88,203.51,291.84"/>
	<path class="st4" d="M216.8,254.38c0.3-0.04,0.56-0.14,0.67-0.5l0.63-0.84c4.06-1.94,8.11-3.83,12.21-5.77
		c3.3-1.6,6.64-3.21,9.92-4.86c1.47-0.76,2.98-0.5,4.44-0.36c5.61,0.59,11.22,1.28,16.78,1.94c0.97,1.97,3.06,2.54,4.7,3.61
		c4.14,2.89,8.54,5.44,12.86,8.13c0.99,0.63,2.2,0.34,3.24,0.72c8.78,2.88,17.65,5.72,26.43,8.55c1.96,0.59,4.08,0.93,5.72,2.31
		c-3.8,1.51-7.51,3.03-11.28,4.54c-6.75,2.78-13.5,5.58-20.28,8.36c-0.22,0.14-0.45,0.24-0.69,0.38c-0.11-0.66-0.69-0.87-1.14-1.19
		c-1.94-1.36-3.82-2.78-5.87-4.04c-4.1-2.48-8-5.26-11.95-7.94c-0.82-0.54-1.64-0.54-2.44-0.02c-0.13-0.76-0.84-0.95-1.36-1.16
		c-5.78-2.54-11.63-4.98-17.39-7.53c-1.98-0.86-3.28-0.23-4.7,1.07c-3.8,3.35-7.68,6.58-11.52,9.87c-2.03,1.77-4.06,3.55-6.08,5.34
		c-0.19,0.02-0.43,0.05-0.65,0.1c-3.41-1.79-7.16-2.88-10.74-4.27c-1.98-0.81-2.09-0.85-0.91-2.48c2.93-4,5.76-8.06,8.63-12.03
		C216.41,255.71,216.72,255.12,216.8,254.38"/>
	<path class="st3" d="M260.75,267.44c0.78-0.52,1.57-0.54,2.39,0c4.01,2.68,7.94,5.46,11.99,7.94c2.05,1.25,3.97,2.66,5.89,4.04
		c0.43,0.31,1.06,0.53,1.14,1.19c-5.35,5.91-10.7,11.79-16.05,17.69c-0.21,0-0.43,0.05-0.6,0.05c-0.26-0.14-0.52-0.43-0.73-0.55
		c-7.53-3.78-15.02-7.55-22.57-11.33v-0.14v-0.17C248.39,279.94,254.56,273.66,260.75,267.44"/>
	<path class="st5" d="M242.24,286.47c7.48,3.78,14.99,7.55,22.54,11.33c0.21,0.14,0.47,0.38,0.73,0.57
		c-1.55,0.81-2.76,2.13-4.06,3.21c-2.5,2.15-5.05,4.27-7.53,6.42c-2.22,2.01-4.47,4.06-6.71,6.07c-7.55-2.71-15.06-5.54-22.52-8.53
		c-1.53-0.64-1.27-1.12-0.26-2.05C230.39,297.85,236.3,292.15,242.24,286.47"/>
	<path class="st2" d="M260.75,267.44c-6.19,6.22-12.36,12.5-18.53,18.71c-2.24-1.61-4.88-2.48-7.38-3.61
		c-4.49-2.13-9.06-4.19-13.55-6.3c-0.56-0.31-1.34-0.45-1.55-1.24c1.99-1.79,4.01-3.57,6.04-5.32c3.8-3.33,7.72-6.54,11.52-9.89
		c1.42-1.27,2.72-1.93,4.7-1.07c5.76,2.55,11.61,4.99,17.39,7.53C259.91,266.45,260.59,266.66,260.75,267.44"/>
	<path class="st6" d="M247.22,314.07c2.24-2.02,4.49-4.04,6.71-6.05c2.48-2.17,5.03-4.31,7.51-6.42c1.32-1.11,2.52-2.43,4.08-3.26
		c0.17,0,0.39-0.05,0.6-0.05c0.24,0.15,0.43,0.29,0.63,0.41c5.76,1.93,11.54,3.86,17.24,5.85c0.56,0.17,1.12,0.17,1.68,0.08
		c-1.51,2.31-3.75,3.95-5.59,6c-2.78,3.07-5.98,5.87-8.52,9.13c-0.39,0.36-0.86,0.59-1.42,0.5c-7.59-1.88-15.27-3.88-22.87-5.83
		C247.26,314.34,247.22,314.24,247.22,314.07"/>
	<path class="st2" d="M247.26,314.46c7.59,1.91,15.27,3.86,22.87,5.79l-16.91,7.23c-0.6,0.29-1.1,0.57-1.77,0.43
		c-6.21-1.29-12.38-2.62-18.55-3.94c-0.17-0.02-0.32-0.19-0.47-0.29c0-0.32,0.04-0.62,0.35-0.85
		C237.53,319.93,242.3,317.08,247.26,314.46"/>
	<path class="st1" d="M282.84,280.22c6.77-2.76,13.53-5.58,20.28-8.34c3.78-1.51,7.49-3.03,11.28-4.53c2.83-0.1,5.56,0.59,8.33,0.78
		c4.58,0.31,9.06,0.92,13.51,1.77c0.32,0.05,0.65-0.04,0.97-0.1c1.62,0.88,3.6,0.17,5.16,1.24c-1.51,0.27-2.59,1.41-3.93,2.05
		c-7.12,3.66-14.2,7.35-21.32,10.99c-0.3,0.15-0.6,0.15-0.91,0.25c-7.08-0.82-14.2-1.59-21.27-2.48
		C290.88,281.34,286.83,281.19,282.84,280.22"/>
	<path class="st7" d="M282.84,280.22c3.99,0.97,8.05,1.12,12.1,1.63c7.08,0.89,14.2,1.66,21.27,2.48
		c-3.19,2.64-6.77,4.66-10.25,6.95c-6.71,4.49-13.53,8.9-20.3,13.34c-0.58,0.06-1.12,0.12-1.68-0.08
		c-5.74-1.99-11.48-3.92-17.24-5.85c-0.19-0.1-0.39-0.29-0.58-0.41c5.31-5.9,10.66-11.82,15.98-17.71
		C282.39,280.46,282.62,280.36,282.84,280.22"/>
	<path class="st2" d="M310.73,253.38c0.13,0,0.26-0.06,0.39-0.06C311.03,253.64,310.88,253.64,310.73,253.38"/>
	<path class="st1" d="M190.07,284.33c-0.11,0.24-0.28,0.5-0.41,0.7c-0.24-0.11-0.43-0.42-0.73-0.21c-0.13-0.08-0.22-0.04-0.34,0
		c-3.8-1.53-7.85-2.36-11.8-3.46c-3.3-0.88-6.54-2.07-9.95-2.56c-0.13-0.14-0.26-0.36-0.39-0.54c0.6-0.55,0.39-1.31,0.39-1.94
		c-0.26-5.01-0.54-9.98-0.78-14.96c-0.13-2.72-0.6-5.47-0.19-8.19l0.11-0.1l0.13-0.04c7.81,2.58,15.58,5.14,23.34,7.8
		c1.29,0.43,1.86,0.49,1.68-1.19c-0.8-8.01-1.86-15.95-2.89-23.94c0.09-0.09,0.22-0.15,0.26-0.23c4.66,3.18,9.45,6.06,14.24,8.95
		c0.3,0.18,0.56,0.09,0.86-0.08c0.26,0.57,0.32,1.26,0.91,1.67l-0.17,0.87c-0.09,0.47-0.52,1,0.17,1.42
		c-0.54,0.06-0.47,0.54-0.54,0.82c-0.63,4.56-1.19,9.03-1.7,13.57c-0.04,0.42-0.39,1.06,0.3,1.29c-0.39,0.09-0.39,0.28-0.09,0.52
		c-0.61,0.57-1.12,0.95-2.16,0.47c-2.37-1.19-4.96-2.05-7.38-3.19c-1.31-0.57-1.51-0.19-1.55,0.99c-0.17,3.17-0.56,6.38-0.69,9.59
		c-0.15,3.99-0.86,7.96-0.65,11.95L190.07,284.33z"/>
	<path class="st2" d="M104.66,209.53c-0.06-0.47-0.17-0.89-0.21-1.35c0.15-0.14,0.3-0.24,0.43-0.36c2.33,3.29,4.62,6.55,6.43,9.17
		c-1.81-3.97-4.92-8.14-7.18-12.85v0.08c0.22-1.03,0.52-2.11-0.24-3.11v0.03c0.56-0.57,0.34-1.27,0.34-1.94
		c0.17-5.74,0.37-11.39,0.47-17.12c0.04-2.93,0.34-5.86-0.04-8.79v0.04c0.19-0.18,0.17-0.38,0.04-0.59
		c1.47,0.98,1.23,2.91,2.39,4.02c0.15,0.24,0.41,0.52,0.52,0.8c1.32,4.33,2.87,8.63,4.73,12.78c1.16,2.55,1.79,5.31,3.19,7.75
		c-0.47,2.1,0.26,4.09,0.58,6.13c1.64,9.13,3.24,18.23,4.77,27.34c0.17,1.14,0.99,2.05,0.91,3.23c-0.41,5.06-0.6,10.14-1.16,15.17
		c-0.26,1.96,0.22,4.09-1.08,5.83c-1.86-2.72-3.84-5.31-5.46-8.12c-1.36-2.29-3.17-4.35-3.65-7.18c-1.08-6.69-2.26-13.34-3.58-20.01
		c-0.39-1.94-0.13-4.07-1.42-5.76h-0.04c0.82-0.78,0.19-1.37-0.3-1.98v0.03c0.3-0.19,0.21-0.39,0-0.57l0.02,0.04
		C105.48,211.25,105.18,210.37,104.66,209.53"/>
	<path class="st2" d="M119.05,175.94c2.05,0.29,3.82,1.39,5.8,1.87c0.19,0.21,0.39,0.47,0.73,0.26h-0.04
		c0.58,0.59,1.17,1.19,2.11,0.67l0.04,0.02c0.17,0.71,0.56,0.98,1.21,0.4l0.04,0.1c0.04,0.26,0.17,0.38,0.45,0.31l-0.02-0.05
		c0.09,0.1,0.13,0.16,0.19,0.21c2.44,0.28,4.57,1.38,6.75,2.35c0.34,0.39,0.52,1.04,1.25,0.53h-0.07c0.37,0.53,0.76,1.1,1.58,0.65
		v-0.02c0.17,0.73,0.84,0.83,1.4,1.09c6.73,3.18,13.44,6.44,20.17,9.53c3.41,1.55,6.64,3.41,10.18,4.61
		c0.26,0.31,0.5,0.67,0.82,0.97c3.41,4.09,7.03,7.9,10.23,12.13c-4.1-0.71-8.03-2.23-12.06-3.26c-2.65-0.68-5.18-1.89-7.92-2.17
		c-7.08-3.92-14.15-7.84-21.23-11.76c-3.67-1.99-7.12-4.22-10.96-5.81c-0.19-0.23-0.39-0.51-0.63-0.69
		c-6.54-4.53-13.14-9.14-19.65-13.72c-1.21-0.85-2.72-1.35-3.67-2.54c-0.04-0.1-0.09-0.17-0.13-0.27c2.91,0.47,5.56,1.96,8.43,2.7
		c0.11,0.21,0.24,0.41,0.52,0.17h-0.06c0.52,0.53,1.04,1.03,1.86,0.6h-0.02c0.54,0.61,1.16,1.09,2.09,0.8l0.04-0.09
		C118.36,176.04,118.84,175.82,119.05,175.94"/>
	<path class="st3" d="M166.84,278.81c3.41,0.46,6.64,1.67,9.95,2.58c3.95,1.1,8.03,1.91,11.8,3.42c-0.39,1.61-1.99,2.15-3.06,3.09
		c-2.24,0.54-4.14,1.95-6.26,2.7c-9.9,3.54-19.8,3.59-29.71,0.04l0.06-0.14c0.65-0.31,1.32-0.33,2.03-0.26
		c4.85,0.68,9.79,1.35,14.65,2.05c2.03,0.28,2.01,0.16,1.77-1.96C167.64,286.51,166.88,282.7,166.84,278.81"/>
	<path class="st3" d="M105.44,214.73c1.29,1.73,1.04,3.82,1.38,5.78c1.36,6.62,2.54,13.3,3.62,19.99c0.47,2.84,2.29,4.9,3.65,7.18
		c1.62,2.82,3.6,5.41,5.46,8.1c2.03,5.28,4.03,10.55,6.1,15.77c0.58,1.35,1.06,2.81,2.37,3.74c3.04,2.19,6.02,4.36,9,6.56
		c3.58,2.7,7.16,5.4,10.79,8.1l-0.04,0.1c-6.9-2.44-12.79-6.51-18.12-11.42c-10.44-9.65-16.5-21.67-19.22-35.48
		c-1.71-8.54-3.47-17.07-4.77-25.68C105.48,216.57,105.12,215.69,105.44,214.73"/>
	<path class="st3" d="M190.05,284.38c-0.22-4.01,0.49-7.98,0.65-12c0.13-3.17,0.52-6.38,0.69-9.53c0.04-1.19,0.24-1.62,1.55-1.02
		c2.42,1.11,5.01,2.01,7.38,3.17c1.04,0.47,1.55,0.1,2.16-0.43C200.36,272.42,196.46,279.18,190.05,284.38"/>
	<path class="st3" d="M181.9,211.56c-3.19-4.24-6.82-8.08-10.23-12.13c-0.32-0.3-0.56-0.64-0.82-0.97
		c17.91,9.73,30.57,23.39,33.39,44.39c0.15,1.1,0.15,2.15,0.26,3.2c-0.58-0.44-0.65-1.1-0.91-1.67c0.04-0.16,0.09-0.38,0.07-0.52
		c-1.71-6.12-3.43-12.19-5.18-18.29c-0.15-0.69-0.69-0.98-1.19-1.38c-4.77-3.87-9.54-7.7-14.32-11.6
		C182.82,212.03,182.42,211.77,181.9,211.56"/>
	<path class="st3" d="M170.85,198.45c-3.54-1.2-6.77-3.05-10.18-4.58c-6.73-3.12-13.44-6.35-20.17-9.58
		c-0.56-0.24-1.23-0.33-1.42-1.04c6.56,2.33,12.88,5.32,19.14,8.29C162.52,193.67,166.84,195.81,170.85,198.45"/>
	<path class="st3" d="M104.66,173.3c0.39,2.93,0.09,5.86,0.04,8.79c-0.11,5.71-0.3,11.38-0.47,17.1c0,0.69,0.22,1.39-0.34,1.99
		C103.02,191.81,102.72,182.55,104.66,173.3"/>
	<path class="st3" d="M202.61,264.02c-0.73-0.24-0.39-0.89-0.39-1.29c0.56-4.54,1.12-9.01,1.75-13.54c0.07-0.31,0-0.8,0.54-0.85
		C204.89,253.7,204.33,258.93,202.61,264.02"/>
	<path class="st4" d="M104.15,204.14c2.24,4.67,5.35,8.9,7.16,12.83c-1.81-2.6-4.1-5.86-6.43-9.15l0,0c0.17-0.25,0.09-0.34-0.17-0.3
		c-0.11-0.04-0.22-0.04-0.37-0.04C104.19,206.39,103.95,205.3,104.15,204.14"/>
	<path class="st4" d="M105.66,171.37c0.04,0.04,0.09,0.14,0.13,0.24c-0.22,1.9,1.34,3.34,1.34,5.17c-1.19-1.09-0.95-3.08-2.42-4.02
		C104.79,171.27,104.79,171.27,105.66,171.37"/>
	<path class="st3" d="M103.89,201.11c0.76,0.98,0.45,2.05,0.24,3.08C103.89,203.22,103.69,202.21,103.89,201.11"/>
	<path class="st3" d="M104.66,209.53c0.52,0.84,0.82,1.73,0.45,2.72C104.6,211.39,104.64,210.47,104.66,209.53"/>
	<path class="st3" d="M118.47,175.6c-0.93,0.29-1.55-0.2-2.09-0.8C117.11,174.92,117.91,175.04,118.47,175.6"/>
	<path class="st4" d="M127.66,178.75c-0.95,0.52-1.53-0.1-2.11-0.73C126.32,178.06,127.04,178.35,127.66,178.75"/>
	<path class="st3" d="M116.4,174.8c-0.82,0.42-1.34-0.08-1.86-0.6C115.28,174.15,115.84,174.46,116.4,174.8"/>
	<path class="st3" d="M105.1,212.74c0.49,0.61,1.12,1.21,0.3,1.98C105.05,214.11,104.97,213.44,105.1,212.74"/>
	<path class="st3" d="M139.09,183.24c-0.82,0.45-1.16-0.12-1.58-0.65C138.1,182.65,138.66,182.81,139.09,183.24"/>
	<path class="st4" d="M128.91,179.19c-0.65,0.57-1.04,0.3-1.25-0.43C128.09,178.91,128.48,179.07,128.91,179.19"/>
	<path class="st3" d="M137.59,182.59c-0.69,0.51-0.95-0.14-1.27-0.51C136.74,182.23,137.15,182.4,137.59,182.59"/>
	<path class="st3" d="M204.51,248.34c-0.69-0.42-0.26-0.95-0.13-1.42C204.76,247.34,204.76,247.82,204.51,248.34"/>
	<path class="st3" d="M119.05,175.94c-0.22-0.12-0.69,0.1-0.54-0.42C118.86,175.44,118.99,175.6,119.05,175.94"/>
	<path class="st3" d="M148.8,290.5c-0.37-0.19-0.69-0.33-1.04-0.47v-0.08c0.39,0.06,0.73,0.1,1.08,0.17
		C148.8,290.21,148.8,290.33,148.8,290.5"/>
	<path class="st4" d="M104.88,207.82c-0.13,0.12-0.3,0.24-0.47,0.36c0-0.24-0.04-0.46-0.04-0.7c0.11,0,0.21,0,0.34,0.04
		c0.04,0.1,0.11,0.19,0.17,0.32V207.82z"/>
	<path class="st3" d="M149.56,290.66c-0.24-0.06-0.52-0.12-0.76-0.16c0-0.17,0-0.26,0.04-0.36c0.35-0.05,0.56,0.1,0.78,0.36
		L149.56,290.66z"/>
	<path class="st4" d="M125.59,178.04c-0.34,0.24-0.54-0.04-0.73-0.26C125.16,177.69,125.42,177.78,125.59,178.04"/>
	<path class="st3" d="M114.61,174.22c-0.28,0.22-0.41,0.02-0.52-0.19C114.29,173.89,114.46,173.99,114.61,174.22"/>
	<path class="st3" d="M105.1,212.2c0.21,0.18,0.26,0.36,0,0.54C104.97,212.56,104.79,212.36,105.1,212.2"/>
	<path class="st4" d="M129.58,179.71c-0.07-0.04-0.11-0.13-0.19-0.17C129.52,179.51,129.58,179.58,129.58,179.71"/>
	<path class="st4" d="M129.41,179.56c-0.28,0.04-0.41,0-0.45-0.33C129.17,179.21,129.34,179.27,129.41,179.56"/>
	<path class="st3" d="M202.5,264.56c-0.32-0.26-0.32-0.45,0.11-0.54C202.76,264.23,202.65,264.4,202.5,264.56"/>
	<path class="st3" d="M104.75,172.75c0.09,0.21,0.13,0.41-0.04,0.59C104.47,173.13,104.54,172.94,104.75,172.75"/>
	<path class="st3" d="M188.89,284.78c0.35-0.15,0.54,0.14,0.78,0.28C189.32,285.21,189.1,285.03,188.89,284.78"/>
	<path class="st4" d="M149.62,290.5c-0.22-0.26-0.47-0.43-0.78-0.38c-0.34-0.08-0.69-0.12-1.03-0.17c-3.63-2.7-7.21-5.4-10.79-8.1
		c-2.98-2.22-5.96-4.39-9-6.54c-1.31-0.93-1.83-2.42-2.35-3.79c-2.09-5.22-4.1-10.51-6.13-15.73c1.29-1.78,0.82-3.87,1.06-5.83
		c0.58-5.03,0.76-10.11,1.19-15.13c0.09-1.22-0.73-2.13-0.91-3.27c-1.51-9.11-3.13-18.21-4.77-27.34c-0.32-2.04-1.06-4.02-0.58-6.13
		c3.11,2.62,6.21,5.24,9.28,7.84c5.61,4.7,11.24,9.4,16.83,14.07c0.21,0.12,0.47,0.26,0.65,0.43c-0.52,0.41-0.43,1.01-0.47,1.54
		c-0.32,2.34-0.69,4.7-0.86,7.06c-0.3,4.79-0.91,9.53-1.42,14.33c-0.11,1.01,0.3,1.66,1.08,2.16c-0.61,0.46-0.41,1.18-0.39,1.74
		c0.43,6.33,1.06,12.57,1.42,18.89c0.17,2.11,1.34,3.01,3.17,3.68c4.75,1.79,9.38,3.71,14.09,5.58c2.52,1,5.01,1.93,7.55,2.88
		c0.13,0.16,0.26,0.36,0.39,0.52c0.04,3.89,0.82,7.7,1.23,11.52c0.19,2.13,0.26,2.24-1.77,1.96c-4.86-0.7-9.8-1.37-14.65-2.05
		C150.92,290.17,150.27,290.19,149.62,290.5"/>
	<path class="st3" d="M140.65,245.53c-0.82-0.5-1.23-1.14-1.1-2.14c0.52-4.77,1.14-9.55,1.45-14.36c0.13-2.36,0.47-4.7,0.78-7.06
		c0.09-0.54,0-1.13,0.52-1.54c7.7,1.97,15.45,3.93,23.12,5.93c0.13,0.17,0.24,0.36,0.39,0.55c-0.04,0.28-0.15,0.61-0.15,0.89
		c0.15,8.4,0.28,16.8,0.45,25.21l-0.13,0.07l-0.09,0.1C157.45,250.66,149.06,248.06,140.65,245.53"/>
	<path class="st5" d="M166.11,253.04c-0.17-8.41-0.34-16.85-0.47-25.25c0-0.3,0.13-0.59,0.17-0.87c1.42,0.97,3.15,1.41,4.7,2.03
		c3.08,1.23,6.13,2.5,9.19,3.67c2.85,1.08,5.7,2.07,8.54,3.11c1.04,7.98,2.09,15.92,2.89,23.94c0.17,1.67-0.39,1.62-1.68,1.19
		C181.68,258.18,173.91,255.62,166.11,253.04"/>
	<path class="st2" d="M140.65,245.53c8.41,2.52,16.81,5.12,25.24,7.65c-0.39,2.72,0.04,5.44,0.17,8.16
		c0.24,5.01,0.52,9.99,0.73,14.98c0.04,0.61,0.26,1.39-0.34,1.94c-2.5-0.93-5.01-1.86-7.53-2.86c-4.68-1.87-9.36-3.79-14.09-5.58
		c-1.81-0.67-3.02-1.51-3.15-3.68c-0.41-6.32-0.99-12.56-1.47-18.89C140.18,246.71,140,246.04,140.65,245.53"/>
	<path class="st6" d="M188.24,235.72c-2.85-1.03-5.7-2.03-8.5-3.11c-3.11-1.16-6.15-2.44-9.19-3.67c-1.64-0.61-3.32-1.06-4.75-2.03
		c-0.15-0.22-0.26-0.38-0.34-0.55c0-0.24,0.04-0.5,0.04-0.71c-0.95-6.01-1.94-12.02-2.87-18.03c-0.11-0.54-0.37-1.05-0.71-1.49
		c2.74,0.28,5.26,1.49,7.92,2.17c4.08,1.03,7.92,2.5,12.06,3.26c0.52,0.24,0.91,0.47,1.12,1.03l5.5,22.91
		C188.41,235.54,188.32,235.63,188.24,235.72"/>
	<path class="st2" d="M188.52,235.49l-5.54-22.91c4.79,3.89,9.56,7.72,14.32,11.6c0.49,0.4,1.04,0.73,1.19,1.38
		c1.73,6.05,3.43,12.18,5.18,18.26c0.02,0.17-0.07,0.39-0.07,0.53c-0.26,0.16-0.52,0.26-0.88,0.1
		C197.9,241.57,193.16,238.67,188.52,235.49"/>
	<path class="st1" d="M141.64,220c-5.59-4.69-11.22-9.4-16.83-14.07c-3.11-2.58-6.17-5.22-9.28-7.84c-1.4-2.44-2.03-5.22-3.19-7.75
		c-1.81-4.18-3.41-8.46-4.73-12.78c-0.11-0.28-0.37-0.54-0.52-0.8c0.04-1.82-1.58-3.27-1.32-5.17c0.95,1.22,2.46,1.67,3.67,2.54
		c6.51,4.61,13.12,9.14,19.65,13.74c0.24,0.16,0.43,0.47,0.63,0.67c2.59,6.68,5.22,13.3,7.72,19.98
		C138.9,212.34,140.65,216.02,141.64,220"/>
	<path class="st7" d="M141.64,220c-0.99-3.98-2.74-7.66-4.19-11.47c-2.5-6.68-5.13-13.3-7.72-19.98c3.84,1.62,7.29,3.85,10.92,5.83
		c7.12,3.86,14.2,7.82,21.27,11.74c0.35,0.44,0.61,0.92,0.71,1.49c0.93,6.02,1.92,11.99,2.83,17.99c0.04,0.26,0,0.5-0.04,0.76
		c-7.68-2.01-15.42-3.98-23.12-5.91C142.07,220.28,141.9,220.14,141.64,220"/>
	<path class="st2" d="M104.88,207.84c-0.06-0.13-0.13-0.23-0.17-0.32C104.97,207.48,105.05,207.57,104.88,207.84"/>
</g>
</svg>
