<?xml version="1.0" encoding="utf-8"?>
<!-- Generator: Adobe Illustrator 23.0.6, SVG Export Plug-In . SVG Version: 6.00 Build 0)  -->
<svg version="1.1" id="Layer_1" xmlns="http://www.w3.org/2000/svg" xmlns:xlink="http://www.w3.org/1999/xlink" x="0px" y="0px"
	 viewBox="0 0 830.77 787.44" style="enable-background:new 0 0 830.77 787.44;" xml:space="preserve">
<style type="text/css">
	.st0{stroke:#000000;stroke-miterlimit:10;}
	.st1{fill:#194DA1;}
	.st2{fill:#2F3181;}
	.st3{fill:#171743;}
	.st4{fill:#2A2866;}
	.st5{fill:#3A63AE;}
	.st6{fill:#3856A6;}
	.st7{fill:#568ECB;}
	.st8{fill:none;stroke:#000000;stroke-width:2;stroke-miterlimit:10;}
	.st9{stroke:#000000;stroke-width:3.8037;stroke-miterlimit:10;}
	.st10{opacity:0.77;}
	.st11{fill:#FFFFFF;}
	.st12{font-family:'FONTSPRINGDEMO-NeogroteskEssAltBlackRegular';}
	.st13{font-size:25.9899px;}
	.st14{fill:none;stroke:#FFFFFF;stroke-width:1.7529;stroke-miterlimit:10;}
	.st15{fill:#FFFFFF;stroke:#FFFFFF;stroke-width:5.4294;stroke-miterlimit:10;}
</style>
<g>
	<g>
		<g>
			<g>
				<path class="st1" d="M575.82,363.61c-0.05,0-0.1,0-0.15,0.01c0-0.05,0.03-0.1-0.03-0.13c0-0.02-0.01-0.03-0.03-0.04
					c-0.14-0.71-0.4-1.38-0.61-2.07c-0.18-0.57-0.3-1.16-0.56-1.7c0.01-0.04,0.03-0.07,0.04-0.11c0.14,0.04,0.23-0.07,0.32-0.13
					c0.72-0.5,1.42-1.01,2.14-1.52c0.39-0.27,0.74-0.6,1.18-0.8l0.02,0.01l0.02,0.01c0.35,1.39,0.71,2.78,1.05,4.17
					c0.06,0.23,0.11,0.32,0.33,0.14c1.1-0.87,2.18-1.78,3.25-2.68c0.02,0.01,0.04,0.02,0.06,0.02c-0.03,0.98-0.01,1.96,0.02,2.93
					c0,0.06,0.04,0.09,0.09,0.12c-0.06,0.09-0.15,0.17-0.17,0.29c-0.05,0.02-0.09,0.04-0.14,0.06c-0.08,0.03-0.2,0.01-0.2,0.15l0,0
					c-0.06-0.07-0.12-0.02-0.17,0c-0.72,0.34-1.44,0.67-2.16,1.02c-0.06,0.03-0.18,0.04-0.16,0.17l0,0
					c-0.05-0.05-0.08-0.03-0.09,0.04l0,0c-0.14-0.04-0.24-0.08-0.27-0.27c-0.06-0.47-0.17-0.93-0.23-1.39
					c-0.03-0.24-0.11-0.23-0.29-0.13c-0.49,0.27-0.99,0.52-1.47,0.8C577.03,362.92,576.38,363.2,575.82,363.61L575.82,363.61z"/>
				<path class="st2" d="M578.79,343.99c0.06-0.05,0.12-0.11,0.18-0.16c0.03,0.01,0.06,0.02,0.09,0.04
					c-0.27,0.65-0.53,1.29-0.74,1.81c0.41-0.64,0.73-1.5,1.21-2.27c0,0-0.01,0-0.01,0c0.18-0.07,0.36-0.12,0.43-0.33l0,0
					c0.14,0.03,0.22-0.07,0.32-0.13c0.85-0.51,1.71-1.03,2.56-1.55c0.44-0.27,0.89-0.5,1.29-0.83l0,0c0.05,0.02,0.07-0.01,0.09-0.05
					c0,0,0,0,0,0c0,0.3-0.31,0.45-0.36,0.73c-0.02,0.05-0.03,0.11-0.07,0.15c-0.52,0.61-1,1.24-1.44,1.9
					c-0.27,0.41-0.61,0.76-0.84,1.2c-0.35,0.13-0.58,0.42-0.85,0.66c-1.19,1.1-2.38,2.19-3.58,3.28c-0.15,0.13-0.2,0.33-0.39,0.43
					c-0.78,0.42-1.55,0.87-2.34,1.26c-0.31,0.15-0.58,0.42-0.96,0.39c0.22-0.53,0.42-1.07,0.68-1.57c0.21-0.41,0.34-0.87,0.71-1.21
					c0.89-0.79,1.76-1.59,2.61-2.41c0.25-0.24,0.58-0.4,0.71-0.75c0,0-0.01-0.01-0.01-0.01c0.2,0.05,0.22-0.1,0.27-0.23l0,0
					c0.05,0.02,0.08,0,0.08-0.05c0,0-0.01,0.01-0.01,0.01C578.61,344.27,578.72,344.15,578.79,343.99z"/>
				<path class="st2" d="M585.09,342.94c0.15,0.33,0.16,0.69,0.28,1.03c-0.01,0.05-0.03,0.1,0.03,0.13l0,0
					c-0.04,0.14-0.08,0.28,0.09,0.37c0,0,0,0.01,0,0.01c-0.08,0.1-0.09,0.18,0.05,0.22c0,0,0,0.01,0,0.01
					c-0.04,0.03-0.04,0.06,0,0.09l0,0c0,0.02,0,0.03-0.01,0.05c0.18,0.38,0.23,0.8,0.29,1.21c-0.02,0.08-0.1,0.18,0.04,0.23l0-0.01
					c-0.04,0.11-0.09,0.22,0.05,0.29c0,0,0,0,0,0c-0.09,0.1-0.04,0.21-0.03,0.31c0.16,1.29,0.32,2.58,0.49,3.87
					c0.09,0.65,0.12,1.3,0.29,1.93l0,0c-0.03,0.07-0.05,0.14-0.08,0.21c-0.27,0.88-0.5,1.78-0.82,2.65
					c-0.28-0.67-0.43-1.39-0.66-2.08c-0.15-0.45-0.21-0.94-0.43-1.37c-0.09-1.41-0.17-2.83-0.27-4.24
					c-0.05-0.72-0.05-1.44-0.17-2.16c0.01-0.05,0.04-0.1,0.04-0.16c0.06-1.39,0.11-2.79,0.17-4.18c0.01-0.26-0.06-0.52,0.03-0.78
					c0.01-0.02,0.02-0.03,0.03-0.05c0.21,0.48,0.24,1,0.39,1.49c-0.02,0.04-0.03,0.08,0.03,0.1l0,0c-0.03,0.12-0.06,0.25,0.09,0.32
					l0,0c-0.04,0.14-0.05,0.28,0.08,0.38c0,0,0.02,0,0.02,0C585.01,342.85,585.08,342.9,585.09,342.94z"/>
				<path class="st3" d="M574.44,359.67c0.26,0.55,0.38,1.13,0.56,1.7c0.21,0.69,0.47,1.36,0.61,2.07c-0.28,0.09-0.5-0.09-0.75-0.16
					c-0.29-0.28-0.67-0.43-0.99-0.67c-1.45-1.13-2.39-2.58-2.8-4.36l0.03-0.01c0.1,0.07,0.17,0.17,0.22,0.28
					c0.36,0.78,0.73,1.57,1.09,2.35c0.15,0.32,0.16,0.31,0.45,0.08C573.39,360.51,573.87,360.04,574.44,359.67z"/>
				<path class="st3" d="M578.1,344.6c-0.13,0.35-0.47,0.51-0.71,0.75c-0.86,0.82-1.73,1.63-2.61,2.41
					c-0.37,0.33-0.5,0.79-0.71,1.21c-0.26,0.51-0.46,1.05-0.68,1.57c-0.58,0.79-1.17,1.58-1.74,2.38c-0.15,0.21-0.32,0.42-0.33,0.7
					c-0.03,0.65-0.08,1.29-0.12,1.94c-0.06,0.78-0.12,1.57-0.18,2.35l-0.01,0c-0.3-1.25-0.25-2.5-0.03-3.75
					c0.44-2.44,1.63-4.47,3.41-6.17c1.1-1.05,2.19-2.12,3.33-3.12C577.83,344.78,577.93,344.64,578.1,344.6z"/>
				<path class="st3" d="M575.81,363.61c0.57-0.41,1.22-0.68,1.82-1.03c0.48-0.28,0.99-0.52,1.47-0.8c0.18-0.1,0.26-0.11,0.29,0.13
					c0.07,0.47,0.18,0.93,0.23,1.39c0.02,0.19,0.13,0.23,0.27,0.27C578.54,364.01,577.18,364.06,575.81,363.61z"/>
				<path class="st3" d="M585.77,355.55c0.32-0.87,0.54-1.76,0.82-2.65c0.02-0.07,0.05-0.14,0.08-0.21c0.25,3.55-0.57,6.7-3.4,9.1
					c-0.14,0.12-0.3,0.22-0.44,0.33c0.01-0.12,0.11-0.19,0.17-0.29c0.03-0.01,0.07-0.02,0.09-0.04c0.73-0.82,1.47-1.65,2.2-2.48
					c0.08-0.09,0.08-0.2,0.09-0.31c0.12-1.07,0.24-2.13,0.36-3.2C585.78,355.73,585.78,355.65,585.77,355.55z"/>
				<path class="st3" d="M586.66,352.69c-0.16-0.63-0.2-1.29-0.29-1.93c-0.18-1.29-0.33-2.58-0.49-3.87
					c-0.01-0.1-0.07-0.21,0.03-0.31c0.27,1.19,0.43,2.39,0.57,3.6C586.58,351.01,586.66,351.85,586.66,352.69z"/>
				<path class="st3" d="M584.12,340.58c-0.4,0.33-0.85,0.56-1.29,0.83c-0.85,0.52-1.7,1.03-2.56,1.55
					c-0.1,0.06-0.19,0.16-0.32,0.13C581.24,342.08,582.58,341.16,584.12,340.58z"/>
				<path class="st3" d="M579.99,363.54c-0.03-0.13,0.09-0.14,0.16-0.17c0.72-0.35,1.44-0.68,2.16-1.02c0.05-0.02,0.12-0.07,0.17,0
					C581.72,362.9,580.9,363.32,579.99,363.54z"/>
				<path class="st4" d="M579.53,343.41c-0.48,0.77-0.8,1.62-1.21,2.27c0.21-0.52,0.48-1.16,0.74-1.81l0,0
					c0.05,0,0.06-0.02,0.03-0.06c-0.01-0.02-0.01-0.04-0.02-0.05C579.21,343.63,579.35,343.48,579.53,343.41z"/>
				<path class="st4" d="M584.51,340.54c-0.01,0.01-0.02,0.03-0.03,0.05c-0.3,0.15-0.36,0.51-0.64,0.68
					c0.05-0.28,0.36-0.43,0.36-0.73C584.44,340.41,584.44,340.41,584.51,340.54z"/>
				<path class="st3" d="M579.95,343.08c-0.07,0.2-0.25,0.26-0.43,0.33C579.65,343.27,579.78,343.16,579.95,343.08z"/>
				<path class="st3" d="M578.79,343.99c-0.07,0.16-0.18,0.28-0.36,0.32C578.5,344.15,578.65,344.07,578.79,343.99z"/>
				<path class="st3" d="M585.08,342.83c-0.13-0.11-0.11-0.24-0.08-0.38C585.06,342.56,585.12,342.69,585.08,342.83z"/>
				<path class="st4" d="M585.48,344.47c-0.16-0.09-0.13-0.23-0.09-0.37C585.47,344.22,585.49,344.34,585.48,344.47z"/>
				<path class="st3" d="M585.01,342.45c-0.14-0.08-0.11-0.2-0.09-0.32C585,342.22,585,342.33,585.01,342.45z"/>
				<path class="st3" d="M578.36,344.36c-0.04,0.13-0.07,0.28-0.27,0.23C578.15,344.47,578.24,344.4,578.36,344.36z"/>
				<path class="st3" d="M585.9,346.58c-0.14-0.08-0.09-0.19-0.05-0.29C585.9,346.38,585.93,346.48,585.9,346.58z"/>
				<path class="st4" d="M585.54,344.7c-0.14-0.04-0.14-0.12-0.05-0.22C585.5,344.56,585.52,344.63,585.54,344.7z"/>
				<path class="st3" d="M585.86,346.3c-0.14-0.05-0.06-0.15-0.04-0.23C585.83,346.14,585.84,346.22,585.86,346.3z"/>
				<path class="st3" d="M582.48,362.34c0-0.14,0.11-0.13,0.2-0.15C582.64,362.29,582.57,362.33,582.48,362.34z"/>
				<path class="st3" d="M585.09,342.94c0-0.04-0.08-0.09,0.01-0.12C585.15,342.87,585.14,342.91,585.09,342.94z"/>
				<path class="st3" d="M571.03,358.11c-0.01-0.06-0.02-0.13-0.03-0.19l0.01,0c0.03,0.06,0.05,0.11,0.08,0.17
					C571.06,358.09,571.04,358.1,571.03,358.11z"/>
				<path class="st4" d="M579.06,343.86c-0.03-0.01-0.06-0.02-0.09-0.04c0.03-0.02,0.06-0.05,0.09-0.07
					c0.01,0.02,0.02,0.03,0.02,0.05C579.08,343.82,579.07,343.84,579.06,343.86L579.06,343.86z"/>
				<path class="st3" d="M571.07,358.24c-0.02-0.04-0.03-0.09-0.05-0.13c0.02-0.01,0.04-0.02,0.06-0.03
					c0.04,0.04,0.03,0.09,0.02,0.14L571.07,358.24z"/>
				<path class="st4" d="M585.4,344.11c-0.07-0.03-0.04-0.08-0.03-0.13C585.41,344.01,585.42,344.05,585.4,344.11z"/>
				<path class="st3" d="M584.93,342.13c-0.06-0.02-0.04-0.06-0.03-0.1C584.94,342.06,584.94,342.09,584.93,342.13z"/>
				<path class="st3" d="M578.44,344.3c-0.01,0.05-0.03,0.08-0.08,0.05C578.37,344.32,578.38,344.28,578.44,344.3z"/>
				<path class="st4" d="M585.53,344.85c0-0.02,0.01-0.03,0.01-0.05C585.55,344.82,585.55,344.84,585.53,344.85z"/>
				<path class="st4" d="M585.54,344.81c-0.04-0.03-0.04-0.06,0-0.09C585.57,344.75,585.57,344.78,585.54,344.81z"/>
				<path class="st3" d="M579.9,363.57c0.01-0.07,0.03-0.09,0.09-0.04C579.97,363.59,579.94,363.59,579.9,363.57z"/>
				<path class="st3" d="M584.21,340.54c-0.02,0.04-0.05,0.06-0.09,0.05C584.13,340.53,584.17,340.53,584.21,340.54z"/>
				<path class="st3" d="M575.64,363.48c0.06,0.03,0.03,0.09,0.03,0.13C575.62,363.58,575.62,363.53,575.64,363.48z"/>
				<path class="st4" d="M571.1,358.23c0.02-0.05,0.02-0.1-0.02-0.14c-0.02-0.06-0.05-0.11-0.08-0.17c0.06-0.78,0.12-1.57,0.18-2.35
					c0.05-0.64,0.09-1.29,0.12-1.94c0.01-0.29,0.18-0.49,0.33-0.7c0.57-0.8,1.16-1.59,1.74-2.38c0.38,0.02,0.65-0.24,0.96-0.39
					c0.8-0.39,1.56-0.84,2.34-1.26c0.19-0.1,0.24-0.3,0.39-0.43c1.2-1.08,2.39-2.18,3.58-3.28c0.27-0.25,0.49-0.53,0.85-0.66
					c-0.09,0.7-0.19,1.4-0.28,2.11c-0.16,1.27-0.32,2.53-0.48,3.8c0,0.05,0,0.09-0.01,0.14c-0.11-0.04-0.19,0.03-0.28,0.07
					c-0.38,0.18-0.76,0.35-1.12,0.55c-0.73,0.41-1.49,0.76-2.25,1.13c-0.16,0.08-0.22,0.2-0.21,0.37c-0.13-0.05-0.22,0.05-0.3,0.11
					c-0.88,0.66-1.75,1.34-2.64,1.99c-0.3,0.22-0.31,0.48-0.25,0.81c0.18,0.86,0.33,1.73,0.5,2.6c0.09,0.46,0.19,0.92,0.29,1.38
					c-0.01,0.04-0.03,0.07-0.04,0.11c-0.57,0.37-1.05,0.84-1.58,1.27c-0.29,0.23-0.3,0.25-0.45-0.08c-0.36-0.79-0.72-1.57-1.09-2.35
					C571.27,358.39,571.2,358.3,571.1,358.23z"/>
				<path class="st3" d="M576.88,352.67c-0.01-0.17,0.06-0.29,0.21-0.37c0.75-0.37,1.51-0.73,2.25-1.13
					c0.36-0.2,0.74-0.37,1.12-0.55c0.08-0.04,0.17-0.11,0.28-0.07c0.43,1.32,0.87,2.64,1.3,3.97c-0.01,0.03-0.03,0.07-0.04,0.1
					c-0.05,0.02-0.11,0.03-0.15,0.06c-1.22,0.81-2.45,1.63-3.67,2.44l-0.02-0.01c0,0-0.02-0.01-0.02-0.01
					C577.71,355.63,577.29,354.15,576.88,352.67z"/>
				<path class="st5" d="M578.17,357.13c1.22-0.81,2.44-1.63,3.67-2.44c0.04-0.03,0.1-0.04,0.15-0.06c-0.01,0.31,0.09,0.6,0.14,0.89
					c0.11,0.57,0.21,1.13,0.33,1.69c0.11,0.52,0.23,1.03,0.34,1.54c-1.07,0.91-2.15,1.81-3.25,2.68c-0.23,0.18-0.28,0.09-0.33-0.14
					C578.88,359.91,578.52,358.52,578.17,357.13z"/>
				<path class="st2" d="M576.88,352.67c0.42,1.48,0.83,2.96,1.25,4.44c-0.44,0.2-0.8,0.52-1.18,0.8c-0.71,0.5-1.42,1.02-2.14,1.52
					c-0.09,0.06-0.18,0.17-0.32,0.13c-0.1-0.46-0.2-0.92-0.29-1.38c-0.17-0.87-0.32-1.74-0.5-2.6c-0.07-0.33-0.06-0.59,0.25-0.81
					c0.89-0.65,1.76-1.33,2.64-1.99C576.66,352.72,576.75,352.63,576.88,352.67z"/>
				<path class="st6" d="M582.8,358.76c-0.12-0.51-0.24-1.03-0.34-1.54c-0.12-0.56-0.22-1.13-0.33-1.69
					c-0.06-0.3-0.15-0.59-0.14-0.89c0.01-0.03,0.03-0.07,0.04-0.1c0.04-0.02,0.08-0.03,0.11-0.06c0.79-0.7,1.58-1.41,2.38-2.11
					c0.08-0.07,0.12-0.15,0.16-0.25c0.22,0.43,0.28,0.91,0.43,1.37c0.23,0.69,0.38,1.41,0.66,2.08c0.01,0.09,0.01,0.18-0.05,0.26
					c-0.95,0.99-1.9,1.98-2.86,2.97C582.84,358.77,582.82,358.77,582.8,358.76z"/>
				<path class="st2" d="M582.86,358.78c0.95-0.99,1.9-1.98,2.86-2.97c-0.12,1.07-0.24,2.13-0.36,3.2
					c-0.01,0.11-0.01,0.22-0.09,0.31c-0.74,0.82-1.47,1.65-2.2,2.48c-0.02,0.02-0.06,0.03-0.09,0.04c-0.05-0.03-0.09-0.06-0.09-0.12
					C582.85,360.74,582.83,359.76,582.86,358.78z"/>
				<path class="st1" d="M580.73,350.42c0.16-1.27,0.32-2.53,0.48-3.8c0.09-0.7,0.19-1.4,0.28-2.11c0.23-0.44,0.57-0.79,0.84-1.2
					c0.44-0.66,0.92-1.29,1.44-1.9c0.03-0.04,0.05-0.1,0.07-0.15c0.28-0.17,0.34-0.54,0.64-0.68c-0.09,0.26-0.02,0.52-0.03,0.78
					c-0.06,1.39-0.12,2.79-0.17,4.18c0,0.05-0.03,0.11-0.04,0.16c-0.74,1.01-1.47,2.02-2.22,3.02
					C581.6,349.3,581.22,349.9,580.73,350.42z"/>
				<path class="st7" d="M580.73,350.42c0.49-0.52,0.86-1.13,1.29-1.69c0.75-1,1.48-2.01,2.22-3.02c0.12,0.71,0.12,1.44,0.17,2.16
					c0.1,1.41,0.18,2.82,0.27,4.24c-0.04,0.09-0.08,0.18-0.16,0.25c-0.79,0.7-1.58,1.41-2.38,2.11c-0.03,0.03-0.08,0.04-0.11,0.06
					c-0.43-1.32-0.87-2.64-1.3-3.97C580.73,350.51,580.73,350.47,580.73,350.42z"/>
				<path class="st2" d="M579.06,343.86c0.01-0.02,0.02-0.04,0.03-0.06C579.12,343.84,579.11,343.86,579.06,343.86z"/>
			</g>
			<g>
				<path class="st1" d="M572.98,373.94c-0.03-0.04-0.05-0.08-0.08-0.12c0.04-0.03,0.1-0.03,0.1-0.09c0.01-0.01,0.02-0.03,0.02-0.05
					c0.55-0.47,1-1.03,1.49-1.55c0.41-0.44,0.86-0.84,1.21-1.33c0.04-0.01,0.08-0.01,0.12-0.02c0.04,0.14,0.17,0.17,0.27,0.22
					c0.79,0.38,1.59,0.73,2.38,1.11c0.43,0.2,0.89,0.35,1.28,0.64l0,0.02l0,0.02c-1.04,0.99-2.07,1.99-3.11,2.97
					c-0.17,0.16-0.23,0.25,0.04,0.36c1.3,0.53,2.62,1.01,3.94,1.5c0,0.02,0.01,0.04,0.01,0.06c-0.87,0.46-1.71,0.96-2.54,1.47
					c-0.06,0.03-0.06,0.09-0.06,0.14c-0.11,0-0.22-0.05-0.33,0c-0.04-0.03-0.08-0.06-0.12-0.09c-0.07-0.06-0.11-0.17-0.23-0.1l0,0
					c0.03-0.09-0.04-0.12-0.09-0.15c-0.65-0.46-1.3-0.92-1.95-1.37c-0.06-0.04-0.13-0.14-0.23-0.05l0,0
					c0.02-0.07-0.01-0.09-0.07-0.06l0,0c-0.03-0.14-0.05-0.25,0.1-0.37c0.38-0.28,0.72-0.6,1.09-0.89c0.19-0.15,0.15-0.21-0.03-0.32
					c-0.48-0.29-0.94-0.6-1.42-0.88C574.18,374.66,573.62,374.23,572.98,373.94L572.98,373.94z"/>
				<path class="st2" d="M591.51,366.83c0.08,0.02,0.15,0.05,0.23,0.07c0,0.03,0.01,0.07,0.01,0.1c-0.69,0.09-1.39,0.18-1.94,0.25
					c0.76,0.04,1.67-0.1,2.57-0.07l-0.01-0.01c0.15,0.12,0.29,0.25,0.5,0.21l0,0c0.04,0.13,0.17,0.16,0.27,0.22
					c0.87,0.49,1.74,0.98,2.61,1.46c0.45,0.25,0.88,0.53,1.36,0.71l0,0c0.01,0.05,0.04,0.06,0.09,0.06c0,0,0,0,0,0
					c-0.26,0.15-0.55-0.05-0.81,0.04c-0.05,0.01-0.11,0.02-0.16,0.01c-0.78-0.15-1.57-0.26-2.36-0.31
					c-0.49-0.03-0.97-0.16-1.46-0.14c-0.29-0.24-0.65-0.3-1-0.41c-1.54-0.49-3.08-0.98-4.62-1.49c-0.19-0.06-0.39-0.01-0.57-0.13
					c-0.75-0.47-1.52-0.92-2.25-1.42c-0.28-0.19-0.65-0.29-0.81-0.64c0.57-0.07,1.14-0.17,1.71-0.19c0.46-0.02,0.93-0.14,1.4,0.02
					c1.12,0.38,2.25,0.74,3.39,1.08c0.33,0.1,0.63,0.31,1,0.25c0,0,0.01-0.01,0.01-0.01c0.06,0.19,0.2,0.15,0.33,0.12l0,0
					c0.01,0.06,0.04,0.06,0.09,0.05c0,0-0.01,0-0.01,0C591.17,366.81,591.33,366.85,591.51,366.83z"/>
				<path class="st2" d="M595.53,371.79c-0.21,0.29-0.53,0.48-0.76,0.75c-0.05,0.02-0.1,0.02-0.1,0.09l0,0
					c-0.14,0.03-0.28,0.07-0.28,0.26c0,0-0.01,0.01-0.01,0.01c-0.13-0.02-0.2,0.01-0.16,0.16c0,0-0.01,0-0.01,0
					c-0.05-0.02-0.07,0-0.08,0.05l0,0c-0.01,0.01-0.03,0.01-0.05,0.02c-0.24,0.35-0.58,0.59-0.91,0.85c-0.08,0.02-0.2,0-0.18,0.15
					l0,0c-0.11,0.02-0.23,0.03-0.23,0.19c0,0,0,0,0,0c-0.13-0.03-0.2,0.07-0.28,0.13c-1.04,0.78-2.09,1.55-3.12,2.34
					c-0.52,0.4-1.07,0.75-1.54,1.2c0,0,0,0,0,0c-0.07,0.01-0.15,0.02-0.22,0.04c-0.9,0.2-1.79,0.45-2.7,0.6
					c0.45-0.58,1-1.06,1.49-1.6c0.32-0.35,0.71-0.64,0.98-1.05c1.18-0.78,2.37-1.55,3.55-2.33c0.6-0.4,1.23-0.75,1.79-1.22
					c0.05-0.01,0.11-0.02,0.16-0.04c1.24-0.64,2.48-1.28,3.72-1.92c0.23-0.12,0.43-0.31,0.69-0.36c0.02,0,0.03,0,0.05,0
					c-0.31,0.42-0.75,0.7-1.1,1.08c-0.04,0-0.08,0.01-0.07,0.07l0,0c-0.12,0.04-0.24,0.07-0.24,0.23l0,0
					c-0.14,0.04-0.27,0.09-0.29,0.26c0,0,0.01,0.02,0.01,0.02C595.57,371.67,595.56,371.76,595.53,371.79z"/>
				<path class="st3" d="M575.73,370.8c-0.35,0.49-0.8,0.89-1.21,1.33c-0.49,0.52-0.95,1.08-1.49,1.55
					c-0.21-0.2-0.17-0.48-0.23-0.73c0.1-0.39,0.04-0.79,0.1-1.19c0.26-1.82,1.06-3.35,2.41-4.6l0.03,0.02
					c-0.01,0.12-0.06,0.23-0.13,0.33c-0.5,0.7-1,1.41-1.51,2.11c-0.21,0.29-0.19,0.29,0.16,0.43
					C574.47,370.3,575.12,370.49,575.73,370.8z"/>
				<path class="st3" d="M590.64,366.53c-0.37,0.06-0.67-0.15-1-0.25c-1.14-0.34-2.27-0.7-3.39-1.08c-0.47-0.16-0.94-0.04-1.4-0.02
					c-0.57,0.02-1.14,0.12-1.71,0.19c-0.98-0.11-1.95-0.24-2.93-0.34c-0.26-0.03-0.52-0.07-0.78,0.06
					c-0.58,0.29-1.16,0.57-1.74,0.85c-0.71,0.34-1.42,0.67-2.13,1.01l-0.01-0.01c0.94-0.88,2.05-1.45,3.24-1.87
					c2.34-0.83,4.69-0.79,7.05-0.08c1.46,0.44,2.92,0.86,4.36,1.36C590.35,366.39,590.52,366.4,590.64,366.53z"/>
				<path class="st3" d="M572.98,373.94c0.64,0.3,1.2,0.72,1.8,1.08c0.48,0.28,0.94,0.6,1.42,0.88c0.18,0.11,0.22,0.17,0.03,0.32
					c-0.37,0.29-0.72,0.61-1.09,0.89c-0.16,0.12-0.14,0.23-0.1,0.37C573.98,376.51,573.26,375.35,572.98,373.94z"/>
				<path class="st3" d="M584.9,378.61c0.91-0.15,1.8-0.4,2.7-0.6c0.07-0.02,0.15-0.03,0.22-0.04c-2.96,1.97-6.11,2.82-9.59,1.54
					c-0.17-0.06-0.34-0.15-0.51-0.22c0.11-0.05,0.22,0,0.33,0c0.03,0.02,0.05,0.05,0.08,0.05c1.08,0.23,2.16,0.46,3.24,0.69
					c0.12,0.03,0.21-0.03,0.31-0.08c0.99-0.42,1.97-0.84,2.96-1.26C584.75,378.71,584.83,378.66,584.9,378.61z"/>
				<path class="st3" d="M587.83,377.97c0.47-0.45,1.02-0.81,1.54-1.2c1.03-0.79,2.08-1.56,3.12-2.34c0.08-0.06,0.15-0.16,0.28-0.13
					c-0.9,0.83-1.87,1.55-2.85,2.28C589.25,377.07,588.56,377.56,587.83,377.97z"/>
				<path class="st3" d="M597.11,369.78c-0.48-0.18-0.91-0.46-1.36-0.71c-0.87-0.48-1.74-0.97-2.61-1.46
					c-0.1-0.06-0.23-0.09-0.27-0.22C594.37,368.02,595.84,368.73,597.11,369.78z"/>
				<path class="st3" d="M575.11,377.53c0.1-0.09,0.17,0.01,0.23,0.05c0.65,0.45,1.3,0.91,1.95,1.37c0.05,0.03,0.12,0.06,0.09,0.15
					C576.51,378.73,575.75,378.22,575.11,377.53z"/>
				<path class="st4" d="M592.38,367.19c-0.91-0.04-1.81,0.11-2.57,0.07c0.55-0.07,1.25-0.16,1.94-0.25l0,0
					c0.03,0.04,0.05,0.04,0.07-0.01c0.01-0.01,0.02-0.03,0.03-0.05C592.03,367.02,592.22,367.06,592.38,367.19z"/>
				<path class="st4" d="M597.33,370.09c-0.02,0-0.03,0-0.05,0c-0.27-0.19-0.62-0.06-0.91-0.22c0.27-0.09,0.55,0.1,0.81-0.04
					C597.41,369.97,597.41,369.97,597.33,370.09z"/>
				<path class="st3" d="M592.87,367.39c-0.21,0.04-0.35-0.09-0.5-0.21C592.55,367.22,592.72,367.28,592.87,367.39z"/>
				<path class="st3" d="M591.51,366.83c-0.17,0.02-0.33-0.02-0.46-0.15C591.22,366.66,591.36,366.75,591.51,366.83z"/>
				<path class="st3" d="M595.63,371.73c0.03-0.16,0.15-0.22,0.29-0.26C595.85,371.58,595.77,371.69,595.63,371.73z"/>
				<path class="st4" d="M594.39,372.89c0-0.19,0.14-0.23,0.28-0.26C594.61,372.75,594.51,372.82,594.39,372.89z"/>
				<path class="st3" d="M595.92,371.47c0-0.16,0.12-0.2,0.24-0.23C596.11,371.35,596.02,371.41,595.92,371.47z"/>
				<path class="st3" d="M590.97,366.64c-0.13,0.03-0.28,0.08-0.33-0.12C590.77,366.51,590.88,366.56,590.97,366.64z"/>
				<path class="st3" d="M592.77,374.3c0-0.16,0.12-0.17,0.23-0.19C592.94,374.2,592.87,374.26,592.77,374.3z"/>
				<path class="st4" d="M594.22,373.05c-0.03-0.14,0.04-0.18,0.16-0.16C594.33,372.95,594.28,373,594.22,373.05z"/>
				<path class="st3" d="M592.99,374.11c-0.02-0.15,0.1-0.13,0.18-0.15C593.11,374.01,593.05,374.06,592.99,374.11z"/>
				<path class="st3" d="M577.37,379.11c0.12-0.07,0.17,0.04,0.23,0.1C577.51,379.22,577.43,379.18,577.37,379.11z"/>
				<path class="st3" d="M595.53,371.79c0.03-0.02,0.04-0.12,0.11-0.05C595.62,371.8,595.58,371.81,595.53,371.79z"/>
				<path class="st3" d="M575.4,367.06c0.05-0.04,0.1-0.08,0.15-0.12l0.01,0.01c-0.04,0.05-0.07,0.1-0.11,0.15
					C575.43,367.08,575.41,367.07,575.4,367.06z"/>
				<path class="st4" d="M591.75,367.01c0-0.03-0.01-0.07-0.01-0.1c0.04,0.02,0.07,0.03,0.11,0.05c-0.01,0.02-0.02,0.03-0.03,0.05
					C591.79,367,591.77,367,591.75,367.01L591.75,367.01z"/>
				<path class="st3" d="M575.3,367.16c0.03-0.03,0.06-0.07,0.09-0.1c0.02,0.01,0.04,0.02,0.05,0.04c-0.02,0.05-0.07,0.07-0.12,0.09
					L575.3,367.16z"/>
				<path class="st4" d="M594.67,372.63c-0.01-0.07,0.05-0.08,0.1-0.09C594.76,372.59,594.73,372.63,594.67,372.63z"/>
				<path class="st3" d="M596.16,371.24c-0.01-0.06,0.03-0.07,0.07-0.07C596.23,371.22,596.2,371.24,596.16,371.24z"/>
				<path class="st3" d="M591.06,366.68c-0.05,0.02-0.08,0.01-0.09-0.05C591.01,366.63,591.05,366.62,591.06,366.68z"/>
				<path class="st4" d="M594.09,373.11c0.02-0.01,0.03-0.01,0.05-0.02C594.12,373.12,594.11,373.12,594.09,373.11z"/>
				<path class="st4" d="M594.13,373.1c0.01-0.05,0.04-0.06,0.08-0.05C594.2,373.09,594.17,373.11,594.13,373.1z"/>
				<path class="st3" d="M575.03,377.47c0.06-0.03,0.09-0.01,0.07,0.06C575.06,377.54,575.04,377.51,575.03,377.47z"/>
				<path class="st3" d="M597.19,369.84c-0.04,0-0.08-0.01-0.09-0.06C597.15,369.77,597.18,369.79,597.19,369.84z"/>
				<path class="st3" d="M573.01,373.72c0,0.07-0.06,0.07-0.1,0.09C572.91,373.76,572.95,373.74,573.01,373.72z"/>
				<path class="st4" d="M575.33,367.18c0.05-0.01,0.1-0.03,0.12-0.09c0.04-0.05,0.07-0.1,0.11-0.15c0.71-0.34,1.42-0.67,2.13-1.01
					c0.58-0.28,1.16-0.56,1.74-0.85c0.26-0.13,0.52-0.09,0.78-0.06c0.98,0.1,1.96,0.22,2.93,0.34c0.17,0.34,0.53,0.44,0.81,0.64
					c0.73,0.5,1.5,0.94,2.25,1.42c0.18,0.11,0.38,0.06,0.57,0.13c1.54,0.51,3.08,1,4.62,1.49c0.34,0.11,0.71,0.17,1,0.41
					c-0.66,0.27-1.31,0.53-1.97,0.8c-1.18,0.48-2.36,0.97-3.54,1.46c-0.04,0.02-0.08,0.04-0.12,0.06c-0.02-0.11-0.12-0.15-0.2-0.2
					c-0.34-0.24-0.67-0.49-1.03-0.7c-0.72-0.44-1.4-0.92-2.1-1.39c-0.14-0.1-0.28-0.09-0.42,0c-0.02-0.13-0.15-0.17-0.24-0.21
					c-1.01-0.44-2.03-0.86-3.04-1.31c-0.34-0.15-0.57-0.04-0.82,0.19c-0.66,0.58-1.34,1.15-2.01,1.72
					c-0.36,0.31-0.71,0.62-1.06,0.93c-0.04,0.01-0.08,0.01-0.12,0.02c-0.6-0.31-1.25-0.5-1.88-0.75c-0.34-0.14-0.36-0.14-0.16-0.43
					c0.51-0.7,1.01-1.4,1.51-2.11C575.27,367.42,575.32,367.31,575.33,367.18z"/>
				<path class="st3" d="M583.01,369.46c0.14-0.09,0.28-0.09,0.42,0c0.7,0.47,1.38,0.95,2.1,1.39c0.35,0.22,0.69,0.46,1.03,0.7
					c0.08,0.05,0.18,0.09,0.2,0.2c-0.93,1.03-1.87,2.06-2.8,3.09c-0.04,0-0.08,0.01-0.11,0.01c-0.04-0.03-0.08-0.08-0.13-0.1
					c-1.31-0.66-2.62-1.32-3.94-1.98l0-0.02c0,0,0-0.02,0-0.02C580.85,371.65,581.93,370.55,583.01,369.46z"/>
				<path class="st5" d="M579.78,372.79c1.31,0.66,2.62,1.32,3.94,1.98c0.05,0.02,0.09,0.07,0.13,0.1
					c-0.27,0.15-0.48,0.37-0.71,0.57c-0.44,0.37-0.88,0.74-1.31,1.12c-0.4,0.35-0.78,0.71-1.17,1.06c-1.32-0.48-2.64-0.97-3.94-1.5
					c-0.27-0.11-0.22-0.19-0.04-0.36C577.71,374.77,578.74,373.78,579.78,372.79z"/>
				<path class="st2" d="M583.01,369.46c-1.08,1.09-2.16,2.19-3.24,3.28c-0.39-0.28-0.85-0.43-1.28-0.64
					c-0.79-0.37-1.59-0.73-2.38-1.11c-0.1-0.05-0.24-0.08-0.27-0.22c0.35-0.31,0.7-0.62,1.06-0.93c0.67-0.58,1.35-1.14,2.01-1.72
					c0.25-0.22,0.48-0.34,0.82-0.19c1.01,0.45,2.03,0.87,3.04,1.31C582.86,369.29,582.99,369.33,583.01,369.46z"/>
				<path class="st6" d="M580.65,377.62c0.39-0.35,0.78-0.72,1.17-1.06c0.43-0.38,0.87-0.75,1.31-1.12
					c0.23-0.19,0.44-0.42,0.71-0.57c0.04,0,0.08-0.01,0.11-0.01c0.04,0.02,0.07,0.06,0.11,0.07c1,0.34,2.01,0.68,3.01,1.02
					c0.1,0.03,0.19,0.03,0.29,0.01c-0.27,0.4-0.66,0.69-0.98,1.05c-0.49,0.54-1.04,1.02-1.49,1.6c-0.07,0.06-0.15,0.1-0.25,0.09
					c-1.33-0.34-2.66-0.68-3.99-1.01C580.66,377.66,580.65,377.64,580.65,377.62z"/>
				<path class="st2" d="M580.66,377.68c1.33,0.34,2.66,0.68,3.99,1.01c-0.99,0.42-1.97,0.84-2.96,1.26
					c-0.1,0.04-0.19,0.1-0.31,0.08c-1.08-0.23-2.16-0.46-3.24-0.69c-0.03-0.01-0.05-0.03-0.08-0.05c0-0.06,0-0.11,0.06-0.14
					C578.95,378.64,579.79,378.14,580.66,377.68z"/>
				<path class="st1" d="M586.88,371.7c1.18-0.49,2.36-0.97,3.54-1.46c0.66-0.27,1.31-0.53,1.97-0.8c0.49-0.02,0.97,0.11,1.46,0.14
					c0.79,0.05,1.58,0.16,2.36,0.31c0.05,0.01,0.11-0.01,0.16-0.01c0.28,0.16,0.63,0.03,0.91,0.22c-0.27,0.05-0.46,0.24-0.69,0.36
					c-1.24,0.63-2.48,1.28-3.72,1.92c-0.05,0.02-0.1,0.03-0.16,0.04c-1.24-0.14-2.48-0.28-3.72-0.43
					C588.28,371.89,587.57,371.87,586.88,371.7z"/>
				<path class="st7" d="M586.88,371.7c0.69,0.17,1.41,0.19,2.11,0.28c1.24,0.15,2.48,0.29,3.72,0.43
					c-0.56,0.46-1.19,0.82-1.79,1.22c-1.18,0.78-2.37,1.55-3.55,2.33c-0.1,0.01-0.19,0.02-0.29-0.01c-1-0.34-2.01-0.68-3.01-1.02
					c-0.04-0.01-0.07-0.05-0.11-0.07c0.93-1.03,1.87-2.06,2.8-3.09C586.8,371.74,586.84,371.72,586.88,371.7z"/>
				<path class="st2" d="M591.75,367c0.02,0,0.04,0,0.07-0.01C591.8,367.05,591.78,367.05,591.75,367z"/>
			</g>
			<g>
				<path class="st1" d="M570.66,372.41c-0.02,0.04-0.05,0.08-0.07,0.13c-0.04-0.02-0.07-0.08-0.13-0.04c-0.02-0.01-0.03,0-0.05,0
					c-0.67-0.27-1.38-0.41-2.07-0.6c-0.58-0.16-1.14-0.37-1.74-0.45c-0.02-0.03-0.05-0.06-0.07-0.1c0.11-0.1,0.07-0.23,0.07-0.34
					c-0.03-0.87-0.09-1.74-0.13-2.62c-0.02-0.48-0.1-0.95-0.03-1.43l0.02-0.02l0.02-0.01c1.36,0.45,2.72,0.9,4.08,1.37
					c0.23,0.08,0.33,0.08,0.3-0.21c-0.14-1.4-0.33-2.79-0.51-4.18c0.02-0.01,0.03-0.03,0.05-0.04c0.81,0.55,1.64,1.06,2.48,1.56
					c0.06,0.03,0.1,0.01,0.15-0.01c0.05,0.1,0.06,0.22,0.15,0.3c-0.01,0.05-0.01,0.1-0.02,0.15c-0.02,0.09-0.1,0.18,0.02,0.25l0,0
					c-0.09,0.01-0.08,0.09-0.09,0.15c-0.1,0.79-0.21,1.58-0.3,2.37c-0.01,0.07-0.06,0.18,0.06,0.22l0,0
					c-0.07,0.02-0.07,0.05-0.02,0.09c0,0,0,0,0,0c-0.11,0.1-0.2,0.16-0.37,0.08c-0.42-0.2-0.87-0.36-1.3-0.55
					c-0.22-0.1-0.26-0.03-0.27,0.18c-0.03,0.56-0.09,1.11-0.12,1.67C570.74,371.03,570.62,371.72,570.66,372.41L570.66,372.41z"/>
				<path class="st2" d="M555.73,359.34c-0.01-0.08-0.03-0.16-0.04-0.24c0.03-0.02,0.06-0.04,0.08-0.06c0.4,0.57,0.8,1.15,1.13,1.6
					c-0.32-0.69-0.87-1.43-1.26-2.24c0,0,0,0.01,0,0.01c0.04-0.18,0.09-0.37-0.05-0.54l0,0c0.1-0.1,0.06-0.23,0.07-0.34
					c0.03-1,0.06-1.99,0.08-2.99c0.01-0.51,0.06-1.02-0.01-1.54l0,0c0.04-0.03,0.03-0.07,0.01-0.1c0,0,0,0,0,0
					c0.25,0.17,0.21,0.51,0.42,0.7c0.03,0.05,0.07,0.09,0.09,0.14c0.23,0.76,0.5,1.51,0.83,2.23c0.2,0.45,0.31,0.93,0.56,1.36
					c-0.08,0.37,0.04,0.72,0.1,1.07c0.28,1.59,0.57,3.19,0.83,4.78c0.03,0.2,0.17,0.35,0.15,0.56c-0.07,0.88-0.1,1.77-0.2,2.65
					c-0.04,0.34,0.04,0.71-0.18,1.02c-0.32-0.47-0.68-0.93-0.96-1.42c-0.23-0.4-0.55-0.75-0.63-1.25c-0.19-1.17-0.4-2.34-0.63-3.5
					c-0.07-0.34-0.02-0.71-0.25-1c0,0-0.01,0-0.01,0c0.15-0.14,0.04-0.24-0.05-0.35l0,0c0.05-0.03,0.04-0.07,0-0.1
					c0,0,0.01,0.01,0.01,0.01C555.88,359.64,555.83,359.49,555.73,359.34z"/>
				<path class="st2" d="M558.25,353.47c0.36,0.05,0.67,0.24,1.02,0.32c0.04,0.03,0.07,0.08,0.13,0.04l0,0
					c0.1,0.11,0.19,0.21,0.36,0.13c0,0,0.01,0,0.01,0c0.04,0.12,0.1,0.17,0.21,0.07c0,0,0.01,0.01,0.01,0.01
					c0,0.05,0.03,0.06,0.08,0.05l0,0c0.01,0.01,0.02,0.02,0.04,0.03c0.42,0.05,0.8,0.24,1.18,0.41c0.06,0.06,0.1,0.18,0.22,0.09
					l-0.01,0c0.07,0.09,0.13,0.19,0.27,0.12c0,0,0,0,0,0c0.03,0.13,0.15,0.14,0.25,0.19c1.17,0.56,2.35,1.12,3.53,1.67
					c0.59,0.27,1.16,0.6,1.78,0.8c0,0,0,0,0,0c0.05,0.06,0.09,0.12,0.14,0.18c0.6,0.7,1.23,1.38,1.79,2.11
					c-0.72-0.13-1.4-0.39-2.11-0.57c-0.46-0.12-0.9-0.33-1.38-0.38c-1.24-0.69-2.47-1.38-3.72-2.06c-0.63-0.35-1.24-0.74-1.91-1.02
					c-0.04-0.04-0.07-0.09-0.11-0.12c-1.14-0.8-2.29-1.6-3.43-2.4c-0.21-0.15-0.47-0.23-0.64-0.44c-0.01-0.01-0.02-0.03-0.02-0.05
					c0.51,0.08,0.97,0.34,1.47,0.47c0.02,0.04,0.05,0.07,0.09,0.03l-0.01,0c0.09,0.09,0.18,0.18,0.32,0.1l0,0
					c0.1,0.1,0.2,0.19,0.36,0.14c0,0,0.01-0.02,0.01-0.02C558.12,353.49,558.21,353.45,558.25,353.47z"/>
				<path class="st3" d="M566.6,371.45c0.6,0.08,1.16,0.29,1.74,0.45c0.69,0.19,1.4,0.33,2.07,0.6c-0.08,0.28-0.35,0.37-0.54,0.54
					c-0.39,0.09-0.72,0.33-1.1,0.47c-1.73,0.62-3.46,0.63-5.19,0.01l0.01-0.03c0.11-0.05,0.23-0.06,0.35-0.04
					c0.86,0.12,1.71,0.23,2.57,0.35c0.35,0.05,0.35,0.03,0.31-0.34C566.74,372.8,566.6,372.13,566.6,371.45z"/>
				<path class="st3" d="M555.87,360.25c0.23,0.3,0.18,0.67,0.25,1c0.23,1.16,0.44,2.33,0.63,3.5c0.08,0.5,0.4,0.85,0.63,1.25
					c0.29,0.49,0.64,0.95,0.96,1.42c0.35,0.92,0.7,1.84,1.07,2.75c0.1,0.24,0.18,0.49,0.41,0.66c0.53,0.37,1.05,0.76,1.57,1.14
					c0.63,0.47,1.26,0.94,1.89,1.41l0,0.01c-1.21-0.42-2.24-1.13-3.17-2c-1.82-1.68-2.89-3.78-3.36-6.2
					c-0.29-1.49-0.6-2.98-0.83-4.49C555.88,360.57,555.81,360.42,555.87,360.25z"/>
				<path class="st3" d="M570.66,372.42c-0.03-0.7,0.08-1.39,0.11-2.09c0.03-0.56,0.09-1.11,0.12-1.67
					c0.01-0.21,0.05-0.28,0.27-0.18c0.43,0.2,0.88,0.35,1.3,0.55c0.18,0.08,0.26,0.02,0.37-0.08
					C572.46,370.34,571.78,371.51,570.66,372.42z"/>
				<path class="st3" d="M569.23,359.69c-0.56-0.74-1.19-1.41-1.79-2.11c-0.05-0.06-0.09-0.12-0.14-0.18
					c3.12,1.7,5.34,4.09,5.83,7.77c0.02,0.18,0.03,0.37,0.04,0.55c-0.1-0.08-0.11-0.2-0.15-0.3c0-0.03,0.02-0.07,0.01-0.1
					c-0.3-1.06-0.6-2.13-0.9-3.19c-0.03-0.12-0.13-0.17-0.21-0.24c-0.83-0.68-1.66-1.35-2.5-2.03
					C569.39,359.78,569.32,359.73,569.23,359.69z"/>
				<path class="st3" d="M567.31,357.4c-0.62-0.21-1.19-0.53-1.78-0.8c-1.18-0.55-2.35-1.11-3.53-1.67
					c-0.1-0.05-0.22-0.06-0.25-0.19c1.15,0.41,2.24,0.93,3.34,1.46C565.85,356.57,566.6,356.95,567.31,357.4z"/>
				<path class="st3" d="M555.73,353.01c0.07,0.51,0.02,1.02,0.01,1.54c-0.02,1-0.05,1.99-0.08,2.99c0,0.12,0.03,0.24-0.07,0.34
					C555.45,356.25,555.39,354.63,555.73,353.01z"/>
				<path class="st3" d="M572.85,368.86c-0.12-0.04-0.07-0.15-0.06-0.22c0.09-0.79,0.2-1.58,0.3-2.37c0.01-0.06,0-0.14,0.09-0.15
					C573.25,367.06,573.15,367.97,572.85,368.86z"/>
				<path class="st4" d="M555.64,358.4c0.39,0.82,0.94,1.55,1.26,2.24c-0.32-0.46-0.72-1.03-1.13-1.6l0,0
					c0.03-0.04,0.01-0.06-0.04-0.06c-0.02,0-0.04-0.01-0.06-0.01C555.66,358.79,555.61,358.6,555.64,358.4z"/>
				<path class="st4" d="M555.91,352.67c0.01,0.02,0.01,0.03,0.02,0.05c-0.04,0.33,0.24,0.58,0.23,0.9
					c-0.21-0.19-0.17-0.53-0.42-0.7C555.76,352.65,555.76,352.65,555.91,352.67z"/>
				<path class="st3" d="M555.6,357.87c0.13,0.17,0.08,0.35,0.05,0.54C555.59,358.24,555.57,358.06,555.6,357.87z"/>
				<path class="st3" d="M555.73,359.34c0.09,0.15,0.14,0.3,0.08,0.48C555.72,359.67,555.73,359.51,555.73,359.34z"/>
				<path class="st3" d="M558.14,353.41c-0.16,0.05-0.27-0.04-0.36-0.14C557.91,353.29,558.04,353.31,558.14,353.41z"/>
				<path class="st4" d="M559.75,353.96c-0.17,0.09-0.26-0.01-0.36-0.13C559.52,353.84,559.64,353.89,559.75,353.96z"/>
				<path class="st3" d="M557.78,353.27c-0.14,0.08-0.23-0.01-0.32-0.1C557.58,353.16,557.68,353.21,557.78,353.27z"/>
				<path class="st3" d="M555.81,359.9c0.09,0.11,0.2,0.21,0.05,0.35C555.8,360.14,555.79,360.03,555.81,359.9z"/>
				<path class="st3" d="M561.75,354.75c-0.14,0.08-0.21-0.02-0.27-0.12C561.58,354.64,561.68,354.67,561.75,354.75z"/>
				<path class="st4" d="M559.97,354.04c-0.11,0.1-0.18,0.05-0.21-0.07C559.83,353.99,559.9,354.01,559.97,354.04z"/>
				<path class="st3" d="M561.48,354.63c-0.12,0.09-0.16-0.03-0.22-0.09C561.34,354.57,561.41,354.6,561.48,354.63z"/>
				<path class="st3" d="M573.18,366.12c-0.12-0.07-0.04-0.16-0.02-0.25C573.22,365.95,573.22,366.04,573.18,366.12z"/>
				<path class="st3" d="M558.25,353.47c-0.04-0.02-0.12,0.02-0.09-0.08C558.21,353.38,558.24,353.41,558.25,353.47z"/>
				<path class="st3" d="M563.45,373.49c-0.06-0.03-0.12-0.05-0.18-0.08l0-0.01c0.06,0.01,0.12,0.02,0.18,0.03
					C563.45,373.45,563.45,373.47,563.45,373.49z"/>
				<path class="st4" d="M555.77,359.04c-0.03,0.02-0.06,0.04-0.08,0.06c0-0.04-0.01-0.08-0.01-0.12c0.02,0,0.04,0,0.06,0.01
					C555.75,359.01,555.76,359.03,555.77,359.04L555.77,359.04z"/>
				<path class="st3" d="M563.58,373.52c-0.04-0.01-0.09-0.02-0.13-0.03c0-0.02,0-0.04,0.01-0.06c0.06-0.01,0.1,0.02,0.13,0.06
					L563.58,373.52z"/>
				<path class="st4" d="M559.39,353.84c-0.06,0.04-0.09-0.01-0.13-0.04C559.32,353.78,559.36,353.79,559.39,353.84z"/>
				<path class="st3" d="M557.47,353.17c-0.05,0.04-0.07,0.01-0.09-0.03C557.42,353.12,557.45,353.13,557.47,353.17z"/>
				<path class="st3" d="M555.81,359.81c0.04,0.03,0.05,0.07,0,0.1C555.79,359.87,555.76,359.84,555.81,359.81z"/>
				<path class="st4" d="M560.09,354.13c-0.01-0.01-0.02-0.02-0.04-0.03C560.08,354.1,560.09,354.11,560.09,354.13z"/>
				<path class="st4" d="M560.06,354.1c-0.05,0.01-0.07,0-0.08-0.05C560.02,354.04,560.05,354.06,560.06,354.1z"/>
				<path class="st3" d="M572.83,368.96c-0.05-0.04-0.05-0.08,0.02-0.09C572.88,368.9,572.86,368.93,572.83,368.96z"/>
				<path class="st3" d="M555.74,352.91c0.02,0.04,0.03,0.07-0.01,0.1C555.7,352.98,555.71,352.94,555.74,352.91z"/>
				<path class="st3" d="M570.46,372.5c0.06-0.03,0.09,0.02,0.13,0.04C570.53,372.57,570.49,372.54,570.46,372.5z"/>
				<path class="st4" d="M563.59,373.49c-0.03-0.04-0.07-0.07-0.13-0.06c-0.06-0.01-0.12-0.02-0.18-0.03
					c-0.63-0.47-1.25-0.95-1.89-1.41c-0.52-0.39-1.04-0.77-1.57-1.14c-0.23-0.17-0.32-0.42-0.41-0.66
					c-0.37-0.91-0.71-1.83-1.07-2.75c0.22-0.31,0.14-0.68,0.18-1.02c0.1-0.88,0.13-1.77,0.2-2.65c0.02-0.21-0.12-0.37-0.15-0.56
					c-0.27-1.6-0.55-3.19-0.83-4.78c-0.06-0.36-0.18-0.7-0.1-1.07c0.54,0.46,1.08,0.92,1.62,1.37c0.98,0.82,1.96,1.64,2.94,2.45
					c0.04,0.03,0.07,0.05,0.11,0.08c-0.09,0.07-0.08,0.18-0.09,0.27c-0.05,0.41-0.12,0.82-0.14,1.24c-0.05,0.84-0.16,1.67-0.25,2.5
					c-0.02,0.17,0.05,0.29,0.19,0.38c-0.11,0.08-0.08,0.21-0.07,0.31c0.08,1.1,0.18,2.2,0.25,3.3c0.02,0.38,0.23,0.52,0.55,0.64
					c0.83,0.31,1.64,0.65,2.46,0.98c0.44,0.17,0.88,0.33,1.32,0.5c0.02,0.03,0.05,0.06,0.07,0.1c0,0.68,0.14,1.34,0.22,2.01
					c0.04,0.37,0.05,0.39-0.31,0.34c-0.86-0.12-1.71-0.24-2.57-0.35C563.82,373.43,563.7,373.44,563.59,373.49z"/>
				<path class="st3" d="M562.02,365.63c-0.14-0.08-0.21-0.2-0.19-0.38c0.09-0.83,0.2-1.67,0.25-2.5c0.03-0.41,0.09-0.83,0.14-1.24
					c0.01-0.09,0-0.2,0.09-0.27c1.35,0.35,2.7,0.69,4.04,1.04c0.02,0.03,0.04,0.06,0.06,0.09c-0.01,0.05-0.03,0.11-0.03,0.16
					c0.03,1.47,0.05,2.94,0.08,4.41l-0.02,0.01l-0.02,0.02C564.96,366.53,563.49,366.08,562.02,365.63z"/>
				<path class="st5" d="M566.47,366.94c-0.03-1.47-0.06-2.94-0.08-4.41c0-0.05,0.02-0.11,0.03-0.16c0.25,0.17,0.55,0.25,0.83,0.36
					c0.53,0.22,1.07,0.43,1.6,0.64c0.49,0.19,0.99,0.36,1.49,0.54c0.19,1.39,0.37,2.79,0.51,4.18c0.03,0.29-0.07,0.28-0.3,0.21
					C569.19,367.85,567.83,367.4,566.47,366.94z"/>
				<path class="st2" d="M562.02,365.63c1.47,0.45,2.94,0.89,4.41,1.34c-0.07,0.48,0.01,0.95,0.03,1.43
					c0.04,0.87,0.09,1.74,0.13,2.62c0,0.11,0.04,0.24-0.07,0.34c-0.44-0.17-0.88-0.33-1.32-0.5c-0.82-0.32-1.64-0.66-2.46-0.98
					c-0.31-0.12-0.53-0.27-0.55-0.64c-0.07-1.1-0.17-2.2-0.25-3.3C561.94,365.84,561.91,365.71,562.02,365.63z"/>
				<path class="st6" d="M570.34,363.92c-0.5-0.18-0.99-0.35-1.49-0.54c-0.54-0.21-1.07-0.42-1.6-0.64
					c-0.28-0.11-0.57-0.19-0.83-0.36c-0.02-0.03-0.04-0.06-0.06-0.09c0-0.04,0.02-0.09,0.01-0.13c-0.17-1.05-0.34-2.09-0.5-3.14
					c-0.02-0.1-0.07-0.18-0.12-0.26c0.48,0.05,0.92,0.26,1.38,0.38c0.71,0.18,1.39,0.44,2.11,0.57c0.08,0.04,0.16,0.09,0.19,0.18
					c0.32,1.33,0.64,2.67,0.96,4C570.37,363.89,570.35,363.91,570.34,363.92z"/>
				<path class="st2" d="M570.39,363.88c-0.32-1.33-0.64-2.67-0.96-4c0.83,0.68,1.66,1.35,2.5,2.03c0.08,0.07,0.18,0.12,0.21,0.24
					c0.3,1.06,0.6,2.13,0.9,3.19c0.01,0.03-0.01,0.06-0.01,0.1c-0.05,0.03-0.1,0.05-0.15,0.01
					C572.03,364.94,571.2,364.43,570.39,363.88z"/>
				<path class="st1" d="M562.2,361.17c-0.98-0.82-1.96-1.63-2.94-2.45c-0.54-0.45-1.08-0.91-1.62-1.37
					c-0.25-0.43-0.36-0.91-0.56-1.36c-0.32-0.73-0.6-1.47-0.83-2.23c-0.02-0.05-0.06-0.09-0.09-0.14c0.01-0.32-0.27-0.57-0.23-0.9
					c0.17,0.21,0.43,0.29,0.64,0.44c1.14,0.81,2.29,1.6,3.43,2.4c0.04,0.03,0.07,0.08,0.11,0.12c0.45,1.16,0.91,2.33,1.35,3.49
					C561.72,359.83,562.03,360.48,562.2,361.17z"/>
				<path class="st7" d="M562.2,361.17c-0.17-0.69-0.48-1.33-0.73-2c-0.44-1.17-0.9-2.33-1.35-3.49c0.67,0.28,1.28,0.67,1.91,1.02
					c1.24,0.68,2.48,1.37,3.72,2.06c0.06,0.08,0.11,0.16,0.12,0.26c0.16,1.05,0.33,2.09,0.5,3.14c0.01,0.04-0.01,0.09-0.01,0.13
					c-1.35-0.35-2.7-0.69-4.04-1.04C562.27,361.22,562.24,361.2,562.2,361.17z"/>
				<path class="st2" d="M555.77,359.05c-0.01-0.02-0.02-0.04-0.04-0.06C555.79,358.98,555.8,359,555.77,359.05z"/>
			</g>
		</g>
	</g>
	<text transform="matrix(1 0 0 1 670.4296 276.2189)" class="st11 st12 st13">R</text>
	<circle class="st14" cx="679.12" cy="267.16" r="15.93"/>
	<g>
		<g>
			<path class="st11" d="M358.33,481.39l-2.67,2.55c-1.82-1.92-3.86-2.88-6.13-2.88c-1.92,0-3.53,0.66-4.84,1.97
				c-1.31,1.3-1.97,2.91-1.97,4.84c0,1.33,0.29,2.52,0.87,3.56c0.59,1.03,1.4,1.85,2.47,2.44c1.06,0.59,2.24,0.89,3.54,0.89
				c1.11,0,2.12-0.2,3.04-0.61c0.92-0.42,1.92-1.17,3.02-2.26l2.59,2.7c-1.48,1.45-2.89,2.45-4.19,3c-1.32,0.56-2.83,0.84-4.52,0.84
				c-3.11,0-5.66-0.99-7.65-2.96c-1.99-1.98-2.98-4.51-2.98-7.6c0-1.99,0.46-3.77,1.36-5.33c0.91-1.55,2.19-2.8,3.88-3.75
				c1.69-0.95,3.51-1.42,5.45-1.42c1.66,0,3.25,0.35,4.78,1.05C355.9,479.1,357.23,480.1,358.33,481.39"/>
			<path class="st11" d="M372.26,477.35c2.83,0,5.27,1.03,7.31,3.08c2.04,2.05,3.06,4.56,3.06,7.51c0,2.92-1.01,5.4-3.02,7.43
				c-2.02,2.02-4.46,3.04-7.33,3.04c-3.01,0-5.51-1.04-7.5-3.12c-1.99-2.08-2.99-4.55-2.99-7.42c0-1.92,0.48-3.68,1.4-5.29
				c0.92-1.61,2.2-2.87,3.82-3.82C368.63,477.83,370.38,477.35,372.26,477.35 M372.21,481.09c-1.85,0-3.41,0.64-4.67,1.93
				c-1.26,1.29-1.89,2.92-1.89,4.92c0,2.21,0.79,3.97,2.38,5.26c1.24,1.01,2.66,1.51,4.26,1.51c1.81,0,3.35-0.65,4.62-1.97
				c1.27-1.31,1.92-2.92,1.92-4.83c0-1.91-0.64-3.52-1.92-4.85C375.61,481.75,374.04,481.09,372.21,481.09"/>
			<polygon class="st11" points="386.66,477.89 390.48,477.89 390.48,494.29 396.04,494.29 396.04,497.92 386.66,497.92 			"/>
			<path class="st11" d="M409.52,477.37c2.84,0,5.28,1.03,7.32,3.08c2.04,2.05,3.06,4.56,3.06,7.51c0,2.92-1.01,5.4-3.02,7.43
				c-2.02,2.02-4.45,3.04-7.33,3.04c-3,0-5.51-1.04-7.5-3.12c-1.98-2.08-2.99-4.55-2.99-7.42c0-1.92,0.47-3.68,1.39-5.29
				c0.93-1.61,2.2-2.87,3.83-3.82C405.9,477.85,407.65,477.37,409.52,477.37 M409.48,481.11c-1.85,0-3.42,0.64-4.68,1.93
				c-1.26,1.29-1.89,2.92-1.89,4.92c0,2.21,0.79,3.97,2.39,5.26c1.23,1.01,2.65,1.51,4.25,1.51c1.82,0,3.35-0.65,4.63-1.97
				c1.27-1.31,1.91-2.92,1.91-4.83c0-1.91-0.64-3.52-1.92-4.85C412.88,481.77,411.32,481.11,409.48,481.11"/>
			<path class="st11" d="M423.93,477.9h4.04c2.21,0,3.79,0.2,4.73,0.59c0.94,0.4,1.7,1.05,2.27,1.97c0.57,0.91,0.85,2,0.85,3.25
				c0,1.32-0.32,2.42-0.95,3.31c-0.63,0.88-1.59,1.56-2.85,2.01l4.74,8.91h-4.17l-4.51-8.49h-0.35v8.49h-3.81V477.9z M427.74,485.74
				h1.2c1.21,0,2.05-0.16,2.5-0.48c0.46-0.32,0.69-0.85,0.69-1.58c0-0.44-0.12-0.82-0.35-1.14c-0.22-0.33-0.53-0.56-0.91-0.7
				c-0.38-0.15-1.08-0.22-2.09-0.22h-1.05V485.74z"/>
			<path class="st11" d="M468.85,481.39l-2.67,2.55c-1.81-1.92-3.86-2.88-6.13-2.88c-1.92,0-3.52,0.66-4.84,1.97
				c-1.31,1.3-1.97,2.91-1.97,4.84c0,1.33,0.29,2.52,0.87,3.56c0.59,1.03,1.4,1.85,2.47,2.44c1.06,0.59,2.24,0.89,3.54,0.89
				c1.1,0,2.12-0.2,3.03-0.61c0.91-0.42,1.92-1.17,3.02-2.26l2.59,2.7c-1.47,1.45-2.88,2.45-4.2,3c-1.32,0.56-2.82,0.84-4.51,0.84
				c-3.11,0-5.66-0.99-7.65-2.96c-1.98-1.98-2.98-4.51-2.98-7.6c0-1.99,0.45-3.77,1.36-5.33c0.91-1.55,2.2-2.8,3.89-3.75
				c1.68-0.95,3.5-1.42,5.44-1.42c1.65,0,3.24,0.35,4.77,1.05C466.42,479.1,467.74,480.1,468.85,481.39"/>
			<path class="st11" d="M482.77,477.35c2.83,0,5.27,1.03,7.31,3.08c2.04,2.05,3.06,4.56,3.06,7.51c0,2.92-1.01,5.4-3.02,7.43
				c-2.01,2.02-4.45,3.04-7.32,3.04c-3.01,0-5.51-1.04-7.5-3.12c-1.99-2.08-2.99-4.55-2.99-7.42c0-1.92,0.47-3.68,1.39-5.29
				c0.92-1.61,2.2-2.87,3.83-3.82C479.15,477.83,480.9,477.35,482.77,477.35 M482.73,481.09c-1.86,0-3.41,0.64-4.68,1.93
				c-1.26,1.29-1.89,2.92-1.89,4.92c0,2.21,0.79,3.97,2.37,5.26c1.24,1.01,2.67,1.51,4.26,1.51c1.81,0,3.35-0.65,4.62-1.97
				c1.27-1.31,1.92-2.92,1.92-4.83c0-1.91-0.65-3.52-1.92-4.85C486.13,481.75,484.57,481.09,482.73,481.09"/>
			<polygon class="st11" points="497.18,477.87 500.84,477.87 509.41,491.06 509.41,477.87 513.23,477.87 513.23,497.9 
				509.56,497.9 501,484.76 501,497.9 497.18,497.9 			"/>
			<polygon class="st11" points="516.95,477.87 528.02,477.87 528.02,481.62 524.37,481.62 524.37,497.9 520.5,497.9 520.5,481.62 
				516.95,481.62 			"/>
			<path class="st11" d="M537.87,477.87h3.87l7.71,20.04h-3.97l-1.57-4.13h-8.17l-1.63,4.13h-3.97L537.87,477.87z M539.84,483.18
				l-2.7,6.88h5.36L539.84,483.18z"/>
			<path class="st11" d="M571.94,481.39l-2.67,2.55c-1.81-1.92-3.86-2.88-6.13-2.88c-1.91,0-3.52,0.66-4.84,1.97
				c-1.31,1.3-1.97,2.91-1.97,4.84c0,1.33,0.29,2.52,0.87,3.56c0.59,1.03,1.41,1.85,2.47,2.44c1.07,0.59,2.24,0.89,3.54,0.89
				c1.1,0,2.12-0.2,3.03-0.61c0.92-0.42,1.93-1.17,3.02-2.26l2.59,2.7c-1.47,1.45-2.88,2.45-4.2,3c-1.31,0.56-2.82,0.84-4.51,0.84
				c-3.11,0-5.66-0.99-7.65-2.96c-1.98-1.98-2.98-4.51-2.98-7.6c0-1.99,0.45-3.77,1.36-5.33c0.91-1.55,2.2-2.8,3.88-3.75
				c1.69-0.95,3.5-1.42,5.45-1.42c1.65,0,3.25,0.35,4.77,1.05C569.51,479.1,570.83,480.1,571.94,481.39"/>
			<polygon class="st11" points="574.42,477.87 585.5,477.87 585.5,481.62 581.85,481.62 581.85,497.9 577.98,497.9 577.98,481.62 
				574.42,481.62 			"/>
			<polygon class="st11" points="598.15,477.87 601.97,477.87 601.97,494.27 607.53,494.27 607.53,497.9 598.15,497.9 			"/>
			<polygon class="st11" points="611.57,477.87 622.51,477.87 622.51,481.6 615.35,481.6 615.35,485.22 622.51,485.22 
				622.51,488.89 615.35,488.89 615.35,494.17 622.51,494.17 622.51,497.9 611.57,497.9 			"/>
			<polygon class="st11" points="626.57,477.87 630.22,477.87 638.8,491.06 638.8,477.87 642.61,477.87 642.61,497.9 638.95,497.9 
				630.39,484.76 630.39,497.9 626.57,497.9 			"/>
			<path class="st11" d="M658.94,480.59l-2.83,2.49c-0.99-1.38-1.99-2.07-3.03-2.07c-0.51,0-0.91,0.14-1.23,0.4
				c-0.31,0.27-0.47,0.57-0.47,0.91c0,0.33,0.12,0.65,0.34,0.95c0.31,0.41,1.25,1.26,2.8,2.57c1.46,1.22,2.34,1.99,2.64,2.31
				c0.78,0.78,1.33,1.53,1.65,2.24c0.32,0.71,0.48,1.5,0.48,2.33c0,1.65-0.57,3-1.71,4.08c-1.13,1.07-2.62,1.61-4.44,1.61
				c-1.43,0-2.67-0.35-3.73-1.05c-1.06-0.7-1.97-1.8-2.72-3.3l3.2-1.94c0.97,1.77,2.07,2.66,3.33,2.66c0.65,0,1.21-0.19,1.65-0.57
				c0.45-0.38,0.67-0.82,0.67-1.32c0-0.45-0.17-0.9-0.51-1.36c-0.34-0.45-1.08-1.15-2.23-2.09c-2.18-1.78-3.6-3.15-4.23-4.11
				c-0.63-0.97-0.96-1.94-0.96-2.9c0-1.39,0.53-2.59,1.59-3.58c1.06-0.99,2.37-1.5,3.93-1.5c1,0,1.95,0.24,2.86,0.69
				C656.9,478.52,657.88,479.36,658.94,480.59"/>
			<path class="st11" d="M690.6,480.59l-2.83,2.49c-0.99-1.38-1.99-2.07-3.03-2.07c-0.51,0-0.91,0.14-1.23,0.4
				c-0.31,0.27-0.47,0.57-0.47,0.91c0,0.33,0.12,0.65,0.34,0.95c0.31,0.41,1.25,1.26,2.8,2.57c1.46,1.22,2.34,1.99,2.64,2.31
				c0.78,0.78,1.33,1.53,1.65,2.24c0.32,0.71,0.48,1.5,0.48,2.33c0,1.65-0.57,3-1.71,4.08c-1.13,1.07-2.62,1.61-4.44,1.61
				c-1.43,0-2.67-0.35-3.73-1.05c-1.06-0.7-1.97-1.8-2.72-3.3l3.2-1.94c0.97,1.77,2.07,2.66,3.33,2.66c0.65,0,1.21-0.19,1.65-0.57
				c0.45-0.38,0.67-0.82,0.67-1.32c0-0.45-0.17-0.9-0.51-1.36c-0.34-0.45-1.08-1.15-2.23-2.09c-2.18-1.78-3.6-3.15-4.23-4.11
				c-0.63-0.97-0.96-1.94-0.96-2.9c0-1.39,0.53-2.59,1.59-3.58c1.06-0.99,2.37-1.5,3.93-1.5c1,0,1.95,0.24,2.86,0.69
				C688.57,478.52,689.55,479.36,690.6,480.59"/>
			<polygon class="st11" points="663.37,477.86 674.31,477.86 674.31,481.6 667.16,481.6 667.16,485.22 674.31,485.22 
				674.31,488.88 667.16,488.88 667.16,494.16 674.31,494.16 674.31,497.9 663.37,497.9 			"/>
		</g>
		<g>
			<g>
				<path class="st15" d="M402.59,375.23v0.25c0,0.83-0.42,1.72-1.25,2.62c-0.85,0.92-1.83,1.97-3.01,3.13l-0.75,0.76
					c-0.16,0-0.5-0.34-1-1c-1.18-1.17-2.96-2.59-5.39-4.26c-2.42-1.67-5.22-2.75-8.39-3.25l-0.5,1.5
					c-0.84,3.17-3.05,9.49-6.64,18.91c-3.59,9.44-8.77,20.71-15.52,33.81c-6.76,13.1-15.32,26.67-25.67,40.69
					c-10.35,14.02-22.7,27.13-37.06,39.32c-14.36,12.18-30.89,22.12-49.58,29.79c-18.7,7.68-39.9,11.53-63.6,11.53
					c-3.84,0-7.52-0.17-11.02-0.5h-0.75c-21.37-2.67-37.4-8.81-48.08-18.4c-10.68-9.6-16.02-21.16-16.02-34.69
					c0-16.36,6.6-32.38,19.78-48.08c13.19-15.69,30.84-29.8,52.96-42.32c22.12-12.51,47.11-22.54,75-30.05
					c27.87-7.51,56.42-11.26,85.64-11.26c9.02,0,16.7,0.33,23.04,1c3.34,0.17,5.77,0.24,7.27,0.24c1.16,0,2.91-4.26,5.25-12.76
					c2.34-8.52,4.71-18.95,7.14-31.31c2.43-12.36,4.52-24.75,6.26-37.18c1.75-12.44,2.63-22.58,2.63-30.43
					c0-5.67-0.6-8.51-1.75-8.51h-0.25c-40.57,25.38-84.81,38.31-132.73,38.81c-7.35,0-13.39-0.41-18.15-1.25
					c-4.76-0.83-8.48-1.88-11.14-3.13c-2.67-1.25-4.59-2.55-5.76-3.88c-1.17-1.33-1.86-2.5-2.12-3.5c-0.25-1.01-0.38-1.59-0.38-1.75
					c0-2.34,1.59-3.59,4.75-3.76c2.34,0,4.51,0.59,6.51,1.75c2.35,1.34,6.05,2.68,11.15,4.01c5.09,1.33,13.22,2,24.41,2
					c20.37,0,38.15-1.87,53.34-5.63c15.2-3.75,27.88-7.96,38.06-12.64c10.19-4.67,18.11-8.67,23.8-12.02
					c5.16-3.34,8.67-5.01,10.51-5.01c2.16,0,3.92,1.55,5.26,4.64c1.33,3.09,2,8.72,2,16.89c0,12.69-1.05,26.05-3.13,40.07
					c-2.08,14.02-4.38,26.66-6.89,37.94c-2.5,11.26-4.34,19.41-5.51,24.41c-0.67,2.51-1,3.85-1,4.01c0,0.17,1.09,0.5,3.25,0.99
					c2.83,0.67,5.88,1.59,9.14,2.76C399.95,371.64,401.92,373.23,402.59,375.23 M371.54,371.98c-0.34-0.5-4.09-1.04-11.28-1.63
					c-7.17-0.58-15.36-0.87-24.53-0.87c-30.05,0-58.52,3.88-85.39,11.64c-26.89,7.77-50.63,17.86-71.24,30.3
					c-20.62,12.42-36.86,25.91-48.71,40.44c-11.86,14.52-17.78,28.54-17.78,42.06c0,14.03,6.42,25.55,19.28,34.57
					c12.85,9.01,29.37,13.52,49.58,13.52c7.01-0.17,14.02-0.75,21.04-1.76c24.53-4.34,46.12-12.44,64.74-24.29
					c18.6-11.86,34.55-25.46,47.82-40.81c13.26-15.37,24.04-30.55,32.29-45.58c8.27-15.03,14.36-27.93,18.29-38.69
					C369.58,380.11,371.54,373.81,371.54,371.98"/>
				<path class="st15" d="M477.97,398.02c1.5,0,2.25,0.34,2.25,1c0,0.34-0.42,0.79-1.26,1.38c-0.82,0.57-2.24,1.13-4.25,1.63
					c-2.01,0.5-4.84,0.74-8.51,0.74c-8.53,0-15.4-1.29-20.66-3.88c-5.26-2.58-9.06-4.88-11.39-6.88c-1.34-1.17-2.26-1.76-2.75-1.76
					l-0.38,0.38c-0.09,0.09-0.12,0.21-0.12,0.38c0.82,2.35,1.32,4.85,1.49,7.51c0,9.35-2.75,17.49-8.25,24.42
					c-5.51,6.93-10.86,10.38-16.03,10.38c-5.35,0-8.11-4.09-8.26-12.27c0.16-6.68,1.83-13.4,5.01-20.16
					c3.16-6.76,7.02-11.81,11.51-15.15c0-0.17,0.08-0.25,0.26-0.25c1-0.83,1.7-1.42,2.12-1.75c0.41-0.34,0.63-0.75,0.63-1.26v-0.24
					c0-0.33,0.04-0.88,0.12-1.62c0.09-0.75,0.3-1.42,0.62-2.01c0.34-0.58,0.85-0.88,1.5-0.88c1.84,0,4.59,1.85,8.27,5.51
					c3.67,3.34,8.47,6.89,14.41,10.65c5.92,3.76,13.06,5.64,21.41,5.64c4.01,0,6.84-0.34,8.51-1.01
					C475.55,398.19,476.79,398.02,477.97,398.02 M410.6,428.83c1.83,0,4.14-1.42,6.89-4.26c2.76-2.84,5.22-6.68,7.38-11.51
					c2.17-4.85,3.26-10.2,3.26-16.04v-1.25c0-0.83-0.17-1.79-0.51-2.87c-0.33-1.08-0.79-2.04-1.38-2.89
					c-0.58-0.83-1.45-1.25-2.63-1.25c-1.49,0-3.54,2.13-6.13,6.38c-2.59,4.27-4.88,9.11-6.89,14.53c-2,5.43-3,9.97-3,13.65
					C407.6,426.82,408.59,428.65,410.6,428.83"/>
				<path class="st15" d="M557.59,398.52c0.16,0,0.29,0.04,0.38,0.13c0.08,0.08,0.12,0.21,0.12,0.37c0,1.67-2.62,5.51-7.88,11.52
					c-5.26,6.02-11.76,12.52-19.53,19.53c-7.77,7.02-15.79,13.11-24.04,18.28c-8.27,5.17-15.49,7.77-21.66,7.77
					c-1.17,0-2.89-0.42-5.13-1.26c-2.25-0.83-4.34-3-6.26-6.51c-1.92-3.51-2.88-9.01-2.88-16.52c0-17.7,5.04-39.19,15.15-64.49
					c10.09-25.29,21.41-47.66,33.93-67.11c12.53-19.44,22.54-29.17,30.05-29.17c2.84,0,4.35,2.67,4.51,8.01
					c0,7.18-4.13,19.28-12.4,36.3c-8.26,17.03-17.61,33.65-28.04,49.84c-10.45,16.2-19.42,27.72-26.93,34.56
					c-2.33,2.34-4.34,7.09-6,14.27c-1.67,7.19-2.5,13.86-2.5,20.04v1.26c0,1.16,0.12,3,0.38,5.51c0.25,2.5,0.96,4.8,2.13,6.88
					c1.17,2.09,3,3.13,5.5,3.13c7.35,0,15.61-3.29,24.79-9.89c9.18-6.6,17.68-13.69,25.55-21.28c7.85-7.6,13.68-13.57,17.52-17.91
					C556.35,399.61,557.43,398.52,557.59,398.52 M486.23,395.77c0.51,0,2.08-1.67,4.75-5.02c3.5-4,9.9-13.1,19.15-27.29
					c9.26-14.19,18.12-29.5,26.55-45.95c8.42-16.44,12.64-29.18,12.64-38.18v-1.13c0-0.25-0.17-0.37-0.51-0.37
					c-3.83,0-9.22,5.3-16.15,15.9c-6.93,10.6-13.94,23.01-21.04,37.18c-7.1,14.2-13.15,27.51-18.16,39.95
					c-5.01,12.43-7.51,20.49-7.51,24.16v0.26v0.37C485.98,395.73,486.06,395.77,486.23,395.77"/>
				<path class="st15" d="M624.7,398.52h0.62c0.08,0,0.12,0.08,0.12,0.25c0,0.33-2.09,2.34-6.26,6.01
					c-4.18,3.66-9.39,7.8-15.66,12.39c-6.26,4.59-12.73,8.67-19.4,12.27c-6.68,3.58-12.43,5.38-17.28,5.38h-1.5
					c-1.5,0-2.84-0.17-4-0.5c-6.52-2.51-9.77-7.85-9.77-16.03c0-4.17,0.8-8.93,2.38-14.27c1.6-5.34,3.59-10.06,6.01-14.15
					c2.42-4.08,4.8-6.13,7.13-6.13c1.01,0.16,1.84,0.58,2.51,1.25c0.67,0.66,1,1.5,1,2.5c0,1.84-1.08,4.93-3.25,9.27
					c-1.51,3.33-3.01,6.96-4.52,10.89c-1.49,3.92-2.24,7.8-2.24,11.65c0,3.66,1.04,6.2,3.13,7.63c2.09,1.42,4.8,2.12,8.13,2.12
					c5.34,0,11.81-2.47,19.41-7.38c7.6-4.93,14.49-9.82,20.66-14.65C618.94,401.36,623.19,398.52,624.7,398.52"/>
			</g>
		</g>
		<g class="st10">
			<g>
				<path d="M570.49,358.29c0.02-0.01,0.04-0.01,0.06-0.02C570.53,358.27,570.51,358.28,570.49,358.29
					c0.02,0.05,0.03,0.09,0.04,0.14c0.42,1.84,1.38,3.33,2.87,4.49c0.33,0.25,0.71,0.4,1.01,0.69c0.24,0.07,0.48,0.25,0.76,0.16
					c0.02,0.01,0.02,0.02,0.03,0.04c0.06,0.03,0.03,0.09,0.04,0.14c0.04,0,0.09,0,0.13,0c1.4,0.46,2.8,0.41,4.18-0.04
					c0.01-0.07,0.04-0.09,0.09-0.04l0.01,0c0.93-0.23,1.78-0.65,2.55-1.23c0-0.14,0.11-0.12,0.19-0.16c0.05-0.02,0.1-0.04,0.14-0.07
					c0.16-0.12,0.32-0.22,0.45-0.35c2.9-2.47,3.74-5.71,3.49-9.36l0,0c0-0.87-0.09-1.73-0.19-2.58c-0.15-1.24-0.3-2.49-0.58-3.71
					h-0.01c0.03-0.1,0-0.2-0.05-0.3c-0.01-0.07-0.03-0.15-0.05-0.23c-0.05-0.43-0.1-0.85-0.29-1.25c0.01-0.02,0.01-0.03,0.01-0.05
					v0.01c-0.03-0.03-0.03-0.07,0-0.1l0-0.01c-0.14-0.04-0.14-0.12-0.06-0.22v-0.01c0-0.14-0.02-0.27-0.09-0.39
					c-0.06-0.03-0.04-0.08-0.03-0.13c-0.12-0.34-0.13-0.72-0.28-1.06c0.05-0.04,0.06-0.07,0.01-0.12c0.01,0-0.02,0-0.02,0
					c-0.13-0.12-0.11-0.25-0.07-0.39l0,0c-0.01-0.12-0.01-0.24-0.09-0.34v0.01c-0.06-0.02-0.04-0.06-0.02-0.09
					c-0.16-0.5-0.19-1.05-0.4-1.54c-0.07-0.14-0.07-0.14-0.3,0c-0.03,0.03-0.06,0.05-0.1,0.04l0,0c-1.58,0.6-2.94,1.55-4.27,2.57
					h0.01c-0.07,0.2-0.25,0.27-0.43,0.34l0.01-0.01c-0.19,0.08-0.33,0.23-0.49,0.36c-0.02,0.03-0.06,0.05-0.1,0.07
					c-0.06,0.06-0.12,0.12-0.18,0.17c-0.07,0.16-0.18,0.29-0.36,0.33v-0.01c-0.01,0.06-0.03,0.08-0.08,0.06
					c-0.11,0.05-0.21,0.13-0.27,0.24l0.01,0.01c-0.17,0.04-0.27,0.18-0.39,0.29c-1.17,1.03-2.29,2.13-3.42,3.21
					c-1.81,1.75-3.03,3.84-3.48,6.35c-0.23,1.28-0.28,2.57,0.02,3.85C570.47,358.16,570.48,358.22,570.49,358.29"/>
				<path d="M597.25,370.36L597.25,370.36c-0.04,0-0.07-0.02-0.08-0.06h0c-1.3-1.09-2.8-1.81-4.34-2.46l0,0
					c-0.16-0.12-0.33-0.18-0.51-0.21l0.01,0c-0.16-0.13-0.36-0.18-0.55-0.24c-0.04-0.02-0.08-0.04-0.12-0.06l-0.23-0.07
					c-0.19,0.01-0.35-0.02-0.47-0.16h0.01c-0.04,0.02-0.08,0.01-0.09-0.05v0.01c-0.1-0.07-0.21-0.13-0.33-0.12l-0.01,0.01
					c-0.12-0.13-0.29-0.14-0.45-0.2c-1.47-0.52-2.97-0.94-4.46-1.4c-2.41-0.72-4.81-0.76-7.21,0.09c-1.23,0.44-2.35,1.03-3.32,1.92
					c-0.05,0.05-0.1,0.09-0.15,0.13c-0.04,0.04-0.07,0.07-0.09,0.11c-1.39,1.28-2.2,2.86-2.47,4.73c-0.06,0.41,0,0.82-0.1,1.22
					c0.07,0.25,0.01,0.55,0.24,0.75c0,0.01-0.01,0.04-0.03,0.04c0,0.07-0.06,0.07-0.1,0.1c0.03,0.03,0.05,0.08,0.08,0.12
					c0.28,1.45,1.03,2.65,2.1,3.64c0,0,0,0,0,0v0c0.07-0.03,0.1-0.02,0.07,0.05v0c0.66,0.71,1.45,1.23,2.32,1.62
					c0.06,0.08,0.14,0.12,0.24,0.1c0.04,0.03,0.08,0.06,0.13,0.09c0.17,0.07,0.34,0.16,0.52,0.22c3.56,1.32,6.77,0.44,9.81-1.58l0,0
					c0.74-0.43,1.45-0.93,2.14-1.44c1-0.74,1.99-1.49,2.91-2.34c0-0.17,0.11-0.18,0.23-0.2c0,0.01,0,0,0,0.01
					c0.06-0.05,0.12-0.1,0.18-0.16c0.33-0.26,0.68-0.51,0.94-0.87c0.01-0.01,0.03-0.01,0.04-0.02v0c0.01-0.04,0.04-0.06,0.08-0.04
					l0.01,0c-0.04-0.15,0.04-0.19,0.16-0.16l0.01,0c0-0.2,0.14-0.23,0.29-0.26h-0.01c0-0.08,0.05-0.08,0.1-0.1
					c0.24-0.28,0.57-0.47,0.78-0.77c0.04-0.03,0.04-0.12,0.12-0.04l-0.01-0.02c0.03-0.17,0.16-0.23,0.3-0.27v0.01
					c0-0.17,0.11-0.2,0.24-0.24v0.01c-0.01-0.06,0.03-0.07,0.07-0.07c0.36-0.39,0.81-0.69,1.13-1.11c-0.03,0-0.03,0-0.06,0
					c-0.28,0.05-0.47,0.25-0.7,0.37c0.23-0.12,0.42-0.32,0.7-0.37c0.02,0,0.03,0,0.06,0C597.48,370.5,597.48,370.5,597.25,370.36"/>
				<path d="M572.34,369.45L572.34,369.45c-0.06-0.05-0.06-0.08,0.02-0.09l0,0c0.31-0.91,0.41-1.85,0.34-2.82
					c0.04-0.09,0.04-0.17-0.02-0.25l0.01-0.16c-0.01-0.19-0.01-0.38-0.04-0.57c-0.51-3.78-2.77-6.24-5.97-8l0.01,0
					c-0.72-0.47-1.49-0.86-2.27-1.24c-1.12-0.55-2.25-1.08-3.41-1.5v0c-0.07-0.08-0.17-0.11-0.28-0.12
					c-0.07-0.02-0.15-0.06-0.22-0.09c-0.39-0.18-0.77-0.37-1.2-0.43c-0.01-0.02-0.02-0.02-0.04-0.03h0.01
					c-0.05,0.01-0.07,0-0.08-0.05l-0.01-0.02c-0.12,0.1-0.18,0.06-0.22-0.07h-0.01c-0.12-0.08-0.24-0.13-0.37-0.14
					c-0.06,0.05-0.1-0.01-0.13-0.04c-0.35-0.08-0.68-0.28-1.05-0.33c-0.03-0.02-0.12,0.02-0.09-0.08l-0.01,0.02
					c-0.16,0.06-0.28-0.03-0.38-0.14h0.01c-0.14,0.08-0.24-0.01-0.33-0.11h0.01c-0.05,0.04-0.07,0.01-0.1-0.03
					c-0.51-0.13-0.98-0.39-1.5-0.48c-0.15-0.02-0.15-0.02-0.16,0.25c0.02,0.04,0.02,0.07-0.01,0.09c-0.35,1.66-0.29,3.34-0.15,5l0,0
					c-0.02,0.19,0,0.38,0.05,0.56c0-0.01,0-0.01,0-0.01c-0.04,0.2,0.01,0.4,0.04,0.6c0.01,0.05,0.01,0.08,0.01,0.13
					c0.01,0.08,0.02,0.16,0.04,0.24c0.09,0.15,0.14,0.31,0.08,0.49l-0.01-0.01c0.04,0.03,0.06,0.06,0,0.1l0.01,0
					c-0.02,0.12-0.01,0.25,0.05,0.36h0.01c-0.06,0.17,0.01,0.33,0.03,0.49c0.23,1.55,0.55,3.08,0.85,4.62
					c0.48,2.49,1.57,4.65,3.44,6.38c0.96,0.88,2.01,1.62,3.25,2.06c0.06,0.03,0.12,0.05,0.18,0.07c0-0.02,0-0.04,0.01-0.07
					c-0.01,0.02-0.01,0.04-0.01,0.07c0.04,0.02,0.09,0.02,0.14,0.04c1.77,0.63,3.54,0.62,5.3-0.01c0.39-0.14,0.72-0.39,1.13-0.48
					c0.19-0.17,0.47-0.27,0.55-0.56c0.02-0.01,0.04-0.01,0.06,0c0.06-0.04,0.09,0.02,0.13,0.05c0.03-0.04,0.05-0.09,0.07-0.13v0.01
					C571.26,372.09,571.96,370.87,572.34,369.45 M572.53,365.82c-0.05,0.03-0.1,0.05-0.16,0.01
					C572.44,365.87,572.48,365.85,572.53,365.82c0.01,0.04,0.04,0.07,0.06,0.1C572.57,365.89,572.55,365.86,572.53,365.82"/>
			</g>
		</g>
	</g>
	<g>
		<path class="st1" d="M575.08,363.99c-0.05,0-0.1,0.01-0.14,0.01c0-0.04,0.02-0.09-0.03-0.13c-0.01-0.02-0.01-0.04-0.03-0.04
			c-0.14-0.7-0.39-1.36-0.61-2.04c-0.17-0.57-0.29-1.14-0.55-1.68c0.01-0.03,0.03-0.07,0.05-0.11c0.13,0.04,0.22-0.06,0.31-0.12
			c0.71-0.49,1.4-1,2.11-1.5c0.38-0.27,0.73-0.59,1.17-0.79l0.02,0.01l0.03,0.01c0.34,1.37,0.69,2.74,1.03,4.11
			c0.06,0.23,0.1,0.31,0.33,0.14c1.08-0.86,2.14-1.75,3.2-2.64c0.02,0.01,0.03,0.02,0.05,0.02c-0.03,0.96-0.01,1.93,0.02,2.89
			c0.01,0.06,0.04,0.09,0.1,0.12c-0.06,0.09-0.16,0.17-0.16,0.29c-0.04,0.02-0.09,0.05-0.13,0.07c-0.09,0.03-0.2,0.01-0.2,0.15
			c-0.06-0.07-0.12-0.02-0.17,0c-0.72,0.33-1.42,0.67-2.13,1.01c-0.06,0.03-0.17,0.04-0.14,0.17c-0.06-0.05-0.08-0.03-0.09,0.03
			c-0.14-0.03-0.24-0.07-0.27-0.27c-0.05-0.46-0.16-0.91-0.23-1.37c-0.03-0.24-0.11-0.23-0.29-0.13c-0.48,0.27-0.97,0.52-1.45,0.78
			C576.27,363.33,575.63,363.6,575.08,363.99L575.08,363.99z"/>
		<path class="st2" d="M578,344.67c0.06-0.05,0.12-0.11,0.18-0.16c0.02,0.02,0.06,0.02,0.1,0.03c-0.27,0.64-0.54,1.28-0.74,1.79
			c0.4-0.63,0.72-1.47,1.19-2.23l-0.01,0c0.17-0.07,0.36-0.13,0.42-0.33l0,0.01c0.14,0.03,0.23-0.07,0.32-0.13
			c0.84-0.51,1.68-1.01,2.52-1.52c0.43-0.26,0.88-0.5,1.27-0.82v0.01c0.04,0.01,0.07-0.01,0.09-0.05h-0.01c0,0.3-0.3,0.45-0.36,0.72
			c-0.02,0.05-0.04,0.11-0.07,0.14c-0.51,0.6-0.99,1.22-1.41,1.87c-0.27,0.41-0.61,0.75-0.83,1.18c-0.35,0.12-0.57,0.42-0.84,0.66
			c-1.17,1.08-2.34,2.16-3.52,3.22c-0.15,0.14-0.21,0.33-0.39,0.43c-0.77,0.41-1.53,0.86-2.31,1.24c-0.3,0.14-0.56,0.41-0.94,0.38
			c0.22-0.52,0.42-1.05,0.67-1.55c0.22-0.41,0.33-0.86,0.7-1.19c0.87-0.78,1.73-1.57,2.57-2.38c0.24-0.23,0.57-0.39,0.71-0.74
			l0-0.01c0.19,0.04,0.23-0.1,0.26-0.23v0c0.05,0.02,0.07,0,0.08-0.06l-0.01,0.01C577.83,344.94,577.94,344.83,578,344.67"/>
		<path class="st2" d="M584.21,343.64c0.15,0.32,0.16,0.68,0.27,1.02c-0.01,0.05-0.03,0.1,0.03,0.13c-0.04,0.14-0.08,0.27,0.09,0.36
			v0.01c-0.09,0.09-0.09,0.17,0.06,0.21l-0.01,0.02c-0.04,0.02-0.04,0.06,0,0.09l0-0.01c0,0.01,0,0.03,0,0.05
			c0.18,0.38,0.22,0.79,0.28,1.19c-0.02,0.09-0.1,0.18,0.04,0.23v0c-0.04,0.11-0.09,0.21,0.05,0.29h0.01
			c-0.1,0.09-0.04,0.2-0.03,0.3c0.16,1.27,0.32,2.54,0.49,3.81c0.09,0.64,0.11,1.28,0.28,1.91v-0.01c-0.03,0.07-0.05,0.14-0.07,0.22
			c-0.27,0.87-0.49,1.75-0.81,2.61c-0.27-0.67-0.42-1.37-0.65-2.05c-0.14-0.45-0.2-0.92-0.42-1.35c-0.08-1.39-0.17-2.79-0.26-4.18
			c-0.05-0.71-0.05-1.42-0.16-2.12c0.01-0.06,0.03-0.1,0.03-0.16c0.07-1.37,0.11-2.74,0.17-4.12c0.01-0.26-0.06-0.52,0.03-0.77
			c0.01-0.02,0.01-0.03,0.02-0.04c0.21,0.47,0.24,0.99,0.39,1.47c-0.01,0.04-0.03,0.08,0.02,0.1v-0.01
			c-0.02,0.12-0.05,0.24,0.08,0.32v-0.01c-0.03,0.14-0.05,0.28,0.08,0.38l0.02,0C584.13,343.55,584.21,343.6,584.21,343.64"/>
		<path class="st3" d="M573.72,360.12c0.25,0.54,0.38,1.12,0.56,1.68c0.2,0.67,0.46,1.34,0.6,2.04c-0.28,0.09-0.49-0.09-0.74-0.16
			c-0.29-0.28-0.66-0.43-0.97-0.66c-1.43-1.11-2.35-2.54-2.76-4.3l0.03-0.02c0.1,0.07,0.17,0.17,0.22,0.28
			c0.36,0.77,0.72,1.55,1.08,2.32c0.14,0.31,0.16,0.3,0.44,0.08C572.68,360.95,573.16,360.48,573.72,360.12"/>
		<path class="st3" d="M577.33,345.27c-0.13,0.34-0.46,0.51-0.71,0.74c-0.84,0.81-1.7,1.6-2.57,2.38c-0.37,0.33-0.49,0.78-0.7,1.19
			c-0.25,0.5-0.45,1.03-0.67,1.55c-0.57,0.78-1.15,1.56-1.72,2.35c-0.14,0.2-0.31,0.41-0.33,0.69c-0.03,0.63-0.07,1.27-0.12,1.91
			c-0.05,0.77-0.11,1.54-0.17,2.31l-0.01,0.01c-0.29-1.23-0.25-2.46-0.03-3.69c0.43-2.4,1.61-4.4,3.36-6.08
			c1.08-1.03,2.15-2.09,3.28-3.07C577.06,345.45,577.16,345.31,577.33,345.27"/>
		<path class="st3" d="M575.07,363.99c0.56-0.4,1.2-0.67,1.79-1.02c0.48-0.27,0.97-0.52,1.45-0.78c0.18-0.1,0.26-0.11,0.29,0.13
			c0.07,0.46,0.17,0.91,0.23,1.37c0.03,0.2,0.13,0.24,0.27,0.27C577.76,364.39,576.42,364.45,575.07,363.99"/>
		<path class="st3" d="M584.88,356.07c0.31-0.86,0.54-1.74,0.8-2.61c0.02-0.07,0.05-0.14,0.07-0.22c0.24,3.5-0.56,6.61-3.36,8.97
			c-0.13,0.12-0.29,0.22-0.43,0.33c0.01-0.12,0.1-0.19,0.16-0.29c0.03-0.01,0.06-0.01,0.08-0.04c0.73-0.81,1.45-1.63,2.17-2.44
			c0.08-0.09,0.07-0.19,0.09-0.3c0.12-1.05,0.23-2.1,0.36-3.15C584.89,356.24,584.89,356.16,584.88,356.07"/>
		<path class="st3" d="M585.76,353.25c-0.16-0.63-0.19-1.27-0.28-1.91c-0.17-1.27-0.33-2.54-0.49-3.81c-0.01-0.1-0.07-0.21,0.03-0.3
			c0.27,1.16,0.41,2.35,0.56,3.54C585.68,351.59,585.76,352.42,585.76,353.25"/>
		<path class="st3" d="M583.26,341.31c-0.39,0.33-0.84,0.56-1.27,0.82c-0.84,0.51-1.68,1.02-2.52,1.52
			c-0.1,0.06-0.19,0.16-0.32,0.12C580.42,342.8,581.74,341.88,583.26,341.31"/>
		<path class="st3" d="M579.19,363.93c-0.04-0.13,0.09-0.14,0.15-0.17c0.71-0.33,1.41-0.67,2.13-1c0.04-0.02,0.1-0.07,0.17,0
			C580.9,363.31,580.09,363.71,579.19,363.93"/>
		<path class="st4" d="M578.74,344.1c-0.47,0.76-0.79,1.6-1.19,2.23c0.2-0.51,0.47-1.14,0.74-1.78h-0.01c0.05,0,0.06-0.02,0.03-0.07
			c0-0.02-0.01-0.03-0.01-0.04C578.42,344.31,578.55,344.17,578.74,344.1"/>
		<path class="st4" d="M583.64,341.28c-0.01,0.01-0.02,0.02-0.03,0.04c-0.29,0.15-0.35,0.5-0.62,0.68c0.05-0.28,0.35-0.43,0.36-0.72
			C583.57,341.14,583.57,341.14,583.64,341.28"/>
		<path class="st3" d="M579.15,343.78c-0.07,0.2-0.25,0.26-0.43,0.32C578.85,343.96,578.98,343.85,579.15,343.78"/>
		<path class="st3" d="M578,344.67c-0.06,0.16-0.17,0.27-0.35,0.32C577.72,344.83,577.87,344.76,578,344.67"/>
		<path class="st3" d="M584.21,343.52c-0.13-0.11-0.11-0.24-0.08-0.38C584.18,343.27,584.23,343.39,584.21,343.52"/>
		<path class="st4" d="M584.6,345.15c-0.16-0.09-0.13-0.23-0.09-0.36C584.58,344.89,584.6,345.02,584.6,345.15"/>
		<path class="st3" d="M584.13,343.15c-0.13-0.08-0.11-0.2-0.08-0.32C584.12,342.93,584.13,343.04,584.13,343.15"/>
		<path class="st3" d="M577.58,345.03c-0.04,0.13-0.07,0.27-0.26,0.23C577.38,345.15,577.47,345.08,577.58,345.03"/>
		<path class="st3" d="M585.01,347.23c-0.14-0.08-0.09-0.19-0.05-0.29C585.01,347.03,585.04,347.12,585.01,347.23"/>
		<path class="st4" d="M584.66,345.37c-0.14-0.04-0.14-0.12-0.06-0.21C584.62,345.23,584.64,345.3,584.66,345.37"/>
		<path class="st3" d="M584.97,346.94c-0.14-0.05-0.06-0.14-0.04-0.23C584.94,346.79,584.95,346.87,584.97,346.94"/>
		<path class="st3" d="M581.64,362.75c0-0.14,0.11-0.12,0.2-0.15C581.8,362.7,581.73,362.74,581.64,362.75"/>
		<path class="st3" d="M584.21,343.64c0-0.03-0.08-0.09,0.02-0.12C584.27,343.57,584.26,343.6,584.21,343.64"/>
		<path class="st3" d="M570.36,358.58c-0.01-0.06-0.02-0.13-0.03-0.19l0.01,0c0.03,0.06,0.05,0.12,0.07,0.17
			C570.39,358.56,570.38,358.57,570.36,358.58"/>
		<path class="st4" d="M578.28,344.54c-0.03-0.01-0.07-0.02-0.09-0.03c0.02-0.03,0.06-0.04,0.09-0.07c0.01,0.02,0.01,0.04,0.02,0.05
			C578.29,344.51,578.28,344.53,578.28,344.54z"/>
		<path class="st3" d="M570.4,358.71l-0.04-0.13c0.02-0.01,0.04-0.02,0.06-0.03c0.03,0.04,0.03,0.1,0.01,0.14L570.4,358.71z"/>
		<path class="st4" d="M584.52,344.78c-0.07-0.02-0.04-0.08-0.03-0.12C584.52,344.69,584.54,344.73,584.52,344.78"/>
		<path class="st3" d="M584.06,342.84c-0.06-0.02-0.05-0.06-0.03-0.09C584.06,342.77,584.07,342.8,584.06,342.84"/>
		<path class="st3" d="M577.66,344.98c-0.01,0.06-0.03,0.08-0.08,0.06C577.59,344.99,577.6,344.95,577.66,344.98"/>
		<path class="st4" d="M584.64,345.52c0-0.01,0-0.03,0-0.05C584.67,345.49,584.66,345.51,584.64,345.52"/>
		<path class="st4" d="M584.65,345.47c-0.03-0.03-0.04-0.06,0-0.09C584.68,345.41,584.68,345.45,584.65,345.47"/>
		<path class="st3" d="M579.1,363.96c0-0.07,0.03-0.08,0.09-0.03C579.17,363.98,579.14,363.98,579.1,363.96"/>
		<path class="st3" d="M583.35,341.27c-0.02,0.04-0.05,0.06-0.09,0.04C583.27,341.27,583.3,341.26,583.35,341.27"/>
		<path class="st3" d="M574.9,363.88c0.05,0.03,0.03,0.09,0.03,0.13C574.89,363.97,574.89,363.92,574.9,363.88"/>
		<path class="st4" d="M570.43,358.7c0.01-0.05,0.01-0.1-0.01-0.15c-0.03-0.05-0.05-0.11-0.07-0.17c0.06-0.77,0.12-1.54,0.17-2.31
			c0.04-0.64,0.09-1.27,0.12-1.91c0.01-0.28,0.18-0.49,0.33-0.69c0.56-0.79,1.14-1.57,1.72-2.35c0.38,0.03,0.65-0.24,0.94-0.39
			c0.79-0.38,1.54-0.83,2.31-1.24c0.19-0.1,0.24-0.29,0.38-0.43c1.18-1.06,2.36-2.14,3.53-3.22c0.27-0.24,0.49-0.53,0.84-0.65
			c-0.1,0.69-0.19,1.38-0.28,2.07c-0.16,1.25-0.31,2.5-0.47,3.74c0,0.05,0,0.09,0,0.14c-0.11-0.04-0.19,0.03-0.27,0.07
			c-0.38,0.17-0.75,0.34-1.1,0.53c-0.73,0.4-1.48,0.75-2.22,1.12c-0.16,0.08-0.21,0.2-0.21,0.36c-0.13-0.05-0.22,0.05-0.3,0.11
			c-0.86,0.65-1.72,1.32-2.6,1.96c-0.3,0.22-0.31,0.47-0.24,0.8c0.18,0.84,0.32,1.71,0.5,2.56c0.08,0.45,0.19,0.91,0.28,1.36
			c-0.02,0.04-0.03,0.07-0.05,0.11c-0.56,0.37-1.04,0.83-1.56,1.25c-0.28,0.23-0.3,0.24-0.44-0.07c-0.36-0.77-0.71-1.55-1.08-2.33
			C570.6,358.86,570.53,358.77,570.43,358.7"/>
		<path class="st3" d="M576.12,353.23c0-0.17,0.05-0.29,0.21-0.37c0.74-0.36,1.49-0.71,2.21-1.11c0.36-0.21,0.73-0.37,1.1-0.54
			c0.08-0.04,0.16-0.11,0.27-0.08c0.43,1.31,0.85,2.61,1.28,3.92l-0.04,0.1c-0.04,0.02-0.1,0.03-0.14,0.06
			c-1.21,0.8-2.41,1.61-3.61,2.41l-0.03-0.01c0,0-0.03-0.01-0.03,0C576.94,356.15,576.53,354.69,576.12,353.23"/>
		<path class="st5" d="M577.4,357.62c1.2-0.81,2.4-1.61,3.61-2.41c0.04-0.03,0.1-0.04,0.14-0.06c0,0.3,0.09,0.58,0.15,0.87
			c0.1,0.56,0.21,1.11,0.32,1.67c0.1,0.51,0.23,1.02,0.34,1.52c-1.06,0.89-2.12,1.79-3.2,2.64c-0.23,0.18-0.28,0.09-0.33-0.13
			C578.09,360.36,577.74,358.99,577.4,357.62"/>
		<path class="st2" d="M576.12,353.23c0.41,1.46,0.82,2.92,1.23,4.38c-0.43,0.2-0.78,0.51-1.16,0.78c-0.7,0.5-1.4,1-2.11,1.5
			c-0.09,0.06-0.18,0.16-0.31,0.12c-0.1-0.45-0.2-0.9-0.28-1.36c-0.18-0.85-0.32-1.71-0.5-2.56c-0.07-0.33-0.06-0.59,0.24-0.8
			c0.88-0.65,1.74-1.31,2.61-1.96C575.9,353.27,576,353.18,576.12,353.23"/>
		<path class="st6" d="M581.96,359.22c-0.12-0.5-0.24-1.01-0.34-1.52c-0.11-0.55-0.22-1.11-0.32-1.67
			c-0.05-0.29-0.15-0.58-0.14-0.88l0.04-0.1c0.04-0.02,0.09-0.03,0.12-0.06c0.78-0.69,1.56-1.38,2.34-2.08
			c0.07-0.07,0.12-0.16,0.16-0.25c0.22,0.43,0.27,0.91,0.42,1.35c0.22,0.68,0.37,1.38,0.65,2.05c0.01,0.09,0.01,0.17-0.05,0.25
			c-0.94,0.98-1.87,1.95-2.82,2.93C582,359.24,581.98,359.23,581.96,359.22"/>
		<path class="st2" d="M582.02,359.25c0.93-0.98,1.87-1.95,2.81-2.93c-0.12,1.04-0.25,2.1-0.36,3.15c-0.02,0.1-0.01,0.21-0.09,0.3
			c-0.73,0.81-1.46,1.63-2.18,2.44c-0.02,0.02-0.05,0.03-0.08,0.04c-0.05-0.03-0.1-0.06-0.1-0.12
			C582.01,361.17,581.98,360.21,582.02,359.25"/>
		<path class="st1" d="M579.92,351.01c0.16-1.25,0.31-2.5,0.48-3.74c0.09-0.7,0.18-1.39,0.28-2.09c0.23-0.43,0.56-0.77,0.83-1.17
			c0.42-0.66,0.91-1.28,1.41-1.88c0.03-0.03,0.04-0.09,0.07-0.14c0.27-0.17,0.33-0.53,0.62-0.67c-0.09,0.25-0.01,0.51-0.03,0.77
			c-0.06,1.37-0.11,2.75-0.17,4.12c0,0.06-0.02,0.11-0.03,0.16c-0.73,0.99-1.46,1.98-2.19,2.97
			C580.77,349.9,580.41,350.5,579.92,351.01"/>
		<path class="st7" d="M579.92,351.01c0.49-0.51,0.85-1.11,1.27-1.67c0.74-0.99,1.46-1.98,2.19-2.97c0.12,0.7,0.12,1.41,0.16,2.12
			c0.1,1.4,0.18,2.79,0.26,4.17c-0.03,0.09-0.07,0.18-0.14,0.25c-0.78,0.69-1.56,1.38-2.34,2.08c-0.03,0.03-0.07,0.04-0.12,0.06
			c-0.42-1.3-0.85-2.61-1.28-3.91C579.92,351.1,579.92,351.05,579.92,351.01"/>
		<path class="st2" d="M578.27,344.55c0.01-0.02,0.02-0.04,0.03-0.07C578.33,344.53,578.32,344.55,578.27,344.55"/>
		<path class="st1" d="M572.28,374.18c-0.02-0.04-0.04-0.08-0.07-0.12c0.04-0.03,0.1-0.03,0.1-0.1c0.01-0.01,0.01-0.02,0.01-0.04
			c0.54-0.47,0.99-1.01,1.47-1.53c0.41-0.43,0.85-0.82,1.19-1.31c0.04-0.01,0.08-0.01,0.11-0.02c0.04,0.14,0.17,0.16,0.27,0.21
			c0.78,0.36,1.57,0.72,2.34,1.08c0.42,0.19,0.88,0.35,1.26,0.62l0.01,0.03l0,0.02c-1.02,0.98-2.04,1.95-3.06,2.93
			c-0.17,0.16-0.22,0.24,0.04,0.35c1.29,0.52,2.59,1,3.89,1.47c0,0.03,0.01,0.05,0.01,0.06c-0.85,0.46-1.68,0.95-2.5,1.45
			c-0.06,0.04-0.06,0.09-0.06,0.15c-0.11-0.01-0.22-0.05-0.33,0l-0.12-0.08c-0.06-0.06-0.11-0.17-0.23-0.09
			c0.03-0.09-0.04-0.12-0.08-0.16c-0.65-0.45-1.29-0.9-1.93-1.35c-0.06-0.03-0.13-0.14-0.22-0.05c0.01-0.07-0.02-0.09-0.08-0.06
			v0.01c-0.03-0.14-0.05-0.25,0.1-0.37c0.37-0.27,0.71-0.59,1.08-0.87c0.19-0.14,0.15-0.21-0.03-0.32c-0.47-0.28-0.93-0.59-1.4-0.87
			C573.46,374.88,572.9,374.46,572.28,374.18L572.28,374.18z"/>
		<path class="st2" d="M590.53,367.17c0.08,0.03,0.15,0.05,0.22,0.07c0.01,0.03,0.01,0.07,0.02,0.1c-0.68,0.09-1.36,0.18-1.91,0.24
			c0.75,0.04,1.64-0.1,2.53-0.07l-0.01-0.01c0.14,0.12,0.28,0.24,0.49,0.2h-0.01c0.04,0.13,0.17,0.16,0.27,0.22
			c0.85,0.49,1.72,0.97,2.57,1.45c0.44,0.24,0.86,0.52,1.34,0.7l-0.01,0c0.01,0.05,0.04,0.06,0.09,0.06l0,0
			c-0.26,0.14-0.54-0.05-0.81,0.05c-0.06,0-0.11,0.02-0.17,0.01c-0.77-0.15-1.54-0.25-2.33-0.3c-0.48-0.03-0.95-0.15-1.43-0.13
			c-0.28-0.24-0.65-0.3-0.98-0.41c-1.52-0.48-3.04-0.97-4.55-1.47c-0.19-0.06-0.38-0.01-0.56-0.12c-0.74-0.46-1.5-0.9-2.22-1.4
			c-0.27-0.18-0.64-0.28-0.8-0.62c0.56-0.06,1.12-0.16,1.68-0.19c0.46-0.01,0.92-0.13,1.39,0.03c1.1,0.37,2.21,0.73,3.34,1.06
			c0.32,0.09,0.62,0.31,0.99,0.25l0.01-0.01c0.04,0.19,0.19,0.14,0.33,0.12h-0.01c0.01,0.06,0.04,0.06,0.09,0.04h-0.01
			C590.21,367.16,590.36,367.19,590.53,367.17"/>
		<path class="st2" d="M594.5,372.06c-0.21,0.29-0.52,0.47-0.76,0.74c-0.04,0.02-0.1,0.02-0.09,0.09c-0.14,0.04-0.27,0.07-0.27,0.25
			l-0.01,0.01c-0.13-0.03-0.19,0.01-0.16,0.15h-0.01c-0.04-0.02-0.07,0-0.08,0.05l0,0c-0.01,0-0.03,0.01-0.04,0.01
			c-0.24,0.34-0.57,0.59-0.9,0.83c-0.08,0.03-0.2,0-0.18,0.15l0,0c-0.11,0.02-0.23,0.03-0.22,0.19l0,0
			c-0.13-0.04-0.19,0.06-0.27,0.12c-1.03,0.77-2.06,1.53-3.08,2.3c-0.51,0.4-1.05,0.75-1.52,1.19c-0.07,0.01-0.14,0.02-0.22,0.03
			c-0.89,0.2-1.77,0.45-2.67,0.59c0.45-0.56,0.98-1.04,1.47-1.57c0.32-0.35,0.7-0.64,0.96-1.03c1.17-0.77,2.34-1.52,3.5-2.3
			c0.59-0.39,1.21-0.74,1.76-1.2c0.05-0.01,0.11-0.02,0.16-0.04c1.22-0.63,2.44-1.26,3.67-1.89c0.23-0.11,0.42-0.3,0.69-0.35
			c0.01-0.01,0.03-0.01,0.04,0c-0.31,0.41-0.74,0.69-1.08,1.06c-0.04,0-0.08,0.01-0.07,0.07v0c-0.11,0.03-0.23,0.07-0.23,0.23
			l0.01,0c-0.14,0.05-0.26,0.1-0.3,0.26l0.02,0.01C594.53,371.94,594.53,372.03,594.5,372.06"/>
		<path class="st3" d="M574.99,371.09c-0.34,0.48-0.78,0.87-1.19,1.31c-0.49,0.51-0.93,1.06-1.47,1.53
			c-0.21-0.2-0.17-0.48-0.23-0.72c0.1-0.39,0.04-0.79,0.1-1.18c0.25-1.79,1.04-3.3,2.37-4.52l0.03,0.01
			c-0.01,0.13-0.06,0.23-0.13,0.33c-0.49,0.68-0.99,1.38-1.48,2.07c-0.21,0.28-0.19,0.29,0.15,0.42
			C573.76,370.59,574.39,370.78,574.99,371.09"/>
		<path class="st3" d="M589.68,366.88c-0.36,0.06-0.67-0.16-0.99-0.25c-1.12-0.33-2.24-0.69-3.34-1.06
			c-0.46-0.16-0.92-0.04-1.38-0.03c-0.57,0.03-1.12,0.13-1.68,0.19c-0.96-0.11-1.93-0.23-2.89-0.33c-0.25-0.02-0.51-0.07-0.76,0.06
			c-0.57,0.28-1.15,0.56-1.72,0.84c-0.7,0.33-1.4,0.67-2.1,0.99l-0.01-0.01c0.93-0.86,2.02-1.42,3.2-1.85
			c2.31-0.81,4.63-0.78,6.95-0.08c1.44,0.43,2.87,0.84,4.29,1.34C589.4,366.74,589.56,366.75,589.68,366.88"/>
		<path class="st3" d="M572.28,374.17c0.62,0.29,1.18,0.71,1.77,1.06c0.47,0.28,0.93,0.59,1.4,0.87c0.18,0.1,0.22,0.17,0.03,0.32
			c-0.37,0.28-0.71,0.6-1.08,0.87c-0.16,0.11-0.14,0.22-0.1,0.37C573.27,376.71,572.56,375.57,572.28,374.17"/>
		<path class="st3" d="M584.03,378.78c0.9-0.14,1.78-0.39,2.66-0.59c0.08-0.01,0.16-0.02,0.22-0.03c-2.91,1.94-6.01,2.77-9.44,1.52
			c-0.18-0.06-0.34-0.15-0.51-0.22c0.1-0.05,0.22-0.01,0.33,0c0.03,0.02,0.05,0.04,0.08,0.05c1.07,0.23,2.13,0.45,3.19,0.68
			c0.12,0.02,0.21-0.02,0.3-0.07l2.92-1.24C583.88,378.88,583.95,378.84,584.03,378.78"/>
		<path class="st3" d="M586.91,378.15c0.46-0.44,1.01-0.8,1.52-1.19c1.02-0.77,2.05-1.53,3.07-2.3c0.08-0.07,0.16-0.16,0.27-0.14
			c-0.88,0.82-1.83,1.53-2.8,2.25C588.31,377.26,587.64,377.74,586.91,378.15"/>
		<path class="st3" d="M596.05,370.09c-0.48-0.18-0.91-0.46-1.34-0.7c-0.86-0.48-1.72-0.96-2.57-1.45c-0.1-0.05-0.23-0.08-0.27-0.22
			C593.36,368.35,594.8,369.04,596.05,370.09"/>
		<path class="st3" d="M574.38,377.72c0.09-0.09,0.16,0.01,0.22,0.04c0.64,0.45,1.28,0.9,1.92,1.35c0.04,0.04,0.13,0.07,0.09,0.16
			C575.76,378.9,575.01,378.39,574.38,377.72"/>
		<path class="st4" d="M591.4,367.53c-0.89-0.04-1.78,0.1-2.53,0.06c0.55-0.06,1.23-0.16,1.91-0.24c0.03,0.05,0.05,0.05,0.07-0.01
			c0.01-0.01,0.02-0.03,0.03-0.04C591.05,367.35,591.24,367.41,591.4,367.53"/>
		<path class="st4" d="M596.27,370.39c-0.01,0-0.03,0-0.06,0c-0.27-0.19-0.61-0.07-0.89-0.22c0.26-0.09,0.54,0.1,0.8-0.04
			C596.35,370.27,596.35,370.27,596.27,370.39"/>
		<path class="st3" d="M591.88,367.73c-0.21,0.04-0.35-0.09-0.49-0.21C591.57,367.56,591.73,367.62,591.88,367.73"/>
		<path class="st3" d="M590.53,367.17c-0.17,0.02-0.33-0.01-0.45-0.15C590.26,367.01,590.39,367.1,590.53,367.17"/>
		<path class="st3" d="M594.6,372c0.03-0.16,0.15-0.22,0.29-0.26C594.81,371.85,594.73,371.96,594.6,372"/>
		<path class="st4" d="M593.38,373.14c0-0.18,0.13-0.21,0.27-0.25C593.59,373,593.49,373.08,593.38,373.14"/>
		<path class="st3" d="M594.88,371.75c0-0.15,0.12-0.19,0.23-0.23C595.07,371.62,594.98,371.68,594.88,371.75"/>
		<path class="st3" d="M590.01,366.98c-0.13,0.02-0.27,0.07-0.33-0.12C589.81,366.86,589.91,366.91,590.01,366.98"/>
		<path class="st3" d="M591.77,374.54c-0.01-0.17,0.12-0.17,0.22-0.19C591.95,374.43,591.88,374.5,591.77,374.54"/>
		<path class="st4" d="M593.22,373.3c-0.04-0.14,0.03-0.17,0.16-0.15L593.22,373.3z"/>
		<path class="st3" d="M592,374.34c-0.02-0.15,0.1-0.13,0.18-0.15C592.12,374.25,592.06,374.3,592,374.34"/>
		<path class="st3" d="M576.61,379.27c0.12-0.07,0.16,0.03,0.22,0.09C576.74,379.38,576.66,379.34,576.61,379.27"/>
		<path class="st3" d="M594.5,372.06c0.03-0.03,0.03-0.12,0.11-0.05C594.59,372.07,594.55,372.08,594.5,372.06"/>
		<path class="st3" d="M574.66,367.4c0.06-0.04,0.11-0.09,0.15-0.13l0.01,0.01l-0.11,0.14C574.7,367.43,574.68,367.41,574.66,367.4"
			/>
		<path class="st4" d="M590.78,367.35c-0.01-0.03-0.01-0.07-0.02-0.09l0.11,0.04c-0.01,0.02-0.02,0.03-0.03,0.04
			C590.81,367.34,590.79,367.34,590.78,367.35z"/>
		<path class="st3" d="M574.57,367.5l0.09-0.1c0.02,0.01,0.04,0.02,0.06,0.04c-0.02,0.05-0.06,0.07-0.12,0.08L574.57,367.5z"/>
		<path class="st4" d="M593.65,372.89c-0.01-0.07,0.05-0.07,0.09-0.09C593.74,372.85,593.71,372.88,593.65,372.89"/>
		<path class="st3" d="M595.12,371.52c-0.01-0.06,0.02-0.07,0.07-0.07C595.18,371.5,595.16,371.52,595.12,371.52"/>
		<path class="st3" d="M590.1,367.03c-0.04,0.02-0.08,0.01-0.09-0.04C590.04,366.98,590.09,366.96,590.1,367.03"/>
		<path class="st4" d="M593.08,373.36c0.01,0,0.03-0.01,0.04-0.02C593.11,373.37,593.1,373.37,593.08,373.36"/>
		<path class="st4" d="M593.12,373.35c0.01-0.05,0.04-0.07,0.08-0.05C593.19,373.34,593.16,373.36,593.12,373.35"/>
		<path class="st3" d="M574.3,377.66c0.06-0.03,0.1-0.01,0.08,0.06C574.33,377.73,574.31,377.7,574.3,377.66"/>
		<path class="st3" d="M596.14,370.13c-0.05,0-0.08-0.01-0.09-0.06C596.1,370.07,596.12,370.09,596.14,370.13"/>
		<path class="st3" d="M572.31,373.97c0,0.06-0.07,0.07-0.1,0.09C572.22,373.99,572.25,373.98,572.31,373.97"/>
		<path class="st4" d="M574.6,367.52c0.05-0.01,0.1-0.02,0.12-0.09l0.11-0.14c0.7-0.33,1.4-0.66,2.1-0.99
			c0.57-0.27,1.14-0.55,1.71-0.84c0.25-0.13,0.51-0.09,0.77-0.06c0.97,0.1,1.93,0.22,2.89,0.33c0.17,0.34,0.53,0.44,0.81,0.62
			c0.71,0.5,1.47,0.94,2.21,1.4c0.17,0.11,0.38,0.06,0.56,0.12c1.51,0.5,3.04,0.98,4.55,1.47c0.34,0.1,0.7,0.16,0.98,0.4
			c-0.65,0.26-1.29,0.52-1.94,0.78c-1.16,0.48-2.33,0.96-3.49,1.44c-0.04,0.02-0.08,0.04-0.12,0.07c-0.02-0.11-0.12-0.15-0.2-0.2
			c-0.33-0.23-0.66-0.48-1.01-0.69c-0.71-0.43-1.38-0.91-2.06-1.37c-0.14-0.09-0.28-0.09-0.42,0c-0.02-0.13-0.14-0.16-0.23-0.2
			c-1-0.44-2-0.86-2.99-1.3c-0.34-0.15-0.56-0.04-0.81,0.18c-0.65,0.58-1.32,1.13-1.98,1.7c-0.35,0.3-0.7,0.61-1.05,0.92
			c-0.03,0-0.07,0.01-0.11,0.02c-0.59-0.31-1.23-0.5-1.85-0.74c-0.34-0.14-0.36-0.15-0.16-0.43c0.51-0.69,0.99-1.39,1.49-2.07
			C574.53,367.75,574.58,367.65,574.6,367.52"/>
		<path class="st3" d="M582.17,369.77c0.13-0.09,0.27-0.09,0.41,0c0.69,0.46,1.37,0.94,2.07,1.37c0.35,0.22,0.68,0.46,1.01,0.69
			c0.07,0.05,0.18,0.09,0.2,0.2c-0.92,1.02-1.84,2.03-2.76,3.05c-0.04,0-0.07,0.01-0.1,0.01c-0.04-0.02-0.09-0.07-0.13-0.09
			c-1.3-0.65-2.59-1.3-3.89-1.95v-0.02v-0.03C580.04,371.92,581.1,370.84,582.17,369.77"/>
		<path class="st5" d="M578.98,373.04c1.29,0.65,2.58,1.3,3.88,1.95c0.04,0.02,0.08,0.07,0.13,0.1c-0.27,0.14-0.48,0.37-0.7,0.55
			c-0.43,0.37-0.87,0.74-1.3,1.1c-0.38,0.35-0.77,0.7-1.16,1.05c-1.3-0.47-2.59-0.95-3.88-1.47c-0.26-0.11-0.22-0.19-0.04-0.35
			C576.94,375,577.96,374.02,578.98,373.04"/>
		<path class="st2" d="M582.17,369.77c-1.07,1.07-2.13,2.15-3.19,3.22c-0.39-0.28-0.84-0.43-1.27-0.62
			c-0.77-0.37-1.56-0.72-2.33-1.08c-0.1-0.05-0.23-0.08-0.27-0.21c0.34-0.31,0.69-0.62,1.04-0.92c0.65-0.57,1.33-1.13,1.98-1.7
			c0.25-0.22,0.47-0.33,0.81-0.18c0.99,0.44,2,0.86,2.99,1.3C582.02,369.6,582.14,369.63,582.17,369.77"/>
		<path class="st6" d="M579.84,377.8c0.39-0.35,0.77-0.7,1.16-1.04c0.43-0.37,0.87-0.74,1.29-1.1c0.23-0.19,0.43-0.42,0.7-0.56
			c0.03,0,0.07-0.01,0.1-0.01c0.04,0.03,0.07,0.05,0.11,0.07c0.99,0.33,1.99,0.66,2.97,1.01c0.1,0.03,0.19,0.03,0.29,0.01
			c-0.26,0.4-0.65,0.68-0.96,1.03c-0.48,0.53-1.03,1.01-1.47,1.57c-0.07,0.06-0.15,0.1-0.24,0.09c-1.31-0.32-2.63-0.67-3.94-1
			C579.84,377.84,579.84,377.83,579.84,377.8"/>
		<path class="st2" d="M579.84,377.86c1.31,0.33,2.63,0.66,3.94,1l-2.91,1.24c-0.1,0.05-0.19,0.1-0.3,0.07
			c-1.07-0.22-2.13-0.45-3.19-0.68c-0.03,0-0.06-0.03-0.08-0.05c0-0.06,0.01-0.11,0.06-0.15
			C578.17,378.81,578.99,378.32,579.84,377.86"/>
		<path class="st1" d="M585.97,371.97c1.17-0.48,2.33-0.96,3.49-1.44c0.65-0.26,1.29-0.52,1.94-0.78c0.49-0.02,0.96,0.1,1.43,0.13
			c0.79,0.05,1.56,0.16,2.33,0.3c0.06,0.01,0.11-0.01,0.17-0.02c0.28,0.15,0.62,0.03,0.89,0.21c-0.26,0.05-0.45,0.24-0.68,0.35
			c-1.23,0.63-2.44,1.27-3.67,1.89c-0.05,0.03-0.1,0.03-0.16,0.04c-1.22-0.14-2.44-0.27-3.66-0.43
			C587.35,372.16,586.66,372.14,585.97,371.97"/>
		<path class="st7" d="M585.97,371.97c0.69,0.17,1.39,0.19,2.08,0.28c1.22,0.15,2.44,0.29,3.66,0.43c-0.55,0.46-1.17,0.8-1.76,1.2
			c-1.16,0.77-2.33,1.53-3.5,2.3c-0.1,0.01-0.19,0.02-0.29-0.01c-0.99-0.34-1.98-0.67-2.97-1.01c-0.03-0.02-0.07-0.05-0.1-0.07
			c0.91-1.02,1.83-2.04,2.75-3.05C585.89,372.01,585.93,371.99,585.97,371.97"/>
		<path class="st2" d="M590.77,367.35c0.02,0,0.04-0.01,0.07-0.01C590.82,367.39,590.8,367.39,590.77,367.35"/>
		<path class="st1" d="M570,372.68c-0.02,0.04-0.05,0.09-0.07,0.12c-0.04-0.02-0.07-0.07-0.13-0.04c-0.02-0.01-0.04-0.01-0.06,0
			c-0.65-0.26-1.35-0.41-2.03-0.6c-0.57-0.15-1.13-0.36-1.71-0.44c-0.02-0.02-0.04-0.06-0.07-0.09c0.1-0.09,0.07-0.22,0.07-0.33
			c-0.04-0.86-0.09-1.72-0.13-2.58c-0.02-0.47-0.1-0.94-0.03-1.41l0.02-0.02l0.02-0.01c1.34,0.44,2.68,0.89,4.02,1.34
			c0.22,0.07,0.32,0.08,0.29-0.2c-0.14-1.38-0.32-2.75-0.5-4.12c0.01-0.01,0.04-0.03,0.04-0.04c0.8,0.55,1.63,1.04,2.45,1.54
			c0.05,0.03,0.1,0.01,0.15-0.01c0.04,0.1,0.06,0.22,0.16,0.29l-0.03,0.15c-0.01,0.08-0.09,0.17,0.03,0.24
			c-0.09,0.01-0.08,0.09-0.09,0.14c-0.11,0.79-0.2,1.55-0.29,2.34c-0.01,0.07-0.07,0.18,0.05,0.22c-0.07,0.01-0.07,0.05-0.01,0.09
			c-0.1,0.1-0.19,0.16-0.37,0.08c-0.41-0.2-0.85-0.35-1.27-0.55c-0.23-0.1-0.26-0.03-0.27,0.17c-0.03,0.55-0.1,1.1-0.12,1.65
			C570.08,371.31,569.96,371.99,570,372.68L570,372.68z"/>
		<path class="st2" d="M555.29,359.8c-0.01-0.08-0.03-0.15-0.04-0.23c0.03-0.02,0.05-0.04,0.07-0.06c0.4,0.57,0.79,1.13,1.11,1.58
			c-0.31-0.68-0.85-1.4-1.24-2.21v0.01c0.04-0.18,0.09-0.36-0.04-0.54v0.01c0.1-0.1,0.06-0.22,0.06-0.33
			c0.03-0.99,0.06-1.96,0.08-2.95c0.01-0.51,0.06-1.01-0.01-1.51v0.01c0.03-0.03,0.03-0.07,0.01-0.1c0.25,0.17,0.21,0.5,0.41,0.69
			c0.03,0.04,0.07,0.09,0.09,0.14c0.23,0.74,0.49,1.49,0.81,2.2c0.2,0.44,0.31,0.91,0.55,1.33c-0.08,0.36,0.04,0.7,0.1,1.06
			c0.28,1.57,0.56,3.14,0.82,4.71c0.03,0.2,0.17,0.35,0.16,0.56c-0.07,0.87-0.1,1.75-0.2,2.61c-0.04,0.34,0.04,0.7-0.19,1
			c-0.32-0.47-0.66-0.91-0.94-1.4c-0.23-0.39-0.55-0.75-0.63-1.24c-0.19-1.15-0.39-2.3-0.62-3.45c-0.07-0.33-0.02-0.7-0.24-0.99
			h-0.01c0.14-0.13,0.03-0.24-0.05-0.34v0.01c0.05-0.03,0.04-0.07,0-0.1l0,0.01C555.43,360.09,555.38,359.94,555.29,359.8"/>
		<path class="st2" d="M557.77,354.01c0.35,0.05,0.66,0.24,1,0.32c0.03,0.04,0.07,0.08,0.13,0.04h-0.01c0.1,0.1,0.2,0.2,0.36,0.11
			l0.01,0c0.03,0.12,0.1,0.17,0.21,0.07l0.01,0.02c0.01,0.04,0.03,0.07,0.08,0.05l0-0.01c0.01,0.02,0.02,0.03,0.03,0.04
			c0.42,0.05,0.79,0.24,1.16,0.4c0.06,0.07,0.09,0.18,0.22,0.09h-0.01c0.06,0.09,0.13,0.19,0.27,0.11v0
			c0.03,0.13,0.14,0.14,0.24,0.19c1.16,0.55,2.31,1.11,3.47,1.64c0.59,0.27,1.14,0.59,1.75,0.79c0.04,0.05,0.09,0.12,0.14,0.17
			c0.59,0.7,1.21,1.36,1.76,2.09c-0.71-0.12-1.38-0.38-2.08-0.56c-0.46-0.12-0.89-0.32-1.36-0.37c-1.22-0.67-2.44-1.35-3.66-2.02
			c-0.63-0.34-1.23-0.73-1.89-1c-0.03-0.04-0.07-0.09-0.11-0.12c-1.13-0.78-2.26-1.57-3.38-2.36c-0.21-0.15-0.47-0.23-0.63-0.44
			c-0.01-0.02-0.01-0.03-0.02-0.05c0.5,0.08,0.96,0.34,1.45,0.46c0.02,0.04,0.04,0.07,0.09,0.03h-0.01c0.09,0.09,0.18,0.18,0.32,0.1
			h0c0.09,0.11,0.2,0.19,0.36,0.14l0.01-0.01C557.65,354.03,557.73,353.99,557.77,354.01"/>
		<path class="st3" d="M566,371.73c0.59,0.08,1.14,0.29,1.71,0.44c0.68,0.19,1.38,0.33,2.03,0.59c-0.07,0.28-0.34,0.37-0.53,0.53
			c-0.39,0.09-0.71,0.34-1.08,0.46c-1.71,0.61-3.41,0.62-5.11,0.01l0.01-0.02c0.11-0.05,0.23-0.06,0.35-0.04
			c0.84,0.12,1.69,0.23,2.52,0.35c0.35,0.05,0.35,0.03,0.3-0.34C566.13,373.05,566,372.4,566,371.73"/>
		<path class="st3" d="M555.42,360.69c0.22,0.3,0.18,0.66,0.24,1c0.23,1.14,0.44,2.29,0.62,3.44c0.08,0.49,0.39,0.84,0.63,1.24
			c0.28,0.48,0.62,0.93,0.94,1.39c0.35,0.91,0.69,1.82,1.05,2.72c0.1,0.23,0.18,0.48,0.41,0.64c0.52,0.38,1.04,0.75,1.55,1.13
			c0.62,0.46,1.23,0.93,1.86,1.39l-0.01,0.02c-1.19-0.42-2.2-1.12-3.12-1.97c-1.8-1.66-2.84-3.73-3.31-6.11
			c-0.29-1.47-0.6-2.94-0.82-4.42C555.43,361.01,555.37,360.86,555.42,360.69"/>
		<path class="st3" d="M569.99,372.68c-0.04-0.69,0.09-1.37,0.11-2.07c0.02-0.55,0.09-1.1,0.12-1.64c0.01-0.2,0.04-0.28,0.27-0.18
			c0.42,0.19,0.86,0.35,1.27,0.55c0.18,0.08,0.27,0.02,0.37-0.07C571.77,370.63,571.1,371.79,569.99,372.68"/>
		<path class="st3" d="M568.59,360.15c-0.55-0.73-1.17-1.39-1.76-2.09c-0.06-0.05-0.1-0.11-0.14-0.17c3.08,1.68,5.26,4.03,5.75,7.64
			c0.03,0.19,0.03,0.37,0.04,0.55c-0.1-0.08-0.11-0.19-0.16-0.29c0.01-0.03,0.02-0.06,0.01-0.09c-0.29-1.05-0.59-2.1-0.89-3.15
			c-0.03-0.12-0.12-0.17-0.2-0.24c-0.82-0.67-1.64-1.33-2.47-2C568.75,360.23,568.68,360.18,568.59,360.15"/>
		<path class="st3" d="M566.69,357.89c-0.61-0.21-1.17-0.53-1.75-0.79c-1.16-0.54-2.31-1.09-3.47-1.65
			c-0.1-0.04-0.21-0.06-0.25-0.18c1.13,0.4,2.22,0.92,3.3,1.43C565.25,357.07,566,357.43,566.69,357.89"/>
		<path class="st3" d="M555.29,353.56c0.07,0.51,0.01,1.01,0.01,1.51c-0.02,0.98-0.05,1.96-0.08,2.94c0,0.12,0.04,0.24-0.06,0.34
			C555.01,356.75,554.96,355.15,555.29,353.56"/>
		<path class="st3" d="M572.15,369.18c-0.13-0.04-0.07-0.15-0.07-0.22c0.1-0.78,0.19-1.55,0.3-2.33c0.01-0.05,0-0.14,0.09-0.15
			C572.55,367.4,572.45,368.3,572.15,369.18"/>
		<path class="st4" d="M555.2,358.87c0.39,0.8,0.92,1.53,1.23,2.21c-0.31-0.45-0.71-1.01-1.11-1.58l0,0
			c0.03-0.04,0.01-0.06-0.03-0.05c-0.02-0.01-0.04-0.01-0.06-0.01C555.21,359.26,555.17,359.07,555.2,358.87"/>
		<path class="st4" d="M555.46,353.23c0.01,0.01,0.01,0.02,0.02,0.04c-0.04,0.33,0.23,0.58,0.23,0.89c-0.2-0.19-0.16-0.53-0.42-0.69
			C555.31,353.21,555.31,353.21,555.46,353.23"/>
		<path class="st3" d="M555.16,358.35c0.13,0.17,0.08,0.35,0.04,0.53C555.16,358.71,555.12,358.54,555.16,358.35"/>
		<path class="st3" d="M555.29,359.8c0.09,0.14,0.14,0.3,0.08,0.47C555.28,360.12,555.29,359.96,555.29,359.8"/>
		<path class="st3" d="M557.67,353.95c-0.16,0.05-0.27-0.04-0.36-0.14C557.43,353.84,557.57,353.86,557.67,353.95"/>
		<path class="st4" d="M559.25,354.5c-0.16,0.09-0.26-0.02-0.36-0.13C559.02,354.38,559.14,354.43,559.25,354.5"/>
		<path class="st3" d="M557.31,353.82c-0.14,0.07-0.23-0.01-0.32-0.1C557.12,353.7,557.21,353.76,557.31,353.82"/>
		<path class="st3" d="M555.36,360.35c0.09,0.11,0.19,0.21,0.05,0.34C555.36,360.59,555.34,360.47,555.36,360.35"/>
		<path class="st3" d="M561.22,355.27c-0.14,0.08-0.2-0.02-0.27-0.11C561.05,355.17,561.14,355.2,561.22,355.27"/>
		<path class="st4" d="M559.47,354.57c-0.11,0.1-0.18,0.05-0.22-0.07C559.32,354.53,559.39,354.55,559.47,354.57"/>
		<path class="st3" d="M560.96,355.16c-0.12,0.09-0.16-0.02-0.22-0.09C560.81,355.1,560.88,355.13,560.96,355.16"/>
		<path class="st3" d="M572.48,366.48c-0.12-0.07-0.04-0.16-0.02-0.24C572.53,366.31,572.53,366.39,572.48,366.48"/>
		<path class="st3" d="M557.77,354.01c-0.04-0.02-0.12,0.02-0.09-0.07C557.73,353.93,557.76,353.95,557.77,354.01"/>
		<path class="st3" d="M562.89,373.74c-0.06-0.03-0.12-0.06-0.18-0.08v-0.01c0.07,0.01,0.13,0.02,0.19,0.03
			C562.89,373.69,562.89,373.71,562.89,373.74"/>
		<path class="st4" d="M555.33,359.5c-0.02,0.02-0.05,0.04-0.08,0.06c0-0.04-0.01-0.08-0.01-0.12c0.02,0,0.04,0,0.06,0.01
			C555.31,359.47,555.32,359.48,555.33,359.5L555.33,359.5z"/>
		<path class="st3" d="M563.02,373.77c-0.04-0.01-0.09-0.02-0.13-0.03c0-0.03,0-0.04,0.01-0.06c0.06-0.01,0.1,0.02,0.13,0.06
			L563.02,373.77z"/>
		<path class="st4" d="M558.89,354.37c-0.06,0.04-0.09-0.01-0.13-0.04C558.82,354.31,558.86,354.33,558.89,354.37"/>
		<path class="st3" d="M557,353.72c-0.05,0.04-0.07,0-0.09-0.03C556.95,353.66,556.98,353.68,557,353.72"/>
		<path class="st3" d="M555.36,360.26c0.04,0.03,0.04,0.06,0,0.09C555.34,360.32,555.31,360.28,555.36,360.26"/>
		<path class="st4" d="M559.58,354.66c-0.01-0.01-0.02-0.02-0.03-0.03C559.57,354.63,559.58,354.64,559.58,354.66"/>
		<path class="st4" d="M559.55,354.64c-0.05,0.01-0.07,0-0.08-0.06C559.51,354.58,559.54,354.59,559.55,354.64"/>
		<path class="st3" d="M572.14,369.27c-0.06-0.04-0.06-0.08,0.02-0.09C572.18,369.21,572.16,369.24,572.14,369.27"/>
		<path class="st3" d="M555.31,353.46c0.01,0.04,0.02,0.07-0.01,0.1C555.26,353.53,555.27,353.5,555.31,353.46"/>
		<path class="st3" d="M569.79,372.75c0.06-0.03,0.09,0.02,0.13,0.05C569.87,372.83,569.83,372.8,569.79,372.75"/>
		<path class="st4" d="M563.03,373.74c-0.04-0.04-0.08-0.07-0.13-0.07c-0.06-0.01-0.12-0.02-0.18-0.03
			c-0.62-0.46-1.24-0.93-1.86-1.39c-0.51-0.38-1.03-0.76-1.55-1.13c-0.23-0.16-0.32-0.42-0.4-0.65c-0.36-0.9-0.71-1.81-1.05-2.71
			c0.22-0.31,0.14-0.67,0.18-1c0.1-0.87,0.13-1.74,0.2-2.61c0.01-0.21-0.13-0.37-0.16-0.56c-0.26-1.57-0.54-3.14-0.82-4.71
			c-0.06-0.35-0.18-0.69-0.1-1.06c0.53,0.45,1.07,0.9,1.6,1.35c0.97,0.81,1.94,1.62,2.9,2.42c0.04,0.02,0.08,0.04,0.11,0.07
			c-0.09,0.07-0.07,0.17-0.08,0.27c-0.06,0.4-0.12,0.81-0.15,1.22c-0.05,0.82-0.16,1.64-0.24,2.47c-0.02,0.17,0.05,0.29,0.19,0.37
			c-0.1,0.08-0.07,0.2-0.07,0.3c0.07,1.09,0.18,2.16,0.25,3.25c0.03,0.36,0.23,0.52,0.55,0.63c0.82,0.31,1.62,0.64,2.43,0.96
			c0.43,0.17,0.86,0.33,1.3,0.5c0.02,0.03,0.04,0.06,0.07,0.09c0.01,0.67,0.14,1.33,0.21,1.98c0.03,0.37,0.04,0.39-0.3,0.34
			c-0.84-0.12-1.69-0.24-2.52-0.35C563.25,373.68,563.14,373.69,563.03,373.74"/>
		<path class="st3" d="M561.49,366c-0.14-0.09-0.21-0.2-0.19-0.37c0.09-0.82,0.2-1.64,0.25-2.47c0.02-0.41,0.08-0.81,0.13-1.22
			c0.01-0.09,0-0.2,0.09-0.27c1.33,0.34,2.66,0.68,3.98,1.02c0.02,0.03,0.04,0.06,0.07,0.09c-0.01,0.05-0.03,0.11-0.03,0.15
			c0.03,1.45,0.05,2.89,0.08,4.34l-0.02,0.01l-0.01,0.02C564.38,366.88,562.93,366.43,561.49,366"/>
		<path class="st5" d="M565.87,367.29c-0.03-1.45-0.06-2.9-0.08-4.35c0-0.05,0.02-0.1,0.03-0.15c0.25,0.17,0.54,0.24,0.81,0.35
			c0.53,0.21,1.05,0.43,1.58,0.63c0.49,0.19,0.98,0.36,1.47,0.53c0.18,1.37,0.36,2.74,0.5,4.12c0.03,0.29-0.07,0.28-0.29,0.2
			C568.55,368.17,567.21,367.73,565.87,367.29"/>
		<path class="st2" d="M561.49,366c1.45,0.43,2.89,0.88,4.35,1.32c-0.07,0.47,0.01,0.94,0.03,1.41c0.04,0.86,0.09,1.72,0.13,2.58
			c0.01,0.1,0.04,0.24-0.06,0.33c-0.43-0.16-0.86-0.32-1.3-0.49c-0.81-0.32-1.61-0.65-2.43-0.96c-0.31-0.12-0.52-0.26-0.54-0.63
			c-0.07-1.09-0.17-2.16-0.25-3.25C561.4,366.2,561.37,366.08,561.49,366"/>
		<path class="st6" d="M569.68,364.31c-0.49-0.18-0.98-0.35-1.46-0.53c-0.54-0.2-1.06-0.42-1.58-0.63
			c-0.28-0.11-0.57-0.18-0.82-0.35c-0.03-0.04-0.04-0.07-0.06-0.09c0-0.04,0.01-0.09,0.01-0.12c-0.16-1.03-0.33-2.07-0.49-3.11
			c-0.02-0.09-0.06-0.18-0.12-0.26c0.47,0.05,0.91,0.26,1.36,0.37c0.7,0.18,1.36,0.43,2.08,0.56c0.09,0.04,0.16,0.08,0.19,0.18
			l0.95,3.94C569.71,364.28,569.7,364.29,569.68,364.31"/>
		<path class="st2" d="M569.73,364.27l-0.95-3.94c0.82,0.67,1.65,1.33,2.47,2c0.09,0.07,0.18,0.13,0.2,0.24
			c0.3,1.04,0.59,2.1,0.89,3.14c0,0.03-0.01,0.07-0.01,0.09c-0.04,0.03-0.09,0.04-0.15,0.02
			C571.34,365.31,570.53,364.81,569.73,364.27"/>
		<path class="st1" d="M561.66,361.6c-0.96-0.81-1.93-1.62-2.9-2.42c-0.53-0.44-1.06-0.9-1.6-1.35c-0.24-0.42-0.35-0.9-0.55-1.33
			c-0.31-0.72-0.59-1.46-0.81-2.2c-0.02-0.05-0.06-0.09-0.09-0.14c0.01-0.31-0.27-0.56-0.23-0.89c0.16,0.21,0.42,0.29,0.63,0.44
			c1.12,0.79,2.26,1.57,3.38,2.37c0.04,0.03,0.07,0.08,0.11,0.12c0.45,1.15,0.9,2.29,1.33,3.44
			C561.19,360.28,561.49,360.91,561.66,361.6"/>
		<path class="st7" d="M561.66,361.6c-0.17-0.69-0.47-1.32-0.72-1.97c-0.43-1.15-0.88-2.29-1.33-3.44c0.66,0.28,1.26,0.66,1.88,1
			c1.23,0.66,2.44,1.35,3.66,2.02c0.06,0.08,0.1,0.16,0.12,0.26c0.16,1.04,0.33,2.07,0.49,3.1c0.01,0.04,0,0.09-0.01,0.13
			c-1.32-0.35-2.66-0.69-3.98-1.02C561.73,361.65,561.7,361.62,561.66,361.6"/>
		<path class="st2" d="M555.33,359.51c-0.01-0.02-0.02-0.04-0.03-0.06C555.34,359.44,555.36,359.46,555.33,359.51"/>
	</g>
</g>
</svg>
